<?xml version="1.0" encoding="utf-8"?>
<!-- Generator: Adobe Illustrator 16.0.0, SVG Export Plug-In . SVG Version: 6.00 Build 0)  -->
<!DOCTYPE svg PUBLIC "-//W3C//DTD SVG 1.1 Tiny//EN" "http://www.w3.org/Graphics/SVG/1.1/DTD/svg11-tiny.dtd">
<svg version="1.1" baseProfile="tiny" id="Layer_1" xmlns="http://www.w3.org/2000/svg" xmlns:xlink="http://www.w3.org/1999/xlink"
	 x="0px" y="0px" width="475.356px" height="239px" viewBox="0 0 475.356 239" xml:space="preserve">
<rect fill="#2D3368" width="475.356" height="239"/>
<g>
	<path fill="#FFFFFF" d="M175.1,26.56c3.457,0,5.187,1.531,5.187,4.588c0,4.389-2.962,11.604-8.877,21.645
		c-5.918,10.042-9.545,15.328-10.872,15.859h-0.597c-0.399,0-0.898-0.2-1.498-0.6c-0.597-0.399-0.897-0.797-0.897-1.196
		c0-1.328,0.964-6.284,2.893-14.862c1.926-8.577,3.757-15.391,5.486-20.447c0.398-1.063,1.595-2.16,3.592-3.291
		C171.51,27.128,173.371,26.56,175.1,26.56"/>
	<path fill="#FFFFFF" d="M209.988,89.003c-7.513-8.846-17.455-13.265-29.824-13.265c-11.171,0-20.811,4.32-28.926,12.967
		c-8.107,8.642-12.166,19.349-12.166,32.116c0,2.947,0.24,5.798,0.719,8.555c-2.787-2.691-5.818-5.647-9.117-8.893
		c-8.244-8.108-14.893-14.429-19.947-18.949c-0.665-0.667-1.463-0.998-2.396-0.998c-0.928,0-2.193,0.265-3.79,0.797l-49.272,39.698
		c-0.797-0.131-1.426-3.394-1.895-9.775c-0.465-6.383-0.697-57.149-0.697-63.4v-6.583c0-9.045,0.731-15.091,2.193-18.156
		c2.395-4.917,7.516-8.374,15.36-10.37c0.932-0.131,1.396-1.064,1.396-2.795c0-1.595-0.33-2.724-0.997-3.391
		c-1.063,0.27-4.888,1.133-11.471,2.594c-6.583,1.464-11.8,2.462-15.659,2.994c0,7.45,0.269,19.748,0.798,36.901
		c0.532,17.158,0.798,73.178,0.798,79.163c0,8.911-0.131,16.625-0.399,23.14c0.533,0.533,1.664,0.799,3.393,0.799
		c1.862,0,2.792-0.266,2.792-0.799c0-0.663,1.132-2.493,3.391-5.485c2.264-2.992,4.124-5.087,5.586-6.284
		c32.185-25.934,49.406-39.629,51.666-41.095c0.667-0.528,1.331-0.597,1.995-0.196c0,0,36.781,33.304,36.802,33.324
		c3.278,3.069,4.241,3.855,7.149,6.138c0,0,1.256,0.977,1.987,1.43c6.218,3.979,12.979,5.724,21.307,5.724
		c11.171,0,20.715-4.188,28.625-12.565c7.914-8.379,11.87-19.086,11.87-32.118C221.259,108.254,217.504,97.846,209.988,89.003
		 M197.421,144.858c-4.987,8.179-11.671,12.269-20.049,12.269c-6.782,0-12.134-3.191-16.06-9.575
		c-3.921-6.384-5.884-13.832-5.884-22.342c0-11.439,2.563-21.246,7.68-29.423c5.123-8.179,12.004-12.269,20.648-12.269
		c6.78,0,12.003,3.158,15.657,9.476c3.66,6.314,5.486,13.796,5.486,22.441C204.9,126.871,202.407,136.681,197.421,144.858"/>
	<path fill="#FFFFFF" d="M424.528,97.239c-7.806-12.585-19.596-18.799-35.05-18.32c-17.686,0.477-31.545,8.283-41.582,23.578
		c-0.981,1.456-1.89,2.936-2.757,4.431v-11.26c-1.597-2.26-3.257-3.391-4.987-3.391c-0.929,0-2.823,0.866-5.686,2.594
		c-2.856,1.729-4.288,3.259-4.288,4.588c0.135,4.655,1.294,10.3,1.199,14.954c-0.342,16.939-1.862,22.55-6.783,22.55
		c-2.813,0-4.719-0.251-5.817-0.729c-0.896-4.727-2.51-9.758-4.594-14.463c-2.326-5.252-5.287-10.14-8.878-14.663
		c-3.591-4.518-8.044-8.21-13.364-11.07c-5.318-2.859-10.904-4.289-16.757-4.289c-11.835,0-22.243,3.326-31.221,9.974
		c-8.975,6.652-13.464,14.298-13.464,22.94c0,9.045,4.588,15.527,13.765,19.449c9.176,3.925,23.938,5.885,44.284,5.885h17.356v1.595
		c0,9.976-2.261,17.856-6.783,23.64c-4.52,5.785-10.902,8.678-19.149,8.678c-9.975,0-19.151-4.653-27.529-13.964
		c-8.378-9.308-12.898-17.952-13.565-25.932c-2.26,0-4.221,2.029-5.885,6.083c-1.661,4.059-2.493,7.749-2.493,11.072
		c0,5.983,4.956,13.064,14.861,21.245c9.909,8.178,19.983,12.267,30.222,12.267c11.57,0,21.379-4.453,29.424-13.365
		c8.049-8.907,12.732-19.349,14.064-31.318l25.267-0.181l86.563,0.156c0.591-14.205,0.908-20.977,0.951-20.467
		C431.824,115.919,429.438,105.159,424.528,97.239 M285.441,138.447c-4.92,0.079-10.488,0.115-13.748-0.02
		c-3.257-0.13-7.014-0.499-11.271-1.096c-4.255-0.6-7.612-1.563-10.074-2.893c-2.459-1.33-4.588-3.259-6.385-5.786
		c-1.795-2.524-2.692-5.65-2.692-9.375c0-4.653,2.562-8.544,7.681-11.669c5.121-3.124,11.339-4.689,18.651-4.689
		c5.586,0,10.641,1.031,15.162,3.093c4.521,2.062,8.178,4.821,10.971,8.278c2.793,3.459,5.055,7.117,6.782,10.972
		c1.729,3.858,3.061,8.048,3.988,12.566C298.892,138.201,289.267,138.386,285.441,138.447 M358.89,109.029
		c9.399-10.833,19.596-16.249,30.907-16.249c9.24,0,16.25,3.822,21.19,11.47c3.982,6.532,5.893,14.658,5.893,24.535
		c0,1.279-0.041,2.521-0.111,3.748c-8.472,0.817-57.249,2.423-71.31,3.148C346.322,126.905,350.728,118.115,358.89,109.029"/>
	<path fill="#FFFFFF" d="M431.852,129.507c0,0.08,0.005,0.154,0.005,0.234C431.856,129.616,431.854,129.546,431.852,129.507"/>
	<path fill="#FFFFFF" d="M105.995,165.947c3.457,0,5.187,1.53,5.187,4.588c0,4.389-2.962,11.604-8.877,21.645
		c-5.918,10.042-9.545,15.328-10.872,15.859h-0.597c-0.399,0-0.898-0.2-1.498-0.601c-0.597-0.398-0.898-0.797-0.898-1.195
		c0-1.328,0.965-6.284,2.894-14.862c1.926-8.577,3.757-15.391,5.486-20.447c0.398-1.063,1.595-2.16,3.592-3.291
		C102.405,166.515,104.267,165.947,105.995,165.947"/>
	<path fill="#FFFFFF" d="M85.909,165.947c3.457,0,5.187,1.53,5.187,4.588c0,4.389-2.962,11.604-8.877,21.645
		c-5.918,10.042-9.545,15.328-10.872,15.859H70.75c-0.399,0-0.898-0.2-1.498-0.601c-0.597-0.398-0.898-0.797-0.898-1.195
		c0-1.328,0.965-6.284,2.894-14.862c1.926-8.577,3.757-15.391,5.485-20.447c0.399-1.063,1.596-2.16,3.593-3.291
		C82.319,166.515,84.181,165.947,85.909,165.947"/>
	<path fill="#989479" d="M131.665,170.453c-1.555,0-3.127,0.058-4.715,0.174c-1.587,0.116-2.399,0.272-2.433,0.471l9.877,12.259
		c0.133,0.397,0.198,0.712,0.198,0.943c0,0.23-0.082,0.43-0.248,0.595c-1.125,1.258-2.696,2.912-4.715,4.963
		c-2.018,2.053-3.606,3.706-4.764,4.963c-1.159,1.259-1.737,2.002-1.737,2.233c0,0.365,1.241,0.547,3.722,0.547h3.92
		c3.442,0,5.658-0.199,6.651-0.596c1.854-0.728,3.028-2.035,3.523-3.921c0.066-0.198,0.299-0.297,0.695-0.297
		c0.628,0,1.042,0.099,1.24,0.297c-0.166,0.431-0.422,1.117-0.769,2.06c-0.348,0.943-0.62,1.704-0.818,2.283
		c-0.199,0.579-0.415,1.249-0.646,2.01c-0.232,0.761-0.381,1.391-0.447,1.886c-1.886,0-4.896-0.05-9.032-0.148
		s-6.916-0.149-8.338-0.149l-5.856,0.248c-0.133-0.132-0.198-0.429-0.198-0.893c0-0.463,0.065-0.728,0.198-0.794
		c0.628-0.298,1.439-0.977,2.433-2.035l10.769-11.961c0.101-0.165,0.082-0.33-0.049-0.496c-0.364-0.563-3.772-4.847-10.224-12.854
		c-0.299-0.363-0.819-0.826-1.564-1.39c-0.744-0.562-1.199-0.844-1.364-0.844c-0.133,0-0.198-0.231-0.198-0.694
		c0-0.43,0.065-0.712,0.198-0.844c1.62,0.066,3.54,0.099,5.758,0.099c1.488,0,4.366-0.065,8.636-0.198
		c4.268-0.132,7.327-0.198,9.181-0.198c0.132,0.96,0.38,2.258,0.745,3.896c0.363,1.639,0.578,2.589,0.646,2.854
		c-0.166,0.166-0.447,0.248-0.845,0.248c-0.43,0-0.663-0.116-0.694-0.349c-0.497-1.95-1.357-3.226-2.58-3.82
		c-0.764-0.364-2.268-0.546-4.518-0.546H131.665z"/>
	<path fill="#989479" d="M156.232,179.337c3.076,0,5.574,1.092,7.493,3.274c1.918,2.185,2.878,4.749,2.878,7.693
		c0,3.176-1.009,5.84-3.026,7.99c-2.02,2.15-4.417,3.226-7.196,3.226c-3.078,0-5.551-1.099-7.42-3.3
		c-1.87-2.2-2.804-4.789-2.804-7.767c0-3.242,0.983-5.906,2.953-7.991C151.078,180.379,153.452,179.337,156.232,179.337
		 M162.535,189.213c0-2.117-0.489-3.97-1.464-5.559c-0.978-1.589-2.309-2.383-3.996-2.383c-2.084,0-3.747,1.019-4.987,3.054
		c-1.241,2.033-1.862,4.475-1.862,7.319c0,2.151,0.455,4.012,1.365,5.583c0.91,1.572,2.209,2.358,3.896,2.358
		c2.15,0,3.862-1.019,5.137-3.054C161.897,194.499,162.535,192.059,162.535,189.213"/>
	<path fill="#989479" d="M184.521,201.67c0.065,1.754,0.215,3.723,0.447,5.905c0.23,2.185,0.445,3.524,0.645,4.021
		c-0.397,0.563-0.811,0.844-1.241,0.844c-0.265,0-0.827-0.215-1.687-0.645c-0.861-0.431-1.291-0.812-1.291-1.143v-8.933
		c-2.979-0.331-5.575-1.496-7.791-3.499c-2.218-2.001-3.326-4.442-3.326-7.32c0-2.548,1.018-5.054,3.052-7.519
		c2.035-2.464,3.797-3.698,5.286-3.698c0.827,0,1.745,0.208,2.755,0.621c1.008,0.414,1.513,0.901,1.513,1.464
		c-1.984,0.166-4.136,1.29-6.45,3.375c-2.317,2.084-3.476,4.367-3.476,6.849c0,2.053,0.721,3.641,2.159,4.765
		c1.439,1.125,3.4,1.688,5.882,1.688h0.396v-4.317c0-5.063,0.487-8.735,1.465-11.019c0.975-2.283,2.588-3.425,4.838-3.425
		c2.15,0,4.053,1.117,5.708,3.35c1.654,2.234,2.481,4.823,2.481,7.769c0,1.456-0.356,2.845-1.067,4.169
		c-0.711,1.323-1.63,2.431-2.754,3.324c-1.125,0.894-2.341,1.631-3.648,2.209C187.11,201.082,185.812,201.472,184.521,201.67
		 M184.422,198.097c1.124-0.231,2.166-0.563,3.126-0.993c0.959-0.429,1.869-0.992,2.73-1.687c0.86-0.695,1.547-1.605,2.06-2.729
		c0.514-1.125,0.77-2.383,0.77-3.772c0-1.819-0.389-3.366-1.166-4.641c-0.778-1.272-1.746-1.911-2.904-1.911
		c-0.926,0-1.704,0.225-2.332,0.67c-0.629,0.447-1.108,0.978-1.439,1.589c-0.331,0.612-0.57,1.447-0.72,2.507
		c-0.148,1.059-0.24,1.993-0.272,2.804c-0.034,0.811-0.034,1.829,0,3.052C184.273,193.052,184.323,194.756,184.422,198.097"/>
	<path fill="#989479" d="M205.167,167.624c0.86,0,1.29,0.381,1.29,1.141c0,1.092-0.737,2.887-2.208,5.385
		c-1.473,2.499-2.375,3.814-2.705,3.946h-0.148c-0.1,0-0.224-0.05-0.372-0.148c-0.149-0.1-0.225-0.199-0.225-0.299
		c0-0.33,0.24-1.563,0.721-3.696c0.479-2.135,0.935-3.83,1.364-5.087c0.1-0.266,0.397-0.538,0.895-0.819
		C204.274,167.765,204.737,167.624,205.167,167.624 M204.919,201.272c-1.125,0-1.994-0.429-2.605-1.29
		c-0.612-0.859-0.918-1.951-0.918-3.275v-16.229c0.396-0.562,0.81-0.844,1.24-0.844c0.231,0,0.702,0.216,1.414,0.646
		c0.711,0.43,1.067,0.811,1.067,1.141c-0.033,1.158-0.099,3.417-0.198,6.775c-0.099,3.357-0.166,5.996-0.198,7.915
		c-0.033,1.357,0.562,2.034,1.786,2.034c0.827,0,1.357-0.082,1.588-0.248c0.231,0.166,0.349,0.447,0.349,0.845
		c0,0.298-0.391,0.794-1.167,1.488C206.499,200.926,205.713,201.272,204.919,201.272"/>
	<path fill="#989479" d="M225.863,194.077c0.198,1.356,0.496,2.274,0.893,2.754c0.397,0.479,0.943,0.72,1.639,0.72
		c0.761,0,1.555-0.281,2.382-0.844s1.323-1.025,1.489-1.39c0.164,0.066,0.313,0.231,0.445,0.497
		c0.132,0.265,0.199,0.479,0.199,0.645c0,0.529-0.389,1.464-1.166,2.804c-0.778,1.34-1.696,2.011-2.755,2.011
		c-1.026,0-1.985-0.563-2.878-1.688c-0.895-1.125-1.407-2.316-1.539-3.574c-1.324,1.887-2.531,3.284-3.623,4.194
		s-2.35,1.365-3.771,1.365c-2.019,0-3.632-0.729-4.84-2.185s-1.811-3.572-1.811-6.353c0-0.992,0.174-2.208,0.521-3.648
		c0.348-1.438,0.86-2.928,1.539-4.466c0.678-1.539,1.62-2.837,2.829-3.896c1.207-1.06,2.555-1.589,4.044-1.589
		c1.357,0,2.705,0.77,4.045,2.308c1.34,1.539,2.011,3.384,2.011,5.534c0.396-0.959,0.785-1.969,1.166-3.027s0.735-2.043,1.067-2.953
		c0.33-0.91,0.546-1.514,0.646-1.812c0.496,0,1.083,0.291,1.762,0.869c0.678,0.578,1.017,1.183,1.017,1.811
		c0,1.191-0.629,3.111-1.886,5.757c-0.364,0.729-0.827,1.606-1.39,2.631c-0.563,1.026-1.042,1.869-1.439,2.531L225.863,194.077z
		 M220.006,182.761c-1.024,0-2.06,0.695-3.102,2.085s-1.878,3.069-2.506,5.037c-0.629,1.969-0.943,3.813-0.943,5.534
		c0,1.422,0.239,2.473,0.72,3.151c0.479,0.679,1.1,1.018,1.861,1.018c1.555,0,3.267-1.282,5.136-3.847
		c1.87-2.564,2.806-4.393,2.806-5.484c0-2.117-0.349-3.896-1.043-5.335C222.24,183.481,221.265,182.761,220.006,182.761"/>
</g>
</svg>
