<?xml version="1.0" encoding="utf-8"?>
<!-- Generator: Adobe Illustrator 16.0.0, SVG Export Plug-In . SVG Version: 6.00 Build 0)  -->
<!DOCTYPE svg PUBLIC "-//W3C//DTD SVG 1.1//EN" "http://www.w3.org/Graphics/SVG/1.1/DTD/svg11.dtd">
<svg version="1.1" id="Layer_1" xmlns="http://www.w3.org/2000/svg" xmlns:xlink="http://www.w3.org/1999/xlink" x="0px" y="0px"
	 width="688px" height="68px" viewBox="0 0 688 68" enable-background="new 0 0 688 68" xml:space="preserve">
<path fill="#F8E6E6" d="M63.979,51.563c0,0-8.313,1.188-8.313,5.625s8.5,5.563,8.5,5.563s281.419,0.166,282.919,0
	s8.083-0.667,8-5.417s-8.5-5.417-8.5-5.417s-16.25,0-18.25,0s-5.406-1.558-5.406-1.558c-2.997-1.248-4.994-3.247-4.994-5.495
	c0-3.744,5.62-6.869,12.485-6.869h19.357c6.867,0,12.487-3.87,12.487-8.489v-2.248c0-4.745-5.62-8.491-12.487-8.491H53.45
	c-6.869,0-12.488,3.871-12.488,8.491v2.248c0,4.745,5.619,8.489,12.488,8.489h43.956c6.868,0,12.487,3.125,12.487,6.869
	c0,2.248-1.998,4.247-4.995,5.495L63.979,51.563z"/>
</svg>
