<?xml version="1.0" encoding="utf-8"?>
<!-- Generator: Adobe Illustrator 16.0.0, SVG Export Plug-In . SVG Version: 6.00 Build 0)  -->
<!DOCTYPE svg PUBLIC "-//W3C//DTD SVG 1.1//EN" "http://www.w3.org/Graphics/SVG/1.1/DTD/svg11.dtd">
<svg version="1.1" id="Layer_1" class="icon" xmlns="http://www.w3.org/2000/svg" xmlns:xlink="http://www.w3.org/1999/xlink" x="0px" y="0px"
	 width="435.997px" height="512px" viewBox="0 0 435.997 512" enable-background="new 0 0 435.997 512" xml:space="preserve">
<g id="surface1" display="none">
	<path display="inline" d="M217.997,158.457c-53.793,0-97.555,43.762-97.555,97.551c0,53.793,43.762,97.555,97.555,97.555
		c53.789,0,97.551-43.762,97.551-97.555C315.548,202.219,271.785,158.457,217.997,158.457z M275.914,237.637l-69.886,69.887
		c-2.934,2.934-6.781,4.402-10.625,4.402s-7.688-1.465-10.621-4.402l-26.707-26.707c-5.867-5.863-5.867-15.375,0-21.242
		c5.863-5.867,15.375-5.867,21.242,0l16.086,16.086l59.27-59.266c5.863-5.867,15.375-5.867,21.242,0
		C281.781,222.258,281.781,231.77,275.914,237.637z"/>
	<path display="inline" d="M435.489,138.918l-0.016-0.398c-0.223-4.918-0.371-10.121-0.461-15.91
		c-0.418-28.23-22.859-51.582-51.094-53.16c-58.867-3.285-104.407-22.48-143.317-60.406l-0.332-0.316
		c-12.691-11.637-31.836-11.637-44.531,0l-0.332,0.316c-38.91,37.926-84.449,57.121-143.316,60.41
		c-28.23,1.574-50.676,24.926-51.094,53.16c-0.086,5.75-0.238,10.953-0.461,15.906l-0.023,0.926
		c-1.145,60.027-2.566,134.734,22.426,202.543c13.742,37.289,34.555,69.703,61.855,96.348
		c31.094,30.344,71.82,54.434,121.047,71.598c1.602,0.559,3.266,1.012,4.961,1.352c2.391,0.477,4.797,0.715,7.203,0.715
		s4.816-0.238,7.203-0.715c1.695-0.34,3.371-0.797,4.98-1.359c49.167-17.195,89.852-41.297,120.918-71.637
		c27.289-26.652,48.102-59.074,61.855-96.371C438.048,273.906,436.63,199.059,435.489,138.918z M217.997,383.605
		c-70.359,0-127.598-57.238-127.598-127.598S147.637,128.41,217.997,128.41c70.355,0,127.598,57.238,127.598,127.598
		S288.352,383.605,217.997,383.605z"/>
</g>
<path fill="#5479F0" d="M399.309,192.001h-31.991V149.35C367.317,67.006,300.329,0,218.008,0C135.669,0,68.68,67.006,68.68,149.35
	v42.651H36.689c-5.896,0-10.66,4.786-10.66,10.677v266.664c0,23.537,19.142,42.674,42.651,42.674h298.637
	c23.531,0,42.65-19.137,42.65-42.674V202.678C409.968,196.787,405.203,192.001,399.309,192.001L399.309,192.001z M249.936,414.838
	c0.329,3.002-0.631,6.025-2.651,8.289c-2.023,2.264-4.917,3.547-7.964,3.547h-42.65c-3.02,0-5.936-1.283-7.937-3.547
	c-2.024-2.264-3.001-5.287-2.673-8.289l6.738-60.523c-10.939-7.936-17.459-20.514-17.459-34.299
	c0-23.531,19.137-42.674,42.668-42.674c23.513,0,42.649,19.143,42.649,42.674c0,13.785-6.521,26.363-17.441,34.299L249.936,414.838
	L249.936,414.838z M303.331,192.001H132.69V149.35c0-47.066,38.278-85.345,85.317-85.345c47.045,0,85.323,38.278,85.323,85.345
	V192.001L303.331,192.001z"/>
</svg>
