<?xml version="1.0" encoding="utf-8"?>
<!-- Generator: Adobe Illustrator 16.0.0, SVG Export Plug-In . SVG Version: 6.00 Build 0)  -->
<!DOCTYPE svg PUBLIC "-//W3C//DTD SVG 1.1//EN" "http://www.w3.org/Graphics/SVG/1.1/DTD/svg11.dtd">
<svg version="1.1" id="Layer_1" xmlns="http://www.w3.org/2000/svg" xmlns:xlink="http://www.w3.org/1999/xlink" x="0px" y="0px"
	 width="435.997px" height="512px" viewBox="0 0 435.997 512" enable-background="new 0 0 435.997 512" xml:space="preserve">
<g id="surface1" display="none">
	<path display="inline" d="M217.997,158.457c-53.793,0-97.555,43.762-97.555,97.551c0,53.793,43.762,97.555,97.555,97.555
		c53.789,0,97.551-43.762,97.551-97.555C315.548,202.219,271.785,158.457,217.997,158.457z M275.914,237.637l-69.886,69.887
		c-2.934,2.934-6.781,4.402-10.625,4.402s-7.688-1.465-10.621-4.402l-26.707-26.707c-5.867-5.863-5.867-15.375,0-21.242
		c5.863-5.867,15.375-5.867,21.242,0l16.086,16.086l59.27-59.266c5.863-5.867,15.375-5.867,21.242,0
		C281.781,222.258,281.781,231.77,275.914,237.637z"/>
	<path display="inline" d="M435.489,138.918l-0.016-0.398c-0.223-4.918-0.371-10.121-0.461-15.91
		c-0.418-28.23-22.859-51.582-51.094-53.16c-58.867-3.285-104.407-22.48-143.317-60.406l-0.332-0.316
		c-12.691-11.637-31.836-11.637-44.531,0l-0.332,0.316c-38.91,37.926-84.449,57.121-143.316,60.41
		c-28.23,1.574-50.676,24.926-51.094,53.16c-0.086,5.75-0.238,10.953-0.461,15.906l-0.023,0.926
		c-1.145,60.027-2.566,134.734,22.426,202.543c13.742,37.289,34.555,69.703,61.855,96.348
		c31.094,30.344,71.82,54.434,121.047,71.598c1.602,0.559,3.266,1.012,4.961,1.352c2.391,0.477,4.797,0.715,7.203,0.715
		s4.816-0.238,7.203-0.715c1.695-0.34,3.371-0.797,4.98-1.359c49.167-17.195,89.852-41.297,120.918-71.637
		c27.289-26.652,48.102-59.074,61.855-96.371C438.048,273.906,436.63,199.059,435.489,138.918z M217.997,383.605
		c-70.359,0-127.598-57.238-127.598-127.598S147.637,128.41,217.997,128.41c70.355,0,127.598,57.238,127.598,127.598
		S288.352,383.605,217.997,383.605z"/>
</g>
<path display="none" fill="#5479F0" d="M399.309,192.001h-31.991V149.35C367.317,67.006,300.329,0,218.008,0
	C135.669,0,68.68,67.006,68.68,149.35v42.651H36.689c-5.896,0-10.66,4.786-10.66,10.677v266.664
	c0,23.537,19.142,42.674,42.651,42.674h298.637c23.531,0,42.65-19.137,42.65-42.674V202.678
	C409.968,196.787,405.203,192.001,399.309,192.001L399.309,192.001z M249.936,414.838c0.329,3.002-0.631,6.025-2.651,8.289
	c-2.023,2.264-4.917,3.547-7.964,3.547h-42.65c-3.02,0-5.936-1.283-7.937-3.547c-2.024-2.264-3.001-5.287-2.673-8.289l6.738-60.523
	c-10.939-7.936-17.459-20.514-17.459-34.299c0-23.531,19.137-42.674,42.668-42.674c23.513,0,42.649,19.143,42.649,42.674
	c0,13.785-6.521,26.363-17.441,34.299L249.936,414.838L249.936,414.838z M303.331,192.001H132.69V149.35
	c0-47.066,38.278-85.345,85.317-85.345c47.045,0,85.323,38.278,85.323,85.345V192.001L303.331,192.001z"/>
<path fill="#5479F0" d="M434.049,262.35l-89.531-89.996c-2.914-2.935-7.777-3.899-11.676-1.949
	c-3.899,1.949-6.813,5.872-6.813,9.771v60.655c-29.2,0-53.528,4.892-73.978,14.662v-110.53h56.453c4.872,0,8.773-2.918,9.735-6.841
	c1.95-3.92,0.964-8.807-1.949-11.742l-89.528-89.979c-1.95-1.972-4.863-2.936-7.777-2.936c-2.937,0-5.86,0.964-7.81,2.936
	l-90.484,89.979c-2.913,2.935-3.898,7.821-1.949,11.742c1.949,3.922,5.827,6.841,9.727,6.841h57.427v109.566
	c-20.45-9.776-44.777-14.684-74.942-14.684v-60.632c0-4.887-2.935-8.809-6.813-9.794c-3.899-1.95-8.762-0.964-11.676,1.973
	L2.934,261.388c-1.949,1.95-2.935,4.885-2.935,7.826c0,2.914,0.985,5.849,2.935,7.822l89.531,89.983
	c2.914,2.935,7.776,3.923,11.676,1.973c3.878-1.973,6.813-5.871,6.813-9.793v-50.873c55.469,0,73.957,18.585,73.957,75.322v60.643
	c0,18.602,14.611,33.259,32.126,34.244h1.949c17.513-0.985,32.103-15.643,32.103-34.244v-60.643
	c0-56.737,17.515-75.322,73.967-75.322v50.873c0,4.886,2.924,8.806,6.823,9.793c3.878,1.95,8.74,0.962,11.676-1.973l89.531-89.983
	c1.949-1.974,2.913-4.908,2.913-7.822C435.998,266.272,435.998,264.303,434.049,262.35L434.049,262.35z"/>
</svg>
