<?xml version="1.0" encoding="utf-8"?>
<!-- Generator: Adobe Illustrator 16.0.0, SVG Export Plug-In . SVG Version: 6.00 Build 0)  -->
<!DOCTYPE svg PUBLIC "-//W3C//DTD SVG 1.1//EN" "http://www.w3.org/Graphics/SVG/1.1/DTD/svg11.dtd">
<svg version="1.1" id="Layer_1" xmlns="http://www.w3.org/2000/svg" xmlns:xlink="http://www.w3.org/1999/xlink" x="0px" y="0px"
	 width="436px" height="512px" viewBox="0 0 436 512" enable-background="new 0 0 436 512" xml:space="preserve">
<g display="none">
	<path display="inline" d="M205.227,432.045v-92.688c-23.211,0.885-46.201,4.158-68.075,9.584
		c3.523,8.512,7.378,16.664,11.553,24.36C165.366,404.007,186.073,425.229,205.227,432.045z"/>
	<path display="inline" d="M287.296,373.305c4.175-7.695,8.03-15.852,11.554-24.363c-21.875-5.426-44.863-8.697-68.076-9.584v92.688
		C249.927,425.229,270.634,404.007,287.296,373.305z"/>
	<path display="inline" d="M205.227,313.794v-85h-93.152c1.164,33.185,6.826,66.177,16.306,96.044
		C153.059,318.508,179.044,314.727,205.227,313.794z"/>
	<path display="inline" d="M205.227,203.25v-85c-26.182-0.932-52.167-4.714-76.847-11.041c-9.48,29.868-15.142,62.856-16.306,96.04
		L205.227,203.25L205.227,203.25z"/>
	<path display="inline" d="M323.554,75.899c15.538-5.239,30.27-11.616,43.813-19.03c-23.784-22.337-52.556-39.428-84.448-49.377
		c9.554,10.794,18.592,23.887,26.828,39.065C314.806,55.874,319.409,65.687,323.554,75.899z"/>
	<path display="inline" d="M148.704,58.741c-4.175,7.697-8.03,15.851-11.553,24.363c21.875,5.425,44.863,8.698,68.076,9.583V0
		C186.073,6.816,165.366,28.039,148.704,58.741z"/>
	<path display="inline" d="M230.773,228.794v85c26.186,0.935,52.168,4.714,76.847,11.044c9.479-29.867,15.142-62.859,16.31-96.044
		H230.773z"/>
	<path display="inline" d="M230.773,118.251v85h93.151c-1.165-33.184-6.826-66.172-16.307-96.04
		C282.941,113.537,256.959,117.319,230.773,118.251z"/>
	<path display="inline" d="M103.788,332.143C93.576,299.99,87.642,264.8,86.5,228.794H0c2.797,48.267,21.339,92.371,50.555,127.252
		C66.828,346.604,84.767,338.586,103.788,332.143z"/>
	<path display="inline" d="M323.554,356.146c-4.146,10.211-8.752,20.022-13.808,29.345c-8.236,15.179-17.273,28.269-26.828,39.063
		c31.895-9.947,60.664-27.04,84.451-49.377C353.821,367.762,339.092,361.385,323.554,356.146z"/>
	<path display="inline" d="M112.446,356.146c-15.538,5.236-30.267,11.613-43.813,19.028c23.784,22.34,52.554,39.428,84.448,49.381
		c-9.55-10.798-18.588-23.888-26.828-39.064C121.195,376.171,116.591,366.357,112.446,356.146z"/>
	<path display="inline" d="M332.213,99.902c10.212,32.153,16.146,67.343,17.287,103.348H436
		c-2.798-48.266-21.339-92.368-50.555-127.249C369.172,85.446,351.233,93.459,332.213,99.902z"/>
	<path display="inline" d="M332.213,332.143c19.021,6.443,36.959,14.457,53.232,23.9c29.216-34.881,47.757-78.984,50.555-127.249
		h-86.5C348.359,264.8,342.425,299.989,332.213,332.143z"/>
	<path display="inline" d="M230.773,0v92.688c23.211-0.885,46.199-4.158,68.074-9.58c-3.521-8.516-7.375-16.669-11.554-24.366
		C270.634,28.039,249.927,6.816,230.773,0z"/>
	<path display="inline" d="M103.788,99.902c-19.021-6.443-36.96-14.457-53.233-23.9C21.335,110.883,2.797,154.988,0,203.25h86.5
		C87.641,167.246,93.575,132.055,103.788,99.902z"/>
	<path display="inline" d="M112.446,75.899c4.148-10.212,8.751-20.025,13.808-29.342c8.236-15.182,17.274-28.271,26.828-39.065
		c-31.894,9.949-60.664,27.041-84.451,49.377C82.179,64.283,96.909,70.66,112.446,75.899z"/>
</g>
<path d="M369.574,132.957c-3.484-5.762-10.379-8.5-16.867-6.691c-6.484,1.809-10.973,7.719-10.973,14.449
	c0,18.309-14.895,33.199-33.199,33.199s-33.199-14.891-33.199-33.199V15c0-6.066-3.656-11.535-9.262-13.855
	c-5.605-2.324-12.055-1.043-16.344,3.25c-1.688,1.684-41.684,41.918-82.207,102.703c-23.898,35.844-42.969,71.398-56.68,105.676
	c-17.367,43.426-26.176,84.996-26.176,123.563C84.668,433.195,163.473,512,260.336,512C357.195,512,436,433.195,436,336.336
	C436.004,274.332,413.652,205.906,369.574,132.957z M360.426,332.434c0,8.285-6.715,15-15,15c-8.281,0-15-6.715-15-15v-28.051
	l-74.688,74.691c-2.816,2.813-6.629,4.391-10.609,4.391c-3.977,0-7.793-1.578-10.605-4.391l-34.836-34.84l-23.477,23.477
	c-5.859,5.859-15.355,5.859-21.215,0s-5.859-15.355,0-21.215l34.086-34.082c5.859-5.855,15.355-5.855,21.215,0.004l34.832,34.836
	l64.086-64.086H281.16c-8.285,0-15-6.715-15-15s6.715-15,15-15h64.27c8.281,0,15,6.719,15,15v64.266H360.426z"/>
</svg>
