<?xml version="1.0" encoding="utf-8"?>
<!-- Generator: Adobe Illustrator 16.0.0, SVG Export Plug-In . SVG Version: 6.00 Build 0)  -->
<!DOCTYPE svg PUBLIC "-//W3C//DTD SVG 1.1//EN" "http://www.w3.org/Graphics/SVG/1.1/DTD/svg11.dtd">
<svg version="1.1" id="Layer_1" xmlns="http://www.w3.org/2000/svg" xmlns:xlink="http://www.w3.org/1999/xlink" x="0px" y="0px"
	 width="435.997px" height="512px" viewBox="0 0 435.997 512" enable-background="new 0 0 435.997 512" xml:space="preserve">
<g id="surface1" display="none">
	<path display="inline" d="M217.997,158.454c-53.793,0-97.555,43.762-97.555,97.551c0,53.793,43.762,97.555,97.555,97.555
		c53.789,0,97.55-43.762,97.55-97.555C315.547,202.216,271.786,158.454,217.997,158.454z M275.915,237.634l-69.887,69.886
		c-2.934,2.935-6.781,4.401-10.625,4.401c-3.844,0-7.688-1.465-10.621-4.401l-26.707-26.707c-5.867-5.862-5.867-15.375,0-21.241
		c5.863-5.867,15.375-5.867,21.242,0l16.086,16.086l59.27-59.266c5.863-5.867,15.375-5.867,21.242,0
		C281.782,222.255,281.782,231.767,275.915,237.634z"/>
	<path display="inline" d="M435.489,138.915l-0.016-0.398c-0.223-4.918-0.371-10.121-0.461-15.91
		c-0.418-28.23-22.859-51.582-51.094-53.16c-58.867-3.285-104.407-22.48-143.317-60.406l-0.332-0.316
		c-12.69-11.637-31.836-11.637-44.531,0l-0.332,0.316c-38.91,37.926-84.449,57.121-143.316,60.41
		c-28.23,1.574-50.676,24.926-51.094,53.16c-0.086,5.75-0.238,10.953-0.461,15.906l-0.023,0.926
		c-1.145,60.027-2.566,134.734,22.426,202.543c13.742,37.288,34.555,69.703,61.855,96.348
		c31.094,30.344,71.82,54.436,121.047,71.598c1.602,0.561,3.266,1.014,4.961,1.354c2.391,0.477,4.797,0.715,7.203,0.715
		c2.407,0,4.816-0.238,7.204-0.715c1.694-0.34,3.371-0.797,4.979-1.359c49.167-17.193,89.853-41.297,120.919-71.637
		c27.289-26.652,48.102-59.074,61.854-96.371C438.047,273.903,436.629,199.056,435.489,138.915z M217.997,383.603
		c-70.359,0-127.598-57.238-127.598-127.6c0-70.36,57.238-127.597,127.598-127.597c70.355,0,127.597,57.238,127.597,127.598
		C345.594,326.365,288.352,383.603,217.997,383.603z"/>
</g>
<path display="none" fill="#5479F0" d="M399.309,191.985h-31.99v-42.651c-0.002-82.344-66.99-149.35-149.311-149.35
	c-82.339,0-149.328,67.006-149.328,149.35v42.651H36.689c-5.896,0-10.66,4.786-10.66,10.677v266.664
	C26.029,492.863,45.171,512,68.68,512h298.637c23.531,0,42.65-19.137,42.65-42.674V202.662
	C409.967,196.771,405.204,191.985,399.309,191.985L399.309,191.985z M249.936,414.822c0.329,3.002-0.631,6.025-2.65,8.289
	c-2.022,2.264-4.918,3.547-7.965,3.547h-42.65c-3.02,0-5.936-1.283-7.937-3.547c-2.024-2.264-3.001-5.287-2.673-8.289l6.738-60.523
	C181.86,346.363,175.34,333.785,175.34,320c0-23.531,19.137-42.674,42.668-42.674c23.513,0,42.649,19.143,42.649,42.674
	c0,13.785-6.521,26.363-17.441,34.299L249.936,414.822L249.936,414.822z M303.331,191.985H132.69v-42.651
	c0-47.066,38.278-85.345,85.317-85.345c47.044,0,85.324,38.278,85.324,85.345V191.985L303.331,191.985z"/>
<path display="none" fill="#5479F0" d="M434.049,295.814l-89.531-89.996c-2.914-2.935-7.777-3.899-11.676-1.949
	c-3.898,1.949-6.813,5.872-6.813,9.771v60.655c-29.201,0-53.529,4.892-73.98,14.662v-110.53h56.453c4.871,0,8.773-2.918,9.734-6.841
	c1.951-3.92,0.965-8.807-1.949-11.742l-89.526-89.979c-1.95-1.972-4.863-2.936-7.777-2.936c-2.937,0-5.86,0.964-7.81,2.936
	l-90.484,89.979c-2.913,2.935-3.898,7.821-1.949,11.742c1.949,3.922,5.827,6.841,9.727,6.841h57.427v109.566
	c-20.45-9.776-44.777-14.685-74.942-14.685v-60.632c0-4.887-2.935-8.809-6.813-9.794c-3.899-1.95-8.762-0.964-11.676,1.973
	l-89.53,89.997c-1.949,1.949-2.935,4.885-2.935,7.825c0,2.914,0.985,5.849,2.935,7.822l89.531,89.983
	c2.914,2.935,7.776,3.922,11.676,1.973c3.878-1.973,6.813-5.871,6.813-9.793v-50.873c55.469,0,73.957,18.585,73.957,75.322v60.643
	c0,18.602,14.611,33.259,32.126,34.244h1.949c17.513-0.985,32.103-15.645,32.103-34.244v-60.643
	c0-56.737,17.517-75.322,73.967-75.322v50.873c0,4.886,2.928,8.806,6.824,9.793c3.877,1.949,8.74,0.962,11.676-1.973l89.531-89.983
	c1.949-1.974,2.912-4.908,2.912-7.822C435.999,299.736,435.999,297.768,434.049,295.814L434.049,295.814z"/>
<path display="none" fill="#5479F0" d="M405.397,473.143h-2.643L412.682,512l-68.344-38.857H165.641
	c-21.105,0-41.645-17.646-41.645-35.137v-6.031h233.702c23.869,0,35.754-17.871,35.754-37.647V267.348h11.945
	c21.076,0,30.602,12.669,30.602,30.158v140.502C435.999,455.519,426.475,473.143,405.397,473.143L405.397,473.143z M322.809,412.354
	H124.232L31.093,465.34l14.541-53.367c-22.344-2.019-45.636-15.157-45.636-33.387V219.451c0-19.776,27.496-40.316,51.382-40.316
	h271.427c23.869,0,45.916,20.54,45.916,40.316v30.405v128.729C368.725,398.362,346.678,412.354,322.809,412.354L322.809,412.354z
	 M92.79,266.047c-13.549,0-24.53,10.604-24.53,23.701c0,13.116,10.981,23.723,24.53,23.723c13.532,0,24.514-10.605,24.514-23.723
	C117.303,276.651,106.322,266.047,92.79,266.047L92.79,266.047z M184.364,266.047c-13.532,0-24.514,10.604-24.514,23.701
	c0,13.116,10.981,23.723,24.514,23.723c13.549,0,24.531-10.605,24.531-23.723C208.895,276.651,197.913,266.047,184.364,266.047
	L184.364,266.047z M275.973,266.047c-13.549,0-24.531,10.604-24.531,23.701c0,13.116,10.982,23.723,24.531,23.723
	c13.51,0,24.514-10.605,24.514-23.723C300.486,276.651,289.482,266.047,275.973,266.047L275.973,266.047z"/>
<g display="none">
	<path display="inline" fill="#5479F0" d="M89.206,456.674c0-6.055,0-11.729,0-17.687c-6.09,0-11.757,0-18.041,0
		c0,24.133,0,48.313,0,72.871c-18.66,0-36.711,0-55.4,0c0-5.198,0-10.306,0-15.412c-0.001-18.18-0.067-36.358,0.012-54.536
		c0.134-30.211,19.913-55.564,49.236-62.7c27.102-6.593,54.292-12.831,81.459-19.149c1.583-0.367,3.532-0.588,4.956-0.006
		c18.213,7.442,37.165,11.617,57.062,12.984c0,27.903,0,55.567,0,83.635C169.024,456.674,129.536,456.674,89.206,456.674z"/>
	<path display="inline" fill="#5479F0" d="M419.725,511.976c-18.193,0-36.111,0-54.441,0c0-24.297,0-48.339,0-72.835
		c-6.197,0-12.002,0-18.441,0c0,5.701,0,11.518,0,17.627c-40.107,0-79.6,0-119.364,0c0-27.928,0-55.592,0-82.422
		c14.304-3.06,28.847-4.488,42.045-9.471c13.022-4.915,24.776-4.294,37.61-0.896c20.861,5.521,41.988,10.037,62.994,15.016
		c29.918,7.091,50.041,32.409,50.113,63.156c0.053,22.77-0.027,45.542-0.064,68.313
		C420.176,510.814,419.975,511.165,419.725,511.976z"/>
	<path display="inline" fill="#5479F0" d="M104.407,68.571c9.87,3.909,18.357,7.27,27.432,10.864
		c2.31-5.77,4.476-11.181,6.792-16.966c-10.474-4.229-20.535-8.293-31.533-12.735c12.009-10.016,23.506-19.604,35.371-29.498
		c10.466,15.67,20.631,30.887,31.124,46.595c5.15-3.422,10.003-6.647,15.267-10.147c-9.871-14.832-19.479-29.269-29.479-44.294
		c16.684-4.172,32.761-8.193,49.286-12.326c0,20.629,0,40.697,0,61.236c6.11,0,11.917,0,18.309,0c0-20.018,0-40.207,0-61.3
		c16.761,4.172,32.772,8.159,49.675,12.367c-9.955,14.959-19.523,29.336-29.459,44.267c5.113,3.431,9.957,6.681,15.221,10.211
		c10.369-15.524,20.549-30.763,31.113-46.579c10.588,8.808,20.959,17.436,32.369,26.928c-9.488,2.013-17.889,3.797-26.789,5.686
		c1.139,5.954,2.199,11.506,3.396,17.781c9.975-1.917,19.617-3.77,30.365-5.835c-3.695,11.186-6.961,21.614-10.764,31.843
		c-0.439,1.189-3.838,1.8-5.865,1.805c-48.24,0.098-96.48,0.076-144.724,0.076c-17.421,0-34.842-0.1-52.261,0.077
		c-3.592,0.036-5.481-0.83-6.547-4.52C110.336,85.907,107.462,77.853,104.407,68.571z"/>
	<path display="inline" fill="#5479F0" d="M135.438,177.907c7.557,3.762,14.457,6.987,21.144,10.606
		c4.296,2.323,8.139,2.362,12.46,0.048c7.717-4.133,15.629-7.9,24.456-12.32c-1.053,4.465-1.856,7.937-2.69,11.401
		c-1.058,4.404,0.073,8.258,3.966,10.469c6.113,3.475,12.529,6.412,19.101,9.719c2.756-5.52,5.301-10.609,8.104-16.22
		c-3.873-2.11-7.481-4.075-11.504-6.267c1.501-6.164,2.813-12.301,4.527-18.323c1.093-3.84,3.534-2.278,5.792-0.92
		c11.806,7.098,23.738,13.986,35.396,21.316c4.867,3.061,9.168,3.568,14.475,1.08c9.644-4.524,19.572-8.439,30.053-12.89
		c-0.122,35.764-4.377,68.947-35.745,91.666c-47.902,34.695-116.741,6.481-126.25-51.848c-1.414-8.677-2.319-17.445-3.226-26.192
		C135.143,185.831,135.438,182.362,135.438,177.907z M187.579,235.943c20.633,6.525,40.48,6.788,60.83-0.142
		c-2.006-5.98-3.808-11.339-5.772-17.196c-16.615,5.351-32.961,5.054-49.305,0.067C191.316,224.722,189.58,229.934,187.579,235.943z
		"/>
	<path display="inline" fill="#5479F0" d="M116.887,117.143c67.672,0,134.615,0,201.904,0c0,10.266,0,20.322,0,30.652
		c-17.138,7.336-34.314,14.791-51.623,21.934c-1.642,0.677-4.398-0.066-6.111-1.06c-11.416-6.621-22.855-13.229-33.938-20.383
		c-5.979-3.861-11.068-4.278-17.496-0.81c-13.932,7.521-28.323,14.185-42.41,21.424c-3.011,1.548-5.316,1.781-8.434,0.164
		c-12.557-6.515-25.232-12.807-37.978-18.946c-3.059-1.472-4.077-3.295-3.989-6.613C117.038,134.917,116.887,126.32,116.887,117.143
		z"/>
	<path display="inline" fill="#5479F0" d="M208.396,512c-39.729,0-79.082,0-118.763,0c0-12.021,0-23.813,0-36.078
		c39.35,0,78.839,0,118.763,0C208.396,487.641,208.396,499.566,208.396,512z"/>
	<path display="inline" fill="#5479F0" d="M346.446,475.848c0,12.223,0,24.015,0,36.098c-39.625,0-78.979,0-118.791,0
		c0-11.839,0-23.768,0-36.098C267.028,475.848,306.518,475.848,346.446,475.848z"/>
	<path display="inline" fill="#5479F0" d="M172.241,318.754c0-9.623,0-18.947,0-29.027c30.519,14.738,60.908,14.928,91.513-0.076
		c0,10.052,0,19.359,0,29.104C233.428,318.754,203.14,318.754,172.241,318.754z"/>
	<path display="inline" fill="#5479F0" d="M208.521,355.17c-14.051-2.695-27.467-5.27-40.924-7.848
		c2.207-9.69,2.207-9.69,10.384-9.69c10.081,0,20.162,0,30.54,0C208.521,343.262,208.521,348.339,208.521,355.17z"/>
	<path display="inline" fill="#5479F0" d="M227.461,355.208c0-6.662,0-11.747,0-17.545c12.11,0,24.1-0.327,36.035,0.328
		c1.965,0.106,3.688,4.532,6.905,8.788C255.174,349.768,241.594,352.434,227.461,355.208z"/>
	<path display="inline" fill="#5479F0" d="M187.579,235.943c2.001-6.009,3.737-11.221,5.752-17.271
		c16.344,4.986,32.689,5.284,49.304-0.067c1.967,5.857,3.769,11.216,5.773,17.196C228.059,242.73,208.212,242.468,187.579,235.943z"
		/>
</g>
<path display="none" fill="#5479F0" d="M230.795,179.887c-28.188,0-51.955-23.759-51.955-51.926
	c0-28.195,23.765-51.949,51.955-51.949c28.188,0,51.09,23.754,51.09,51.949C281.885,156.128,258.984,179.887,230.795,179.887
	L230.795,179.887z M294.676,256.535H166.074c-7.066,0-12.79-5.723-12.79-12.768V231c0-19.711,7.694-37.513,19.946-51.114
	c14.033,15.573,35.009,25.557,57.563,25.557c22.557,0,42.67-9.984,56.703-25.557c12.273,13.602,19.945,31.403,19.945,51.114v12.767
	C307.444,250.813,301.72,256.535,294.676,256.535L294.676,256.535z M111.903,502.351l-16.799,8.332
	c-6.294,3.086-13.966,0.577-17.113-5.739L1.342,351.669c-3.147-6.34-0.583-14.034,5.768-17.181l17-8.422
	c12.622-6.256,27.92-1.108,34.214,11.483l65.103,130.502C129.721,480.714,124.558,496.073,111.903,502.351L111.903,502.351z
	 M430.94,322.964l-74.957,107.278c-14.314,19.175-37.295,30.653-61.307,30.653H169.894h-21.492L75.785,315.314l18.491-16.261
	l0.358,0.304c11.379-8.999,22.601-15.725,39.221-19.583c29.958-6.938,59.536,1.63,79.314,19.431
	c5.028,4.396,8.197,8.422,14.559,8.422c64.183,0,6.942,0,66.948,0c14.045,0,25.535,11.502,25.535,25.552
	c0,14.056-11.49,25.539-25.535,25.539c-15.063,0-34.002,0-51.113,0c-7.156,0-12.768,5.634-12.768,12.784
	c0,7.135,5.611,12.768,12.768,12.768h59.523c4.873,0,14.055-3.063,18.916-8.181l69.84-85.838c8.682-9.447,23.238-10.987,33.723-3.32
	C437.065,295.369,439.362,311.715,430.94,322.964L430.94,322.964z"/>
<path display="none" fill="#5479F0" d="M204.014,348.478H167.83l45.72,91.485c5.345,10.097,3.373,23.146-5.009,31.505l-32.71,32.453
	c-4.975,5.188-11.9,8.079-19.162,8.079c-1.804,0-3.62-0.19-5.446-0.577c-9.211-1.844-16.719-8.208-20.059-16.955l-54.775-145.99
	h-8.27c-7.497,0-13.604-6.106-13.604-13.608v-13.632H13.636c-7.53,0-13.638-6.107-13.638-13.633v-81.729
	c0-7.525,6.107-13.633,13.638-13.633h40.879V198.61c0-7.502,6.107-13.609,13.604-13.609H203.89
	c4.729-0.213,9.402-0.964,14.097-1.396v166.268C213.337,349.446,208.709,348.696,204.014,348.478L204.014,348.478z M433.768,450.872
	c-0.303,0.471-0.549,0.855-0.873,1.288c-1.502,1.928-3.385,3.469-5.705,4.37c-0.088,0.021-0.123,0.129-0.213,0.15
	c-1.523,0.51-3.047,0.79-4.605,0.79c-1.994,0-3.844-0.471-5.557-1.199c-0.404-0.189-0.729-0.536-1.154-0.795
	c-1.244-0.706-2.422-1.541-3.363-2.61c-0.156-0.174-0.324-0.213-0.459-0.343c-42.459-51.598-101.705-86.062-166.586-98.706V179.683
	c64.881-12.646,124.127-47.132,166.586-98.724c0.135-0.112,0.281-0.129,0.395-0.241c1.602-1.799,3.617-3.104,5.982-3.877
	c0.518-0.151,1.008-0.168,1.512-0.28c0.908-0.19,1.717-0.555,2.646-0.555c1.367,0,2.59,0.409,3.811,0.773
	c0.279,0.062,0.516-0.067,0.795,0.017c0.09,0.022,0.125,0.129,0.213,0.151c2.32,0.901,4.203,2.465,5.705,4.376
	c0.336,0.426,0.594,0.813,0.873,1.282c1.313,2.102,2.23,4.416,2.23,7.032v354.202C435.999,446.456,435.081,448.793,433.768,450.872
	L433.768,450.872z"/>
<path fill="#5479F0" d="M230.796,179.887c-28.189,0-51.955-23.759-51.955-51.926c0-28.195,23.765-51.949,51.955-51.949
	c28.188,0,51.09,23.754,51.09,51.949C281.886,156.128,258.984,179.887,230.796,179.887L230.796,179.887z M294.677,256.536H166.075
	c-7.066,0-12.79-5.724-12.79-12.77V231c0-19.711,7.694-37.513,19.946-51.114c14.033,15.573,35.009,25.557,57.564,25.557
	c22.557,0,42.67-9.984,56.701-25.557c12.275,13.602,19.947,31.403,19.947,51.114v12.767
	C307.445,250.813,301.72,256.536,294.677,256.536L294.677,256.536z M111.903,502.352l-16.799,8.332
	c-6.294,3.086-13.966,0.577-17.113-5.739L1.342,351.67c-3.147-6.34-0.583-14.034,5.768-17.181l17-8.422
	c12.622-6.256,27.92-1.108,34.214,11.483l65.103,130.502C129.722,480.715,124.559,496.074,111.903,502.352L111.903,502.352z
	 M430.939,322.965l-74.957,107.278c-14.313,19.175-37.293,30.653-61.305,30.653H169.895h-21.492L75.786,315.315l18.491-16.261
	l0.358,0.304c11.379-8.999,22.601-15.725,39.221-19.583c29.958-6.938,59.536,1.63,79.314,19.431
	c5.028,4.396,8.196,8.422,14.559,8.422c64.184,0,6.943,0,66.949,0c14.045,0,25.535,11.502,25.535,25.552
	c0,14.056-11.49,25.539-25.535,25.539c-15.063,0-34.002,0-51.113,0c-7.156,0-12.768,5.634-12.768,12.784
	c0,7.135,5.611,12.768,12.768,12.768h59.523c4.873,0,14.055-3.063,18.916-8.181l69.84-85.838c8.68-9.447,23.238-10.987,33.721-3.32
	C437.066,295.37,439.361,311.716,430.939,322.965L430.939,322.965z"/>
</svg>
