<?xml version="1.0" encoding="utf-8"?>
<!-- Generator: Adobe Illustrator 16.0.0, SVG Export Plug-In . SVG Version: 6.00 Build 0)  -->
<!DOCTYPE svg PUBLIC "-//W3C//DTD SVG 1.1//EN" "http://www.w3.org/Graphics/SVG/1.1/DTD/svg11.dtd">
<svg version="1.1" id="Layer_1" xmlns="http://www.w3.org/2000/svg" xmlns:xlink="http://www.w3.org/1999/xlink" x="0px" y="0px"
	 width="435.997px" height="512px" viewBox="0 0 435.997 512" enable-background="new 0 0 435.997 512" xml:space="preserve">
<g id="surface1" display="none">
	<path display="inline" d="M217.997,158.457c-53.793,0-97.555,43.762-97.555,97.551c0,53.793,43.762,97.555,97.555,97.555
		c53.789,0,97.55-43.762,97.55-97.555C315.547,202.219,271.786,158.457,217.997,158.457z M275.915,237.637l-69.887,69.886
		c-2.934,2.935-6.781,4.402-10.625,4.402c-3.844,0-7.688-1.465-10.621-4.402l-26.707-26.707c-5.867-5.862-5.867-15.375,0-21.241
		c5.863-5.867,15.375-5.867,21.242,0l16.086,16.086l59.27-59.266c5.863-5.867,15.375-5.867,21.242,0
		C281.782,222.258,281.782,231.77,275.915,237.637z"/>
	<path display="inline" d="M435.489,138.918l-0.016-0.398c-0.223-4.918-0.371-10.121-0.461-15.91
		c-0.418-28.23-22.859-51.582-51.094-53.16c-58.867-3.285-104.407-22.48-143.317-60.406l-0.332-0.316
		c-12.69-11.637-31.836-11.637-44.531,0l-0.332,0.316c-38.91,37.926-84.449,57.121-143.316,60.41
		C23.86,71.028,1.414,94.38,0.996,122.614c-0.086,5.75-0.238,10.953-0.461,15.906l-0.023,0.926
		c-1.145,60.027-2.566,134.734,22.426,202.543c13.742,37.288,34.555,69.703,61.855,96.348
		c31.094,30.344,71.82,54.435,121.047,71.598c1.602,0.56,3.266,1.013,4.961,1.353c2.391,0.477,4.797,0.715,7.203,0.715
		c2.407,0,4.816-0.238,7.204-0.715c1.694-0.34,3.371-0.797,4.979-1.359c49.167-17.194,89.853-41.297,120.919-71.637
		c27.289-26.652,48.102-59.074,61.854-96.371C438.047,273.906,436.629,199.059,435.489,138.918z M217.997,383.605
		c-70.359,0-127.598-57.238-127.598-127.599c0-70.36,57.238-127.597,127.598-127.597c70.355,0,127.597,57.238,127.597,127.598
		C345.594,326.368,288.352,383.605,217.997,383.605z"/>
</g>
<path display="none" fill="#5479F0" d="M399.309,192.001h-31.99V149.35C367.317,67.006,300.329,0,218.008,0
	C135.669,0,68.68,67.006,68.68,149.35v42.651H36.689c-5.896,0-10.66,4.786-10.66,10.677v266.664
	c0,23.537,19.142,42.674,42.651,42.674h298.637c23.531,0,42.65-19.137,42.65-42.674V202.678
	C409.967,196.787,405.204,192.001,399.309,192.001L399.309,192.001z M249.936,414.838c0.329,3.002-0.631,6.025-2.65,8.289
	c-2.023,2.264-4.918,3.547-7.965,3.547h-42.65c-3.02,0-5.936-1.283-7.937-3.547c-2.024-2.264-3.001-5.287-2.673-8.289l6.738-60.523
	c-10.939-7.936-17.459-20.514-17.459-34.299c0-23.531,19.137-42.674,42.668-42.674c23.513,0,42.649,19.143,42.649,42.674
	c0,13.785-6.521,26.363-17.441,34.299L249.936,414.838L249.936,414.838z M303.331,192.001H132.69V149.35
	c0-47.066,38.278-85.345,85.317-85.345c47.044,0,85.324,38.278,85.324,85.345V192.001L303.331,192.001z"/>
<path display="none" fill="#5479F0" d="M434.049,262.35l-89.531-89.996c-2.914-2.935-7.777-3.899-11.676-1.949
	c-3.898,1.949-6.813,5.872-6.813,9.771v60.655c-29.201,0-53.529,4.892-73.979,14.662v-110.53h56.453
	c4.871,0,8.773-2.918,9.734-6.841c1.951-3.92,0.965-8.807-1.949-11.742l-89.527-89.979c-1.95-1.972-4.863-2.936-7.777-2.936
	c-2.937,0-5.86,0.964-7.81,2.936l-90.484,89.979c-2.913,2.935-3.898,7.821-1.949,11.742c1.949,3.922,5.827,6.841,9.727,6.841h57.427
	v109.566c-20.45-9.776-44.777-14.684-74.942-14.684v-60.632c0-4.887-2.935-8.809-6.813-9.794c-3.899-1.95-8.762-0.964-11.676,1.973
	L2.934,261.389c-1.949,1.949-2.935,4.885-2.935,7.825c0,2.914,0.985,5.849,2.935,7.822l89.531,89.983
	c2.914,2.935,7.776,3.922,11.676,1.973c3.878-1.973,6.813-5.871,6.813-9.793v-50.873c55.469,0,73.957,18.585,73.957,75.322v60.643
	c0,18.602,14.611,33.259,32.126,34.244h1.949c17.513-0.985,32.103-15.644,32.103-34.244v-60.643
	c0-56.737,17.516-75.322,73.967-75.322v50.873c0,4.886,2.926,8.806,6.824,9.793c3.877,1.949,8.74,0.962,11.676-1.973l89.531-89.983
	c1.949-1.974,2.912-4.908,2.912-7.822C435.999,266.271,435.999,264.303,434.049,262.35L434.049,262.35z"/>
<path display="none" fill="#5479F0" d="M405.397,383.574h-2.643l9.928,38.858l-68.344-38.858H165.641
	c-21.105,0-41.645-17.646-41.645-35.137v-6.031h233.702c23.869,0,35.754-17.871,35.754-37.647v-126.98h11.945
	c21.076,0,30.602,12.669,30.602,30.158v140.502C435.999,365.95,426.475,383.574,405.397,383.574L405.397,383.574z M322.809,322.786
	H124.232l-93.139,52.985l14.541-53.367c-22.344-2.018-45.636-15.157-45.636-33.387V129.883c0-19.776,27.496-40.316,51.382-40.316
	h271.427c23.869,0,45.916,20.54,45.916,40.316v30.405v128.729C368.725,308.794,346.678,322.786,322.809,322.786L322.809,322.786z
	 M92.79,176.478c-13.549,0-24.53,10.605-24.53,23.701c0,13.117,10.981,23.723,24.53,23.723c13.532,0,24.514-10.605,24.514-23.723
	C117.303,187.083,106.322,176.478,92.79,176.478L92.79,176.478z M184.364,176.478c-13.532,0-24.514,10.605-24.514,23.701
	c0,13.117,10.981,23.723,24.514,23.723c13.549,0,24.531-10.605,24.531-23.723C208.895,187.083,197.913,176.478,184.364,176.478
	L184.364,176.478z M275.973,176.478c-13.549,0-24.531,10.605-24.531,23.701c0,13.117,10.982,23.723,24.531,23.723
	c13.51,0,24.514-10.605,24.514-23.723C300.486,187.083,289.482,176.478,275.973,176.478L275.973,176.478z"/>
<g>
	<path fill-rule="evenodd" clip-rule="evenodd" fill="#5479F0" d="M89.206,456.674c0-6.055,0-11.729,0-17.687
		c-6.09,0-11.757,0-18.041,0c0,24.133,0,48.314,0,72.871c-18.66,0-36.711,0-55.4,0c0-5.198,0-10.305,0-15.412
		c-0.001-18.179-0.067-36.358,0.012-54.536c0.134-30.211,19.913-55.564,49.236-62.7c27.102-6.593,54.292-12.831,81.459-19.149
		c1.583-0.368,3.532-0.588,4.956-0.007c18.213,7.443,37.165,11.618,57.062,12.985c0,27.903,0,55.567,0,83.635
		C169.024,456.674,129.536,456.674,89.206,456.674z"/>
	<path fill-rule="evenodd" clip-rule="evenodd" fill="#5479F0" d="M419.725,511.976c-18.193,0-36.111,0-54.441,0
		c0-24.297,0-48.339,0-72.835c-6.197,0-12.002,0-18.441,0c0,5.701,0,11.517,0,17.627c-40.109,0-79.6,0-119.365,0
		c0-27.928,0-55.592,0-82.422c14.304-3.06,28.846-4.489,42.045-9.471c13.023-4.915,24.777-4.294,37.611-0.896
		c20.861,5.52,41.988,10.036,62.994,15.015c29.918,7.091,50.041,32.409,50.113,63.156c0.053,22.77-0.027,45.542-0.064,68.313
		C420.176,510.814,419.975,511.165,419.725,511.976z"/>
	<path fill-rule="evenodd" clip-rule="evenodd" fill="#5479F0" d="M104.407,68.571c9.87,3.909,18.357,7.27,27.432,10.864
		c2.31-5.77,4.476-11.181,6.792-16.966c-10.474-4.23-20.535-8.293-31.533-12.735c12.009-10.016,23.506-19.604,35.371-29.498
		c10.466,15.67,20.631,30.887,31.124,46.595c5.15-3.422,10.003-6.647,15.267-10.147c-9.871-14.832-19.479-29.269-29.479-44.294
		c16.684-4.172,32.761-8.193,49.286-12.326c0,20.629,0,40.697,0,61.236c6.11,0,11.918,0,18.309,0c0-20.018,0-40.207,0-61.3
		c16.761,4.172,32.772,8.159,49.675,12.367c-9.955,14.959-19.523,29.336-29.459,44.267c5.113,3.431,9.957,6.681,15.221,10.211
		c10.369-15.524,20.549-30.763,31.113-46.579c10.588,8.808,20.959,17.436,32.369,26.928c-9.488,2.013-17.889,3.797-26.789,5.686
		c1.139,5.954,2.199,11.506,3.396,17.781c9.975-1.917,19.617-3.77,30.365-5.835c-3.695,11.186-6.961,21.614-10.762,31.843
		c-0.441,1.189-3.838,1.8-5.867,1.805c-48.24,0.098-96.48,0.076-144.723,0.076c-17.421,0-34.842-0.1-52.261,0.077
		c-3.592,0.036-5.481-0.83-6.547-4.52C110.336,85.907,107.462,77.853,104.407,68.571z"/>
	<path fill-rule="evenodd" clip-rule="evenodd" fill="#5479F0" d="M135.438,177.907c7.557,3.762,14.457,6.987,21.144,10.606
		c4.296,2.323,8.139,2.362,12.46,0.048c7.717-4.133,15.629-7.9,24.456-12.32c-1.053,4.465-1.856,7.937-2.69,11.401
		c-1.058,4.404,0.073,8.258,3.966,10.469c6.113,3.475,12.529,6.412,19.101,9.719c2.756-5.52,5.301-10.609,8.104-16.22
		c-3.873-2.11-7.481-4.075-11.504-6.267c1.501-6.164,2.813-12.301,4.527-18.323c1.093-3.84,3.533-2.278,5.792-0.92
		c11.805,7.098,23.738,13.986,35.396,21.316c4.867,3.061,9.168,3.568,14.475,1.08c9.643-4.524,19.572-8.439,30.053-12.89
		c-0.123,35.764-4.377,68.947-35.746,91.665c-47.902,34.696-116.741,6.482-126.25-51.847c-1.414-8.677-2.319-17.445-3.226-26.192
		C135.143,185.831,135.438,182.362,135.438,177.907z M187.579,235.943c20.633,6.525,40.48,6.788,60.83-0.142
		c-2.006-5.98-3.808-11.339-5.773-17.196c-16.615,5.351-32.961,5.054-49.305,0.067C191.316,224.722,189.58,229.934,187.579,235.943z
		"/>
	<path fill-rule="evenodd" clip-rule="evenodd" fill="#5479F0" d="M116.887,117.143c67.672,0,134.615,0,201.904,0
		c0,10.266,0,20.322,0,30.652c-17.137,7.336-34.314,14.791-51.623,21.934c-1.641,0.677-4.398-0.066-6.111-1.06
		c-11.416-6.621-22.856-13.229-33.938-20.383c-5.978-3.861-11.068-4.278-17.495-0.81c-13.932,7.521-28.323,14.185-42.41,21.424
		c-3.011,1.548-5.316,1.781-8.434,0.164c-12.557-6.515-25.232-12.807-37.978-18.946c-3.059-1.472-4.077-3.295-3.989-6.613
		C117.038,134.917,116.887,126.32,116.887,117.143z"/>
	<path fill-rule="evenodd" clip-rule="evenodd" fill="#5479F0" d="M208.396,512c-39.729,0-79.082,0-118.763,0
		c0-12.021,0-23.813,0-36.078c39.35,0,78.839,0,118.763,0C208.396,487.641,208.396,499.566,208.396,512z"/>
	<path fill-rule="evenodd" clip-rule="evenodd" fill="#5479F0" d="M346.446,475.848c0,12.222,0,24.014,0,36.097
		c-39.625,0-78.979,0-118.791,0c0-11.839,0-23.767,0-36.097C267.028,475.848,306.518,475.848,346.446,475.848z"/>
	<path fill-rule="evenodd" clip-rule="evenodd" fill="#5479F0" d="M172.241,318.754c0-9.623,0-18.947,0-29.027
		c30.519,14.738,60.908,14.927,91.514-0.077c0,10.052,0,19.36,0,29.104C233.428,318.754,203.14,318.754,172.241,318.754z"/>
	<path fill-rule="evenodd" clip-rule="evenodd" fill="#5479F0" d="M208.521,355.17c-14.051-2.696-27.467-5.269-40.924-7.848
		c2.207-9.69,2.207-9.69,10.384-9.69c10.081,0,20.162,0,30.54,0C208.521,343.262,208.521,348.339,208.521,355.17z"/>
	<path fill-rule="evenodd" clip-rule="evenodd" fill="#5479F0" d="M227.461,355.208c0-6.662,0-11.747,0-17.545
		c12.111,0,24.1-0.327,36.035,0.328c1.965,0.107,3.689,4.532,6.906,8.788C255.174,349.767,241.594,352.434,227.461,355.208z"/>
	<path fill-rule="evenodd" clip-rule="evenodd" fill="#5479F0" d="M187.579,235.943c2.001-6.009,3.737-11.221,5.752-17.271
		c16.344,4.986,32.689,5.284,49.305-0.067c1.966,5.857,3.768,11.216,5.773,17.196C228.059,242.73,208.212,242.468,187.579,235.943z"
		/>
</g>
</svg>
