<?xml version="1.0" encoding="utf-8"?>
<!-- Generator: Adobe Illustrator 16.0.0, SVG Export Plug-In . SVG Version: 6.00 Build 0)  -->
<!DOCTYPE svg PUBLIC "-//W3C//DTD SVG 1.1//EN" "http://www.w3.org/Graphics/SVG/1.1/DTD/svg11.dtd">
<svg version="1.1" id="Layer_1" xmlns="http://www.w3.org/2000/svg" xmlns:xlink="http://www.w3.org/1999/xlink" x="0px" y="0px"
	 width="1500px" height="500px" viewBox="0 0 1500 500" enable-background="new 0 0 1500 500" xml:space="preserve">
<g>
	<image overflow="visible" width="1366" height="5889" xlink:href="A62DA525.jpg"  transform="matrix(1 0 0 1 67 -2694)">
	</image>
	<g>
		<defs>
			<path id="SVGID_1_" d="M405-2463h690c2.762,0,5.003,2.235,5.003,4.996V-2034c0,2.761-2.241,4.996-5.003,4.996H405
				c-2.761,0-5.002-2.235-5.002-4.996v-424.004C399.998-2460.765,402.239-2463,405-2463L405-2463z"/>
		</defs>
		<clipPath id="SVGID_2_">
			<use xlink:href="#SVGID_1_"  overflow="visible"/>
		</clipPath>
		<g clip-path="url(#SVGID_2_)">
			<image overflow="visible" width="1366" height="5889" xlink:href="A62DA527.jpg"  transform="matrix(1 0 0 1 67 -2694)">
			</image>
		</g>
	</g>
	<g>
		<defs>
			<path id="SVGID_3_" d="M466.002-2245h286c10.489,0,19,8.505,19,18.999c0,10.495-8.511,19-19,19h-286c-10.495,0-19-8.505-19-19
				C447.002-2236.496,455.507-2245,466.002-2245L466.002-2245z"/>
		</defs>
		<clipPath id="SVGID_4_">
			<use xlink:href="#SVGID_3_"  overflow="visible"/>
		</clipPath>
		<g clip-path="url(#SVGID_4_)">
			<image overflow="visible" width="1366" height="5889" xlink:href="A62DA522.jpg"  transform="matrix(1 0 0 1 67 -2694)">
			</image>
		</g>
	</g>
	<g>
		<defs>
			<path id="SVGID_5_" d="M590.332-2222.29V-2233h2.241v8.833h4.291v1.876H590.332L590.332-2222.29z M604.831-2223.276
				c-0.693,0.753-1.662,1.129-2.899,1.129c-0.777,0-1.458-0.173-2.056-0.514c-0.592-0.346-1.046-0.843-1.363-1.488
				c-0.323-0.639-0.478-1.392-0.478-2.253c0-1.338,0.341-2.378,1.034-3.119c0.687-0.741,1.655-1.112,2.904-1.112
				c0.777,0,1.464,0.167,2.056,0.508c0.591,0.346,1.052,0.836,1.369,1.476c0.316,0.64,0.478,1.387,0.478,2.247
				C605.876-2225.069,605.53-2224.023,604.831-2223.276L604.831-2223.276z M603.229-2228.224c-0.263-0.407-0.687-0.609-1.279-0.609
				s-1.016,0.203-1.273,0.604c-0.263,0.406-0.395,1.016-0.395,1.828s0.132,1.423,0.395,1.841c0.263,0.412,0.693,0.621,1.285,0.621
				c0.585,0,1.01-0.209,1.267-0.621c0.263-0.413,0.389-1.029,0.389-1.841S603.486-2227.818,603.229-2228.224L603.229-2228.224z
				 M613.467-2229.014c0.233,0.365,0.353,0.771,0.353,1.226c0,0.878-0.305,1.566-0.909,2.056c-0.609,0.49-1.446,0.735-2.522,0.735
				l-0.4-0.018l-0.323-0.035c-0.227,0.173-0.341,0.37-0.341,0.585c0,0.316,0.407,0.478,1.213,0.478h1.375
				c0.891,0,1.566,0.197,2.032,0.581c0.466,0.388,0.699,0.956,0.699,1.703c0,0.957-0.395,1.697-1.184,2.223
				c-0.789,0.526-1.924,0.789-3.4,0.789c-1.124,0-1.99-0.197-2.582-0.592c-0.598-0.4-0.896-0.957-0.896-1.673
				c0-0.497,0.155-0.909,0.46-1.243c0.299-0.329,0.747-0.568,1.333-0.706c-0.221-0.101-0.424-0.257-0.592-0.483
				c-0.167-0.221-0.251-0.454-0.251-0.706c0-0.31,0.09-0.574,0.269-0.777c0.173-0.209,0.437-0.412,0.771-0.615
				c-0.424-0.186-0.759-0.484-1.01-0.891c-0.245-0.413-0.37-0.896-0.37-1.452c0-0.891,0.287-1.584,0.86-2.074
				c0.574-0.484,1.393-0.729,2.457-0.729c0.227,0,0.496,0.017,0.807,0.06c0.311,0.042,0.514,0.072,0.598,0.09h2.821v1.135
				L613.467-2229.014L613.467-2229.014z M608.494-2221.136c0,0.311,0.144,0.55,0.436,0.729c0.293,0.173,0.7,0.263,1.225,0.263
				c0.789,0,1.411-0.113,1.859-0.335c0.448-0.215,0.675-0.52,0.675-0.896c0-0.311-0.131-0.52-0.4-0.64
				c-0.263-0.113-0.675-0.173-1.231-0.173h-1.142c-0.406,0-0.741,0.095-1.016,0.287
				C608.632-2221.709,608.494-2221.454,608.494-2221.136L608.494-2221.136z M610.508-2229.283c-0.807,0-1.213,0.497-1.213,1.482
				c0,0.442,0.102,0.795,0.299,1.052c0.203,0.263,0.508,0.389,0.915,0.389c0.418,0,0.723-0.125,0.915-0.389
				c0.191-0.257,0.287-0.609,0.287-1.052C611.709-2228.786,611.309-2229.283,610.508-2229.283L610.508-2229.283z M618.074-2231.787
				c-0.203,0.191-0.502,0.287-0.902,0.287c-0.801,0-1.201-0.364-1.201-1.099c0-0.724,0.4-1.088,1.201-1.088s1.201,0.364,1.201,1.088
				C618.373-2232.252,618.271-2231.984,618.074-2231.787L618.074-2231.787z M618.271-2222.29h-2.205v-8.193h2.205V-2222.29
				L618.271-2222.29z M625.844-2222.29v-4.787c0-0.592-0.102-1.034-0.311-1.327c-0.209-0.299-0.538-0.442-0.992-0.442
				c-0.616,0-1.064,0.21-1.339,0.627c-0.275,0.413-0.412,1.105-0.412,2.074v3.854h-2.206v-8.193h1.686l0.299,1.051h0.125
				c0.245-0.394,0.58-0.699,1.016-0.896c0.43-0.203,0.92-0.304,1.47-0.304c0.938,0,1.655,0.256,2.14,0.771
				c0.49,0.514,0.729,1.261,0.729,2.23v5.342H625.844L625.844-2222.29z"/>
		</defs>
		<clipPath id="SVGID_6_">
			<use xlink:href="#SVGID_5_"  overflow="visible"/>
		</clipPath>
		<g clip-path="url(#SVGID_6_)">
			<image overflow="visible" width="1366" height="5889" xlink:href="A62DA523.jpg"  transform="matrix(1 0 0 1 67 -2694)">
			</image>
		</g>
	</g>
	<g>
		<defs>
			<path id="SVGID_7_" d="M1089.657-2437.761l-0.412,0.418c-0.395,0.389-1.028,0.389-1.417,0l-8.486-8.487
				c-0.389-0.389-0.389-1.021,0-1.416l0.412-0.412c0.395-0.389,1.028-0.389,1.417,0l8.486,8.486
				C1090.046-2438.783,1090.046-2438.149,1089.657-2437.761L1089.657-2437.761z M1089.717-2445.865l-8.552,8.552
				c-0.395,0.389-1.034,0.389-1.423,0l-0.43-0.43c-0.389-0.395-0.389-1.029,0-1.423l8.552-8.553c0.395-0.394,1.034-0.394,1.429,0
				l0.424,0.425C1090.111-2446.899,1090.111-2446.26,1089.717-2445.865L1089.717-2445.865z"/>
		</defs>
		<clipPath id="SVGID_8_">
			<use xlink:href="#SVGID_7_"  overflow="visible"/>
		</clipPath>
		<g clip-path="url(#SVGID_8_)">
			<image overflow="visible" width="1366" height="5889" xlink:href="A62DA52D.jpg"  transform="matrix(1 0 0 1 67 -2694)">
			</image>
		</g>
	</g>
	<g>
		<defs>
			<path id="SVGID_9_" d="M399.998-2458.003c0-2.761,2.241-4.996,5.002-4.996h690c2.762,0,5.003,2.235,5.003,4.996"/>
		</defs>
		<clipPath id="SVGID_10_">
			<use xlink:href="#SVGID_9_"  overflow="visible"/>
		</clipPath>
		<g clip-path="url(#SVGID_10_)">
			<image overflow="visible" width="1366" height="5889" xlink:href="A62DA52F.jpg"  transform="matrix(1 0 0 1 67 -2694)">
			</image>
		</g>
	</g>
	<g>
		<defs>
			<path id="SVGID_11_" d="M446.62-2425.001v-12.85h2.719v10.603h5.211v2.247H446.62L446.62-2425.001z M464.239-2426.178
				c-0.842,0.902-2.02,1.356-3.526,1.356c-0.944,0-1.775-0.21-2.492-0.622c-0.723-0.413-1.279-1.01-1.662-1.781
				c-0.388-0.771-0.58-1.674-0.58-2.708c0-1.607,0.418-2.851,1.255-3.741s2.014-1.339,3.532-1.339c0.944,0,1.775,0.204,2.498,0.616
				c0.717,0.413,1.273,0.999,1.662,1.769c0.382,0.766,0.58,1.668,0.58,2.695C465.506-2428.33,465.082-2427.082,464.239-2426.178
				L464.239-2426.178z M462.291-2432.12c-0.317-0.483-0.837-0.729-1.56-0.729c-0.711,0-1.231,0.239-1.548,0.723
				c-0.311,0.484-0.472,1.213-0.472,2.193c0,0.975,0.162,1.71,0.479,2.205c0.323,0.503,0.842,0.748,1.56,0.748
				s1.231-0.245,1.542-0.741c0.317-0.496,0.472-1.23,0.472-2.211C462.763-2430.906,462.607-2431.635,462.291-2432.12
				L462.291-2432.12z M474.734-2433.07c0.281,0.442,0.424,0.932,0.424,1.477c0,1.058-0.371,1.877-1.106,2.468
				c-0.735,0.586-1.757,0.878-3.066,0.878l-0.478-0.023l-0.4-0.042c-0.275,0.209-0.413,0.442-0.413,0.699
				c0,0.389,0.496,0.579,1.477,0.579h1.673c1.076,0,1.9,0.233,2.462,0.7c0.567,0.46,0.849,1.141,0.849,2.037
				c0,1.148-0.479,2.039-1.435,2.672c-0.962,0.633-2.337,0.95-4.13,0.95c-1.368,0-2.415-0.239-3.138-0.717
				c-0.729-0.478-1.087-1.148-1.087-2.008c0-0.592,0.185-1.088,0.556-1.488c0.365-0.395,0.909-0.682,1.625-0.849
				c-0.275-0.12-0.52-0.312-0.723-0.58c-0.203-0.263-0.305-0.55-0.305-0.849c0-0.371,0.107-0.688,0.323-0.933
				c0.215-0.251,0.532-0.496,0.938-0.735c-0.514-0.221-0.92-0.58-1.226-1.076c-0.299-0.49-0.454-1.07-0.454-1.739
				c0-1.07,0.353-1.9,1.046-2.486c0.699-0.586,1.697-0.879,2.988-0.879c0.281,0,0.604,0.024,0.98,0.078
				c0.382,0.048,0.621,0.084,0.729,0.107h3.424v1.362L474.734-2433.07L474.734-2433.07z M468.686-2423.615
				c0,0.371,0.179,0.664,0.532,0.873c0.353,0.209,0.855,0.316,1.488,0.316c0.962,0,1.715-0.131,2.259-0.395
				c0.55-0.263,0.819-0.627,0.819-1.082c0-0.37-0.162-0.621-0.484-0.765s-0.819-0.209-1.494-0.209h-1.387
				c-0.49,0-0.902,0.113-1.237,0.347C468.853-2424.302,468.686-2423.991,468.686-2423.615L468.686-2423.615z M471.136-2433.386
				c-0.98,0-1.476,0.592-1.476,1.775c0,0.531,0.125,0.956,0.365,1.267c0.245,0.312,0.615,0.466,1.111,0.466
				c0.508,0,0.878-0.155,1.112-0.466c0.233-0.311,0.353-0.735,0.353-1.267C472.6-2432.794,472.11-2433.386,471.136-2433.386
				L471.136-2433.386z M480.328-2436.399c-0.245,0.233-0.609,0.353-1.094,0.353c-0.974,0-1.458-0.441-1.458-1.32
				c0-0.872,0.484-1.309,1.458-1.309s1.458,0.437,1.458,1.309C480.692-2436.948,480.573-2436.625,480.328-2436.399L480.328-2436.399
				z M480.567-2425.001h-2.678v-9.826h2.678V-2425.001L480.567-2425.001z M489.771-2425.001v-5.738c0-0.711-0.125-1.243-0.376-1.595
				c-0.251-0.353-0.651-0.533-1.207-0.533c-0.747,0-1.291,0.251-1.626,0.753c-0.329,0.496-0.496,1.327-0.496,2.493v4.62h-2.683
				v-9.826h2.05l0.358,1.256h0.149c0.299-0.473,0.711-0.831,1.237-1.077c0.52-0.245,1.118-0.365,1.787-0.365
				c1.142,0,2.008,0.312,2.6,0.927c0.592,0.621,0.891,1.512,0.891,2.678v6.407H489.771L489.771-2425.001z"/>
		</defs>
		<clipPath id="SVGID_12_">
			<use xlink:href="#SVGID_11_"  overflow="visible"/>
		</clipPath>
		<g clip-path="url(#SVGID_12_)">
			<image overflow="visible" width="1366" height="5889" xlink:href="A62DA520.jpg"  transform="matrix(1 0 0 1 67 -2694)">
			</image>
		</g>
	</g>
	<g>
		<defs>
			<path id="SVGID_13_" d="M499.853-2065.998h-1.064l-1.876-6.215c-0.083-0.275-0.186-0.621-0.293-1.04
				c-0.114-0.424-0.167-0.675-0.173-0.759c-0.096,0.562-0.245,1.171-0.448,1.835l-1.811,6.179h-1.07l-2.468-9.281h1.141l1.47,5.731
				c0.203,0.801,0.347,1.53,0.442,2.182c0.114-0.772,0.281-1.53,0.508-2.272l1.662-5.641h1.142l1.745,5.689
				c0.203,0.658,0.376,1.399,0.52,2.224c0.078-0.598,0.227-1.333,0.454-2.194l1.458-5.719h1.142L499.853-2065.998L499.853-2065.998z
				 M504.335-2069.291c0.024,0.819,0.227,1.44,0.622,1.865c0.389,0.418,0.938,0.633,1.649,0.633c0.753,0,1.488-0.155,2.223-0.472
				v0.938c-0.371,0.162-0.723,0.281-1.058,0.347c-0.329,0.071-0.735,0.107-1.201,0.107c-1.028,0-1.841-0.316-2.433-0.938
				c-0.598-0.627-0.896-1.5-0.896-2.611c0-1.124,0.281-2.015,0.831-2.671c0.55-0.664,1.291-0.993,2.223-0.993
				c0.873,0,1.56,0.287,2.068,0.861c0.508,0.573,0.765,1.333,0.765,2.271v0.664H504.335L504.335-2069.291z M507.557-2071.669
				c-0.299-0.358-0.723-0.532-1.273-0.532c-0.556,0-1.004,0.179-1.333,0.544c-0.335,0.365-0.532,0.866-0.592,1.512h3.64
				C507.999-2070.809,507.85-2071.317,507.557-2071.669L507.557-2071.669z M519.062-2065.998v-4.5c0-0.568-0.131-0.992-0.389-1.273
				c-0.257-0.281-0.663-0.418-1.213-0.418c-0.723,0-1.261,0.197-1.596,0.591c-0.341,0.395-0.508,1.04-0.508,1.948v3.652h-1.052
				v-6.962h0.854l0.173,0.956h0.048c0.215-0.347,0.52-0.609,0.908-0.795c0.389-0.191,0.825-0.287,1.303-0.287
				c0.837,0,1.464,0.203,1.889,0.61c0.424,0.4,0.633,1.046,0.633,1.937v4.542H519.062L519.062-2065.998z M527.429-2066.829
				c-0.574,0.64-1.363,0.956-2.367,0.956c-0.622,0-1.177-0.149-1.656-0.437c-0.484-0.292-0.854-0.711-1.117-1.261
				c-0.263-0.544-0.395-1.184-0.395-1.918c0-1.129,0.281-2.014,0.849-2.647c0.567-0.634,1.356-0.95,2.36-0.95
				c0.975,0,1.745,0.323,2.319,0.974c0.573,0.646,0.86,1.523,0.86,2.624C528.283-2068.353,528.002-2067.468,527.429-2066.829
				L527.429-2066.829z M526.658-2071.502c-0.359-0.46-0.885-0.687-1.584-0.687c-0.693,0-1.213,0.227-1.56,0.681
				c-0.353,0.449-0.532,1.124-0.532,2.02c0,0.891,0.179,1.566,0.538,2.032c0.353,0.466,0.878,0.7,1.566,0.7
				c0.687,0,1.213-0.233,1.572-0.694c0.358-0.466,0.538-1.141,0.538-2.038C527.196-2070.373,527.016-2071.042,526.658-2071.502
				L526.658-2071.502z M533.507-2065.998v-9.879h1.058v9.879H533.507L533.507-2065.998z M541.945-2066.829
				c-0.574,0.64-1.362,0.956-2.366,0.956c-0.622,0-1.178-0.149-1.656-0.437c-0.484-0.292-0.854-0.711-1.118-1.261
				c-0.263-0.544-0.395-1.184-0.395-1.918c0-1.129,0.281-2.014,0.849-2.647c0.568-0.634,1.357-0.95,2.361-0.95
				c0.974,0,1.745,0.323,2.319,0.974c0.574,0.646,0.861,1.523,0.861,2.624C542.8-2068.353,542.52-2067.468,541.945-2066.829
				L541.945-2066.829z M541.175-2071.502c-0.359-0.46-0.885-0.687-1.584-0.687c-0.688,0-1.213,0.227-1.56,0.681
				c-0.353,0.449-0.532,1.124-0.532,2.02c0,0.891,0.179,1.566,0.538,2.032c0.353,0.466,0.878,0.7,1.566,0.7
				c0.687,0,1.213-0.233,1.572-0.694c0.358-0.466,0.538-1.141,0.538-2.038C541.712-2070.373,541.533-2071.042,541.175-2071.502
				L541.175-2071.502z M549.41-2065.998v-4.5c0-0.568-0.131-0.992-0.388-1.273c-0.257-0.281-0.664-0.418-1.213-0.418
				c-0.723,0-1.261,0.197-1.596,0.591c-0.341,0.395-0.508,1.04-0.508,1.948v3.652h-1.058v-6.962h0.861l0.167,0.956h0.054
				c0.215-0.347,0.52-0.609,0.909-0.795c0.388-0.191,0.825-0.287,1.303-0.287c0.837,0,1.464,0.203,1.889,0.61
				c0.424,0.4,0.633,1.046,0.633,1.937v4.542H549.41L549.41-2065.998z M557.036-2072.141c0.114,0.149,0.221,0.346,0.317,0.585
				c0.09,0.239,0.137,0.508,0.137,0.807c0,0.682-0.233,1.226-0.699,1.632c-0.466,0.406-1.105,0.609-1.918,0.609
				c-0.204,0-0.401-0.018-0.58-0.048c-0.448,0.233-0.675,0.532-0.675,0.891c0,0.191,0.078,0.334,0.233,0.425
				c0.162,0.09,0.431,0.138,0.807,0.138h1.231c0.753,0,1.333,0.155,1.739,0.472c0.4,0.322,0.604,0.783,0.604,1.386
				c0,0.771-0.305,1.357-0.926,1.763c-0.616,0.4-1.518,0.604-2.701,0.604c-0.909,0-1.614-0.167-2.104-0.508
				c-0.496-0.341-0.741-0.819-0.741-1.435c0-0.424,0.138-0.789,0.407-1.099c0.269-0.306,0.651-0.515,1.142-0.628
				c-0.18-0.078-0.329-0.203-0.449-0.371c-0.119-0.174-0.179-0.37-0.179-0.592c0-0.257,0.065-0.478,0.203-0.669
				c0.138-0.191,0.347-0.371,0.64-0.55c-0.358-0.149-0.651-0.4-0.878-0.759c-0.227-0.353-0.341-0.759-0.341-1.213
				c0-0.765,0.233-1.351,0.688-1.763s1.105-0.622,1.942-0.622c0.364,0,0.693,0.042,0.986,0.125h2.403v0.669L557.036-2072.141
				L557.036-2072.141z M553.175-2065.819c-0.269,0.233-0.4,0.556-0.4,0.986c0,0.377,0.155,0.664,0.478,0.854
				c0.317,0.198,0.771,0.293,1.363,0.293c0.885,0,1.536-0.131,1.966-0.395c0.424-0.263,0.634-0.621,0.634-1.076
				c0-0.376-0.114-0.639-0.347-0.783c-0.233-0.149-0.669-0.221-1.315-0.221h-1.261
				C553.815-2066.159,553.438-2066.046,553.175-2065.819L553.175-2065.819z M554.891-2072.315c-0.496,0-0.878,0.132-1.147,0.4
				c-0.263,0.263-0.4,0.658-0.4,1.184c0,0.49,0.138,0.854,0.418,1.105c0.275,0.251,0.657,0.377,1.147,0.377
				c1.028,0,1.542-0.503,1.542-1.501C556.451-2071.795,555.931-2072.315,554.891-2072.315L554.891-2072.315z M560.455-2069.291
				c0.023,0.819,0.227,1.44,0.621,1.865c0.389,0.418,0.938,0.633,1.65,0.633c0.753,0,1.494-0.155,2.223-0.472v0.938
				c-0.371,0.162-0.723,0.281-1.058,0.347c-0.329,0.071-0.735,0.107-1.202,0.107c-1.028,0-1.841-0.316-2.432-0.938
				c-0.598-0.627-0.896-1.5-0.896-2.611c0-1.124,0.281-2.015,0.831-2.671c0.55-0.664,1.291-0.993,2.223-0.993
				c0.873,0,1.566,0.287,2.068,0.861c0.508,0.573,0.765,1.333,0.765,2.271v0.664H560.455L560.455-2069.291z M563.676-2071.669
				c-0.299-0.358-0.723-0.532-1.273-0.532c-0.556,0-1.004,0.179-1.333,0.544c-0.334,0.365-0.532,0.866-0.592,1.512h3.64
				C564.118-2070.809,563.969-2071.317,563.676-2071.669L563.676-2071.669z M570.902-2072.028c-0.287-0.065-0.538-0.096-0.759-0.096
				c-0.562,0-1.046,0.227-1.446,0.681c-0.4,0.461-0.598,1.028-0.598,1.71v3.735h-1.052v-6.962h0.867l0.12,1.291h0.054
				c0.257-0.455,0.568-0.801,0.932-1.046c0.365-0.245,0.765-0.371,1.202-0.371c0.305,0,0.585,0.024,0.831,0.078L570.902-2072.028
				L570.902-2072.028z M577.799-2072.202c-0.502,0-0.879,0.078-1.13,0.233c-0.257,0.155-0.382,0.37-0.382,0.651
				c0,0.186,0.048,0.341,0.144,0.472c0.095,0.132,0.245,0.257,0.46,0.377c0.209,0.119,0.616,0.287,1.219,0.514
				c0.825,0.299,1.381,0.604,1.673,0.909c0.287,0.305,0.431,0.687,0.431,1.148c0,0.645-0.239,1.147-0.723,1.5
				c-0.479,0.346-1.16,0.525-2.032,0.525c-0.92,0-1.638-0.149-2.157-0.437v-0.979c0.334,0.167,0.693,0.305,1.075,0.4
				c0.383,0.096,0.753,0.144,1.112,0.144c0.55,0,0.974-0.083,1.267-0.263c0.299-0.173,0.442-0.442,0.442-0.801
				c0-0.269-0.114-0.502-0.353-0.693c-0.233-0.198-0.688-0.424-1.369-0.688c-0.651-0.239-1.112-0.448-1.381-0.627
				c-0.275-0.179-0.478-0.389-0.609-0.616c-0.138-0.227-0.203-0.501-0.203-0.818c0-0.567,0.233-1.016,0.693-1.339
				c0.46-0.328,1.094-0.496,1.895-0.496c0.753,0,1.482,0.155,2.2,0.46l-0.376,0.854
				C578.994-2072.058,578.367-2072.202,577.799-2072.202L577.799-2072.202z M586.805-2065.998l-0.155-0.938h-0.054
				c-0.215,0.347-0.514,0.609-0.902,0.789c-0.382,0.185-0.819,0.275-1.309,0.275c-0.843,0-1.476-0.203-1.9-0.603
				c-0.418-0.401-0.634-1.046-0.634-1.931v-4.554h1.07v4.519c0,0.567,0.125,0.985,0.389,1.267c0.257,0.28,0.657,0.418,1.208,0.418
				c0.729,0,1.261-0.197,1.602-0.598c0.334-0.394,0.502-1.046,0.502-1.949v-3.657h1.052v6.962H586.805L586.805-2065.998z
				 M595.268-2066.823c-0.508,0.634-1.219,0.95-2.122,0.95c-0.454,0-0.867-0.083-1.243-0.251c-0.371-0.167-0.688-0.424-0.944-0.771
				h-0.072c0.048,0.407,0.072,0.79,0.072,1.154v2.862h-1.052v-10.082h0.86l0.144,0.956h0.048c0.275-0.382,0.592-0.657,0.95-0.824
				c0.359-0.174,0.771-0.257,1.237-0.257c0.92,0,1.631,0.316,2.134,0.945c0.502,0.633,0.753,1.518,0.753,2.653
				C596.033-2068.341,595.776-2067.457,595.268-2066.823L595.268-2066.823z M594.431-2071.497c-0.34-0.46-0.819-0.692-1.44-0.692
				c-0.711,0-1.226,0.197-1.542,0.591c-0.317,0.395-0.478,1.017-0.49,1.877v0.233c0,0.98,0.167,1.679,0.49,2.098
				c0.329,0.424,0.849,0.633,1.572,0.633c0.598,0,1.07-0.245,1.41-0.729c0.341-0.483,0.508-1.16,0.508-2.014
				C594.939-2070.367,594.772-2071.03,594.431-2071.497L594.431-2071.497z M603.235-2066.823c-0.508,0.634-1.219,0.95-2.122,0.95
				c-0.455,0-0.867-0.083-1.243-0.251c-0.376-0.167-0.688-0.424-0.944-0.771h-0.072c0.048,0.407,0.072,0.79,0.072,1.154v2.862
				h-1.052v-10.082h0.86l0.144,0.956h0.048c0.275-0.382,0.585-0.657,0.95-0.824c0.358-0.174,0.771-0.257,1.237-0.257
				c0.92,0,1.631,0.316,2.133,0.945c0.502,0.633,0.753,1.518,0.753,2.653C604-2068.341,603.743-2067.457,603.235-2066.823
				L603.235-2066.823z M602.398-2071.497c-0.341-0.46-0.819-0.692-1.44-0.692c-0.711,0-1.225,0.197-1.542,0.591
				c-0.316,0.395-0.478,1.017-0.49,1.877v0.233c0,0.98,0.167,1.679,0.49,2.098c0.329,0.424,0.849,0.633,1.572,0.633
				c0.597,0,1.069-0.245,1.41-0.729c0.341-0.483,0.508-1.16,0.508-2.014C602.906-2070.367,602.739-2071.03,602.398-2071.497
				L602.398-2071.497z M610.986-2066.829c-0.568,0.64-1.356,0.956-2.367,0.956c-0.622,0-1.171-0.149-1.656-0.437
				c-0.484-0.292-0.854-0.711-1.117-1.261c-0.263-0.544-0.395-1.184-0.395-1.918c0-1.129,0.287-2.014,0.854-2.647
				c0.562-0.634,1.351-0.95,2.361-0.95c0.974,0,1.745,0.323,2.319,0.974c0.574,0.646,0.86,1.523,0.86,2.624
				C611.847-2068.353,611.56-2067.468,610.986-2066.829L610.986-2066.829z M610.215-2071.502c-0.353-0.46-0.884-0.687-1.583-0.687
				c-0.688,0-1.208,0.227-1.56,0.681c-0.353,0.449-0.526,1.124-0.526,2.02c0,0.891,0.179,1.566,0.532,2.032
				c0.358,0.466,0.878,0.7,1.572,0.7c0.688,0,1.213-0.233,1.566-0.694c0.358-0.466,0.538-1.141,0.538-2.038
				C610.753-2070.373,610.574-2071.042,610.215-2071.502L610.215-2071.502z M617.555-2072.028c-0.293-0.065-0.544-0.096-0.765-0.096
				c-0.562,0-1.046,0.227-1.44,0.681c-0.4,0.461-0.604,1.028-0.604,1.71v3.735h-1.052v-6.962h0.867l0.125,1.291h0.048
				c0.257-0.455,0.568-0.801,0.933-1.046c0.364-0.245,0.765-0.371,1.201-0.371c0.311,0,0.585,0.024,0.831,0.078L617.555-2072.028
				L617.555-2072.028z M620.429-2067.08c0.197,0.227,0.472,0.334,0.819,0.334c0.185,0,0.364-0.012,0.538-0.042
				c0.173-0.024,0.311-0.054,0.412-0.084v0.807c-0.114,0.054-0.281,0.102-0.502,0.137c-0.227,0.037-0.424,0.054-0.604,0.054
				c-1.344,0-2.014-0.711-2.014-2.127v-4.141h-0.999v-0.503l0.999-0.442l0.442-1.482h0.61v1.607h2.02v0.819h-2.02v4.1
				C620.13-2067.624,620.226-2067.307,620.429-2067.08L620.429-2067.08z M626.968-2065.998v-9.879h1.052v9.879H626.968
				L626.968-2065.998z M635.4-2066.829c-0.568,0.64-1.356,0.956-2.367,0.956c-0.622,0-1.171-0.149-1.656-0.437
				c-0.484-0.292-0.854-0.711-1.117-1.261c-0.263-0.544-0.395-1.184-0.395-1.918c0-1.129,0.287-2.014,0.849-2.647
				c0.567-0.634,1.356-0.95,2.367-0.95c0.968,0,1.745,0.323,2.319,0.974c0.574,0.646,0.86,1.523,0.86,2.624
				C636.261-2068.353,635.974-2067.468,635.4-2066.829L635.4-2066.829z M634.629-2071.502c-0.359-0.46-0.885-0.687-1.584-0.687
				c-0.687,0-1.207,0.227-1.56,0.681c-0.353,0.449-0.526,1.124-0.526,2.02c0,0.891,0.179,1.566,0.532,2.032
				c0.353,0.466,0.878,0.7,1.566,0.7c0.693,0,1.213-0.233,1.572-0.694c0.358-0.466,0.538-1.141,0.538-2.038
				C635.167-2070.373,634.988-2071.042,634.629-2071.502L634.629-2071.502z M642.512-2072.141c0.12,0.149,0.221,0.346,0.317,0.585
				c0.09,0.239,0.138,0.508,0.138,0.807c0,0.682-0.233,1.226-0.699,1.632c-0.46,0.406-1.1,0.609-1.913,0.609
				c-0.209,0-0.406-0.018-0.586-0.048c-0.448,0.233-0.675,0.532-0.675,0.891c0,0.191,0.078,0.334,0.239,0.425
				c0.155,0.09,0.424,0.138,0.807,0.138h1.231c0.753,0,1.327,0.155,1.733,0.472c0.406,0.322,0.61,0.783,0.61,1.386
				c0,0.771-0.311,1.357-0.933,1.763c-0.615,0.4-1.518,0.604-2.701,0.604c-0.909,0-1.614-0.167-2.104-0.508
				c-0.496-0.341-0.741-0.819-0.741-1.435c0-0.424,0.138-0.789,0.407-1.099c0.269-0.306,0.651-0.515,1.142-0.628
				c-0.173-0.078-0.323-0.203-0.448-0.371c-0.12-0.174-0.18-0.37-0.18-0.592c0-0.257,0.072-0.478,0.204-0.669
				c0.137-0.191,0.353-0.371,0.639-0.55c-0.358-0.149-0.651-0.4-0.878-0.759c-0.227-0.353-0.334-0.759-0.334-1.213
				c0-0.765,0.227-1.351,0.681-1.763c0.46-0.412,1.105-0.622,1.942-0.622c0.365,0,0.693,0.042,0.986,0.125h2.403v0.669
				L642.512-2072.141L642.512-2072.141z M638.651-2065.819c-0.269,0.233-0.4,0.556-0.4,0.986c0,0.377,0.162,0.664,0.478,0.854
				c0.317,0.198,0.771,0.293,1.363,0.293c0.885,0,1.542-0.131,1.966-0.395c0.424-0.263,0.64-0.621,0.64-1.076
				c0-0.376-0.12-0.639-0.353-0.783c-0.233-0.149-0.669-0.221-1.315-0.221h-1.261
				C639.291-2066.159,638.92-2066.046,638.651-2065.819L638.651-2065.819z M640.367-2072.315c-0.496,0-0.878,0.132-1.141,0.4
				c-0.269,0.263-0.401,0.658-0.401,1.184c0,0.49,0.138,0.854,0.413,1.105c0.275,0.251,0.657,0.377,1.147,0.377
				c1.028,0,1.542-0.503,1.542-1.501C641.927-2071.795,641.407-2072.315,640.367-2072.315L640.367-2072.315z M646.2-2074.311
				c-0.125,0.114-0.269,0.173-0.436,0.173c-0.179,0-0.329-0.059-0.448-0.173c-0.12-0.12-0.173-0.293-0.173-0.532
				s0.054-0.419,0.173-0.533c0.12-0.107,0.269-0.167,0.448-0.167c0.167,0,0.311,0.06,0.436,0.174
				c0.12,0.113,0.186,0.287,0.186,0.526S646.319-2074.431,646.2-2074.311L646.2-2074.311z M646.284-2065.998h-1.058v-6.962h1.058
				V-2065.998L646.284-2065.998z M653.276-2065.998v-4.5c0-0.568-0.126-0.992-0.389-1.273c-0.257-0.281-0.657-0.418-1.213-0.418
				c-0.723,0-1.261,0.197-1.596,0.591c-0.341,0.395-0.508,1.04-0.508,1.948v3.652h-1.052v-6.962h0.855l0.173,0.956h0.048
				c0.215-0.347,0.52-0.609,0.908-0.795c0.389-0.191,0.825-0.287,1.303-0.287c0.837,0,1.464,0.203,1.889,0.61
				c0.424,0.4,0.634,1.046,0.634,1.937v4.542H653.276L653.276-2065.998z M662.629-2065.998h-1.231l-2.642-6.962h1.13l1.494,4.13
				c0.34,0.962,0.538,1.59,0.598,1.877h0.054c0.048-0.222,0.191-0.688,0.442-1.394c0.245-0.704,0.801-2.241,1.661-4.613h1.13
				L662.629-2065.998L662.629-2065.998z M667.357-2074.311c-0.125,0.114-0.269,0.173-0.437,0.173c-0.179,0-0.329-0.059-0.448-0.173
				c-0.12-0.12-0.179-0.293-0.179-0.532s0.06-0.419,0.179-0.533c0.12-0.107,0.269-0.167,0.448-0.167c0.167,0,0.311,0.06,0.437,0.174
				c0.12,0.113,0.185,0.287,0.185,0.526S667.477-2074.431,667.357-2074.311L667.357-2074.311z M667.44-2065.998h-1.058v-6.962h1.058
				V-2065.998L667.44-2065.998z M673.949-2065.998l-0.209-0.992h-0.048c-0.347,0.437-0.693,0.729-1.04,0.885
				c-0.347,0.155-0.777,0.232-1.291,0.232c-0.688,0-1.231-0.18-1.62-0.532c-0.394-0.358-0.591-0.867-0.591-1.518
				c0-1.404,1.124-2.146,3.371-2.211l1.184-0.036v-0.43c0-0.549-0.12-0.95-0.353-1.213c-0.233-0.257-0.609-0.389-1.129-0.389
				c-0.58,0-1.231,0.179-1.966,0.532l-0.323-0.807c0.341-0.186,0.717-0.329,1.129-0.437c0.407-0.107,0.813-0.161,1.226-0.161
				c0.831,0,1.446,0.185,1.847,0.555c0.4,0.365,0.598,0.957,0.598,1.77v4.751H673.949L673.949-2065.998z M673.68-2069.422
				l-1.058,0.048c-0.837,0.023-1.44,0.155-1.811,0.388c-0.371,0.227-0.556,0.586-0.556,1.076c0,0.383,0.12,0.67,0.347,0.867
				c0.233,0.203,0.556,0.298,0.968,0.298c0.657,0,1.171-0.179,1.548-0.538c0.371-0.358,0.562-0.861,0.562-1.512V-2069.422
				L673.68-2069.422z M682.872-2074.449c-0.574,0-1.022,0.119-1.338,0.365c-0.323,0.25-0.484,0.591-0.484,1.022
				c0,0.322,0.06,0.586,0.18,0.795c0.113,0.203,0.316,0.395,0.598,0.562c0.281,0.173,0.711,0.364,1.291,0.567
				c0.974,0.347,1.644,0.724,2.008,1.118c0.365,0.4,0.55,0.914,0.55,1.548c0,0.818-0.293,1.458-0.891,1.913
				c-0.592,0.46-1.393,0.687-2.408,0.687c-1.1,0-1.949-0.144-2.54-0.425v-1.045c0.382,0.161,0.795,0.292,1.243,0.383
				c0.448,0.096,0.896,0.143,1.333,0.143c0.723,0,1.261-0.137,1.625-0.412c0.365-0.275,0.544-0.651,0.544-1.142
				c0-0.316-0.06-0.58-0.191-0.789c-0.131-0.204-0.346-0.395-0.646-0.568c-0.305-0.173-0.765-0.371-1.38-0.592
				c-0.867-0.305-1.482-0.676-1.853-1.094c-0.371-0.425-0.556-0.98-0.556-1.661c0-0.712,0.269-1.285,0.807-1.704
				c0.538-0.424,1.249-0.639,2.133-0.639c0.92,0,1.77,0.173,2.546,0.508l-0.341,0.944
				C684.336-2074.288,683.595-2074.449,682.872-2074.449L682.872-2074.449z M692.56-2066.829c-0.567,0.64-1.356,0.956-2.367,0.956
				c-0.622,0-1.171-0.149-1.655-0.437c-0.484-0.292-0.854-0.711-1.118-1.261c-0.263-0.544-0.395-1.184-0.395-1.918
				c0-1.129,0.287-2.014,0.854-2.647c0.568-0.634,1.351-0.95,2.361-0.95c0.974,0,1.745,0.323,2.319,0.974
				c0.574,0.646,0.861,1.523,0.861,2.624C693.42-2068.353,693.133-2067.468,692.56-2066.829L692.56-2066.829z M691.789-2071.502
				c-0.353-0.46-0.884-0.687-1.583-0.687c-0.688,0-1.207,0.227-1.56,0.681c-0.353,0.449-0.526,1.124-0.526,2.02
				c0,0.891,0.179,1.566,0.532,2.032c0.359,0.466,0.879,0.7,1.572,0.7c0.688,0,1.213-0.233,1.566-0.694
				c0.359-0.466,0.538-1.141,0.538-2.038C692.327-2070.373,692.147-2071.042,691.789-2071.502L691.789-2071.502z M699.582-2071.825
				c-0.233-0.096-0.484-0.174-0.759-0.233c-0.275-0.06-0.52-0.096-0.729-0.096c-1.416,0-2.122,0.902-2.122,2.708
				c0,0.854,0.173,1.511,0.514,1.966c0.347,0.46,0.86,0.687,1.536,0.687c0.58,0,1.171-0.125,1.781-0.376v0.933
				c-0.466,0.245-1.052,0.364-1.757,0.364c-1.004,0-1.787-0.311-2.336-0.932c-0.556-0.622-0.831-1.495-0.831-2.63
				c0-1.166,0.281-2.063,0.842-2.696c0.562-0.639,1.357-0.956,2.396-0.956c0.335,0,0.669,0.036,1.004,0.108
				c0.334,0.071,0.591,0.155,0.783,0.256L699.582-2071.825L699.582-2071.825z M702.427-2074.311
				c-0.125,0.114-0.269,0.173-0.437,0.173c-0.179,0-0.329-0.059-0.448-0.173c-0.114-0.12-0.173-0.293-0.173-0.532
				s0.06-0.419,0.173-0.533c0.12-0.107,0.269-0.167,0.448-0.167c0.167,0,0.311,0.06,0.437,0.174
				c0.119,0.113,0.185,0.287,0.185,0.526S702.546-2074.431,702.427-2074.311L702.427-2074.311z M702.511-2065.998h-1.058v-6.962
				h1.058V-2065.998L702.511-2065.998z M709.019-2065.998l-0.209-0.992h-0.048c-0.347,0.437-0.693,0.729-1.04,0.885
				c-0.341,0.155-0.771,0.232-1.291,0.232c-0.687,0-1.231-0.18-1.62-0.532c-0.395-0.358-0.585-0.867-0.585-1.518
				c0-1.404,1.124-2.146,3.371-2.211l1.177-0.036v-0.43c0-0.549-0.12-0.95-0.353-1.213c-0.233-0.257-0.609-0.389-1.124-0.389
				c-0.58,0-1.237,0.179-1.972,0.532l-0.323-0.807c0.347-0.186,0.717-0.329,1.129-0.437c0.407-0.107,0.819-0.161,1.225-0.161
				c0.831,0,1.446,0.185,1.847,0.555c0.401,0.365,0.598,0.957,0.598,1.77v4.751H709.019L709.019-2065.998z M708.75-2069.422
				l-1.052,0.048c-0.843,0.023-1.446,0.155-1.817,0.388c-0.371,0.227-0.556,0.586-0.556,1.076c0,0.383,0.12,0.67,0.347,0.867
				c0.233,0.203,0.556,0.298,0.968,0.298c0.657,0,1.171-0.179,1.548-0.538c0.37-0.358,0.562-0.861,0.562-1.512V-2069.422
				L708.75-2069.422z"/>
		</defs>
		<clipPath id="SVGID_14_">
			<use xlink:href="#SVGID_13_"  overflow="visible"/>
		</clipPath>
		<g clip-path="url(#SVGID_14_)">
			<image overflow="visible" width="1366" height="5889" xlink:href="A62DA521.jpg"  transform="matrix(1 0 0 1 67 -2694)">
			</image>
		</g>
	</g>
	<g>
		<defs>
			<polygon id="SVGID_15_" points="713.029,-2075.877 711.971,-2075.877 711.971,-2065.998 713.029,-2065.998 713.029,-2075.877 			
				"/>
		</defs>
		<clipPath id="SVGID_16_">
			<use xlink:href="#SVGID_15_"  overflow="visible"/>
		</clipPath>
		<g clip-path="url(#SVGID_16_)">
			<image overflow="visible" width="1366" height="5889" xlink:href="A62DA526.jpg"  transform="matrix(1 0 0 1 67 -2694)">
			</image>
		</g>
	</g>
	<g>
		<defs>
			<path id="SVGID_17_" d="M439.693-2050.399l-0.209-0.992h-0.054c-0.346,0.437-0.693,0.729-1.04,0.884
				c-0.341,0.156-0.771,0.234-1.291,0.234c-0.688,0-1.231-0.181-1.62-0.533c-0.395-0.358-0.585-0.86-0.585-1.518
				c0-1.404,1.123-2.14,3.371-2.211l1.177-0.036v-0.431c0-0.55-0.113-0.95-0.353-1.213c-0.233-0.257-0.61-0.389-1.124-0.389
				c-0.58,0-1.237,0.18-1.972,0.532l-0.323-0.807c0.347-0.185,0.718-0.329,1.13-0.436c0.406-0.107,0.819-0.155,1.225-0.155
				c0.831,0,1.446,0.179,1.847,0.55s0.598,0.956,0.598,1.769v4.751H439.693L439.693-2050.399z M439.418-2053.824l-1.052,0.048
				c-0.843,0.029-1.446,0.155-1.817,0.388c-0.371,0.233-0.556,0.591-0.556,1.076c0,0.382,0.119,0.669,0.347,0.873
				c0.233,0.197,0.556,0.293,0.968,0.293c0.658,0,1.171-0.18,1.548-0.538c0.377-0.358,0.562-0.861,0.562-1.512V-2053.824
				L439.418-2053.824z M446.961-2056.226c-0.233-0.096-0.49-0.174-0.765-0.233s-0.52-0.089-0.729-0.089
				c-1.411,0-2.122,0.897-2.122,2.702c0,0.854,0.173,1.512,0.52,1.966c0.347,0.46,0.855,0.688,1.53,0.688
				c0.58,0,1.177-0.125,1.787-0.377v0.933c-0.466,0.245-1.052,0.365-1.757,0.365c-1.01,0-1.787-0.312-2.343-0.933
				c-0.55-0.616-0.825-1.495-0.825-2.629c0-1.166,0.281-2.062,0.836-2.695c0.562-0.634,1.363-0.957,2.397-0.957
				c0.334,0,0.669,0.036,1.004,0.113c0.334,0.072,0.598,0.156,0.789,0.251L446.961-2056.226L446.961-2056.226z M453.146-2056.226
				c-0.233-0.096-0.484-0.174-0.759-0.233s-0.52-0.089-0.729-0.089c-1.416,0-2.122,0.897-2.122,2.702
				c0,0.854,0.173,1.512,0.514,1.966c0.347,0.46,0.86,0.688,1.536,0.688c0.58,0,1.171-0.125,1.781-0.377v0.933
				c-0.46,0.245-1.052,0.365-1.757,0.365c-1.004,0-1.787-0.312-2.336-0.933c-0.556-0.616-0.831-1.495-0.831-2.629
				c0-1.166,0.281-2.062,0.843-2.695c0.562-0.634,1.357-0.957,2.396-0.957c0.335,0,0.669,0.036,1.004,0.113
				c0.334,0.072,0.598,0.156,0.783,0.251L453.146-2056.226L453.146-2056.226z M460.169-2051.229
				c-0.574,0.639-1.363,0.957-2.367,0.957c-0.622,0-1.177-0.145-1.655-0.437c-0.484-0.294-0.855-0.712-1.118-1.262
				c-0.263-0.543-0.395-1.183-0.395-1.912c0-1.136,0.281-2.021,0.849-2.654s1.356-0.95,2.361-0.95c0.974,0,1.745,0.329,2.319,0.974
				s0.86,1.523,0.86,2.63C461.023-2052.754,460.743-2051.864,460.169-2051.229L460.169-2051.229z M459.398-2055.904
				c-0.358-0.454-0.885-0.687-1.584-0.687c-0.693,0-1.213,0.227-1.56,0.681c-0.353,0.454-0.532,1.13-0.532,2.026
				c0,0.885,0.18,1.565,0.538,2.032c0.353,0.46,0.878,0.693,1.566,0.693c0.687,0,1.213-0.227,1.572-0.693
				c0.358-0.46,0.538-1.141,0.538-2.032C459.936-2054.768,459.756-2055.444,459.398-2055.904L459.398-2055.904z M467.747-2050.399
				l-0.149-0.932h-0.06c-0.215,0.341-0.514,0.604-0.896,0.783c-0.383,0.185-0.819,0.275-1.315,0.275c-0.843,0-1.476-0.204-1.9-0.604
				c-0.418-0.4-0.628-1.046-0.628-1.93v-4.549h1.064v4.513c0,0.567,0.132,0.992,0.389,1.267c0.257,0.281,0.663,0.418,1.213,0.418
				c0.723,0,1.261-0.197,1.596-0.591c0.334-0.4,0.502-1.052,0.502-1.955v-3.652h1.058v6.957H467.747L467.747-2050.399z
				 M475.612-2050.399v-4.5c0-0.568-0.131-0.992-0.389-1.273c-0.257-0.275-0.663-0.418-1.213-0.418
				c-0.724,0-1.261,0.196-1.596,0.591c-0.34,0.394-0.508,1.045-0.508,1.948v3.652h-1.058v-6.957h0.86l0.173,0.95h0.048
				c0.215-0.341,0.52-0.609,0.909-0.795c0.388-0.19,0.825-0.287,1.303-0.287c0.836,0,1.464,0.203,1.889,0.609
				c0.424,0.406,0.633,1.052,0.633,1.937v4.542H475.612L475.612-2050.399z M480.256-2051.481c0.203,0.227,0.472,0.335,0.819,0.335
				c0.191,0,0.371-0.012,0.544-0.036c0.173-0.03,0.311-0.06,0.412-0.09v0.807c-0.113,0.054-0.281,0.102-0.508,0.138
				c-0.221,0.036-0.418,0.055-0.598,0.055c-1.345,0-2.02-0.712-2.02-2.128v-4.136h-0.998v-0.508l0.998-0.442l0.448-1.483h0.609
				v1.614h2.014v0.819h-2.014v4.094C479.963-2052.025,480.059-2051.702,480.256-2051.481L480.256-2051.481z M485.491-2056.603
				c-0.502,0-0.878,0.078-1.129,0.233c-0.257,0.161-0.382,0.376-0.382,0.651c0,0.185,0.048,0.341,0.143,0.472
				c0.096,0.132,0.245,0.257,0.46,0.377c0.209,0.119,0.616,0.293,1.219,0.514c0.825,0.299,1.38,0.604,1.673,0.909
				c0.287,0.305,0.43,0.688,0.43,1.147c0,0.651-0.239,1.148-0.723,1.5c-0.478,0.352-1.159,0.526-2.032,0.526
				c-0.92,0-1.638-0.145-2.158-0.437v-0.981c0.335,0.168,0.693,0.305,1.076,0.4c0.383,0.096,0.753,0.144,1.112,0.144
				c0.55,0,0.968-0.083,1.267-0.264c0.299-0.173,0.442-0.442,0.442-0.801c0-0.269-0.114-0.502-0.353-0.693
				c-0.233-0.191-0.693-0.424-1.375-0.681c-0.646-0.245-1.105-0.454-1.38-0.633c-0.269-0.18-0.472-0.383-0.604-0.616
				c-0.138-0.227-0.204-0.496-0.204-0.818c0-0.563,0.233-1.011,0.693-1.339c0.46-0.329,1.094-0.497,1.895-0.497
				c0.753,0,1.482,0.155,2.2,0.46l-0.377,0.854C486.687-2056.459,486.059-2056.603,485.491-2056.603L485.491-2056.603z
				 M490.787-2050.441c-0.137,0.149-0.329,0.227-0.568,0.227c-0.215,0-0.395-0.072-0.538-0.204
				c-0.144-0.131-0.209-0.353-0.209-0.657c0-0.28,0.06-0.496,0.191-0.646c0.131-0.144,0.316-0.215,0.556-0.215
				c0.245,0,0.437,0.071,0.574,0.215c0.138,0.149,0.209,0.365,0.209,0.646C491.002-2050.799,490.93-2050.584,490.787-2050.441
				L490.787-2050.441z M499.471-2058.725v8.326h-1.076v-8.326h-2.94v-0.956h6.957v0.956H499.471L499.471-2058.725z M508.8-2051.229
				c-0.574,0.639-1.363,0.957-2.367,0.957c-0.627,0-1.177-0.145-1.662-0.437c-0.478-0.294-0.854-0.712-1.117-1.262
				c-0.263-0.543-0.389-1.183-0.389-1.912c0-1.136,0.281-2.021,0.849-2.654s1.351-0.95,2.361-0.95c0.974,0,1.745,0.329,2.319,0.974
				s0.86,1.523,0.86,2.63C509.654-2052.754,509.368-2051.864,508.8-2051.229L508.8-2051.229z M508.029-2055.904
				c-0.358-0.454-0.891-0.687-1.583-0.687c-0.693,0-1.213,0.227-1.566,0.681c-0.347,0.454-0.526,1.13-0.526,2.026
				c0,0.885,0.179,1.565,0.532,2.032c0.358,0.46,0.878,0.693,1.572,0.693c0.688,0,1.213-0.227,1.572-0.693
				c0.353-0.46,0.532-1.141,0.532-2.032C508.561-2054.768,508.381-2055.444,508.029-2055.904L508.029-2055.904z M518.739-2056.429
				c-0.287-0.066-0.544-0.096-0.765-0.096c-0.562,0-1.04,0.227-1.44,0.687c-0.4,0.455-0.604,1.023-0.604,1.704v3.735h-1.052v-6.957
				h0.873l0.12,1.285h0.048c0.263-0.448,0.574-0.8,0.932-1.045c0.365-0.246,0.765-0.371,1.201-0.371c0.311,0,0.586,0.03,0.831,0.078
				L518.739-2056.429L518.739-2056.429z M520.89-2053.686c0.024,0.813,0.227,1.434,0.622,1.858c0.389,0.425,0.938,0.634,1.649,0.634
				c0.753,0,1.488-0.156,2.224-0.473v0.944c-0.371,0.161-0.723,0.275-1.058,0.341c-0.329,0.072-0.735,0.108-1.201,0.108
				c-1.028,0-1.841-0.312-2.432-0.939c-0.598-0.627-0.896-1.494-0.896-2.611s0.274-2.009,0.831-2.671
				c0.55-0.657,1.291-0.992,2.223-0.992c0.873,0,1.56,0.287,2.068,0.861c0.508,0.573,0.765,1.333,0.765,2.271v0.67H520.89
				L520.89-2053.686z M524.105-2056.071c-0.292-0.352-0.717-0.532-1.267-0.532c-0.556,0-1.004,0.186-1.338,0.544
				c-0.329,0.365-0.526,0.872-0.586,1.512h3.64C524.554-2055.21,524.404-2055.718,524.105-2056.071L524.105-2056.071z
				 M531.797-2056.226c-0.233-0.096-0.49-0.174-0.765-0.233c-0.274-0.06-0.52-0.089-0.729-0.089c-1.411,0-2.122,0.897-2.122,2.702
				c0,0.854,0.173,1.512,0.52,1.966c0.347,0.46,0.854,0.688,1.53,0.688c0.58,0,1.178-0.125,1.787-0.377v0.933
				c-0.466,0.245-1.052,0.365-1.757,0.365c-1.01,0-1.787-0.312-2.343-0.933c-0.55-0.616-0.825-1.495-0.825-2.629
				c0-1.166,0.281-2.062,0.837-2.695c0.562-0.634,1.363-0.957,2.396-0.957c0.335,0,0.669,0.036,1.004,0.113
				c0.335,0.072,0.598,0.156,0.789,0.251L531.797-2056.226L531.797-2056.226z M538.814-2051.229
				c-0.568,0.639-1.357,0.957-2.367,0.957c-0.622,0-1.171-0.145-1.656-0.437c-0.484-0.294-0.854-0.712-1.117-1.262
				c-0.263-0.543-0.395-1.183-0.395-1.912c0-1.136,0.287-2.021,0.854-2.654c0.562-0.633,1.351-0.95,2.361-0.95
				c0.968,0,1.745,0.329,2.319,0.974s0.861,1.523,0.861,2.63C539.675-2052.754,539.388-2051.864,538.814-2051.229L538.814-2051.229z
				 M538.043-2055.904c-0.359-0.454-0.885-0.687-1.584-0.687c-0.687,0-1.207,0.227-1.56,0.681s-0.526,1.13-0.526,2.026
				c0,0.885,0.179,1.565,0.532,2.032c0.358,0.46,0.878,0.693,1.566,0.693c0.693,0,1.213-0.227,1.572-0.693
				c0.358-0.46,0.538-1.141,0.538-2.032C538.581-2054.768,538.401-2055.444,538.043-2055.904L538.043-2055.904z M544.276-2050.399
				h-1.231l-2.642-6.957h1.13l1.5,4.124c0.335,0.968,0.532,1.59,0.592,1.877h0.054c0.048-0.222,0.191-0.688,0.442-1.394
				c0.245-0.704,0.801-2.241,1.667-4.607h1.129L544.276-2050.399L544.276-2050.399z M548.735-2053.686
				c0.024,0.813,0.227,1.434,0.622,1.858c0.389,0.425,0.944,0.634,1.655,0.634c0.747,0,1.488-0.156,2.218-0.473v0.944
				c-0.371,0.161-0.724,0.275-1.052,0.341c-0.334,0.072-0.735,0.108-1.207,0.108c-1.028,0-1.841-0.312-2.433-0.939
				c-0.598-0.627-0.89-1.494-0.89-2.611s0.274-2.009,0.825-2.671c0.556-0.657,1.297-0.992,2.229-0.992
				c0.867,0,1.56,0.287,2.068,0.861c0.508,0.573,0.759,1.333,0.759,2.271v0.67H548.735L548.735-2053.686z M551.956-2056.071
				c-0.299-0.352-0.717-0.532-1.273-0.532c-0.556,0-1.004,0.186-1.333,0.544c-0.335,0.365-0.526,0.872-0.586,1.512h3.634
				C552.398-2055.21,552.249-2055.718,551.956-2056.071L551.956-2056.071z M559.188-2056.429c-0.293-0.066-0.544-0.096-0.765-0.096
				c-0.562,0-1.046,0.227-1.44,0.687c-0.4,0.455-0.604,1.023-0.604,1.704v3.735h-1.052v-6.957h0.866l0.126,1.285h0.048
				c0.257-0.448,0.567-0.8,0.932-1.045c0.365-0.246,0.765-0.371,1.201-0.371c0.311,0,0.586,0.03,0.831,0.078L559.188-2056.429
				L559.188-2056.429z M566.443-2049.437c-0.299,0.783-0.646,1.339-1.04,1.668c-0.395,0.328-0.884,0.49-1.458,0.49
				c-0.323,0-0.64-0.036-0.95-0.108v-0.843c0.233,0.048,0.49,0.078,0.783,0.078c0.723,0,1.237-0.407,1.548-1.22l0.382-0.992
				l-2.803-6.992h1.129l1.524,3.968c0.335,0.903,0.544,1.554,0.622,1.96h0.053c0.054-0.215,0.167-0.586,0.341-1.111
				c0.179-0.52,0.753-2.128,1.727-4.817h1.13L566.443-2049.437L566.443-2049.437z M575.707-2051.229
				c-0.568,0.639-1.357,0.957-2.367,0.957c-0.622,0-1.171-0.145-1.656-0.437c-0.484-0.294-0.854-0.712-1.118-1.262
				c-0.263-0.543-0.394-1.183-0.394-1.912c0-1.136,0.287-2.021,0.849-2.654c0.567-0.633,1.356-0.95,2.366-0.95
				c0.969,0,1.746,0.329,2.319,0.974s0.86,1.523,0.86,2.63C576.567-2052.754,576.281-2051.864,575.707-2051.229L575.707-2051.229z
				 M574.936-2055.904c-0.359-0.454-0.885-0.687-1.584-0.687c-0.687,0-1.207,0.227-1.56,0.681c-0.353,0.454-0.526,1.13-0.526,2.026
				c0,0.885,0.18,1.565,0.532,2.032c0.353,0.46,0.878,0.693,1.566,0.693c0.693,0,1.213-0.227,1.572-0.693
				c0.358-0.46,0.538-1.141,0.538-2.032C575.474-2054.768,575.294-2055.444,574.936-2055.904L574.936-2055.904z M583.285-2050.399
				l-0.149-0.932h-0.06c-0.215,0.341-0.514,0.604-0.897,0.783c-0.382,0.185-0.818,0.275-1.309,0.275c-0.849,0-1.482-0.204-1.9-0.604
				c-0.424-0.4-0.634-1.046-0.634-1.93v-4.549h1.064v4.513c0,0.567,0.131,0.992,0.389,1.267c0.257,0.281,0.663,0.418,1.213,0.418
				c0.729,0,1.261-0.197,1.596-0.591c0.335-0.4,0.508-1.052,0.508-1.955v-3.652h1.052v6.957H583.285L583.285-2050.399z
				 M590.254-2056.429c-0.293-0.066-0.544-0.096-0.765-0.096c-0.562,0-1.046,0.227-1.446,0.687
				c-0.395,0.455-0.598,1.023-0.598,1.704v3.735h-1.052v-6.957h0.867l0.119,1.285h0.054c0.257-0.448,0.568-0.8,0.933-1.045
				c0.365-0.246,0.765-0.371,1.201-0.371c0.311,0,0.586,0.03,0.831,0.078L590.254-2056.429L590.254-2056.429z M600.223-2051.229
				c-0.568,0.639-1.363,0.957-2.367,0.957c-0.622,0-1.177-0.145-1.656-0.437c-0.484-0.294-0.854-0.712-1.117-1.262
				c-0.263-0.543-0.395-1.183-0.395-1.912c0-1.136,0.281-2.021,0.849-2.654s1.356-0.95,2.36-0.95c0.975,0,1.751,0.329,2.325,0.974
				s0.854,1.523,0.854,2.63C601.077-2052.754,600.796-2051.864,600.223-2051.229L600.223-2051.229z M599.452-2055.904
				c-0.359-0.454-0.885-0.687-1.584-0.687c-0.687,0-1.207,0.227-1.56,0.681s-0.526,1.13-0.526,2.026
				c0,0.885,0.173,1.565,0.532,2.032c0.353,0.46,0.878,0.693,1.566,0.693c0.693,0,1.213-0.227,1.572-0.693
				c0.358-0.46,0.538-1.141,0.538-2.032C599.989-2054.768,599.81-2055.444,599.452-2055.904L599.452-2055.904z M602.93-2050.399
				v-9.879h1.052v9.879H602.93L602.93-2050.399z M611.088-2050.399l-0.138-0.932h-0.06c-0.484,0.705-1.213,1.059-2.182,1.059
				c-0.908,0-1.619-0.312-2.122-0.933c-0.508-0.622-0.759-1.506-0.759-2.654c0-1.147,0.251-2.038,0.759-2.671
				c0.508-0.634,1.219-0.957,2.122-0.957c0.944,0,1.668,0.347,2.17,1.034h0.083l-0.042-0.502l-0.03-0.49v-2.833h1.058v9.879H611.088
				L611.088-2050.399z M610.891-2053.86c0-0.986-0.161-1.691-0.49-2.109c-0.329-0.425-0.849-0.634-1.572-0.634
				c-0.616,0-1.087,0.239-1.417,0.723c-0.329,0.479-0.49,1.154-0.49,2.033c0,0.891,0.161,1.56,0.484,2.014
				c0.329,0.454,0.807,0.675,1.435,0.675c0.723,0,1.243-0.191,1.566-0.585c0.323-0.389,0.484-1.022,0.484-1.895V-2053.86
				L610.891-2053.86z M621.839-2050.399l-0.215-0.992h-0.048c-0.347,0.437-0.693,0.729-1.04,0.884
				c-0.34,0.156-0.771,0.234-1.291,0.234c-0.688,0-1.231-0.181-1.62-0.533c-0.394-0.358-0.585-0.86-0.585-1.518
				c0-1.404,1.124-2.14,3.371-2.211l1.178-0.036v-0.431c0-0.55-0.12-0.95-0.353-1.213c-0.233-0.257-0.609-0.389-1.124-0.389
				c-0.58,0-1.237,0.18-1.972,0.532l-0.323-0.807c0.347-0.185,0.717-0.329,1.129-0.436c0.407-0.107,0.819-0.155,1.226-0.155
				c0.831,0,1.446,0.179,1.847,0.55s0.598,0.956,0.598,1.769v4.751H621.839L621.839-2050.399z M621.565-2053.824l-1.052,0.048
				c-0.843,0.029-1.446,0.155-1.817,0.388c-0.371,0.233-0.556,0.591-0.556,1.076c0,0.382,0.12,0.669,0.347,0.873
				c0.233,0.197,0.556,0.293,0.968,0.293c0.657,0,1.171-0.18,1.548-0.538s0.562-0.861,0.562-1.512V-2053.824L621.565-2053.824z
				 M629.107-2056.226c-0.233-0.096-0.49-0.174-0.765-0.233c-0.274-0.06-0.52-0.089-0.729-0.089c-1.41,0-2.122,0.897-2.122,2.702
				c0,0.854,0.173,1.512,0.52,1.966c0.347,0.46,0.854,0.688,1.53,0.688c0.58,0,1.178-0.125,1.787-0.377v0.933
				c-0.466,0.245-1.052,0.365-1.757,0.365c-1.01,0-1.787-0.312-2.343-0.933c-0.55-0.616-0.825-1.495-0.825-2.629
				c0-1.166,0.281-2.062,0.837-2.695c0.562-0.634,1.363-0.957,2.396-0.957c0.335,0,0.669,0.036,1.004,0.113
				c0.334,0.072,0.597,0.156,0.789,0.251L629.107-2056.226L629.107-2056.226z M635.293-2056.226
				c-0.233-0.096-0.484-0.174-0.759-0.233s-0.52-0.089-0.729-0.089c-1.417,0-2.122,0.897-2.122,2.702
				c0,0.854,0.173,1.512,0.514,1.966c0.347,0.46,0.861,0.688,1.536,0.688c0.58,0,1.171-0.125,1.781-0.377v0.933
				c-0.466,0.245-1.052,0.365-1.757,0.365c-1.004,0-1.787-0.312-2.337-0.933c-0.556-0.616-0.831-1.495-0.831-2.629
				c0-1.166,0.281-2.062,0.842-2.695c0.562-0.634,1.357-0.957,2.397-0.957c0.334,0,0.669,0.036,1.004,0.113
				c0.334,0.072,0.598,0.156,0.783,0.251L635.293-2056.226L635.293-2056.226z M642.315-2051.229
				c-0.574,0.639-1.363,0.957-2.367,0.957c-0.622,0-1.178-0.145-1.656-0.437c-0.484-0.294-0.86-0.712-1.118-1.262
				c-0.263-0.543-0.395-1.183-0.395-1.912c0-1.136,0.281-2.021,0.849-2.654c0.568-0.633,1.357-0.95,2.361-0.95
				c0.974,0,1.745,0.329,2.319,0.974s0.861,1.523,0.861,2.63C643.17-2052.754,642.883-2051.864,642.315-2051.229L642.315-2051.229z
				 M641.544-2055.904c-0.359-0.454-0.885-0.687-1.584-0.687c-0.693,0-1.213,0.227-1.56,0.681c-0.353,0.454-0.532,1.13-0.532,2.026
				c0,0.885,0.179,1.565,0.538,2.032c0.353,0.46,0.878,0.693,1.566,0.693c0.687,0,1.213-0.227,1.572-0.693
				c0.358-0.46,0.538-1.141,0.538-2.032C642.082-2054.768,641.903-2055.444,641.544-2055.904L641.544-2055.904z M649.894-2050.399
				l-0.149-0.932h-0.06c-0.215,0.341-0.514,0.604-0.896,0.783c-0.382,0.185-0.819,0.275-1.315,0.275c-0.843,0-1.476-0.204-1.9-0.604
				c-0.418-0.4-0.627-1.046-0.627-1.93v-4.549h1.064v4.513c0,0.567,0.131,0.992,0.388,1.267c0.257,0.281,0.664,0.418,1.213,0.418
				c0.723,0,1.261-0.197,1.596-0.591c0.335-0.4,0.502-1.052,0.502-1.955v-3.652h1.058v6.957H649.894L649.894-2050.399z"/>
		</defs>
		<clipPath id="SVGID_18_">
			<use xlink:href="#SVGID_17_"  overflow="visible"/>
		</clipPath>
		<g clip-path="url(#SVGID_18_)">
			<image overflow="visible" width="1366" height="5889" xlink:href="498DE6E.jpg"  transform="matrix(1 0 0 1 67 -2694)">
			</image>
		</g>
	</g>
	<g>
		<defs>
			<path id="SVGID_19_" d="M657.759-2050.399v-4.5c0-0.568-0.132-0.992-0.389-1.273c-0.257-0.275-0.664-0.418-1.213-0.418
				c-0.723,0-1.261,0.196-1.596,0.591c-0.341,0.394-0.508,1.045-0.508,1.948v3.652h-1.058v-6.957h0.861l0.167,0.95h0.054
				c0.215-0.341,0.52-0.609,0.908-0.795c0.389-0.19,0.825-0.287,1.303-0.287c0.837,0,1.464,0.203,1.889,0.609
				c0.424,0.406,0.634,1.052,0.634,1.937v4.542H657.759L657.759-2050.399z M662.402-2051.481c0.203,0.227,0.472,0.335,0.819,0.335
				c0.191,0,0.371-0.012,0.543-0.036c0.174-0.03,0.311-0.06,0.413-0.09v0.807c-0.114,0.054-0.287,0.102-0.508,0.138
				c-0.221,0.036-0.418,0.055-0.597,0.055c-1.345,0-2.02-0.712-2.02-2.128v-4.136h-0.999v-0.508l0.999-0.442l0.448-1.483h0.609
				v1.614h2.014v0.819h-2.014v4.094C662.109-2052.025,662.205-2051.702,662.402-2051.481L662.402-2051.481z M667.638-2056.603
				c-0.502,0-0.878,0.078-1.13,0.233c-0.257,0.161-0.382,0.376-0.382,0.651c0,0.185,0.048,0.341,0.144,0.472
				c0.096,0.132,0.245,0.257,0.46,0.377c0.209,0.119,0.615,0.293,1.219,0.514c0.825,0.299,1.381,0.604,1.674,0.909
				c0.287,0.305,0.43,0.688,0.43,1.147c0,0.651-0.239,1.148-0.723,1.5c-0.484,0.352-1.16,0.526-2.032,0.526
				c-0.92,0-1.637-0.145-2.157-0.437v-0.981c0.334,0.168,0.693,0.305,1.076,0.4c0.382,0.096,0.753,0.144,1.111,0.144
				c0.55,0,0.968-0.083,1.267-0.264c0.299-0.173,0.442-0.442,0.442-0.801c0-0.269-0.113-0.502-0.353-0.693
				c-0.233-0.191-0.693-0.424-1.375-0.681c-0.646-0.245-1.106-0.454-1.381-0.633c-0.269-0.18-0.472-0.383-0.609-0.616
				c-0.131-0.227-0.197-0.496-0.197-0.818c0-0.563,0.233-1.011,0.693-1.339c0.46-0.329,1.094-0.497,1.895-0.497
				c0.753,0,1.482,0.155,2.199,0.46l-0.376,0.854C668.833-2056.459,668.199-2056.603,667.638-2056.603L667.638-2056.603z"/>
		</defs>
		<clipPath id="SVGID_20_">
			<use xlink:href="#SVGID_19_"  overflow="visible"/>
		</clipPath>
		<g clip-path="url(#SVGID_20_)">
			<image overflow="visible" width="1366" height="5889" xlink:href="498DE69.jpg"  transform="matrix(1 0 0 1 67 -2694)">
			</image>
		</g>
	</g>
	<g>
		<defs>
			<path id="SVGID_21_" d="M680.505-2051.224c-0.508,0.634-1.219,0.951-2.122,0.951c-0.454,0-0.867-0.084-1.243-0.252
				c-0.376-0.167-0.687-0.424-0.944-0.771h-0.072c0.048,0.406,0.072,0.789,0.072,1.153v2.863h-1.052v-10.077h0.855l0.149,0.95h0.048
				c0.274-0.382,0.585-0.657,0.95-0.824c0.358-0.168,0.771-0.257,1.237-0.257c0.92,0,1.632,0.317,2.134,0.95
				c0.502,0.627,0.753,1.512,0.753,2.654C681.27-2052.742,681.013-2051.858,680.505-2051.224L680.505-2051.224z M679.668-2055.891
				c-0.341-0.467-0.819-0.699-1.44-0.699c-0.711,0-1.225,0.196-1.542,0.591c-0.317,0.394-0.478,1.022-0.49,1.876v0.239
				c0,0.974,0.167,1.673,0.49,2.098c0.329,0.418,0.849,0.627,1.566,0.627c0.604,0,1.076-0.239,1.417-0.729
				c0.34-0.484,0.508-1.153,0.508-2.007C680.176-2054.768,680.009-2055.431,679.668-2055.891L679.668-2055.891z M683.111-2050.399
				v-9.879h1.052v9.879H683.111L683.111-2050.399z M687.104-2053.686c0.023,0.813,0.227,1.434,0.621,1.858
				c0.389,0.425,0.938,0.634,1.649,0.634c0.753,0,1.494-0.156,2.224-0.473v0.944c-0.371,0.161-0.723,0.275-1.058,0.341
				c-0.329,0.072-0.729,0.108-1.201,0.108c-1.028,0-1.841-0.312-2.432-0.939c-0.598-0.627-0.896-1.494-0.896-2.611
				s0.281-2.009,0.83-2.671c0.55-0.657,1.292-0.992,2.224-0.992c0.873,0,1.566,0.287,2.068,0.861
				c0.508,0.573,0.765,1.333,0.765,2.271v0.67H687.104L687.104-2053.686z M690.325-2056.071c-0.299-0.352-0.723-0.532-1.273-0.532
				c-0.556,0-1.004,0.186-1.333,0.544c-0.334,0.365-0.532,0.872-0.592,1.512h3.64
				C690.767-2055.21,690.617-2055.718,690.325-2056.071L690.325-2056.071z M697.969-2050.399l-0.209-0.992h-0.048
				c-0.347,0.437-0.693,0.729-1.04,0.884c-0.346,0.156-0.777,0.234-1.291,0.234c-0.688,0-1.231-0.181-1.62-0.533
				c-0.394-0.358-0.591-0.86-0.591-1.518c0-1.404,1.124-2.14,3.371-2.211l1.184-0.036v-0.431c0-0.55-0.12-0.95-0.353-1.213
				c-0.233-0.257-0.609-0.389-1.129-0.389c-0.58,0-1.231,0.18-1.966,0.532l-0.323-0.807c0.341-0.185,0.717-0.329,1.13-0.436
				c0.406-0.107,0.813-0.155,1.225-0.155c0.831,0,1.446,0.179,1.847,0.55s0.598,0.956,0.598,1.769v4.751H697.969L697.969-2050.399z
				 M697.7-2053.824l-1.058,0.048c-0.837,0.029-1.44,0.155-1.811,0.388c-0.371,0.233-0.556,0.591-0.556,1.076
				c0,0.382,0.12,0.669,0.347,0.873c0.233,0.197,0.556,0.293,0.968,0.293c0.657,0,1.171-0.18,1.548-0.538
				c0.371-0.358,0.562-0.861,0.562-1.512V-2053.824L697.7-2053.824z M702.989-2056.603c-0.496,0-0.873,0.078-1.129,0.233
				c-0.251,0.161-0.377,0.376-0.377,0.651c0,0.185,0.048,0.341,0.144,0.472c0.096,0.132,0.245,0.257,0.46,0.377
				c0.209,0.119,0.615,0.293,1.219,0.514c0.825,0.299,1.38,0.604,1.667,0.909c0.292,0.305,0.436,0.688,0.436,1.147
				c0,0.651-0.239,1.148-0.723,1.5c-0.484,0.352-1.159,0.526-2.032,0.526c-0.921,0-1.644-0.145-2.158-0.437v-0.981
				c0.334,0.168,0.693,0.305,1.076,0.4c0.382,0.096,0.753,0.144,1.105,0.144c0.55,0,0.975-0.083,1.273-0.264
				c0.292-0.173,0.442-0.442,0.442-0.801c0-0.269-0.113-0.502-0.353-0.693c-0.233-0.191-0.693-0.424-1.375-0.681
				c-0.646-0.245-1.105-0.454-1.38-0.633c-0.269-0.18-0.472-0.383-0.61-0.616c-0.131-0.227-0.197-0.496-0.197-0.818
				c0-0.563,0.227-1.011,0.693-1.339c0.46-0.329,1.094-0.497,1.895-0.497c0.753,0,1.482,0.155,2.199,0.46l-0.376,0.854
				C704.19-2056.459,703.557-2056.603,702.989-2056.603L702.989-2056.603z M707.83-2053.686c0.018,0.813,0.227,1.434,0.616,1.858
				c0.395,0.425,0.944,0.634,1.655,0.634c0.747,0,1.488-0.156,2.224-0.473v0.944c-0.377,0.161-0.723,0.275-1.058,0.341
				c-0.334,0.072-0.735,0.108-1.201,0.108c-1.028,0-1.841-0.312-2.438-0.939c-0.592-0.627-0.89-1.494-0.89-2.611
				s0.274-2.009,0.831-2.671c0.55-0.657,1.291-0.992,2.223-0.992c0.873,0,1.56,0.287,2.068,0.861
				c0.508,0.573,0.765,1.333,0.765,2.271v0.67H707.83L707.83-2053.686z M711.045-2056.071c-0.293-0.352-0.717-0.532-1.267-0.532
				c-0.562,0-1.004,0.186-1.338,0.544c-0.329,0.365-0.526,0.872-0.586,1.512h3.64
				C711.493-2055.21,711.344-2055.718,711.045-2056.071L711.045-2056.071z M722.113-2056.226c-0.233-0.096-0.49-0.174-0.765-0.233
				s-0.52-0.089-0.729-0.089c-1.416,0-2.121,0.897-2.121,2.702c0,0.854,0.173,1.512,0.52,1.966c0.341,0.46,0.854,0.688,1.53,0.688
				c0.58,0,1.177-0.125,1.787-0.377v0.933c-0.466,0.245-1.052,0.365-1.757,0.365c-1.01,0-1.787-0.312-2.343-0.933
				c-0.55-0.616-0.825-1.495-0.825-2.629c0-1.166,0.275-2.062,0.837-2.695c0.562-0.634,1.362-0.957,2.396-0.957
				c0.334,0,0.669,0.036,1.004,0.113c0.334,0.072,0.598,0.156,0.789,0.251L722.113-2056.226L722.113-2056.226z M723.984-2050.399
				v-9.879h1.052v9.879H723.984L723.984-2050.399z M728.246-2058.712c-0.125,0.113-0.269,0.173-0.442,0.173s-0.323-0.06-0.442-0.173
				c-0.119-0.119-0.179-0.293-0.179-0.532c0-0.239,0.06-0.418,0.179-0.527c0.12-0.113,0.269-0.173,0.442-0.173
				s0.317,0.06,0.442,0.173c0.12,0.114,0.179,0.294,0.179,0.527C728.425-2059.005,728.365-2058.832,728.246-2058.712
				L728.246-2058.712z M728.323-2050.399h-1.052v-6.957h1.052V-2050.399L728.323-2050.399z M734.874-2056.226
				c-0.233-0.096-0.484-0.174-0.759-0.233c-0.274-0.06-0.52-0.089-0.729-0.089c-1.417,0-2.122,0.897-2.122,2.702
				c0,0.854,0.173,1.512,0.52,1.966c0.34,0.46,0.854,0.688,1.53,0.688c0.58,0,1.178-0.125,1.787-0.377v0.933
				c-0.466,0.245-1.052,0.365-1.763,0.365c-1.004,0-1.787-0.312-2.336-0.933c-0.55-0.616-0.831-1.495-0.831-2.629
				c0-1.166,0.281-2.062,0.843-2.695c0.562-0.634,1.363-0.957,2.396-0.957c0.335,0,0.669,0.036,1.004,0.113
				c0.335,0.072,0.598,0.156,0.789,0.251L734.874-2056.226L734.874-2056.226z M742.314-2050.399h-1.273l-2.456-3.287l-0.795,0.682
				v2.605h-1.04v-9.879h1.04v5.235c0,0.233-0.018,0.599-0.054,1.082h0.054c0.179-0.256,0.46-0.598,0.831-1.016l2.248-2.379h1.249
				l-2.815,2.964L742.314-2050.399L742.314-2050.399z M751.709-2050.399v-4.5c0-0.568-0.125-0.992-0.388-1.273
				c-0.258-0.275-0.658-0.418-1.214-0.418c-0.729,0-1.261,0.203-1.602,0.597c-0.334,0.4-0.502,1.053-0.502,1.955v3.639h-1.052
				v-9.879h1.052v2.988c0,0.365-0.018,0.657-0.054,0.896h0.065c0.209-0.334,0.502-0.597,0.885-0.789
				c0.382-0.191,0.819-0.287,1.309-0.287c0.854,0,1.494,0.197,1.919,0.604c0.424,0.406,0.633,1.045,0.633,1.924v4.542H751.709
				L751.709-2050.399z M755.63-2053.686c0.023,0.813,0.233,1.434,0.622,1.858c0.394,0.425,0.943,0.634,1.655,0.634
				c0.747,0,1.488-0.156,2.217-0.473v0.944c-0.37,0.161-0.723,0.275-1.052,0.341c-0.335,0.072-0.735,0.108-1.207,0.108
				c-1.028,0-1.835-0.312-2.433-0.939c-0.592-0.627-0.891-1.494-0.891-2.611s0.275-2.009,0.825-2.671
				c0.556-0.657,1.297-0.992,2.229-0.992c0.873,0,1.561,0.287,2.068,0.861c0.508,0.573,0.759,1.333,0.759,2.271v0.67H755.63
				L755.63-2053.686z M758.852-2056.071c-0.299-0.352-0.718-0.532-1.268-0.532c-0.562,0-1.004,0.186-1.339,0.544
				c-0.334,0.365-0.525,0.872-0.585,1.512h3.633C759.293-2055.21,759.15-2055.718,758.852-2056.071L758.852-2056.071z
				 M766.083-2056.429c-0.287-0.066-0.544-0.096-0.766-0.096c-0.562,0-1.04,0.227-1.439,0.687c-0.4,0.455-0.604,1.023-0.604,1.704
				v3.735h-1.052v-6.957h0.867l0.125,1.285h0.048c0.257-0.448,0.568-0.8,0.933-1.045c0.364-0.246,0.765-0.371,1.201-0.371
				c0.311,0,0.586,0.03,0.831,0.078L766.083-2056.429L766.083-2056.429z M768.234-2053.686c0.018,0.813,0.228,1.434,0.615,1.858
				c0.395,0.425,0.944,0.634,1.656,0.634c0.747,0,1.487-0.156,2.223-0.473v0.944c-0.376,0.161-0.729,0.275-1.058,0.341
				c-0.335,0.072-0.735,0.108-1.201,0.108c-1.028,0-1.841-0.312-2.438-0.939c-0.592-0.627-0.891-1.494-0.891-2.611
				s0.275-2.009,0.831-2.671c0.55-0.657,1.291-0.992,2.223-0.992c0.873,0,1.561,0.287,2.068,0.861
				c0.508,0.573,0.765,1.333,0.765,2.271v0.67H768.234L768.234-2053.686z M771.45-2056.071c-0.293-0.352-0.718-0.532-1.268-0.532
				c-0.562,0-1.004,0.186-1.339,0.544c-0.328,0.365-0.525,0.872-0.586,1.512h3.641
				C771.898-2055.21,771.748-2055.718,771.45-2056.071L771.45-2056.071z"/>
		</defs>
		<clipPath id="SVGID_22_">
			<use xlink:href="#SVGID_21_"  overflow="visible"/>
		</clipPath>
		<g clip-path="url(#SVGID_22_)">
			<image overflow="visible" width="1366" height="5889" xlink:href="498DE6A.jpg"  transform="matrix(1 0 0 1 67 -2694)">
			</image>
		</g>
	</g>
	<g>
		<defs>
			<polygon id="SVGID_23_" points="772,-2365.003 445,-2365.003 445,-2366 772,-2366 772,-2365.003 772,-2365.003 			"/>
		</defs>
		<clipPath id="SVGID_24_">
			<use xlink:href="#SVGID_23_"  overflow="visible"/>
		</clipPath>
		<g clip-path="url(#SVGID_24_)">
			<image overflow="visible" width="1366" height="5889" xlink:href="498DE68.jpg"  transform="matrix(1 0 0 1 67 -2694)">
			</image>
		</g>
	</g>
	<g>
		<defs>
			<path id="SVGID_25_" d="M456.332-2376v-6.903c0-0.789,0.036-1.649,0.102-2.575h-0.06l-3.658,9.479h-1.004l-3.634-9.491h-0.06
				c0.072,0.747,0.102,1.644,0.102,2.678v6.813h-1.147v-10.71h1.876l3.389,8.833h0.06l3.418-8.833h1.859v10.71H456.332L456.332-2376
				z M466.271-2376.956c-0.657,0.734-1.572,1.1-2.731,1.1c-0.717,0-1.356-0.168-1.913-0.502c-0.556-0.34-0.986-0.819-1.291-1.452
				c-0.299-0.627-0.454-1.369-0.454-2.211c0-1.309,0.329-2.325,0.986-3.06c0.651-0.729,1.56-1.093,2.725-1.093
				c1.118,0,2.014,0.376,2.672,1.123c0.663,0.747,0.998,1.758,0.998,3.03C467.263-2378.713,466.928-2377.691,466.271-2376.956
				L466.271-2376.956z M465.38-2382.347c-0.413-0.532-1.022-0.794-1.829-0.794c-0.795,0-1.393,0.262-1.799,0.783
				c-0.407,0.526-0.61,1.303-0.61,2.337c0,1.028,0.209,1.805,0.616,2.343c0.412,0.538,1.016,0.807,1.811,0.807
				s1.398-0.269,1.811-0.801c0.413-0.538,0.622-1.321,0.622-2.349C466.002-2381.044,465.793-2381.814,465.38-2382.347
				L465.38-2382.347z M475.576-2376.95c-0.585,0.729-1.404,1.094-2.45,1.094c-0.52,0-0.998-0.096-1.428-0.287
				c-0.437-0.191-0.795-0.49-1.088-0.89h-0.09l-0.257,1.034h-0.873v-11.397h1.219v2.767c0,0.622-0.024,1.177-0.06,1.673h0.06
				c0.562-0.801,1.404-1.201,2.516-1.201c1.058,0,1.876,0.358,2.457,1.076c0.585,0.723,0.878,1.739,0.878,3.06
				C476.461-2378.701,476.168-2377.679,475.576-2376.95L475.576-2376.95z M474.65-2382.371c-0.364-0.514-0.932-0.771-1.697-0.771
				c-0.831,0-1.428,0.239-1.793,0.711c-0.371,0.478-0.55,1.278-0.55,2.408s0.186,1.937,0.562,2.42c0.376,0.485,0.98,0.73,1.811,0.73
				c0.747,0,1.303-0.275,1.667-0.819c0.365-0.543,0.55-1.327,0.55-2.342C475.2-2381.08,475.015-2381.862,474.65-2382.371
				L474.65-2382.371z M479.706-2385.592c-0.144,0.137-0.311,0.203-0.508,0.203c-0.203,0-0.376-0.066-0.514-0.203
				c-0.137-0.131-0.203-0.341-0.203-0.61c0-0.281,0.066-0.484,0.203-0.616c0.138-0.125,0.311-0.19,0.514-0.19
				c0.197,0,0.364,0.065,0.508,0.197c0.138,0.132,0.209,0.335,0.209,0.61C479.916-2385.933,479.844-2385.723,479.706-2385.592
				L479.706-2385.592z M479.802-2376h-1.219v-8.026h1.219V-2376L479.802-2376z M482.377-2376v-11.397h1.213V-2376H482.377
				L482.377-2376z M486.985-2379.794c0.024,0.944,0.263,1.655,0.711,2.145c0.454,0.49,1.088,0.736,1.913,0.736
				c0.86,0,1.715-0.186,2.558-0.544v1.082c-0.424,0.186-0.831,0.323-1.219,0.4c-0.382,0.084-0.842,0.12-1.386,0.12
				c-1.184,0-2.122-0.359-2.809-1.082c-0.688-0.723-1.028-1.728-1.028-3.013c0-1.291,0.317-2.318,0.956-3.083
				c0.64-0.759,1.494-1.141,2.564-1.141c1.01,0,1.805,0.334,2.391,0.992c0.585,0.663,0.878,1.535,0.878,2.617v0.771H486.985
				L486.985-2379.794z M490.697-2382.544c-0.341-0.407-0.831-0.61-1.465-0.61c-0.645,0-1.159,0.209-1.542,0.628
				c-0.383,0.418-0.61,0.998-0.675,1.744h4.195C491.211-2381.552,491.038-2382.137,490.697-2382.544L490.697-2382.544z
				 M503.977-2376v-5.194c0-0.652-0.149-1.142-0.448-1.464c-0.299-0.322-0.765-0.484-1.398-0.484c-0.836,0-1.452,0.227-1.847,0.682
				c-0.388,0.454-0.585,1.202-0.585,2.247v4.213h-1.213v-8.026h0.986l0.197,1.1h0.06c0.251-0.401,0.598-0.705,1.046-0.921
				c0.454-0.221,0.95-0.328,1.506-0.328c0.962,0,1.691,0.232,2.182,0.698c0.49,0.467,0.729,1.214,0.729,2.242v5.235H503.977
				L503.977-2376z M513.312-2376l-0.173-1.076h-0.065c-0.251,0.395-0.592,0.699-1.034,0.909c-0.442,0.209-0.95,0.311-1.512,0.311
				c-0.98,0-1.709-0.228-2.193-0.693c-0.49-0.467-0.729-1.207-0.729-2.229v-5.247h1.225v5.205c0,0.658,0.149,1.142,0.448,1.465
				c0.299,0.323,0.765,0.484,1.398,0.484c0.843,0,1.458-0.227,1.847-0.687c0.382-0.461,0.58-1.207,0.58-2.247v-4.22h1.213v8.026
				H513.312L513.312-2376z M527.13-2376v-5.224c0-0.639-0.138-1.117-0.413-1.44c-0.275-0.316-0.699-0.478-1.273-0.478
				c-0.759,0-1.315,0.215-1.679,0.651c-0.359,0.437-0.538,1.105-0.538,2.008v4.483h-1.219v-5.224c0-0.639-0.137-1.117-0.406-1.44
				c-0.275-0.316-0.705-0.478-1.285-0.478c-0.759,0-1.321,0.227-1.673,0.687c-0.353,0.454-0.532,1.202-0.532,2.242v4.213h-1.213
				v-8.026h0.986l0.197,1.1h0.06c0.227-0.395,0.556-0.699,0.968-0.921c0.418-0.215,0.891-0.328,1.404-0.328
				c1.255,0,2.074,0.453,2.462,1.362h0.06c0.239-0.418,0.585-0.753,1.04-0.999c0.454-0.239,0.968-0.364,1.554-0.364
				c0.908,0,1.583,0.232,2.038,0.698c0.448,0.467,0.675,1.214,0.675,2.242v5.235H527.13L527.13-2376z M537.033-2376.95
				c-0.585,0.729-1.404,1.094-2.45,1.094c-0.52,0-0.998-0.096-1.428-0.287c-0.437-0.191-0.795-0.49-1.088-0.89h-0.09L531.72-2376
				h-0.873v-11.397h1.219v2.767c0,0.622-0.024,1.177-0.06,1.673h0.06c0.568-0.801,1.404-1.201,2.516-1.201
				c1.058,0,1.876,0.358,2.457,1.076c0.585,0.723,0.878,1.739,0.878,3.06C537.917-2378.701,537.625-2377.679,537.033-2376.95
				L537.033-2376.95z M536.106-2382.371c-0.364-0.514-0.932-0.771-1.697-0.771c-0.831,0-1.428,0.239-1.793,0.711
				c-0.371,0.478-0.55,1.278-0.55,2.408s0.186,1.937,0.562,2.42c0.377,0.485,0.98,0.73,1.811,0.73c0.747,0,1.303-0.275,1.667-0.819
				c0.371-0.543,0.55-1.327,0.55-2.342C536.656-2381.08,536.477-2381.862,536.106-2382.371L536.106-2382.371z M540.852-2379.794
				c0.024,0.944,0.263,1.655,0.717,2.145c0.448,0.49,1.088,0.736,1.907,0.736c0.867,0,1.721-0.186,2.564-0.544v1.082
				c-0.43,0.186-0.837,0.323-1.219,0.4c-0.382,0.084-0.849,0.12-1.387,0.12c-1.189,0-2.122-0.359-2.809-1.082
				c-0.687-0.723-1.028-1.728-1.028-3.013c0-1.291,0.317-2.318,0.957-3.083c0.633-0.759,1.488-1.141,2.564-1.141
				c1.004,0,1.805,0.334,2.391,0.992c0.585,0.663,0.878,1.535,0.878,2.617v0.771H540.852L540.852-2379.794z M544.569-2382.544
				c-0.347-0.407-0.831-0.61-1.464-0.61c-0.646,0-1.16,0.209-1.542,0.628c-0.388,0.418-0.609,0.998-0.681,1.744h4.195
				C545.077-2381.552,544.91-2382.137,544.569-2382.544L544.569-2382.544z M552.913-2382.957c-0.335-0.078-0.627-0.113-0.885-0.113
				c-0.646,0-1.201,0.262-1.661,0.794c-0.466,0.526-0.693,1.184-0.693,1.966v4.31h-1.219v-8.026h1.004l0.144,1.482h0.054
				c0.299-0.52,0.657-0.92,1.082-1.207c0.418-0.281,0.878-0.424,1.38-0.424c0.358,0,0.675,0.029,0.962,0.089L552.913-2382.957
				L552.913-2382.957z"/>
		</defs>
		<clipPath id="SVGID_26_">
			<use xlink:href="#SVGID_25_"  overflow="visible"/>
		</clipPath>
		<g clip-path="url(#SVGID_26_)">
			<image overflow="visible" width="1366" height="5889" xlink:href="498DE66.jpg"  transform="matrix(1 0 0 1 67 -2694)">
			</image>
		</g>
	</g>
	<g>
		<defs>
			<path id="SVGID_27_" d="M724.217-2314.603v3.92h4.44v1.106h-4.44v4.578h-1.243v-10.71h5.964v1.106H724.217L724.217-2314.603z
				 M736.469-2305.955c-0.658,0.734-1.566,1.099-2.731,1.099c-0.717,0-1.356-0.167-1.913-0.501
				c-0.556-0.341-0.986-0.825-1.285-1.452c-0.305-0.628-0.454-1.369-0.454-2.212c0-1.309,0.323-2.331,0.98-3.06
				c0.651-0.729,1.56-1.094,2.726-1.094c1.123,0,2.014,0.377,2.677,1.124c0.657,0.747,0.992,1.757,0.992,3.03
				C737.461-2307.712,737.133-2306.69,736.469-2305.955L736.469-2305.955z M735.579-2311.346c-0.412-0.531-1.022-0.795-1.823-0.795
				s-1.398,0.264-1.805,0.783c-0.407,0.52-0.61,1.303-0.61,2.337c0,1.022,0.209,1.805,0.616,2.343
				c0.412,0.538,1.016,0.807,1.811,0.807c0.795,0,1.399-0.269,1.811-0.801c0.413-0.537,0.622-1.32,0.622-2.349
				C736.2-2310.043,735.991-2310.82,735.579-2311.346L735.579-2311.346z M744.042-2311.961c-0.329-0.072-0.622-0.107-0.878-0.107
				c-0.646,0-1.201,0.263-1.662,0.789c-0.466,0.531-0.693,1.188-0.693,1.973v4.309h-1.219v-8.027h1.004l0.138,1.482h0.06
				c0.299-0.52,0.658-0.926,1.076-1.207c0.424-0.28,0.884-0.425,1.386-0.425c0.359,0,0.675,0.03,0.962,0.09L744.042-2311.961
				L744.042-2311.961z M750.795-2312.081c0.138,0.167,0.263,0.394,0.37,0.669c0.108,0.275,0.162,0.586,0.162,0.933
				c0,0.789-0.27,1.416-0.808,1.882c-0.538,0.466-1.272,0.706-2.211,0.706c-0.239,0-0.466-0.024-0.675-0.06
				c-0.52,0.275-0.777,0.616-0.777,1.034c0,0.215,0.09,0.383,0.269,0.484c0.185,0.108,0.49,0.155,0.932,0.155h1.422
				c0.867,0,1.536,0.186,2.002,0.55c0.466,0.371,0.699,0.902,0.699,1.601c0,0.884-0.358,1.566-1.07,2.032
				c-0.711,0.466-1.751,0.699-3.12,0.699c-1.052,0-1.858-0.197-2.426-0.585c-0.568-0.395-0.854-0.945-0.854-1.656
				c0-0.49,0.155-0.914,0.466-1.267c0.317-0.358,0.753-0.598,1.321-0.729c-0.203-0.089-0.376-0.233-0.514-0.431
				c-0.144-0.197-0.209-0.424-0.209-0.681c0-0.292,0.078-0.549,0.233-0.771c0.155-0.215,0.4-0.43,0.741-0.634
				c-0.418-0.173-0.753-0.46-1.016-0.872c-0.263-0.412-0.395-0.878-0.395-1.404c0-0.879,0.263-1.56,0.795-2.032
				c0.526-0.479,1.273-0.718,2.241-0.718c0.418,0,0.794,0.049,1.135,0.15h2.773v0.765L750.795-2312.081L750.795-2312.081z
				 M746.342-2304.79c-0.305,0.263-0.46,0.646-0.46,1.135c0,0.437,0.185,0.765,0.55,0.993c0.365,0.221,0.89,0.334,1.572,0.334
				c1.022,0,1.781-0.156,2.271-0.46c0.489-0.305,0.734-0.717,0.734-1.238c0-0.436-0.137-0.734-0.406-0.908
				c-0.263-0.167-0.771-0.251-1.512-0.251h-1.458C747.083-2305.184,746.653-2305.053,746.342-2304.79L746.342-2304.79z
				 M748.321-2312.291c-0.568,0-1.01,0.156-1.315,0.467c-0.311,0.305-0.466,0.759-0.466,1.368c0,0.563,0.162,0.986,0.478,1.273
				c0.317,0.287,0.759,0.43,1.327,0.43c1.183,0,1.781-0.573,1.781-1.727C750.126-2311.687,749.522-2312.291,748.321-2312.291
				L748.321-2312.291z M754.745-2308.794c0.024,0.945,0.263,1.656,0.712,2.146c0.454,0.49,1.087,0.729,1.912,0.729
				c0.86,0,1.715-0.18,2.563-0.537v1.081c-0.43,0.185-0.837,0.317-1.225,0.4c-0.383,0.078-0.843,0.119-1.387,0.119
				c-1.184,0-2.122-0.358-2.809-1.082c-0.688-0.723-1.028-1.727-1.028-3.011c0-1.292,0.316-2.319,0.956-3.084
				c0.64-0.759,1.494-1.142,2.57-1.142c1.004,0,1.799,0.329,2.385,0.993c0.585,0.664,0.878,1.536,0.878,2.618v0.771H754.745
				L754.745-2308.794z M758.457-2311.543c-0.341-0.412-0.831-0.615-1.465-0.615c-0.646,0-1.159,0.214-1.542,0.633
				c-0.382,0.418-0.609,0.997-0.675,1.739h4.195C758.971-2310.551,758.798-2311.137,758.457-2311.543L758.457-2311.543z
				 M763.997-2306.248c0.228,0.263,0.544,0.388,0.944,0.388c0.215,0,0.418-0.012,0.621-0.048c0.197-0.03,0.359-0.059,0.479-0.095
				v0.926c-0.132,0.066-0.329,0.12-0.586,0.161c-0.257,0.042-0.483,0.06-0.693,0.06c-1.548,0-2.324-0.818-2.324-2.45v-4.775h-1.153
				v-0.586l1.153-0.508l0.508-1.714h0.705v1.864h2.331v0.944h-2.331v4.722C763.65-2306.875,763.764-2306.505,763.997-2306.248
				L763.997-2306.248z M772.251-2312.291c-0.09,0.269-0.233,0.526-0.419,0.766c-0.185,0.245-0.586,0.633-1.201,1.171
				c-0.496,0.418-0.818,0.771-0.98,1.046c-0.155,0.28-0.232,0.651-0.232,1.11v0.246h-0.95v-0.394c0-0.574,0.089-1.046,0.269-1.411
				c0.174-0.37,0.502-0.759,0.98-1.171c0.663-0.562,1.082-0.98,1.255-1.267c0.173-0.281,0.257-0.622,0.257-1.022
				c0-0.501-0.155-0.884-0.478-1.153c-0.317-0.275-0.777-0.406-1.381-0.406c-0.383,0-0.759,0.042-1.13,0.131
				c-0.364,0.089-0.783,0.256-1.255,0.496l-0.437-0.986c0.927-0.484,1.889-0.729,2.893-0.729c0.933,0,1.662,0.232,2.176,0.688
				c0.52,0.459,0.777,1.111,0.777,1.941C772.395-2312.875,772.347-2312.565,772.251-2312.291L772.251-2312.291z M768.987-2306.774
				c0.287,0,0.502,0.084,0.657,0.257c0.155,0.174,0.233,0.418,0.233,0.741c0,0.311-0.078,0.556-0.233,0.729
				c-0.161,0.173-0.376,0.257-0.657,0.257c-0.251,0-0.46-0.078-0.627-0.228c-0.168-0.155-0.252-0.406-0.252-0.759
				C768.108-2306.439,768.401-2306.774,768.987-2306.774L768.987-2306.774z"/>
		</defs>
		<clipPath id="SVGID_28_">
			<use xlink:href="#SVGID_27_"  overflow="visible"/>
		</clipPath>
		<g clip-path="url(#SVGID_28_)">
			<image overflow="visible" width="1366" height="5889" xlink:href="498DE79.jpg"  transform="matrix(1 0 0 1 67 -2694)">
			</image>
		</g>
	</g>
	<g>
		<defs>
			<path id="SVGID_29_" d="M478.917-2176.002l-5.851-8.988h-0.06c0.078,1.058,0.114,2.026,0.114,2.905v6.083h-1.147v-10.709h1.404
				l5.839,8.953h0.06c-0.012-0.132-0.036-0.557-0.066-1.273c-0.036-0.711-0.048-1.225-0.036-1.53v-6.149h1.16v10.709H478.917
				L478.917-2176.002z M483.914-2179.797c0.024,0.944,0.257,1.661,0.711,2.146c0.454,0.49,1.087,0.735,1.906,0.735
				c0.867,0,1.721-0.179,2.564-0.543v1.087c-0.43,0.186-0.836,0.317-1.219,0.395c-0.382,0.084-0.843,0.126-1.387,0.126
				c-1.189,0-2.122-0.365-2.809-1.088c-0.688-0.723-1.028-1.721-1.028-3.007c0-1.296,0.317-2.324,0.957-3.083
				c0.633-0.765,1.488-1.142,2.564-1.142c1.004,0,1.805,0.328,2.391,0.992c0.585,0.657,0.878,1.53,0.878,2.617v0.765H483.914
				L483.914-2179.797z M487.625-2182.545c-0.341-0.407-0.831-0.61-1.464-0.61c-0.645,0-1.159,0.21-1.542,0.627
				c-0.382,0.425-0.609,1.004-0.681,1.745h4.202C488.139-2181.548,487.966-2182.14,487.625-2182.545L487.625-2182.545z
				 M499.512-2176.002h-1.446l-1.47-4.709c-0.09-0.286-0.263-0.938-0.52-1.96h-0.06c-0.191,0.854-0.365,1.512-0.514,1.979
				l-1.512,4.691h-1.411l-2.188-8.026h1.273c0.52,2.014,0.915,3.55,1.184,4.607c0.275,1.052,0.424,1.764,0.466,2.128h0.06
				c0.054-0.275,0.137-0.634,0.257-1.076c0.12-0.442,0.227-0.794,0.311-1.052l1.476-4.607h1.315l1.44,4.607
				c0.269,0.837,0.455,1.542,0.556,2.116h0.054c0.024-0.173,0.078-0.448,0.161-0.813c0.084-0.364,0.592-2.336,1.524-5.91h1.261
				L499.512-2176.002L499.512-2176.002z M508.728-2177.245c0.227,0.257,0.544,0.389,0.944,0.389c0.215,0,0.418-0.017,0.622-0.048
				c0.197-0.03,0.358-0.066,0.472-0.102v0.933c-0.131,0.066-0.323,0.113-0.58,0.155c-0.257,0.042-0.49,0.066-0.693,0.066
				c-1.554,0-2.331-0.819-2.331-2.457v-4.776h-1.147v-0.585l1.147-0.502l0.514-1.715h0.705v1.858h2.331v0.943h-2.331v4.728
				C508.381-2177.878,508.495-2177.502,508.728-2177.245L508.728-2177.245z M518.314-2176.958c-0.664,0.735-1.572,1.105-2.731,1.105
				c-0.723,0-1.356-0.173-1.912-0.509c-0.556-0.334-0.986-0.818-1.291-1.452c-0.305-0.627-0.455-1.363-0.455-2.211
				c0-1.309,0.329-2.324,0.98-3.054c0.657-0.729,1.566-1.093,2.725-1.093c1.124,0,2.014,0.37,2.678,1.118
				c0.663,0.747,0.992,1.757,0.992,3.03C519.301-2178.715,518.972-2177.693,518.314-2176.958L518.314-2176.958z M517.424-2182.348
				c-0.412-0.526-1.022-0.795-1.829-0.795c-0.795,0-1.398,0.262-1.799,0.782c-0.407,0.526-0.61,1.303-0.61,2.337
				c0,1.028,0.203,1.811,0.616,2.349c0.406,0.532,1.01,0.801,1.805,0.801c0.801,0,1.405-0.264,1.817-0.801
				c0.413-0.532,0.616-1.315,0.616-2.349C518.04-2181.04,517.836-2181.817,517.424-2182.348L517.424-2182.348z M532.246-2176.002
				l-1.333-3.406h-4.297l-1.315,3.406h-1.261l4.231-10.751h1.052l4.208,10.751H532.246L532.246-2176.002z M529.275-2183.843
				c-0.162-0.424-0.323-0.938-0.496-1.547c-0.107,0.472-0.263,0.985-0.46,1.547l-1.261,3.317h3.466L529.275-2183.843
				L529.275-2183.843z M539.758-2176.002l-0.239-1.141h-0.06c-0.4,0.502-0.801,0.843-1.202,1.021c-0.394,0.18-0.89,0.27-1.488,0.27
				c-0.795,0-1.422-0.209-1.871-0.615c-0.454-0.414-0.682-0.999-0.682-1.752c0-1.619,1.297-2.474,3.891-2.552l1.362-0.042v-0.496
				c0-0.633-0.137-1.099-0.406-1.397c-0.269-0.299-0.706-0.449-1.297-0.449c-0.669,0-1.428,0.203-2.271,0.616l-0.376-0.933
				c0.394-0.215,0.831-0.383,1.303-0.502c0.472-0.126,0.944-0.186,1.417-0.186c0.956,0,1.667,0.215,2.127,0.64
				c0.46,0.425,0.693,1.105,0.693,2.038v5.48H539.758L539.758-2176.002z M539.441-2179.947l-1.213,0.048
				c-0.968,0.036-1.667,0.186-2.091,0.455c-0.431,0.263-0.64,0.675-0.64,1.237c0,0.441,0.131,0.776,0.395,1.003
				c0.269,0.233,0.639,0.347,1.117,0.347c0.759,0,1.351-0.209,1.787-0.621c0.43-0.419,0.646-0.998,0.646-1.746V-2179.947
				L539.441-2179.947z M547.617-2182.958c-0.334-0.071-0.627-0.107-0.878-0.107c-0.651,0-1.208,0.263-1.667,0.789
				c-0.46,0.525-0.693,1.184-0.693,1.973v4.302h-1.213v-8.026h1.004l0.137,1.488h0.06c0.299-0.526,0.657-0.926,1.076-1.208
				c0.418-0.287,0.878-0.424,1.387-0.424c0.353,0,0.675,0.023,0.956,0.083L547.617-2182.958L547.617-2182.958z M554.915-2176.002
				l-0.179-1.075h-0.066c-0.251,0.394-0.591,0.699-1.034,0.908c-0.442,0.209-0.95,0.317-1.512,0.317
				c-0.98,0-1.709-0.233-2.193-0.699c-0.49-0.461-0.729-1.207-0.729-2.224v-5.253h1.225v5.205c0,0.657,0.149,1.148,0.448,1.465
				c0.299,0.322,0.765,0.484,1.398,0.484c0.843,0,1.458-0.228,1.847-0.688c0.382-0.46,0.58-1.207,0.58-2.247v-4.219h1.213v8.026
				H554.915L554.915-2176.002z M560.879-2183.156c-0.574,0-1.01,0.09-1.303,0.269c-0.292,0.181-0.436,0.431-0.436,0.748
				c0,0.215,0.054,0.401,0.161,0.55c0.114,0.149,0.287,0.299,0.532,0.43c0.245,0.138,0.711,0.335,1.404,0.598
				c0.956,0.347,1.596,0.693,1.93,1.046c0.335,0.353,0.502,0.795,0.502,1.327c0,0.748-0.275,1.321-0.837,1.728
				c-0.556,0.406-1.333,0.609-2.343,0.609c-1.064,0-1.895-0.173-2.486-0.509v-1.129c0.382,0.198,0.795,0.353,1.237,0.467
				c0.442,0.107,0.873,0.167,1.279,0.167c0.634,0,1.124-0.101,1.464-0.305c0.347-0.203,0.514-0.513,0.514-0.926
				c0-0.31-0.138-0.58-0.407-0.8c-0.269-0.222-0.801-0.484-1.583-0.789c-0.747-0.281-1.279-0.52-1.596-0.729
				c-0.311-0.209-0.55-0.442-0.699-0.706c-0.155-0.263-0.233-0.579-0.233-0.944c0-0.657,0.269-1.171,0.801-1.554
				c0.532-0.376,1.261-0.562,2.188-0.562c0.867,0,1.709,0.173,2.534,0.525l-0.43,0.986
				C562.266-2182.988,561.537-2183.156,560.879-2183.156L560.879-2183.156z M571.141-2176.002v-5.193
				c0-0.652-0.149-1.142-0.448-1.465c-0.292-0.322-0.759-0.483-1.398-0.483c-0.843,0-1.458,0.232-1.847,0.693
				c-0.388,0.453-0.58,1.207-0.58,2.252v4.195h-1.219v-11.397h1.219v3.455c0,0.413-0.024,0.759-0.06,1.028h0.072
				c0.239-0.382,0.58-0.688,1.021-0.908c0.442-0.222,0.944-0.335,1.512-0.335c0.98,0,1.715,0.233,2.206,0.699
				c0.496,0.466,0.741,1.208,0.741,2.224v5.235H571.141L571.141-2176.002z M584.396-2176.002v-6.897
				c0-0.795,0.036-1.648,0.108-2.581h-0.06l-3.663,9.478h-1.004l-3.634-9.491h-0.06c0.072,0.753,0.107,1.644,0.107,2.678v6.813
				h-1.153v-10.709h1.876l3.389,8.833h0.06l3.418-8.833h1.865v10.709H584.396L584.396-2176.002z M593.332-2176.002l-0.239-1.141
				h-0.06c-0.4,0.502-0.801,0.843-1.195,1.021c-0.401,0.18-0.897,0.27-1.494,0.27c-0.795,0-1.417-0.209-1.871-0.615
				c-0.448-0.414-0.675-0.999-0.675-1.752c0-1.619,1.297-2.474,3.891-2.552l1.363-0.042v-0.496c0-0.633-0.138-1.099-0.406-1.397
				c-0.275-0.299-0.706-0.449-1.303-0.449c-0.669,0-1.422,0.203-2.271,0.616l-0.371-0.933c0.395-0.215,0.825-0.383,1.297-0.502
				c0.472-0.126,0.944-0.186,1.417-0.186c0.962,0,1.667,0.215,2.128,0.64c0.466,0.425,0.693,1.105,0.693,2.038v5.48H593.332
				L593.332-2176.002z M593.021-2179.947l-1.219,0.048c-0.962,0.036-1.662,0.186-2.092,0.455c-0.424,0.263-0.64,0.675-0.64,1.237
				c0,0.441,0.131,0.776,0.4,1.003c0.269,0.233,0.64,0.347,1.118,0.347c0.759,0,1.351-0.209,1.781-0.621
				c0.436-0.419,0.651-0.998,0.651-1.746V-2179.947L593.021-2179.947z M601.19-2182.958c-0.328-0.071-0.621-0.107-0.878-0.107
				c-0.645,0-1.201,0.263-1.661,0.789c-0.466,0.525-0.693,1.184-0.693,1.973v4.302h-1.219v-8.026h1.004l0.144,1.488h0.054
				c0.299-0.526,0.657-0.926,1.076-1.208c0.424-0.287,0.884-0.424,1.386-0.424c0.358,0,0.675,0.023,0.962,0.083L601.19-2182.958
				L601.19-2182.958z M604.514-2177.245c0.227,0.257,0.544,0.389,0.944,0.389c0.215,0,0.418-0.017,0.622-0.048
				c0.197-0.03,0.359-0.066,0.478-0.102v0.933c-0.138,0.066-0.329,0.113-0.585,0.155c-0.257,0.042-0.484,0.066-0.693,0.066
				c-1.554,0-2.325-0.819-2.325-2.457v-4.776H601.8v-0.585l1.153-0.502l0.508-1.715h0.705v1.858h2.331v0.943h-2.331v4.728
				C604.167-2177.878,604.281-2177.502,604.514-2177.245L604.514-2177.245z M612.768-2183.292c-0.096,0.274-0.233,0.525-0.419,0.771
				c-0.185,0.239-0.585,0.627-1.201,1.165c-0.496,0.425-0.819,0.771-0.98,1.053c-0.155,0.274-0.239,0.645-0.239,1.111v0.239h-0.944
				v-0.395c0-0.567,0.089-1.039,0.263-1.41c0.179-0.365,0.508-0.759,0.986-1.166c0.663-0.562,1.082-0.986,1.255-1.267
				c0.173-0.288,0.257-0.628,0.257-1.028c0-0.496-0.155-0.884-0.478-1.154c-0.317-0.269-0.777-0.407-1.38-0.407
				c-0.383,0-0.759,0.048-1.13,0.138c-0.364,0.09-0.783,0.252-1.255,0.496l-0.436-0.992c0.926-0.484,1.888-0.724,2.893-0.724
				c0.932,0,1.662,0.227,2.175,0.687c0.52,0.461,0.777,1.106,0.777,1.943C612.911-2183.879,612.863-2183.562,612.768-2183.292
				L612.768-2183.292z M609.504-2177.771c0.287,0,0.502,0.084,0.658,0.251c0.155,0.174,0.233,0.418,0.233,0.741
				c0,0.317-0.078,0.556-0.239,0.729c-0.155,0.173-0.37,0.263-0.651,0.263c-0.251,0-0.46-0.077-0.627-0.233
				c-0.167-0.155-0.251-0.405-0.251-0.759C608.625-2177.441,608.918-2177.771,609.504-2177.771L609.504-2177.771z M625.694-2185.176
				c-0.813-0.382-1.625-0.573-2.433-0.573c-1.177,0-2.104,0.394-2.785,1.177s-1.022,1.853-1.022,3.215
				c0,1.404,0.329,2.486,0.98,3.252c0.657,0.765,1.596,1.147,2.809,1.147c0.747,0,1.602-0.138,2.558-0.407v1.095
				c-0.741,0.273-1.656,0.418-2.743,0.418c-1.578,0-2.797-0.479-3.652-1.44c-0.861-0.957-1.285-2.313-1.285-4.076
				c0-1.106,0.203-2.074,0.616-2.899c0.413-0.831,1.01-1.47,1.787-1.925c0.777-0.448,1.697-0.669,2.749-0.669
				c1.124,0,2.104,0.204,2.947,0.616L625.694-2185.176L625.694-2185.176z M632.412-2182.958c-0.335-0.071-0.627-0.107-0.885-0.107
				c-0.646,0-1.201,0.263-1.661,0.789c-0.466,0.525-0.693,1.184-0.693,1.973v4.302h-1.219v-8.026h1.004l0.144,1.488h0.054
				c0.299-0.526,0.658-0.926,1.082-1.208c0.418-0.287,0.878-0.424,1.38-0.424c0.358,0,0.675,0.023,0.962,0.083L632.412-2182.958
				L632.412-2182.958z M634.893-2179.797c0.024,0.944,0.263,1.661,0.711,2.146c0.454,0.49,1.088,0.735,1.913,0.735
				c0.86,0,1.715-0.179,2.564-0.543v1.087c-0.431,0.186-0.837,0.317-1.219,0.395c-0.389,0.084-0.849,0.126-1.393,0.126
				c-1.183,0-2.122-0.365-2.809-1.088c-0.681-0.723-1.028-1.721-1.028-3.007c0-1.296,0.317-2.324,0.956-3.083
				c0.64-0.765,1.494-1.142,2.57-1.142c1.004,0,1.799,0.328,2.385,0.992c0.586,0.657,0.878,1.53,0.878,2.617v0.765H634.893
				L634.893-2179.797z M638.604-2182.545c-0.341-0.407-0.831-0.61-1.464-0.61c-0.646,0-1.16,0.21-1.542,0.627
				c-0.383,0.425-0.61,1.004-0.675,1.745h4.195C639.118-2181.548,638.944-2182.14,638.604-2182.545L638.604-2182.545z
				 M647.431-2176.002l-0.239-1.141h-0.06c-0.4,0.502-0.801,0.843-1.202,1.021c-0.394,0.18-0.89,0.27-1.488,0.27
				c-0.795,0-1.422-0.209-1.871-0.615c-0.454-0.414-0.675-0.999-0.675-1.752c0-1.619,1.291-2.474,3.885-2.552l1.362-0.042v-0.496
				c0-0.633-0.131-1.099-0.406-1.397c-0.269-0.299-0.705-0.449-1.297-0.449c-0.669,0-1.428,0.203-2.271,0.616l-0.376-0.933
				c0.394-0.215,0.831-0.383,1.303-0.502c0.472-0.126,0.944-0.186,1.417-0.186c0.956,0,1.667,0.215,2.127,0.64
				c0.46,0.425,0.693,1.105,0.693,2.038v5.48H647.431L647.431-2176.002z M647.114-2179.947l-1.213,0.048
				c-0.968,0.036-1.668,0.186-2.092,0.455c-0.425,0.263-0.64,0.675-0.64,1.237c0,0.441,0.131,0.776,0.4,1.003
				c0.263,0.233,0.633,0.347,1.111,0.347c0.759,0,1.357-0.209,1.787-0.621c0.43-0.419,0.646-0.998,0.646-1.746V-2179.947
				L647.114-2179.947z M652.487-2177.245c0.227,0.257,0.544,0.389,0.944,0.389c0.215,0,0.418-0.017,0.621-0.048
				c0.197-0.03,0.359-0.066,0.479-0.102v0.933c-0.138,0.066-0.329,0.113-0.586,0.155c-0.257,0.042-0.484,0.066-0.693,0.066
				c-1.554,0-2.325-0.819-2.325-2.457v-4.776h-1.153v-0.585l1.153-0.502l0.508-1.715h0.705v1.858h2.331v0.943h-2.331v4.728
				C652.141-2177.878,652.254-2177.502,652.487-2177.245L652.487-2177.245z M656.946-2179.797c0.024,0.944,0.263,1.661,0.711,2.146
				c0.455,0.49,1.088,0.735,1.913,0.735c0.861,0,1.715-0.179,2.564-0.543v1.087c-0.43,0.186-0.836,0.317-1.219,0.395
				c-0.389,0.084-0.849,0.126-1.393,0.126c-1.184,0-2.122-0.365-2.809-1.088c-0.682-0.723-1.028-1.721-1.028-3.007
				c0-1.296,0.317-2.324,0.956-3.083c0.64-0.765,1.494-1.142,2.57-1.142c1.004,0,1.799,0.328,2.384,0.992
				c0.586,0.657,0.879,1.53,0.879,2.617v0.765H656.946L656.946-2179.797z M660.657-2182.545c-0.341-0.407-0.831-0.61-1.464-0.61
				c-0.646,0-1.16,0.21-1.542,0.627c-0.382,0.425-0.61,1.004-0.675,1.745h4.195C661.171-2181.548,660.998-2182.14,660.657-2182.545
				L660.657-2182.545z M673.381-2176.002l-0.239-1.141h-0.06c-0.401,0.502-0.801,0.843-1.202,1.021
				c-0.395,0.18-0.891,0.27-1.488,0.27c-0.794,0-1.422-0.209-1.87-0.615c-0.455-0.414-0.682-0.999-0.682-1.752
				c0-1.619,1.297-2.474,3.891-2.552l1.363-0.042v-0.496c0-0.633-0.137-1.099-0.406-1.397c-0.269-0.299-0.706-0.449-1.297-0.449
				c-0.669,0-1.429,0.203-2.271,0.616l-0.377-0.933c0.395-0.215,0.831-0.383,1.303-0.502c0.472-0.126,0.944-0.186,1.417-0.186
				c0.956,0,1.667,0.215,2.127,0.64c0.46,0.425,0.693,1.105,0.693,2.038v5.48H673.381L673.381-2176.002z M673.064-2179.947
				l-1.213,0.048c-0.968,0.036-1.667,0.186-2.092,0.455c-0.43,0.263-0.639,0.675-0.639,1.237c0,0.441,0.131,0.776,0.4,1.003
				c0.263,0.233,0.634,0.347,1.112,0.347c0.759,0,1.357-0.209,1.787-0.621c0.43-0.419,0.646-0.998,0.646-1.746V-2179.947
				L673.064-2179.947z M682.28-2176.002v-5.193c0-0.652-0.149-1.142-0.448-1.465c-0.299-0.322-0.765-0.483-1.399-0.483
				c-0.836,0-1.452,0.227-1.847,0.681c-0.388,0.454-0.585,1.207-0.585,2.253v4.207h-1.213v-8.026h0.986l0.197,1.099h0.06
				c0.251-0.395,0.598-0.705,1.046-0.92c0.454-0.215,0.95-0.322,1.506-0.322c0.962,0,1.691,0.233,2.181,0.699
				c0.49,0.466,0.729,1.207,0.729,2.235v5.235H682.28L682.28-2176.002z M694.825-2176.002l-0.239-1.141h-0.06
				c-0.4,0.502-0.801,0.843-1.195,1.021c-0.4,0.18-0.896,0.27-1.494,0.27c-0.795,0-1.417-0.209-1.871-0.615
				c-0.448-0.414-0.675-0.999-0.675-1.752c0-1.619,1.297-2.474,3.885-2.552l1.363-0.042v-0.496c0-0.633-0.132-1.099-0.406-1.397
				c-0.27-0.299-0.7-0.449-1.297-0.449c-0.67,0-1.429,0.203-2.271,0.616l-0.376-0.933c0.4-0.215,0.831-0.383,1.303-0.502
				c0.472-0.126,0.944-0.186,1.417-0.186c0.956,0,1.667,0.215,2.128,0.64c0.46,0.425,0.693,1.105,0.693,2.038v5.48H694.825
				L694.825-2176.002z M694.514-2179.947l-1.219,0.048c-0.968,0.036-1.662,0.186-2.092,0.455c-0.424,0.263-0.64,0.675-0.64,1.237
				c0,0.441,0.131,0.776,0.4,1.003c0.263,0.233,0.64,0.347,1.118,0.347c0.753,0,1.351-0.209,1.781-0.621
				c0.431-0.419,0.652-0.998,0.652-1.746V-2179.947L694.514-2179.947z M703.21-2182.725c-0.269-0.108-0.562-0.197-0.878-0.27
				c-0.317-0.065-0.598-0.101-0.843-0.101c-1.625,0-2.444,1.039-2.444,3.119c0,0.986,0.197,1.74,0.597,2.271
				c0.401,0.525,0.986,0.789,1.77,0.789c0.669,0,1.356-0.144,2.056-0.43v1.076c-0.538,0.273-1.213,0.418-2.026,0.418
				c-1.166,0-2.062-0.359-2.702-1.076c-0.633-0.717-0.956-1.728-0.956-3.036c0-1.338,0.323-2.378,0.974-3.114
				c0.646-0.729,1.566-1.093,2.761-1.093c0.389,0,0.771,0.036,1.159,0.119c0.383,0.083,0.688,0.186,0.909,0.293L703.21-2182.725
				L703.21-2182.725z M710.352-2182.725c-0.269-0.108-0.562-0.197-0.879-0.27c-0.317-0.065-0.598-0.101-0.842-0.101
				c-1.632,0-2.444,1.039-2.444,3.119c0,0.986,0.197,1.74,0.597,2.271c0.395,0.525,0.986,0.789,1.769,0.789
				c0.669,0,1.357-0.144,2.056-0.43v1.076c-0.538,0.273-1.213,0.418-2.026,0.418c-1.166,0-2.062-0.359-2.702-1.076
				c-0.633-0.717-0.956-1.728-0.956-3.036c0-1.338,0.323-2.378,0.974-3.114c0.646-0.729,1.565-1.093,2.761-1.093
				c0.388,0,0.771,0.036,1.159,0.119c0.383,0.083,0.688,0.186,0.909,0.293L710.352-2182.725L710.352-2182.725z M718.456-2176.958
				c-0.664,0.735-1.572,1.105-2.731,1.105c-0.723,0-1.356-0.173-1.912-0.509c-0.556-0.334-0.986-0.818-1.291-1.452
				c-0.305-0.627-0.455-1.363-0.455-2.211c0-1.309,0.329-2.324,0.98-3.054c0.657-0.729,1.566-1.093,2.725-1.093
				c1.124,0,2.014,0.37,2.678,1.118c0.663,0.747,0.992,1.757,0.992,3.03C719.442-2178.715,719.113-2177.693,718.456-2176.958
				L718.456-2176.958z M717.565-2182.348c-0.412-0.526-1.022-0.795-1.829-0.795c-0.795,0-1.399,0.262-1.799,0.782
				c-0.406,0.526-0.609,1.303-0.609,2.337c0,1.028,0.203,1.811,0.616,2.349c0.406,0.532,1.01,0.801,1.805,0.801
				c0.801,0,1.405-0.264,1.817-0.801c0.413-0.532,0.616-1.315,0.616-2.349C718.181-2181.04,717.978-2181.817,717.565-2182.348
				L717.565-2182.348z M727.2-2176.002l-0.173-1.075h-0.072c-0.245,0.394-0.592,0.699-1.034,0.908
				c-0.442,0.209-0.944,0.317-1.512,0.317c-0.974,0-1.709-0.233-2.193-0.699c-0.484-0.461-0.729-1.207-0.729-2.224v-5.253h1.231
				v5.205c0,0.657,0.149,1.148,0.448,1.465c0.299,0.322,0.765,0.484,1.398,0.484c0.837,0,1.452-0.228,1.841-0.688
				c0.388-0.46,0.58-1.207,0.58-2.247v-4.219h1.219v8.026H727.2L727.2-2176.002z M736.272-2176.002v-5.193
				c0-0.652-0.149-1.142-0.442-1.465c-0.299-0.322-0.765-0.483-1.398-0.483c-0.843,0-1.458,0.227-1.847,0.681
				c-0.395,0.454-0.586,1.207-0.586,2.253v4.207h-1.219v-8.026h0.992l0.197,1.099h0.06c0.245-0.395,0.598-0.705,1.046-0.92
				c0.448-0.215,0.95-0.322,1.5-0.322c0.968,0,1.697,0.233,2.181,0.699c0.49,0.466,0.735,1.207,0.735,2.235v5.235H736.272
				L736.272-2176.002z"/>
		</defs>
		<clipPath id="SVGID_30_">
			<use xlink:href="#SVGID_29_"  overflow="visible"/>
		</clipPath>
		<g clip-path="url(#SVGID_30_)">
			<image overflow="visible" width="1366" height="5889" xlink:href="498DE7A.jpg"  transform="matrix(1 0 0 1 67 -2694)">
			</image>
		</g>
	</g>
	<g>
		<defs>
			<path id="SVGID_31_" d="M741.633-2177.245c-0.227-0.257-0.341-0.633-0.341-1.111v-4.728h2.331v-0.943h-2.331v-1.858h-0.705
				l-0.514,1.715l-1.147,0.502v0.585h1.147v4.776c0,1.638,0.777,2.457,2.331,2.457c0.203,0,0.436-0.024,0.693-0.066
				c0.257-0.042,0.448-0.089,0.58-0.155v-0.933c-0.113,0.036-0.275,0.072-0.472,0.102c-0.203,0.031-0.412,0.048-0.627,0.048
				C742.177-2176.856,741.866-2176.988,741.633-2177.245L741.633-2177.245z"/>
		</defs>
		<clipPath id="SVGID_32_">
			<use xlink:href="#SVGID_31_"  overflow="visible"/>
		</clipPath>
		<g clip-path="url(#SVGID_32_)">
			<image overflow="visible" width="1366" height="5889" xlink:href="498DE78.jpg"  transform="matrix(1 0 0 1 67 -2694)">
			</image>
		</g>
	</g>
	<g>
		<defs>
			<polygon id="SVGID_33_" points="470.502,-2173.032 470.502,-2173.778 743.994,-2173.778 743.994,-2173.032 470.502,-2173.032 			
				"/>
		</defs>
		<clipPath id="SVGID_34_">
			<use xlink:href="#SVGID_33_"  overflow="visible"/>
		</clipPath>
		<g clip-path="url(#SVGID_34_)">
			<image overflow="visible" width="1366" height="5889" xlink:href="498DE7E.jpg"  transform="matrix(1 0 0 1 67 -2694)">
			</image>
		</g>
	</g>
	<g>
		<defs>
			<polygon id="SVGID_35_" points="772,-2295 445,-2295 445,-2296.004 772,-2296.004 772,-2295 772,-2295 			"/>
		</defs>
		<clipPath id="SVGID_36_">
			<use xlink:href="#SVGID_35_"  overflow="visible"/>
		</clipPath>
		<g clip-path="url(#SVGID_36_)">
			<image overflow="visible" width="1366" height="5889" xlink:href="498DE7B.jpg"  transform="matrix(1 0 0 1 67 -2694)">
			</image>
		</g>
	</g>
	<g>
		<defs>
			<path id="SVGID_37_" d="M451.951-2326.969v0.969h-5.176v-9.282h5.176v0.962h-4.094v2.988h3.843v0.951h-3.843v3.412H451.951
				L451.951-2326.969z M458.609-2326v-4.5c0-0.568-0.131-0.993-0.388-1.274c-0.257-0.275-0.664-0.418-1.213-0.418
				c-0.729,0-1.261,0.197-1.596,0.592c-0.341,0.394-0.508,1.045-0.508,1.948v3.652h-1.058v-6.957h0.861l0.167,0.95h0.054
				c0.215-0.341,0.52-0.609,0.908-0.796c0.389-0.19,0.819-0.28,1.297-0.28c0.843,0,1.47,0.197,1.895,0.604
				c0.424,0.407,0.634,1.052,0.634,1.942v4.537H458.609L458.609-2326z M463.253-2327.082c0.203,0.227,0.472,0.34,0.819,0.34
				c0.185,0,0.37-0.018,0.543-0.042c0.173-0.03,0.311-0.06,0.413-0.089v0.807c-0.12,0.06-0.287,0.102-0.508,0.137
				c-0.221,0.036-0.418,0.054-0.598,0.054c-1.345,0-2.02-0.706-2.02-2.127v-4.136h-0.999v-0.508l0.999-0.436l0.442-1.488h0.61v1.614
				h2.02v0.818h-2.02v4.094C462.954-2327.625,463.056-2327.303,463.253-2327.082L463.253-2327.082z M467.12-2329.288
				c0.024,0.813,0.227,1.435,0.622,1.859c0.388,0.424,0.938,0.634,1.649,0.634c0.753,0,1.494-0.156,2.223-0.466v0.938
				c-0.371,0.161-0.723,0.274-1.058,0.346c-0.329,0.066-0.729,0.102-1.201,0.102c-1.028,0-1.841-0.311-2.433-0.938
				c-0.598-0.627-0.896-1.494-0.896-2.612c0-1.117,0.281-2.008,0.831-2.671c0.55-0.657,1.291-0.986,2.224-0.986
				c0.873,0,1.566,0.288,2.074,0.861c0.502,0.568,0.759,1.327,0.759,2.265v0.669H467.12L467.12-2329.288z M470.341-2331.671
				c-0.299-0.353-0.723-0.532-1.273-0.532c-0.556,0-1.004,0.186-1.333,0.55c-0.335,0.364-0.532,0.867-0.592,1.506h3.64
				C470.783-2330.811,470.634-2331.319,470.341-2331.671L470.341-2331.671z M477.566-2332.031c-0.287-0.065-0.538-0.096-0.759-0.096
				c-0.562,0-1.046,0.228-1.446,0.687c-0.4,0.456-0.598,1.023-0.598,1.704v3.736h-1.052v-6.957h0.866l0.12,1.285h0.054
				c0.257-0.449,0.568-0.801,0.933-1.046c0.364-0.246,0.765-0.365,1.201-0.365c0.305,0,0.585,0.024,0.831,0.072L477.566-2332.031
				L477.566-2332.031z M487.476-2330.411c-0.646,0.508-1.56,0.759-2.755,0.759h-1.088v3.652h-1.082v-9.282h2.409
				c2.319,0,3.479,0.902,3.479,2.708C488.438-2331.636,488.115-2330.913,487.476-2330.411L487.476-2330.411z M486.717-2333.895
				c-0.401-0.305-1.028-0.454-1.883-0.454h-1.201v3.771h0.968c0.956,0,1.649-0.155,2.074-0.46c0.43-0.311,0.646-0.807,0.646-1.488
				C487.32-2333.142,487.117-2333.596,486.717-2333.895L486.717-2333.895z M494.498-2326l-0.209-0.993h-0.054
				c-0.347,0.437-0.694,0.735-1.034,0.885c-0.347,0.156-0.777,0.233-1.291,0.233c-0.693,0-1.231-0.18-1.625-0.532
				c-0.389-0.358-0.586-0.861-0.586-1.518c0-1.404,1.124-2.139,3.371-2.205l1.183-0.042v-0.43c0-0.544-0.12-0.95-0.353-1.208
				c-0.239-0.262-0.616-0.394-1.13-0.394c-0.58,0-1.237,0.179-1.966,0.532l-0.323-0.801c0.34-0.191,0.717-0.335,1.124-0.443
				c0.406-0.102,0.819-0.155,1.231-0.155c0.825,0,1.44,0.185,1.841,0.549c0.4,0.371,0.604,0.963,0.604,1.77v4.751H494.498
				L494.498-2326z M494.223-2329.425l-1.052,0.049c-0.837,0.029-1.44,0.161-1.811,0.388c-0.371,0.233-0.556,0.592-0.556,1.076
				c0,0.383,0.113,0.669,0.347,0.872c0.227,0.198,0.55,0.299,0.968,0.299c0.651,0,1.172-0.179,1.542-0.543
				c0.377-0.359,0.562-0.861,0.562-1.507V-2329.425L494.223-2329.425z M499.518-2332.204c-0.502,0-0.878,0.077-1.129,0.239
				c-0.251,0.155-0.382,0.371-0.382,0.646c0,0.185,0.048,0.347,0.143,0.478c0.096,0.131,0.251,0.251,0.46,0.37
				c0.215,0.12,0.622,0.294,1.219,0.515c0.825,0.305,1.38,0.604,1.673,0.908c0.287,0.305,0.437,0.688,0.437,1.147
				c0,0.651-0.245,1.147-0.723,1.5c-0.484,0.352-1.16,0.526-2.032,0.526c-0.926,0-1.644-0.144-2.158-0.437v-0.98
				c0.335,0.174,0.693,0.305,1.076,0.4c0.383,0.103,0.753,0.15,1.106,0.15c0.55,0,0.974-0.089,1.267-0.263
				c0.299-0.179,0.448-0.448,0.448-0.807c0-0.269-0.12-0.502-0.353-0.693c-0.233-0.191-0.693-0.418-1.375-0.682
				c-0.646-0.245-1.106-0.454-1.381-0.633c-0.275-0.18-0.478-0.383-0.61-0.61c-0.131-0.233-0.203-0.502-0.203-0.819
				c0-0.568,0.233-1.016,0.693-1.345c0.46-0.329,1.094-0.49,1.9-0.49c0.747,0,1.482,0.149,2.194,0.454l-0.371,0.854
				C500.72-2332.061,500.086-2332.204,499.518-2332.204L499.518-2332.204z M505.722-2332.204c-0.502,0-0.878,0.077-1.129,0.239
				c-0.257,0.155-0.382,0.371-0.382,0.646c0,0.185,0.048,0.347,0.144,0.478c0.096,0.131,0.245,0.251,0.46,0.37
				c0.209,0.12,0.616,0.294,1.219,0.515c0.825,0.305,1.38,0.604,1.673,0.908c0.287,0.305,0.431,0.688,0.431,1.147
				c0,0.651-0.239,1.147-0.724,1.5c-0.478,0.352-1.159,0.526-2.032,0.526c-0.92,0-1.638-0.144-2.158-0.437v-0.98
				c0.335,0.174,0.693,0.305,1.076,0.4c0.383,0.103,0.753,0.15,1.112,0.15c0.55,0,0.974-0.089,1.267-0.263
				c0.299-0.179,0.442-0.448,0.442-0.807c0-0.269-0.114-0.502-0.353-0.693c-0.233-0.191-0.688-0.418-1.369-0.682
				c-0.651-0.245-1.111-0.454-1.38-0.633c-0.275-0.18-0.478-0.383-0.609-0.61c-0.138-0.233-0.204-0.502-0.204-0.819
				c0-0.568,0.233-1.016,0.693-1.345c0.46-0.329,1.094-0.49,1.895-0.49c0.753,0,1.482,0.149,2.2,0.454l-0.377,0.854
				C506.917-2332.061,506.29-2332.204,505.722-2332.204L505.722-2332.204z M516.785-2326h-1.25l-1.279-4.083
				c-0.078-0.251-0.227-0.818-0.448-1.703h-0.054c-0.167,0.741-0.317,1.314-0.442,1.715l-1.315,4.071h-1.219l-1.894-6.957h1.1
				c0.448,1.745,0.794,3.078,1.028,3.992c0.233,0.915,0.371,1.53,0.4,1.847h0.054c0.048-0.239,0.12-0.556,0.227-0.938
				c0.102-0.383,0.191-0.688,0.269-0.908l1.273-3.992h1.142l1.249,3.992c0.233,0.729,0.395,1.339,0.478,1.834h0.054
				c0.018-0.154,0.06-0.388,0.138-0.705c0.072-0.316,0.514-2.025,1.321-5.121h1.094L516.785-2326L516.785-2326z M525.11-2326.831
				c-0.568,0.64-1.357,0.956-2.367,0.956c-0.622,0-1.171-0.144-1.656-0.437c-0.484-0.293-0.854-0.711-1.118-1.255
				c-0.263-0.55-0.394-1.189-0.394-1.918c0-1.136,0.287-2.021,0.854-2.654c0.562-0.628,1.351-0.944,2.361-0.944
				c0.974,0,1.745,0.323,2.319,0.969c0.574,0.646,0.86,1.523,0.86,2.63C525.97-2328.349,525.684-2327.465,525.11-2326.831
				L525.11-2326.831z M524.339-2331.499c-0.353-0.461-0.885-0.693-1.584-0.693c-0.688,0-1.207,0.227-1.56,0.681
				c-0.353,0.455-0.526,1.13-0.526,2.027c0,0.89,0.179,1.565,0.532,2.031c0.358,0.466,0.878,0.699,1.572,0.699
				c0.688,0,1.213-0.233,1.566-0.699c0.358-0.46,0.538-1.142,0.538-2.031C524.876-2330.369,524.697-2331.044,524.339-2331.499
				L524.339-2331.499z M531.678-2332.031c-0.292-0.065-0.544-0.096-0.765-0.096c-0.562,0-1.046,0.228-1.44,0.687
				c-0.4,0.456-0.604,1.023-0.604,1.704v3.736h-1.052v-6.957h0.866l0.125,1.285h0.048c0.257-0.449,0.568-0.801,0.933-1.046
				c0.364-0.246,0.765-0.365,1.201-0.365c0.311,0,0.585,0.024,0.831,0.072L531.678-2332.031L531.678-2332.031z M537.995-2326
				l-0.138-0.933h-0.054c-0.49,0.706-1.219,1.059-2.188,1.059c-0.908,0-1.613-0.311-2.122-0.932
				c-0.508-0.622-0.759-1.506-0.759-2.654s0.251-2.038,0.759-2.672c0.508-0.634,1.219-0.95,2.122-0.95
				c0.944,0,1.668,0.341,2.17,1.028h0.083l-0.042-0.502l-0.024-0.49v-2.833h1.052v9.879H537.995L537.995-2326z M537.804-2329.46
				c0-0.986-0.167-1.692-0.496-2.11c-0.329-0.424-0.849-0.633-1.572-0.633c-0.615,0-1.087,0.239-1.417,0.723
				c-0.329,0.479-0.49,1.159-0.49,2.032c0,0.891,0.161,1.56,0.484,2.015c0.329,0.453,0.807,0.681,1.44,0.681
				c0.717,0,1.237-0.197,1.56-0.592c0.323-0.388,0.49-1.021,0.49-1.895V-2329.46L537.804-2329.46z"/>
		</defs>
		<clipPath id="SVGID_38_">
			<use xlink:href="#SVGID_37_"  overflow="visible"/>
		</clipPath>
		<g clip-path="url(#SVGID_38_)">
			<image overflow="visible" width="1366" height="5889" xlink:href="498DE9D.jpg"  transform="matrix(1 0 0 1 67 -2694)">
			</image>
		</g>
	</g>
	<g>
		<defs>
			<polygon id="SVGID_39_" points="447.6,-2315.374 446.369,-2315.374 446.369,-2301.891 447.6,-2301.891 447.6,-2315.374 			"/>
		</defs>
		<clipPath id="SVGID_40_">
			<use xlink:href="#SVGID_39_"  overflow="visible"/>
		</clipPath>
		<g clip-path="url(#SVGID_40_)">
			<image overflow="visible" width="1366" height="5889" xlink:href="498DE9F.jpg"  transform="matrix(1 0 0 1 67 -2694)">
			</image>
		</g>
	</g>
</g>
</svg>
