<svg width="626" height="467" viewBox="0 0 626 467" fill="none" xmlns="http://www.w3.org/2000/svg">
<path d="M626 409.962H0V410.275H626V409.962Z" fill="#E0E0E0"/>
<path d="M472.839 423.223H429.766V423.536H472.839V423.223Z" fill="#E0E0E0"/>
<path d="M139.023 423.379H114.785V423.692H139.023V423.379Z" fill="#E0E0E0"/>
<path d="M314.252 422.644H265.125V422.957H314.252V422.644Z" fill="#E0E0E0"/>
<path d="M263.873 418.194H241.912V418.507H263.873V418.194Z" fill="#E0E0E0"/>
<path d="M531.542 418.351H465.205V418.664H531.542V418.351Z" fill="#E0E0E0"/>
<path d="M296.741 354.126H54.9814C51.0413 354.126 47.835 350.919 47.835 346.979V7.14642C47.835 3.20637 51.0413 0 54.9814 0H296.741C300.68 0 303.886 3.20637 303.886 7.14642V346.979C303.886 350.919 300.68 354.126 296.741 354.126ZM54.9814 0.314251C51.2129 0.314251 48.148 3.37915 48.148 7.14767V346.98C48.148 350.749 51.2129 353.814 54.9814 353.814H296.741C300.509 353.814 303.573 350.749 303.573 346.98V7.14642C303.573 3.37915 300.509 0.313 296.741 0.313H54.9814V0.314251Z" fill="#E0E0E0"/>
<path d="M567.545 354.126H325.785C321.846 354.126 318.64 350.919 318.64 346.979V7.14642C318.64 3.20637 321.846 0 325.785 0H567.545C571.485 0 574.691 3.20637 574.691 7.14642V346.979C574.691 350.919 571.485 354.126 567.545 354.126ZM325.785 0.314251C322.018 0.314251 318.953 3.37915 318.953 7.14767V346.98C318.953 350.749 322.018 353.814 325.785 353.814H567.545C571.313 353.814 574.378 350.749 574.378 346.98V7.14642C574.378 3.37915 571.313 0.313 567.545 0.313H325.785V0.314251Z" fill="#E0E0E0"/>
<path d="M550.02 253.249C534.612 229.803 548.681 204.594 546.336 178.513C543.991 152.431 519.205 146.737 523.893 124.63C529.332 98.9967 514.85 74.3887 498.438 74.3887C482.025 74.3887 467.545 98.998 472.982 124.63C477.671 146.737 452.885 152.431 450.54 178.513C448.196 204.594 462.264 229.803 446.857 253.249C431.448 276.697 435.492 307.753 444.176 323.166C446.569 327.413 449.384 331.171 452.454 334.497C477.095 361.181 519.779 361.181 544.42 334.497C547.49 331.171 550.307 327.413 552.698 323.166C561.385 307.753 565.427 276.696 550.02 253.249Z" fill="#E0E0E0"/>
<path d="M506.226 409.963H490.652V278.836C490.652 274.553 494.157 271.048 498.44 271.048C502.723 271.048 506.227 274.553 506.227 278.836V409.963H506.226Z" fill="#F0F0F0"/>
<path d="M400.526 409.962H379.321V278.845C379.321 273.015 384.093 268.242 389.925 268.242C395.755 268.242 400.526 273.015 400.526 278.845V409.962Z" fill="#E0E0E0"/>
<path d="M389.924 374.592C425.996 374.592 455.238 345.35 455.238 309.278C455.238 273.206 425.996 243.963 389.924 243.963C353.852 243.963 324.609 273.206 324.609 309.278C324.609 345.35 353.852 374.592 389.924 374.592Z" fill="#F0F0F0"/>
<path d="M441.693 309.221C455.908 309.221 467.431 297.698 467.431 283.483C467.431 269.268 455.908 257.744 441.693 257.744C427.478 257.744 415.954 269.268 415.954 283.483C415.954 297.698 427.478 309.221 441.693 309.221Z" fill="#F0F0F0"/>
<path d="M337.105 283.482C345.521 283.482 352.344 276.659 352.344 268.242C352.344 259.826 345.521 253.003 337.105 253.003C328.688 253.003 321.865 259.826 321.865 268.242C321.865 276.659 328.688 283.482 337.105 283.482Z" fill="#F0F0F0"/>
<path d="M353.669 271.048C359.577 271.048 364.365 266.259 364.365 260.352C364.365 254.445 359.577 249.656 353.669 249.656C347.762 249.656 342.974 254.445 342.974 260.352C342.974 266.259 347.762 271.048 353.669 271.048Z" fill="#F0F0F0"/>
<path d="M255.371 331.705C244.496 333.321 235.069 337.263 226.93 342.557C226.852 332.648 225.038 323.234 220.381 315.633C213.291 322.544 207.548 331.48 202.908 341.091C201.17 323.02 196.426 305.514 185.921 294.449C170.182 304.349 162.068 320.853 158.209 338.329C151.938 327.13 143.285 316.794 131.337 309.279C121.706 319.423 118.632 333.448 118.888 347.811C107.948 335.074 95.7969 325.129 83.9542 323.961C81.0383 344.136 87.2482 363.159 95.1396 378.157C105.491 397.831 126.084 409.962 148.315 409.962H199.753C221.677 409.962 242.231 398.265 252.517 378.904C259.033 366.646 262.131 350.853 255.371 331.705Z" fill="#E0E0E0"/>
<path d="M240.705 71.598C247.062 52.9783 242.016 39.7246 226.477 39.7246C216.733 39.7246 204.65 44.9417 192.883 53.4365C191.554 48.5938 187.81 45.6916 181.788 45.6916C171.189 45.6916 156.578 54.6585 145.115 67.3112C142.341 64.4904 138.329 62.7627 133.171 62.4847C123.027 61.9138 110.74 67.067 100.058 75.4467C99.1337 74.0444 97.5461 73.1643 95.3564 73.0341C89.5108 72.7073 81.5981 77.9094 77.6669 84.6414C77.4227 85.0658 77.2049 85.4727 76.9883 85.8808H89.1302H98.7906H132.349H148.863H161.704H181.481H185.071H234.132H243.792C244.289 80.0102 243.251 75.1024 240.705 71.598Z" fill="#F0F0F0"/>
<path d="M241.219 184.645C244.324 175.551 241.86 169.075 234.269 169.075C229.509 169.075 223.607 171.624 217.86 175.773C217.211 173.408 215.383 171.991 212.441 171.991C207.262 171.991 200.126 176.372 194.527 182.552C193.172 181.173 191.213 180.329 188.693 180.194C183.737 179.915 177.736 182.433 172.518 186.526C172.066 185.841 171.291 185.41 170.222 185.347C167.366 185.188 163.501 187.729 161.582 191.018C161.462 191.224 161.356 191.423 161.25 191.622H167.181H171.9H188.292H196.359H202.631H212.293H214.046H238.01H242.729C242.971 188.754 242.463 186.357 241.219 184.645Z" fill="#F0F0F0"/>
<path d="M429.144 115.861C428.509 115.769 427.866 115.722 427.211 115.722C427.811 106.638 424.338 100.837 416.921 100.837C411.569 100.837 405.001 103.866 398.306 108.99C400.222 91.3573 394.088 79.8965 380.2 79.8965C368.997 79.8965 354.813 87.3509 340.803 99.5103C339.576 92.5918 335.448 88.4464 328.514 88.4464C316.329 88.4464 299.016 101.258 285.134 119.334C285.134 119.334 285.129 119.358 285.117 119.334C282.117 115.304 277.611 112.813 271.686 112.416C260.085 111.601 245.68 118.961 232.908 130.958C231.937 128.931 230.168 127.673 227.637 127.51C221.293 127.067 212.551 133.684 207.473 142.534H222.273H232.306H270.89H288.96H305.051H327.906H371.085H387.916H393.904H417.86H439.356C444.799 129.116 440.462 117.376 429.144 115.861Z" fill="#F0F0F0"/>
<path d="M313 466.506C447.067 466.506 555.749 460.159 555.749 452.33C555.749 444.5 447.067 438.153 313 438.153C178.933 438.153 70.251 444.5 70.251 452.33C70.251 460.159 178.933 466.506 313 466.506Z" fill="#F5F5F5"/>
<path d="M61.168 119.704L346.588 160.788L384.893 199.442L61.168 119.704Z" fill="#407BFF"/>
<path opacity="0.6" d="M61.168 119.704L346.588 160.788L384.893 199.442L61.168 119.704Z" fill="white"/>
<path d="M61.168 119.704L346.588 160.788L333.343 216.684L61.168 119.704Z" fill="#407BFF"/>
<path opacity="0.2" d="M61.168 119.704L346.588 160.788L333.343 216.684L61.168 119.704Z" fill="black"/>
<path d="M327.481 54.9912L344.054 132.649C344.951 136.854 342.245 141.03 338.038 141.928L190.202 173.477C185.996 174.374 181.821 171.668 180.923 167.462L164.35 89.8043C163.881 87.6058 164.399 85.4098 165.597 83.6883C166.697 82.1271 168.358 80.9539 170.365 80.5258L318.201 48.9766C320.209 48.5484 322.205 48.9416 323.845 49.9169C325.644 51.0011 327.012 52.794 327.481 54.9912Z" fill="#407BFF"/>
<path opacity="0.4" d="M327.481 54.9912L344.054 132.649C344.951 136.854 342.245 141.03 338.038 141.928L190.202 173.477C185.996 174.374 181.821 171.668 180.923 167.462L164.35 89.8043C163.881 87.6058 164.399 85.4098 165.597 83.6883C166.697 82.1271 168.358 80.9539 170.365 80.5258L318.201 48.9766C320.209 48.5484 322.205 48.9416 323.845 49.9169C325.644 51.0011 327.012 52.794 327.481 54.9912Z" fill="black"/>
<path d="M323.846 49.9181L274.446 110.555C265.011 122.136 248.788 125.598 235.449 118.877L165.599 83.6883C166.698 82.127 168.359 80.9539 170.366 80.5257L318.202 48.9766C320.211 48.5484 322.208 48.9415 323.846 49.9181Z" fill="#407BFF"/>
<path d="M61.168 119.704L296.585 175.65L333.343 216.684L61.168 119.704Z" fill="#407BFF"/>
<path opacity="0.6" d="M61.168 119.704L296.585 175.65L333.343 216.684L61.168 119.704Z" fill="white"/>
<path d="M173.219 188.975L147.026 173.63L146.393 174.711L172.585 190.057L173.219 188.975Z" fill="#407BFF"/>
<path d="M194.22 201.275L184.797 195.754L184.163 196.835L193.586 202.356L194.22 201.275Z" fill="#407BFF"/>
<path d="M61.168 119.704L296.585 175.65L250.826 230.807L61.168 119.704Z" fill="#407BFF"/>
<path d="M376.05 250.788C375.745 250.788 375.433 250.73 375.13 250.61L336.776 235.426C335.49 234.917 334.861 233.462 335.37 232.175C335.878 230.891 337.327 230.257 338.62 230.769L376.974 245.954C378.26 246.462 378.89 247.917 378.38 249.204C377.991 250.187 377.048 250.788 376.05 250.788Z" fill="#407BFF"/>
<path opacity="0.3" d="M376.05 250.788C375.745 250.788 375.433 250.73 375.13 250.61L336.776 235.426C335.49 234.917 334.861 233.462 335.37 232.175C335.878 230.891 337.327 230.257 338.62 230.769L376.974 245.954C378.26 246.462 378.89 247.917 378.38 249.204C377.991 250.187 377.048 250.788 376.05 250.788Z" fill="black"/>
<path d="M373.791 228.794C373.486 228.794 373.174 228.737 372.871 228.617L352.273 220.462C350.987 219.953 350.358 218.499 350.867 217.212C351.374 215.927 352.824 215.293 354.117 215.806L374.715 223.961C376.001 224.469 376.631 225.924 376.121 227.211C375.731 228.194 374.789 228.794 373.791 228.794Z" fill="#407BFF"/>
<path opacity="0.5" d="M373.791 228.794C373.486 228.794 373.174 228.737 372.871 228.617L352.273 220.462C350.987 219.953 350.358 218.499 350.867 217.212C351.374 215.927 352.824 215.293 354.117 215.806L374.715 223.961C376.001 224.469 376.631 225.924 376.121 227.211C375.731 228.194 374.789 228.794 373.791 228.794Z" fill="white"/>
<path d="M330.73 250.408C330.425 250.408 330.113 250.351 329.81 250.23L292.414 235.424C291.128 234.916 290.498 233.46 291.008 232.174C291.516 230.888 292.97 230.259 294.258 230.768L331.654 245.574C332.94 246.083 333.57 247.537 333.06 248.824C332.671 249.807 331.728 250.408 330.73 250.408Z" fill="#407BFF"/>
<path opacity="0.3" d="M330.73 250.408C330.425 250.408 330.113 250.351 329.81 250.23L292.414 235.424C291.128 234.916 290.498 233.46 291.008 232.174C291.516 230.888 292.97 230.259 294.258 230.768L331.654 245.574C332.94 246.083 333.57 247.537 333.06 248.824C332.671 249.807 331.728 250.408 330.73 250.408Z" fill="black"/>
<path d="M466.122 137.557C469.436 144.034 472.481 150.514 475.37 157.155C478.237 163.797 480.962 170.508 483.307 177.552L484.163 180.222C484.307 180.697 484.53 181.477 484.646 182.031C484.764 182.61 484.889 183.207 484.957 183.737C485.289 185.918 485.347 187.888 485.384 189.826C485.445 193.688 485.185 197.37 484.863 201.032C484.162 208.345 483.021 215.46 481.454 222.595L474.59 221.834C474.501 214.781 474.435 207.66 474.191 200.713C474.067 197.246 473.868 193.788 473.517 190.525C473.34 188.905 473.077 187.316 472.772 185.987C472.701 185.635 472.608 185.367 472.528 185.075C472.429 184.765 472.387 184.692 472.25 184.32L471.306 181.953C468.69 175.617 465.746 169.226 462.744 162.867L453.654 143.795L466.122 137.557Z" fill="#E4897B"/>
<path d="M474.688 219.687L471.482 225.681L481.72 228.537C481.72 228.537 483.671 223.713 481.348 219.912L474.688 219.687Z" fill="#E4897B"/>
<path d="M467.558 234.324L476.97 235.067L481.72 228.538L471.483 225.681L467.558 234.324Z" fill="#E4897B"/>
<path d="M421.906 95.4422C422.381 95.5387 422.886 95.0276 423.034 94.3005C423.181 93.5734 422.916 92.9057 422.441 92.8091C421.966 92.7126 421.461 93.2237 421.313 93.9508C421.166 94.6779 421.431 95.3456 421.906 95.4422Z" fill="#263238"/>
<path d="M422.432 95.543C422.432 95.543 419.926 99.4016 417.695 101.054C418.737 102.517 421.036 102.411 421.036 102.411L422.432 95.543Z" fill="#DE5753"/>
<path d="M426.499 90.7958C426.381 90.7958 426.265 90.7482 426.178 90.6555C424.875 89.2433 423.326 89.4736 423.257 89.4812C423.027 89.5225 422.797 89.3597 422.758 89.1218C422.719 88.8852 422.878 88.6611 423.113 88.621C423.196 88.606 425.182 88.2918 426.819 90.0621C426.982 90.2386 426.971 90.5141 426.794 90.6781C426.71 90.7569 426.605 90.7958 426.499 90.7958Z" fill="#263238"/>
<path d="M443.727 104.517C442.408 111.247 441.092 123.575 445.799 128.065C445.799 128.065 443.959 134.891 431.457 134.891C417.709 134.891 424.886 128.066 424.886 128.066C432.39 126.274 432.197 120.708 430.89 115.48L443.727 104.517Z" fill="#E4897B"/>
<path d="M447.687 132.315C448.679 129.017 449.772 125.243 447.511 124.062C445.024 122.761 431.407 121.435 426.713 123.876C422.018 126.318 423.349 133.006 423.349 133.006L447.687 132.315Z" fill="#263238"/>
<path d="M476.565 444.546C475.623 444.546 474.712 444.402 474.357 443.939C474.208 443.745 474.088 443.407 474.364 442.905C474.508 442.642 474.74 442.471 475.048 442.398C476.399 442.088 478.932 443.823 479.039 443.895C479.111 443.944 479.146 444.029 479.129 444.116C479.113 444.2 479.051 444.267 478.967 444.287C478.495 444.399 477.514 444.546 476.565 444.546ZM475.416 442.792C475.321 442.792 475.231 442.801 475.148 442.82C474.963 442.864 474.83 442.96 474.746 443.113C474.55 443.471 474.666 443.622 474.704 443.673C475.097 444.188 476.977 444.197 478.349 443.964C477.557 443.478 476.252 442.792 475.416 442.792Z" fill="#407BFF"/>
<path d="M478.915 444.292C478.88 444.292 478.844 444.283 478.811 444.265C477.86 443.749 476.019 441.735 476.213 440.708C476.248 440.523 476.386 440.201 476.907 440.136C477.238 440.099 477.557 440.189 477.835 440.417C478.904 441.289 479.123 443.944 479.133 444.056C479.139 444.135 479.102 444.213 479.034 444.255C478.998 444.282 478.957 444.292 478.915 444.292ZM477.057 440.564C477.026 440.564 476.992 440.566 476.96 440.571C476.675 440.604 476.652 440.736 476.64 440.791C476.526 441.398 477.698 442.921 478.645 443.637C478.537 442.862 478.244 441.316 477.558 440.755C477.402 440.627 477.238 440.564 477.057 440.564Z" fill="#407BFF"/>
<path d="M421.333 444.547C420.154 444.547 419.015 444.384 418.633 443.853C418.499 443.668 418.394 443.351 418.65 442.9C418.794 442.647 419.028 442.476 419.343 442.391C420.865 441.984 424.088 443.807 424.223 443.884C424.302 443.928 424.344 444.017 424.329 444.108C424.314 444.197 424.247 444.269 424.156 444.287C423.569 444.405 422.434 444.547 421.333 444.547ZM419.876 442.763C419.723 442.763 419.582 442.779 419.455 442.813C419.254 442.868 419.115 442.967 419.028 443.117C418.873 443.389 418.929 443.521 418.986 443.599C419.4 444.174 421.724 444.204 423.448 443.966C422.595 443.528 420.951 442.763 419.876 442.763Z" fill="#407BFF"/>
<path d="M424.114 444.291C424.084 444.291 424.053 444.285 424.025 444.273C422.916 443.775 420.716 441.787 420.884 440.746C420.924 440.501 421.097 440.197 421.695 440.137C422.14 440.095 422.547 440.216 422.904 440.51C424.074 441.472 424.321 443.948 424.331 444.053C424.338 444.131 424.305 444.206 424.242 444.251C424.203 444.279 424.159 444.291 424.114 444.291ZM421.871 440.564C421.828 440.564 421.784 440.567 421.74 440.57C421.349 440.61 421.324 440.764 421.315 440.816C421.215 441.44 422.708 443.003 423.841 443.683C423.724 442.96 423.396 441.477 422.627 440.846C422.395 440.657 422.147 440.564 421.871 440.564Z" fill="#407BFF"/>
<path d="M434.228 444.076H425.029L424.114 422.776H433.313L434.228 444.076Z" fill="#E4897B"/>
<path d="M489.452 444.076H480.254L475.63 422.776H484.828L489.452 444.076Z" fill="#E4897B"/>
<path d="M479.6 443.01H489.933C490.31 443.01 490.635 443.271 490.717 443.638L492.533 451.814C492.721 452.661 492.055 453.464 491.186 453.45C487.579 453.388 485.826 453.176 481.283 453.176C478.487 453.176 472.727 453.465 468.867 453.465C465.091 453.465 464.502 449.648 466.082 449.302C473.169 447.754 475.838 445.615 478.106 443.576C478.516 443.208 479.05 443.01 479.6 443.01Z" fill="#263238"/>
<path d="M425.09 443.01H435.134C435.511 443.01 435.836 443.271 435.918 443.638L437.734 451.814C437.922 452.661 437.279 453.464 436.41 453.45C432.786 453.389 427.552 453.176 422.997 453.176C417.672 453.176 413.072 453.465 406.829 453.465C403.053 453.465 402.005 449.648 403.585 449.302C410.78 447.729 416.654 447.56 422.873 443.727C423.55 443.31 424.298 443.01 425.09 443.01Z" fill="#263238"/>
<path d="M420.649 144.221C412.85 143.611 405.353 142.602 397.727 141.173C393.932 140.443 390.131 139.629 386.329 138.607C382.524 137.586 378.711 136.431 374.858 134.822C373.894 134.425 372.923 133.982 371.951 133.52C370.732 132.918 369.72 132.292 368.827 131.698C367.019 130.502 365.471 129.272 363.931 128.043C360.868 125.592 358.018 123.042 355.206 120.466C349.607 115.288 344.294 109.928 339.179 104.289L343.785 99.1436L361.95 112.199C364.949 114.362 367.976 116.472 370.952 118.464C372.436 119.45 373.952 120.385 375.331 121.164C376.031 121.561 376.654 121.857 377.133 122.048C377.878 122.338 378.632 122.626 379.423 122.891C385.782 125.012 392.972 126.375 400.114 127.525C407.262 128.657 414.649 129.587 421.786 130.328L420.649 144.221Z" fill="#E4897B"/>
<path d="M462.267 130.145C470.889 132.12 479.604 157.325 479.604 157.325L461.859 170.053C461.859 170.053 456.903 158.315 452.026 148.047C446.915 137.291 453.453 128.124 462.267 130.145Z" fill="#407BFF"/>
<path opacity="0.4" d="M462.267 130.145C470.889 132.12 479.604 157.325 479.604 157.325L461.859 170.053C461.859 170.053 456.903 158.315 452.026 148.047C446.915 137.291 453.453 128.124 462.267 130.145Z" fill="black"/>
<path d="M457.294 143.916L453.775 151.791C457.417 159.653 460.748 167.441 461.637 169.519C461.513 160.217 459.747 148.673 457.294 143.916Z" fill="#407BFF"/>
<path opacity="0.6" d="M457.294 143.916L453.775 151.791C457.417 159.653 460.748 167.441 461.637 169.519C461.513 160.217 459.747 148.673 457.294 143.916Z" fill="black"/>
<path d="M410.739 130.618C410.739 130.618 400.95 141.675 410.195 210.117C425.017 210.117 452.177 210.117 459.39 210.117C459.729 202.565 454.983 165.726 462.267 130.144C462.267 130.144 453.836 128.452 445.799 128.065C439.513 127.762 430.413 127.561 424.887 128.065C417.602 128.73 410.739 130.618 410.739 130.618Z" fill="#407BFF"/>
<path opacity="0.4" d="M410.739 130.618C410.739 130.618 400.95 141.675 410.195 210.117C425.017 210.117 452.177 210.117 459.39 210.117C459.729 202.565 454.983 165.726 462.267 130.144C462.267 130.144 453.836 128.452 445.799 128.065C439.513 127.762 430.413 127.561 424.887 128.065C417.602 128.73 410.739 130.618 410.739 130.618Z" fill="black"/>
<path d="M407.1 143.916C406.774 146.507 406.524 149.575 406.361 153.193C410.43 151.928 415.488 149.9 420.057 146.758L407.1 143.916Z" fill="#407BFF"/>
<path opacity="0.6" d="M407.1 143.916C406.774 146.507 406.524 149.575 406.361 153.193C410.43 151.928 415.488 149.9 420.057 146.758L407.1 143.916Z" fill="black"/>
<path d="M428.145 145.258C421.564 151.089 396.42 150.506 396.42 150.506L395.591 126.2C395.591 126.2 409.845 128.288 421.219 128.058C435.268 127.773 435.367 138.856 428.145 145.258Z" fill="#407BFF"/>
<path opacity="0.4" d="M428.145 145.258C421.564 151.089 396.42 150.506 396.42 150.506L395.591 126.2C395.591 126.2 409.845 128.288 421.219 128.058C435.268 127.773 435.367 138.856 428.145 145.258Z" fill="black"/>
<path d="M344.011 99.267L337.698 91.8965L330.959 99.3609C330.959 99.3609 335.108 106.341 341.715 105.24L344.011 99.267Z" fill="#E4897B"/>
<path d="M328.783 83.2998L326.355 92.9177L330.959 99.3605L337.699 91.896L328.783 83.2998Z" fill="#E4897B"/>
<path d="M424.116 422.781L424.587 433.76H433.788L433.318 422.781H424.116Z" fill="#CE6F64"/>
<path d="M484.832 422.781H475.63L478.019 433.76H487.218L484.832 422.781Z" fill="#CE6F64"/>
<path d="M429.654 85.149C421.403 81.3354 418.795 64.6951 442.53 68.8154C442.53 68.8154 438.954 72.7805 446.22 75.2845C453.485 77.7885 447.403 93.3521 429.654 85.149Z" fill="#263238"/>
<path d="M447.579 97.679C445.215 106.496 444.28 111.777 438.84 115.442C430.656 120.957 420.466 114.629 420.146 105.282C419.86 96.8702 423.772 83.8644 433.234 82.0878C442.556 80.3388 449.943 88.8624 447.579 97.679Z" fill="#E4897B"/>
<path d="M442.207 73.2977C447.824 76.439 455.438 78.312 454.673 82.7654C453.737 88.2091 459.277 84.8036 457.986 92.9141C457.143 98.2088 447.374 114.258 440.498 113.474C430.162 112.296 431.472 96.5073 431.439 88.2103C431.419 83.3188 431.19 67.1354 442.207 73.2977Z" fill="#263238"/>
<path d="M430.2 80.3276C427.696 80.9186 424.379 95.3516 434.078 96.6725C445.241 98.1949 430.2 80.3276 430.2 80.3276Z" fill="#263238"/>
<path d="M430.454 85.4505C427.385 85.7209 420.464 82.0275 421.291 76.4736C421.289 76.4736 425.701 82.9728 430.454 85.4505Z" fill="#263238"/>
<path d="M435.003 97.8259C434.042 100.016 432.225 101.738 430.466 102.655C427.82 104.032 426.333 102.018 426.931 99.3696C427.471 96.9871 429.497 93.3988 432.219 93.1058C434.899 92.8166 436.101 95.3231 435.003 97.8259Z" fill="#E4897B"/>
<path d="M448.774 87.6355C450.632 86.6902 454.863 84.548 456.017 78.4658C456.017 78.4658 460.149 90.0042 448.774 87.6355Z" fill="#263238"/>
<path d="M459.225 87.5153C458.299 86.9719 456.192 85.7337 453.234 86.9256C453.234 86.9244 457.088 81.9226 459.225 87.5153Z" fill="#263238"/>
<path d="M427.646 210.117C427.646 210.117 438.083 280.407 443.814 306.74C450.089 335.576 473.73 431.634 473.73 431.634H490.576C490.576 431.634 474.987 337.905 471.407 309.354C467.52 278.366 459.389 210.117 459.389 210.117H427.646Z" fill="#407BFF"/>
<path opacity="0.5" d="M427.646 210.117C427.646 210.117 438.083 280.407 443.814 306.74C450.089 335.576 473.73 431.634 473.73 431.634H490.576C490.576 431.634 474.987 337.905 471.407 309.354C467.52 278.366 459.389 210.117 459.389 210.117H427.646Z" fill="white"/>
<path d="M471.04 425.428C470.968 425.428 472.78 431.897 472.78 431.897H491.733L491.386 426.124L471.04 425.428Z" fill="#407BFF"/>
<path opacity="0.1" d="M471.04 425.428C470.968 425.428 472.78 431.897 472.78 431.897H491.733L491.386 426.124L471.04 425.428Z" fill="black"/>
<path d="M434.243 235.161C446.314 237.527 445.035 282.536 443.583 305.687C440.104 289.324 435.007 257.835 431.526 235.488C432.329 235.086 433.229 234.961 434.243 235.161Z" fill="#407BFF"/>
<path opacity="0.4" d="M434.243 235.161C446.314 237.527 445.035 282.536 443.583 305.687C440.104 289.324 435.007 257.835 431.526 235.488C432.329 235.086 433.229 234.961 434.243 235.161Z" fill="white"/>
<path d="M410.195 210.117C410.195 210.117 408.928 278.885 409.929 306.934C410.969 336.108 421.159 431.635 421.159 431.635H436.74C436.74 431.635 437.312 337.814 438.006 309.162C438.762 277.927 442.532 210.118 442.532 210.118H410.195V210.117Z" fill="#407BFF"/>
<path opacity="0.5" d="M410.195 210.117C410.195 210.117 408.928 278.885 409.929 306.934C410.969 336.108 421.159 431.635 421.159 431.635H436.74C436.74 431.635 437.312 337.814 438.006 309.162C438.762 277.927 442.532 210.118 442.532 210.118H410.195V210.117Z" fill="white"/>
<path d="M424.405 420.442C424.326 420.442 424.258 420.382 424.249 420.302C421.504 393.864 415.027 329.891 414.207 306.941C413.372 283.515 414.129 230.957 414.384 215.406C414.385 215.321 414.455 215.252 414.54 215.252C414.541 215.252 414.541 215.252 414.543 215.252C414.629 215.253 414.698 215.325 414.697 215.411C414.444 230.96 413.685 283.511 414.52 306.928C415.339 329.87 421.813 393.833 424.56 420.269C424.57 420.355 424.507 420.432 424.421 420.441C424.416 420.442 424.41 420.442 424.405 420.442Z" fill="#407BFF"/>
<path opacity="0.4" d="M424.405 420.442C424.326 420.442 424.258 420.382 424.249 420.302C421.504 393.864 415.027 329.891 414.207 306.941C413.372 283.515 414.129 230.957 414.384 215.406C414.385 215.321 414.455 215.252 414.54 215.252C414.541 215.252 414.541 215.252 414.543 215.252C414.629 215.253 414.698 215.325 414.697 215.411C414.444 230.96 413.685 283.511 414.52 306.928C415.339 329.87 421.813 393.833 424.56 420.269C424.57 420.355 424.507 420.432 424.421 420.441C424.416 420.442 424.41 420.442 424.405 420.442Z" fill="white"/>
<path d="M418.161 425.428C418.089 425.428 419.04 431.897 419.04 431.897H437.994L438.506 426.124L418.161 425.428Z" fill="#407BFF"/>
<path opacity="0.1" d="M418.161 425.428C418.089 425.428 419.04 431.897 419.04 431.897H437.994L438.506 426.124L418.161 425.428Z" fill="black"/>
</svg>
