<svg width="1360" height="888" viewBox="0 0 1360 888" fill="none" xmlns="http://www.w3.org/2000/svg">
<g clip-path="url(#clip0)">
<path d="M1360 0H0V887.366H1360V0Z" fill="url(#paint0_linear)"/>
<path d="M1360 0C1360 0 1317.98 172.9 1140.09 258.087C962.19 343.274 695.279 445.822 648.599 606.951C601.92 768.08 54.7314 704.562 0 366.855V887.366H1360V0Z" fill="white"/>
<path d="M1157.53 591.171C1157.53 591.171 1042.2 541.608 997.659 608.781C953.117 675.954 1015.52 671.771 1015.52 671.771C1015.52 671.771 1018.98 702.828 1077.89 629.328C1105.66 594.685 1157.53 591.171 1157.53 591.171Z" fill="#BBD070"/>
<path d="M1177.64 399.687C1177.64 399.687 1075.27 367.936 1007.87 497.79C940.462 627.645 879.864 637.91 879.864 637.91C879.864 637.91 1111.41 679.458 1177.64 399.687Z" fill="#97A43C"/>
<path d="M922.436 645.405C931.401 688.577 1030.22 605.328 1039.95 530.673C1049.68 456.018 1030.31 401.241 1049.95 353.353C1049.95 353.353 878.29 432.812 922.436 645.405Z" fill="#48753A"/>
<path d="M895.701 429.146C899.774 429.146 903.671 429.746 907.261 430.844C911.994 419.36 923.754 411.228 937.516 411.228C952.811 411.228 965.637 421.277 969.082 434.809C971.725 433.81 974.603 433.259 977.622 433.259C990.354 433.259 1000.68 443.07 1000.68 455.173H966.946H954.567H928.184H908.083H863.222C863.221 440.8 877.763 429.146 895.701 429.146Z" fill="#EBEBEB"/>
<path d="M1099.37 515.721C1102.48 515.721 1105.45 516.179 1108.19 517.017C1111.8 508.26 1120.76 502.059 1131.26 502.059C1142.92 502.059 1152.7 509.722 1155.33 520.04C1157.34 519.278 1159.54 518.858 1161.84 518.858C1171.55 518.858 1179.42 526.338 1179.42 535.568H1153.7H1144.26H1124.14H1108.81H1074.61C1074.61 524.608 1085.69 515.721 1099.37 515.721Z" fill="#EBEBEB"/>
<path d="M1116.97 580.753C1088.59 580.753 1061.87 587.797 1038.42 600.216C992.678 537.908 918.913 497.449 835.694 497.449C736.348 497.449 650.467 555.1 609.658 638.764C594.922 632.311 578.655 628.705 561.538 628.705C495.197 628.705 441.423 682.479 441.423 748.805C441.423 760.042 442.963 770.924 445.866 781.238H586.414H677.194H952.064H1084.97H1281.87C1283.95 770.746 1285.02 759.897 1285.02 748.805C1285.02 655.998 1209.78 580.753 1116.97 580.753Z" fill="url(#paint1_linear)"/>
<path d="M372.148 827.21H149.439C140.464 827.21 133.188 819.934 133.188 810.959V784.58C133.188 775.605 140.464 768.33 149.439 768.33H372.147V827.21H372.148Z" fill="url(#paint2_linear)"/>
<path d="M410.396 774.392V821.152H414.302V827.213H252.876C243.901 827.213 236.625 819.938 236.625 810.963V784.582C236.625 775.606 243.901 768.331 252.876 768.331H414.302V774.392H410.396Z" fill="#FF9F55"/>
<path d="M410.392 821.15H264.791C255.816 821.15 248.54 813.874 248.54 804.899V790.64C248.54 781.665 255.816 774.389 264.791 774.389H410.392V821.15Z" fill="#EFF7FE"/>
<path d="M382.551 768.327H138.745C127.469 768.327 118.327 759.185 118.327 747.909V720.269C118.327 708.992 127.469 699.851 138.745 699.851H382.551V768.327Z" fill="url(#paint3_linear)"/>
<path d="M425.798 706.902V761.282H429.163V768.331H296.561C285.285 768.331 276.143 759.19 276.143 747.913V720.272C276.143 708.995 285.284 699.853 296.561 699.853H429.163V706.902H425.798Z" fill="#5284FC"/>
<path d="M425.796 761.279H306.823C295.546 761.279 286.404 752.137 286.404 740.861V727.317C286.404 716.041 295.546 706.898 306.823 706.898H425.795V761.279H425.796Z" fill="#EFF7FE"/>
<path d="M206.9 699.838H392.204C404.408 699.838 414.301 689.944 414.301 677.74V637.984C414.301 625.78 404.408 615.886 392.204 615.886H206.9V699.838Z" fill="url(#paint4_linear)"/>
<path d="M173.704 624.53V691.201H170.313V699.843H302.428C314.632 699.843 324.526 689.949 324.526 677.745V637.987C324.526 625.783 314.632 615.889 302.428 615.889H170.313V624.531H173.704V624.53Z" fill="#FF9F55"/>
<path d="M173.707 691.197H290.536C302.667 691.197 312.501 681.363 312.501 669.232V646.492C312.501 634.361 302.667 624.527 290.536 624.527H173.707V691.197Z" fill="#EFF7FE"/>
<path d="M345.662 615.866H149.174C136.345 615.866 125.944 605.466 125.944 592.636V555.145C125.944 542.316 136.345 531.915 149.174 531.915H345.662V615.866Z" fill="url(#paint5_linear)"/>
<path d="M380.829 540.559V607.23H384.421V615.872H244.281C231.451 615.872 221.051 605.471 221.051 592.641V555.148C221.051 542.319 231.451 531.918 244.281 531.918H384.421V540.56H380.829V540.559Z" fill="#5284FC"/>
<path d="M380.826 607.226H256.379C243.602 607.226 233.245 596.869 233.245 584.092V563.69C233.245 550.913 243.602 540.556 256.379 540.556H380.826V607.226Z" fill="#EFF7FE"/>
<path d="M401.08 531.891H195.782C187.818 531.891 181.362 525.436 181.362 517.472V482.779C181.362 474.816 187.818 468.36 195.782 468.36H401.08V531.891Z" fill="url(#paint6_linear)"/>
<path d="M436.249 474.901V525.355H439.84V531.894H290.889C282.926 531.894 276.47 525.439 276.47 517.475V482.781C276.47 474.817 282.926 468.361 290.889 468.361H439.84V474.901H436.249Z" fill="#5284FC"/>
<path d="M436.245 525.352H301.845C293.882 525.352 287.426 518.896 287.426 510.933V489.318C287.426 481.354 293.882 474.898 301.845 474.898H436.245V525.352Z" fill="#EFF7FE"/>
<path d="M959.861 741.273H1137.6C1144.02 741.273 1149.22 736.072 1149.22 729.657V689.901C1149.22 683.485 1144.02 678.284 1137.6 678.284H959.861V741.273Z" fill="url(#paint7_linear)"/>
<path d="M903.788 835.646H1120.4C1125.01 835.646 1128.74 831.909 1128.74 827.299V800.886C1128.74 796.276 1125.01 792.539 1120.4 792.539H903.788V835.646Z" fill="url(#paint8_linear)"/>
<path d="M880.713 797.251V830.935H874.994V835.644H976.621C979.802 835.644 982.389 833.063 982.389 829.877V798.308C982.389 795.122 979.802 792.541 976.621 792.541H874.994V797.251H880.713Z" fill="#F08533"/>
<path d="M880.715 830.933H971.694C974.756 830.933 977.239 828.451 977.239 825.389V802.795C977.239 799.733 974.756 797.251 971.694 797.251H880.715V830.933Z" fill="#FAE6DE"/>
<path d="M929.553 684.77V734.792H926.457V741.277H1055.25C1061.88 741.277 1067.25 735.902 1067.25 729.27V690.292C1067.25 683.661 1061.88 678.285 1055.25 678.285H926.457V684.769H929.553V684.77Z" fill="#F08533"/>
<path d="M929.556 734.79H1048.66C1055.29 734.79 1060.66 729.415 1060.66 722.784V696.773C1060.66 690.143 1055.29 684.767 1048.66 684.767H929.556V734.79Z" fill="#FAE6DE"/>
<path d="M998.25 792.538H1172.76C1180.96 792.538 1187.61 785.893 1187.61 777.696V756.118C1187.61 747.921 1180.96 741.277 1172.76 741.277H998.25V792.538Z" fill="url(#paint9_linear)"/>
<path d="M967.941 746.554V787.264H964.846V792.541H1090.8C1099 792.541 1105.64 785.896 1105.64 777.7V756.12C1105.64 747.923 1099 741.279 1090.8 741.279H964.846V746.555H967.941V746.554Z" fill="#495DA1"/>
<path d="M967.943 787.262H1084.61C1092.81 787.262 1099.45 780.617 1099.45 772.421V761.394C1099.45 753.197 1092.81 746.553 1084.61 746.553H967.943V787.262Z" fill="#FAE6DE"/>
<path d="M1038.5 759.533H988.522V760.82H1038.5V759.533Z" fill="#DECCC5"/>
<path d="M1061.93 763.445H1008.56V764.732H1061.93V763.445Z" fill="#DECCC5"/>
<path d="M942.709 805.964H892.734V807.251H942.709V805.964Z" fill="#DECCC5"/>
<path d="M966.136 809.876H912.771V811.163H966.136V809.876Z" fill="#DECCC5"/>
<path d="M971.474 813.448H949.396V814.736H971.474V813.448Z" fill="#DECCC5"/>
<path d="M1041.35 718.592H987.981V719.879H1041.35V718.592Z" fill="#DECCC5"/>
<path d="M1005.67 722.165H983.587V723.451H1005.67V722.165Z" fill="#DECCC5"/>
<path d="M991.512 727.074C991.512 726.43 992.201 725.444 993.28 726.294C994.359 727.143 993.027 730.244 992.155 729.968C991.282 729.693 991.512 727.74 991.512 727.074Z" fill="#EEA886"/>
<path d="M676.654 429.629C676.029 427.209 675.07 424.924 673.832 422.823L676.705 418.502L672.719 414.515L668.732 410.529L664.411 413.402C662.31 412.164 660.025 411.205 657.605 410.58L656.582 405.496H650.944H645.306L644.283 410.58C641.863 411.205 639.578 412.164 637.478 413.402L633.156 410.529L629.169 414.515L625.183 418.502L628.056 422.823C626.818 424.923 625.859 427.209 625.234 429.629L620.15 430.652V436.29V441.928L625.234 442.951C625.859 445.371 626.818 447.656 628.056 449.756L625.183 454.078L629.17 458.064L633.156 462.051L637.478 459.177C639.578 460.416 641.863 461.375 644.283 462L645.306 467.083H650.944H656.582L657.605 462C660.025 461.375 662.31 460.416 664.411 459.177L668.732 462.051L672.719 458.064L676.705 454.078L673.832 449.756C675.07 447.656 676.029 445.371 676.654 442.951L681.738 441.928V436.29V430.652L676.654 429.629ZM650.944 456.045C640.033 456.045 631.188 447.2 631.188 436.29C631.188 425.379 640.033 416.534 650.944 416.534C661.854 416.534 670.699 425.379 670.699 436.29C670.699 447.2 661.854 456.045 650.944 456.045Z" fill="white"/>
<path d="M713.508 410.381C713.222 409.272 712.782 408.225 712.214 407.261L713.532 405.28L711.704 403.452L709.877 401.625L707.895 402.942C706.932 402.375 705.885 401.934 704.775 401.648L704.306 399.318H701.722H699.137L698.668 401.648C697.558 401.935 696.511 402.375 695.548 402.942L693.567 401.625L691.739 403.452L689.912 405.28L691.229 407.261C690.661 408.225 690.221 409.272 689.935 410.381L687.604 410.85V413.435V416.02L689.935 416.489C690.222 417.598 690.661 418.646 691.229 419.609L689.912 421.59L691.739 423.418L693.567 425.245L695.548 423.928C696.511 424.495 697.558 424.935 698.668 425.222L699.137 427.552H701.722H704.306L704.775 425.222C705.885 424.935 706.932 424.495 707.895 423.928L709.877 425.245L711.704 423.418L713.532 421.59L712.214 419.609C712.782 418.646 713.222 417.598 713.508 416.489L715.839 416.02V413.435V410.85L713.508 410.381ZM701.722 422.492C696.72 422.492 692.665 418.437 692.665 413.435C692.665 408.433 696.72 404.378 701.722 404.378C706.724 404.378 710.778 408.433 710.778 413.435C710.778 418.437 706.724 422.492 701.722 422.492Z" fill="white"/>
<path d="M851.605 768.08H497.781C484.734 768.08 474.158 757.503 474.158 744.457V514.078C474.158 501.032 484.734 490.456 497.781 490.456H851.605C864.652 490.456 875.228 501.032 875.228 514.078V744.457C875.228 757.504 864.652 768.08 851.605 768.08Z" fill="white"/>
<path d="M676.333 487.36H673.055V771.308H676.333V487.36Z" fill="#E8E8E8"/>
<path d="M648.599 519.71H501.236V525.28H648.599V519.71Z" fill="#C1DBD1"/>
<path d="M648.599 540.127H501.236V545.698H648.599V540.127Z" fill="#C1DBD1"/>
<path d="M648.599 560.545H501.236V566.116H648.599V560.545Z" fill="#C1DBD1"/>
<path d="M648.599 580.963H501.236V586.533H648.599V580.963Z" fill="#C1DBD1"/>
<path d="M648.599 601.38H501.236V606.951H648.599V601.38Z" fill="#C1DBD1"/>
<path d="M648.599 621.798H501.236V627.369H648.599V621.798Z" fill="#C1DBD1"/>
<path d="M648.599 642.216H501.236V647.787H648.599V642.216Z" fill="#C1DBD1"/>
<path d="M648.599 662.634H501.236V668.204H648.599V662.634Z" fill="#C1DBD1"/>
<path d="M648.599 683.051H501.236V688.622H648.599V683.051Z" fill="#C1DBD1"/>
<path d="M648.599 703.469H501.236V709.04H648.599V703.469Z" fill="#C1DBD1"/>
<path d="M648.599 723.887H501.236V729.458H648.599V723.887Z" fill="#C1DBD1"/>
<path d="M847.321 519.71H699.958V525.28H847.321V519.71Z" fill="#C1DBD1"/>
<path d="M847.321 540.127H699.958V545.698H847.321V540.127Z" fill="#C1DBD1"/>
<path d="M847.321 560.545H699.958V566.116H847.321V560.545Z" fill="#C1DBD1"/>
<path d="M847.321 580.963H699.958V586.533H847.321V580.963Z" fill="#C1DBD1"/>
<path d="M847.321 601.38H699.958V606.951H847.321V601.38Z" fill="#C1DBD1"/>
<path d="M847.321 621.798H699.958V627.369H847.321V621.798Z" fill="#C1DBD1"/>
<path d="M847.321 642.216H699.958V647.787H847.321V642.216Z" fill="#C1DBD1"/>
<path d="M847.321 662.634H699.958V668.204H847.321V662.634Z" fill="#C1DBD1"/>
<path d="M847.321 683.051H699.958V688.622H847.321V683.051Z" fill="#C1DBD1"/>
<path d="M847.321 703.469H699.958V709.04H847.321V703.469Z" fill="#C1DBD1"/>
<path d="M847.321 723.887H699.958V729.458H847.321V723.887Z" fill="#C1DBD1"/>
<path d="M559.699 568.229C559.699 568.229 561.938 564.31 558.386 553.806C554.951 543.647 543.06 544.568 539.281 551.077C535.501 557.585 536.778 561.627 542.342 568.976C547.906 576.324 557.389 571.588 559.699 568.229Z" fill="#EEA886"/>
<path d="M532.079 748.947C532.079 748.947 531.491 753.26 531.417 753.908C531.344 754.556 524.872 753.527 524.872 753.527L524.348 748.391C524.348 748.391 531.27 748.338 532.079 748.947Z" fill="#EEA886"/>
<path d="M531.487 753.36C531.487 753.36 533.537 755.959 535.521 757.092C537.504 758.225 540.621 758.674 541.793 759.847C542.64 760.693 544.877 764.338 536.64 764.264C528.403 764.191 524.431 764.779 523.549 763.382C522.666 761.985 524.826 753.068 524.826 753.068C524.826 753.068 526.842 753.636 531.487 753.36Z" fill="#152B3D"/>
<path d="M576.892 748.947C576.892 748.947 576.303 753.26 576.23 753.908C576.156 754.556 569.684 753.527 569.684 753.527L569.16 748.391C569.161 748.391 576.083 748.338 576.892 748.947Z" fill="#EEA886"/>
<path d="M576.299 753.36C576.299 753.36 578.349 755.959 580.333 757.092C582.316 758.225 589.615 759.156 590.787 760.329C591.633 761.175 593.042 764.583 581.452 764.264C573.217 764.038 569.243 764.779 568.36 763.382C567.478 761.985 569.637 753.068 569.637 753.068C569.637 753.068 572.196 753.523 576.299 753.36Z" fill="#152B3D"/>
<path d="M534.259 641.535C534.259 641.535 530.94 651.847 531.377 660.734C531.814 669.62 529.662 679.345 528.781 688.628C527.8 698.977 523.785 723.478 523.64 729.013C523.494 734.55 524.262 752.226 524.262 752.226L532.3 752.421C532.3 752.421 539.05 709.588 540.798 705.217C542.546 700.847 551.216 669.689 551.507 666.193C551.799 662.697 534.259 641.535 534.259 641.535Z" fill="#323657"/>
<path d="M567.582 640.461C567.582 640.461 572.461 667.727 573.044 673.166C573.627 678.605 574.015 699.487 574.307 702.887C574.598 706.286 576.249 747.371 577.804 752.421H568.842C568.842 752.421 559.641 722.554 559.641 708.423C559.641 694.292 553.547 677.702 549.614 668.378C545.68 659.054 536.677 658.834 534.259 641.535C534.258 641.535 564.309 634.975 567.582 640.461Z" fill="#323657"/>
<path d="M556.448 571.002C556.448 571.002 555.437 573.944 556.448 576.044C557.459 578.143 543.532 576.884 543.532 576.884C543.532 576.884 544.162 572.545 542.342 568.976C540.522 565.406 556.448 571.002 556.448 571.002Z" fill="#EEA886"/>
<path d="M533.612 643.781C533.612 643.781 538.621 648.927 568.031 642.98L567.582 640.461L534.149 641.72L533.612 643.781Z" fill="#323657"/>
<path d="M558.555 576.725C558.555 576.725 563.699 577.25 565.168 577.53C566.638 577.809 576.531 575.761 578.561 575.551C580.59 575.341 589.244 569.412 589.524 568.712C589.803 568.012 594.788 555.391 595.068 552.661C595.349 549.931 599.924 551.34 599.532 553.222C598.798 556.74 597.855 565.28 597.339 567.756C596.781 570.428 595.286 576.482 594.446 577.227C593.606 577.972 585.815 583.899 578.186 586.419C570.558 588.938 564.816 592.647 564.816 592.647H527.221C527.221 592.647 512.598 571.745 512.283 568.595C511.969 565.446 522.497 544.515 524.597 541.891C526.696 539.267 529.733 542.748 529.733 542.748C529.733 542.748 523.442 561.206 522.602 563.83C521.763 566.455 529.92 577.986 532.159 578.021C534.399 578.056 540.15 577.321 542.704 577.216C545.259 577.111 547.953 575.991 547.953 575.991L558.555 576.725Z" fill="#EEA886"/>
<path d="M574.757 590.688C574.757 590.688 570.155 593.747 569.735 598.996C569.315 604.245 567.636 612.538 566.796 615.372C565.956 618.206 567.531 638.781 567.741 640.25C567.951 641.72 538.65 645.212 534.149 641.72C534.149 641.72 532.89 622.51 532.365 617.051C531.84 611.593 529.321 598.366 528.481 596.582C527.641 594.797 517.458 580.514 517.039 578.631C517.039 578.631 522.306 570.233 526.086 570.128C526.086 570.128 532.088 577.162 534.045 577.477C536.001 577.792 547.996 575.593 547.998 575.575C547.998 575.575 549.307 577.358 556.267 575.258C556.267 575.258 564.556 576.194 565.904 576.366C567.537 576.574 578.887 574.941 578.887 574.941C578.887 574.941 583.44 582.63 582.642 586.512L574.757 590.688Z" fill="#254380"/>
<path d="M594.805 554.302C594.805 554.302 595.832 549.437 594.595 548.04C593.89 547.245 592.197 545.14 592.042 544.83C591.888 544.521 590.07 543.477 590.07 542.974C590.07 542.471 591.849 541.853 593.396 543.283C594.943 544.714 595.91 545.023 596.529 544.869C597.147 544.714 598.036 539.571 598.114 538.295C598.191 537.019 598.683 533.655 599.481 533.887C600.279 534.118 600.241 535.588 600.241 535.588C600.241 535.588 601.169 533.036 601.787 533.538C602.406 534.041 602.329 535.279 602.329 535.279C602.329 535.279 603.489 533.848 603.798 534.892C604.108 535.936 603.798 536.864 603.798 536.864C603.798 536.864 604.997 536.207 605.075 537.831C605.152 539.455 604.726 544.212 603.876 545.913C603.025 547.614 599.841 552.064 599.461 553.803C599.081 555.541 594.805 554.302 594.805 554.302Z" fill="#EEA886"/>
<path d="M528.708 545.758C528.708 545.758 532.206 539.879 533.396 539.354C534.585 538.828 536.265 538.531 537.734 537.481C539.204 536.432 541.146 535.557 541.041 535.207C540.936 534.857 539.204 534.997 537.35 535.802C535.495 536.606 534.681 536.218 534.506 535.798C534.331 535.378 535.495 532.413 536.055 531.713C536.615 531.013 540.604 527.001 539.939 526.406C539.274 525.811 536.685 528.016 536.265 528.47C536.265 528.47 538.329 524.131 537.524 523.922C536.72 523.711 535.215 525.251 535.215 525.251C535.215 525.251 535.39 521.542 531.401 527.561C531.401 527.561 532.241 525.566 531.016 526.231C529.791 526.896 528.602 530.64 528.216 532.529C527.831 534.419 526.085 540.438 524.596 541.891C523.108 543.342 528.708 545.758 528.708 545.758Z" fill="#EEA886"/>
<path d="M542.342 568.976C542.342 568.976 544.185 569.139 548.104 567.785C552.023 566.432 552.315 559.579 553.163 560.39C554.892 562.047 556.525 560.904 557.179 559.924C557.179 559.924 555.266 557.404 556.152 556.191C557.039 554.978 558.482 554.093 558.482 554.093C558.482 554.093 555.726 540.807 543.182 546.86C528.485 553.952 542.342 568.976 542.342 568.976Z" fill="#353A3D"/>
<path d="M556.447 576.044L556.005 574.123C556.005 574.123 547.999 573.961 543.631 574.595L543.171 576.89C543.171 576.889 548.764 579.426 556.447 576.044Z" fill="#254380"/>
<path d="M554.472 558.711C553.745 557.502 551.056 556.687 550.74 560.11C550.495 562.764 555.546 565.663 555.593 563.19C555.639 560.717 554.957 559.515 554.472 558.711Z" fill="#EEA886"/>
<path d="M594.996 553.197C594.996 553.197 597.885 553.268 599.285 554.534C599.285 554.534 599.377 555.338 599.052 555.971C599.052 555.971 596.548 554.803 594.628 554.584C594.628 554.584 594.659 553.534 594.996 553.197Z" fill="#E55353"/>
<path d="M597.257 555.643C597.943 555.643 598.499 555.086 598.499 554.4C598.499 553.714 597.943 553.158 597.257 553.158C596.571 553.158 596.015 553.714 596.015 554.4C596.015 555.086 596.571 555.643 597.257 555.643Z" fill="#353A3D"/>
<path d="M516.226 765.5H594.694L569.963 841.448L572.276 842.201L598.044 763.068H514.46L488.938 841.448L491.25 842.201L516.226 765.5Z" fill="#FFBB55"/>
<path d="M542.932 841.448L518.202 765.5H596.67L621.645 842.201L623.958 841.448L598.435 763.068H514.852L540.619 842.201L542.932 841.448Z" fill="#FFBB55"/>
<path d="M604.968 786.983H508.926V789.416H604.968V786.983Z" fill="#FFBB55"/>
<path d="M613.938 813.391H499.032V815.823H613.938V813.391Z" fill="#FFBB55"/>
<path d="M847.16 727.567C847.133 792.187 845.324 804.835 829.097 819.314C822.743 824.984 811.056 836.763 777.335 842.627C767.212 844.388 755.107 845.615 740.565 845.986C734.632 846.137 729.187 845.922 724.205 845.379C720.028 844.927 716.177 844.244 712.639 843.358C675.579 834.071 672.811 802.318 689.02 775.605C693.313 768.532 698.218 762.029 703.361 755.966C711.3 746.602 719.811 738.285 727.517 730.521C734.622 723.368 741.044 716.684 745.712 710.085C747.681 707.304 749.338 704.539 750.603 701.761C750.903 701.102 751.206 700.451 751.51 699.807C752.508 697.706 753.535 695.689 754.57 693.758C756.517 690.13 758.498 686.816 760.411 683.851C761.936 681.481 763.415 679.333 764.793 677.43C769.527 670.888 773.041 667.216 773.041 667.216C773.041 667.216 773.48 667.009 774.289 666.673C774.72 666.494 775.259 666.276 775.892 666.034C776.146 665.936 776.415 665.835 776.7 665.73C776.98 665.627 777.278 665.518 777.589 665.408C777.874 665.308 778.169 665.205 778.475 665.1C778.835 664.978 779.208 664.853 779.597 664.726C779.825 664.652 780.058 664.577 780.297 664.502C780.437 664.458 780.58 664.414 780.723 664.369C780.777 664.353 780.832 664.335 780.887 664.319C785.698 662.844 792.298 661.307 799.48 661.051C820.778 660.293 847.185 670.795 847.16 727.567Z" fill="#4373CF"/>
<path d="M760.946 824.85C760.946 824.85 761.477 829.181 762.181 831.092C762.884 833.002 766.706 837.412 765.092 841.649C763.341 846.244 755.7 841.815 752.584 840.413C749.468 839.012 750.177 836.469 749.844 833.354C749.512 830.239 747.992 830.155 748.553 827.964C749.114 825.774 752.522 821.58 752.522 821.58L760.946 824.85Z" fill="#213A70"/>
<path d="M753.993 819.314C753.993 819.314 752.037 822.051 752.091 822.126C752.145 822.201 760.47 827.269 761.049 825.625C761.51 824.32 761.703 822.427 761.703 822.427L753.993 819.314Z" fill="#EEA886"/>
<path d="M725.775 827.912C725.775 827.912 723.235 830.139 720.955 833.559C718.674 836.98 712.62 837.162 712.361 841.831C712.102 846.501 720.592 846.645 725.05 845.124C729.507 843.604 730.181 839.044 732.876 837.903C735.572 836.763 736.971 835.84 736.764 833.614C736.557 831.387 735.065 827.774 735.065 827.774C735.065 827.774 733.391 828.309 732.406 828.417C731.421 828.525 728.108 828.564 725.775 827.912Z" fill="#213A70"/>
<path d="M756.327 701.398C756.327 701.398 754.619 711.557 753.242 718.267C753.242 718.267 753.242 718.267 753.242 718.268C752.683 720.989 752.179 723.143 751.866 723.822C751.473 724.675 748.266 728.119 744.342 732.159C737.455 739.248 728.357 748.175 728.357 748.175L724.801 741.423C724.801 741.423 732.882 731.949 738.36 725.628C740.896 722.702 742.874 720.453 743.236 720.128C744.381 719.104 745.711 709.008 747.58 700.689C749.448 692.371 753.193 687.774 753.193 687.774L756.327 701.398Z" fill="#FFCA55"/>
<path d="M744.343 732.159C737.456 739.248 728.358 748.175 728.358 748.175L724.802 741.423C724.802 741.423 732.883 731.949 738.361 725.628C740.04 726.451 743.123 728.416 744.343 732.159Z" fill="#EEA886"/>
<path d="M726.173 824.801L725.774 827.912C725.774 827.912 730.194 829.474 735.064 827.773L735.163 825.007L726.173 824.801Z" fill="#EEA886"/>
<path d="M788.917 746.802C789.171 747.705 742.102 746.802 742.102 746.802C742.102 746.802 755.122 737.324 755.966 734.793C756.81 732.261 752.651 717.071 752.108 712.128C751.674 708.173 750.587 690.477 753.193 687.774C755.918 684.949 765.731 681.987 765.731 681.987L780.037 682.519C780.037 682.519 782.399 683.012 784.086 683.796C785.774 684.58 795.426 688.018 796.993 692.84C798.561 697.662 787.362 713.167 787.362 713.167C787.362 713.167 787.341 713.864 787.307 715.006C787.307 715.006 787.307 715.006 787.307 715.006C787.264 716.529 787.2 718.843 787.142 721.353C787.067 724.604 787.001 728.184 787.001 730.799C787.001 736.946 788.663 745.897 788.917 746.802Z" fill="#FFCA55"/>
<path d="M788.916 746.802C788.916 746.802 795.319 756.205 795.409 762.624C795.5 769.044 784.048 790.544 782.314 793.62C777.105 802.867 762.817 822.812 762.817 822.812C762.817 822.812 760.354 822.75 752.669 819.767C752.669 819.767 762.174 793.421 763.379 790.685C768.489 779.085 771.341 770.858 769.623 768.868C767.905 766.879 763.221 764.884 761.865 763.709C760.509 762.534 736.882 768.174 734.407 768.816C727.996 770.478 730.918 781.632 732.336 786.633C734.709 794.998 736.783 825.212 736.783 825.212C736.783 825.212 732.216 827.157 724.568 825.513C724.568 825.513 709.55 770.96 709.068 765.535C708.586 760.109 708.349 751.164 745.358 744.364L788.916 746.802Z" fill="#E8E8E8"/>
<path d="M769.656 650.904C769.656 650.904 757.238 648.103 760.075 663.732C762.911 679.361 765.898 680.589 773.39 677.355C780.883 674.12 780.212 664.107 780.589 659.197C780.966 654.287 773.618 651.075 769.656 650.904Z" fill="#EEA886"/>
<path d="M766.371 685.999C766.371 685.999 771.871 691.83 780.563 686.53C780.563 686.53 778.619 673.894 779.642 667.739C780.666 661.584 768.301 677.275 768.301 677.275C768.464 677.361 768.571 677.949 768.596 678.784C768.617 679.492 768.58 680.379 768.467 681.288C768.211 683.335 767.575 685.496 766.371 685.999Z" fill="#EEA886"/>
<path d="M779.985 667.216C779.985 667.216 779.664 662.292 777.866 662.138C776.067 661.985 775.79 663.968 775.79 663.968L773.974 664.311C773.974 664.311 774.548 659.995 772.752 659.24C770.956 658.486 761.116 661.616 759.674 660.35C758.233 659.083 758.911 650.328 761.518 649.13C764.125 647.932 771.325 645.247 776.601 648.818C776.601 648.818 780.714 648.349 781.323 651.668C781.933 654.987 781.102 664.749 779.985 667.216Z" fill="#3A3F47"/>
<path d="M768.467 681.289C777.434 678.524 778.109 673.124 778.119 673.04C775.166 678.114 768.596 678.784 768.596 678.784C768.617 679.493 768.579 680.379 768.467 681.289Z" fill="#A77860"/>
<path d="M784.234 683.864C784.234 683.864 777.667 696.937 767.058 696.093C756.448 695.249 765.25 682.109 765.732 681.987C766.261 681.854 776.612 679.275 784.234 683.864Z" fill="#EEA886"/>
<path d="M736.718 746.139C736.718 746.139 769.224 750.147 788.917 746.801L751.287 742.099C751.287 742.1 751.065 743.059 736.718 746.139Z" fill="#FFCA55"/>
<path d="M761.03 740.619L758.608 741.846C758.608 741.846 759.159 745.693 760.486 746.858L763.203 746.165C763.203 746.165 762.637 741.945 761.03 740.619Z" fill="#EEA886"/>
<path d="M798.644 732.743C798.16 733.304 791.769 735.874 784.55 738.654L784.549 738.655C774.687 742.454 763.562 746.048 763.562 746.048L761.029 740.619C761.029 740.619 772.679 734.289 780.552 729.85C784.271 727.752 787.146 726.078 787.552 725.69C788.818 724.485 789.146 722.552 788.215 719.18C787.284 715.809 785.141 700.313 784.899 698.504C784.659 696.696 785.502 691.873 790.023 691.632C794.544 691.391 796.845 692.667 796.845 692.667C796.845 692.667 797.98 693.139 798.824 704.11C799.669 715.08 799.789 731.416 798.644 732.743Z" fill="#FFCA55"/>
<path d="M787.307 715.006C787.307 715.006 787.307 715.006 787.307 715.006C787.263 716.529 787.2 718.842 787.141 721.353C782.729 710.538 785.278 701.906 785.321 701.761C784.844 704.696 787.273 714.861 787.307 715.006Z" fill="#C9A043"/>
<path d="M753.242 718.267C753.242 718.267 753.242 718.267 753.242 718.268C752.683 720.989 752.179 723.143 751.867 723.822C750.36 716.528 751.715 707.19 751.715 707.19C751.922 711.65 753.242 718.267 753.242 718.267Z" fill="#C9A043"/>
<path d="M784.55 738.654C774.688 742.454 763.203 746.165 763.203 746.165L761.03 740.619C761.03 740.619 772.681 734.289 780.553 729.85C780.552 729.849 783.416 731.244 784.55 738.654Z" fill="#EEA886"/>
<path d="M760.329 746.487L714.127 745.806L737.454 757.651L760.329 746.487Z" fill="#444C94"/>
<path d="M737.454 757.651L760.329 748.791V746.487L735.646 755.391L737.454 757.651Z" fill="#303669"/>
<path d="M759.131 741.93C759.131 741.93 756.245 741.481 754.25 741.016C752.707 740.657 748.868 741.152 747.891 742.142C746.913 743.133 743.804 750.036 743.216 750.457C742.628 750.878 743.518 751.853 744.551 751.363C744.551 751.363 745.498 754.384 747.838 753.254C750.178 752.123 751.767 749.654 752.992 749.219C754.217 748.783 761.353 746.59 761.353 746.59C761.353 746.59 760.969 741.195 759.131 741.93Z" fill="#EEA886"/>
<path d="M748.595 741.69C748.595 741.69 746.741 742.586 746.257 742.985C745.773 743.384 743.811 744.852 743.336 745.198C742.861 745.543 744.053 746.526 747.56 745.006C751.068 743.488 748.595 741.69 748.595 741.69Z" fill="#EEA886"/>
<path d="M737.453 757.651L723.711 720.129L679.407 720.852L692.505 755.43L737.453 757.651Z" fill="#303669"/>
<path d="M708.609 743.25C710.464 742.322 710.873 739.378 709.521 736.676C708.169 733.974 705.569 732.535 703.713 733.464C701.858 734.392 701.45 737.335 702.801 740.038C704.153 742.74 706.754 744.178 708.609 743.25Z" fill="#518AFA"/>
<path d="M775.828 661.882C775.992 660.503 778.717 659.997 778.937 662.064C779.156 664.131 777.698 667.76 776.664 667.403C775.63 667.046 775.603 663.783 775.828 661.882Z" fill="#EEA886"/>
<path d="M777.336 669.13C779.301 669.13 780.894 666.857 780.894 664.053C780.894 661.249 779.301 658.976 777.336 658.976C775.37 658.976 773.777 661.249 773.777 664.053C773.777 666.857 775.37 669.13 777.336 669.13Z" fill="#FFCA55"/>
<path d="M778.653 660.955L777.072 660.7C777.085 660.622 778.289 652.849 775.299 649.434C774.343 648.342 772.343 646.994 770.688 647.038L772.511 647.031C774.642 646.976 775.804 647.676 776.505 648.381C780.238 652.133 778.709 660.606 778.653 660.955Z" fill="#FFCA55"/>
<path d="M769.422 674.667L769.106 674.029C775.124 671.048 776.977 664.997 776.995 664.936L777.677 665.139C777.6 665.4 775.716 671.55 769.422 674.667Z" fill="#FFCA55"/>
<path d="M769.264 675.535C769.919 675.535 770.45 675.004 770.45 674.349C770.45 673.694 769.919 673.163 769.264 673.163C768.609 673.163 768.078 673.694 768.078 674.349C768.078 675.004 768.609 675.535 769.264 675.535Z" fill="#FFCA55"/>
<path d="M459.09 698.734C459.09 698.734 464.436 699.057 465.934 699.89C467.431 700.722 477.54 697.537 477.727 696.802C477.914 696.067 477.727 695.704 477.727 695.704H457.884L459.09 698.734Z" fill="#DE9673"/>
<path d="M435.09 675.158C435.09 675.158 433.384 688.559 435.09 690.316C441.605 697.026 465.751 696.493 465.751 696.493L465.741 699.221C465.741 699.221 429.038 703.798 425.628 696.68C421.531 688.126 423.121 674.176 423.121 674.176L435.09 675.158Z" fill="#DE9673"/>
<path d="M422.977 816.386L425.157 813.901L421.221 809.784L417.896 812.112L422.977 816.386Z" fill="#2F4563"/>
<path d="M417.897 812.112C417.897 812.112 422.389 815.496 423.638 815.632C424.887 815.769 425.477 816.326 425.329 818.229C425.18 820.133 427.155 828.15 428.53 828.279C429.906 828.408 434.589 828.434 435.439 831.521C436.289 834.608 420.581 833.96 419.608 831.427C418.635 828.895 411.872 816.622 412.673 815.635C413.475 814.646 415.591 812.427 417.897 812.112Z" fill="#1E2D40"/>
<path d="M446.722 716.191C446.722 716.191 476.07 767.315 464.157 777.892C459.485 782.04 454.988 785.792 448.524 791.342C445.087 794.292 440.938 797.71 436.02 802.831L435.816 803.045C432.308 806.701 429.413 809.791 428.521 810.747C428.49 810.778 428.461 810.808 428.437 810.836L428.338 810.942L425.071 814.059L420.278 809.846C420.278 809.846 425.711 802.329 428.774 796.555C433.074 788.451 440.298 778.927 443.64 776.269C449.366 771.717 450.939 770.823 450.939 766.471C450.939 761.804 424.04 735.725 424.04 735.725C424.04 735.725 420.137 719.405 429.459 715.134C438.542 710.973 446.722 716.191 446.722 716.191Z" fill="#323657"/>
<path d="M424.339 824.305C424.339 824.305 424.154 821.95 424.552 820.445C424.95 818.939 418.476 819.803 418.476 819.803C418.476 819.803 417.643 826.092 417.883 827.531C418.124 828.971 424.339 824.305 424.339 824.305Z" fill="#EEA987"/>
<path d="M425.549 820.453L416.819 822.026C416.819 822.026 416.19 810.887 416.304 802.354C416.426 793.181 415.964 785.969 418.766 778.669C421.386 771.839 420.79 769.237 421.019 764.576C421.249 759.914 418.781 735.906 418.781 735.906C418.781 735.906 415.799 725.157 422.702 717.575C429.427 710.186 446.825 717.545 446.825 717.545C446.825 717.545 443.201 750.342 434.499 770.628C432.036 776.369 433.367 779.858 430.227 788.729C430.227 788.729 425.456 808.075 425.549 820.453Z" fill="#323657"/>
<path d="M433.148 652.699C432.691 653.47 432.356 654.458 432.113 655.506C431.882 656.495 431.732 657.537 431.635 658.501C431.423 660.593 431.459 662.314 431.459 662.314C431.459 662.314 419.815 659.779 421.725 657.064C423.636 654.348 422.512 646.118 422.512 646.118C422.512 646.118 434.655 650.159 433.148 652.699Z" fill="#EEA987"/>
<path d="M439.7 630.269C439.7 630.269 442.68 632.858 441.348 640.316C441.348 640.316 442.007 646.256 442.916 647.292C443.826 648.327 440.475 648.71 440.122 649.457C439.769 650.203 439.103 653.695 436.767 655.799C434.431 657.903 422.865 651.559 422.301 647.975C421.738 644.391 413.724 629.029 426.409 628.325C439.094 627.622 439.7 630.269 439.7 630.269Z" fill="#EEA886"/>
<path d="M447.679 685.295C447.443 686.043 448.332 697.517 448.252 698.508C447.807 703.934 449.209 712.182 449.761 715.135C449.892 715.834 449.965 716.191 449.965 716.191C437.392 722.34 419.904 721.802 419.904 721.802C419.967 721.327 422.408 715.418 422.47 714.965C423.505 707.584 425.034 704.214 424.619 699.222L424.62 699.221C424.388 696.416 423.673 693.483 422.195 689.852C417.925 679.361 418.157 672.376 418.854 666.613C419.549 660.85 421.277 657.563 421.277 657.563L431.899 658.703C434.154 661.2 436.161 662.532 442.569 668.22C449.387 674.274 450.58 676.111 447.679 685.295Z" fill="#FFCA55"/>
<path d="M417.494 825.899C417.494 825.899 423.638 824.151 423.82 823.98C424.002 823.808 424.044 823.436 424.891 823.776C425.739 824.115 426.089 825.399 426.921 825.805C427.753 826.212 432.823 827.695 435.601 829.061C436.606 829.556 440.853 831.175 441.465 832.528C442.077 833.882 441.887 835.914 434.589 835.432C427.29 834.95 419.306 835.98 417.708 835.181C416.11 834.383 417.075 828.011 417.494 825.899Z" fill="#23344A"/>
<path d="M441.664 637.635C441.664 637.635 443.091 622.149 428.076 624.914C413.062 627.679 420.801 644.604 422.824 650.12C422.824 650.12 422.578 641.552 429.807 641.274C437.036 640.994 438.53 639.321 441.664 637.635Z" fill="#464240"/>
<path d="M428.634 639.099C427.73 637.526 424.63 638.365 424.984 640.76C425.338 643.155 427.822 645.546 428.646 644.387C429.47 643.228 429.961 641.41 428.634 639.099Z" fill="#EEA987"/>
<path d="M428.976 669.524C428.976 669.524 427.738 682.79 429.444 684.546C435.959 691.256 461.665 691.383 461.665 691.383L462.893 695.24C462.893 695.24 424.682 697.842 421.272 690.723C417.174 682.169 418.765 668.219 418.765 668.219L428.976 669.524Z" fill="#EEA987"/>
<path d="M423.318 628.726C423.318 628.726 417.536 623.178 413.425 629.461C409.314 635.745 418.308 644.51 421.955 639.307C425.601 634.104 423.318 628.726 423.318 628.726Z" fill="#464240"/>
<path d="M432.114 655.506C431.883 656.495 431.733 657.537 431.635 658.501C427.766 656.738 424.874 651.351 424.874 651.351C427.675 653.766 432.113 655.505 432.113 655.505C432.113 655.505 432.113 655.505 432.114 655.506Z" fill="#A77860"/>
<path d="M487.386 695.241H450.942V697.275H487.386V695.241Z" fill="#6E6760"/>
<path d="M502.005 663.827L485.587 696.364L487.403 697.28L503.821 664.744L502.005 663.827Z" fill="#6E6760"/>
<path d="M456.298 691.383C456.298 691.383 461.644 690.973 463.142 689.912C464.639 688.851 474.748 692.907 474.935 693.843C475.122 694.779 474.935 695.24 474.935 695.24H455.092L456.298 691.383Z" fill="#EEA987"/>
<path d="M421.277 657.562L422.025 655.53L432.228 657.562V659.368L421.277 657.562Z" fill="#FFCA55"/>
<path d="M428.959 669.698C428.959 669.698 430.054 662.008 424.7 661.333C419.347 660.658 418.76 668.248 418.76 668.248L428.959 669.698Z" fill="#EEA987"/>
<path d="M971.403 754.947C971.403 754.947 971.142 758.34 970.358 759.657C969.574 760.974 967.013 768.773 965.914 770.748C964.817 772.723 960.426 774.141 960.635 777.635C960.845 781.129 968.926 781.675 971.174 780.004C973.421 778.333 980.708 767.861 981.544 766.342C982.381 764.822 982.694 759.657 981.179 758.188C979.662 756.72 978.009 753.682 978.043 752.972C978.075 752.262 972.292 753.53 971.403 754.947Z" fill="#292929"/>
<path d="M980.795 651.077C980.795 651.077 966.228 670.255 963.719 675.927C961.21 681.599 956.889 689.702 956.889 692.335C956.889 694.968 959.119 705.705 960.234 707.73C961.349 709.756 969.016 744.329 969.434 746.557C969.852 748.785 971.403 754.947 971.403 754.947L978.042 752.972C978.042 752.972 978.731 722.354 977.546 716.277C976.361 710.2 972.78 701.384 973.337 698.615C973.895 695.846 982.816 688.148 988.95 684.029C995.083 679.911 1002.33 673.428 1002.75 666.743C1003.17 660.058 999.788 652.495 999.788 652.495C999.788 652.495 992.853 647.567 980.795 651.077Z" fill="#434975"/>
<path d="M964.451 649.356C964.451 649.356 960.269 655.535 958.178 657.054C956.088 658.573 941.556 672.45 937.373 679.236C933.192 686.022 931.763 687.035 932.634 689.972C933.505 692.91 934.76 700.81 935.701 702.835C936.642 704.861 948.806 753.221 948.806 753.221C948.806 753.221 953.815 754.489 955.278 752.261C955.278 752.261 952.421 731.297 953.153 723.701C953.884 716.104 952.405 705.047 949.206 699.476C946.006 693.904 948.246 690.175 951.905 687.643C955.564 685.111 975.784 673.665 975.784 673.665C975.784 673.665 1000.31 639.734 964.451 649.356Z" fill="#434975"/>
<path d="M948.978 752.972C948.978 752.972 948.874 754.188 948.507 754.34C948.142 754.492 942.392 763 941.294 764.215C940.196 765.43 933.296 767.406 933.191 768.216C933.087 769.027 934.132 773.585 939.778 773.686C945.423 773.787 950.127 768.925 952.427 767.102C954.728 765.279 961.386 763.276 958.753 758.796C956.105 754.29 955.278 752.261 955.278 752.261L948.978 752.972Z" fill="#292929"/>
<path d="M980.294 757.186C980.294 757.186 978.511 760.012 977.362 763.962C976.212 767.912 971.716 773.027 968.632 772.875C965.548 772.723 966.061 770.465 966.061 770.465C966.061 770.465 969.337 761.481 970.71 758.593C970.938 758.114 971.246 755.871 971.403 754.947C971.487 754.449 976.003 752.617 978.042 752.972C978.042 752.972 979.837 756.564 980.294 757.186Z" fill="#434975"/>
<path d="M941.04 764.439C941.04 764.439 942.079 767.19 944.692 766.69C947.306 766.19 950.233 763.253 951.749 761.581C953.265 759.91 957.631 756.844 957.631 756.844L955.279 752.26L949.004 752.642L941.04 764.439Z" fill="#434975"/>
<path d="M964.594 648.857C964.594 648.857 960.095 654.792 958.631 655.94C957.168 657.088 944.358 667.511 936.545 680.565C936.545 680.565 961.671 679.712 975.659 695.174C975.659 695.174 989.227 683.916 990.725 682.791C992.224 681.665 1001.98 675.927 1002.75 666.744C1003.52 657.561 999.787 652.496 999.787 652.496C999.787 652.496 972.298 646.163 964.594 648.857Z" fill="#FFC955"/>
<path d="M961.419 622.292C964.732 627.896 965.287 647.634 964.45 649.532C964.45 649.532 983.499 655.39 1000.02 653.044C1000.02 653.044 999.194 651.253 998.377 648.896C998.049 647.953 997.686 646.911 997.311 645.844C996.133 642.495 994.833 638.888 994.14 637.252C992.676 633.79 993.2 627.985 994.35 625.976C995.5 623.966 1002.3 608.895 1002.3 608.895C1002.3 608.895 1005.96 598.177 999.681 594.828C993.409 591.479 987.572 590.344 987.572 590.344L976.528 589.581C976.528 589.581 974.12 590.027 970.88 590.307C967.638 590.586 964.293 591.144 963.614 596.503C962.935 601.861 962.269 604.69 961.572 606.104C960.874 607.518 957.657 615.928 961.419 622.292Z" fill="#FFC955"/>
<path d="M995.626 592.912C995.626 592.912 1002.1 593.805 1004.96 598.791C1007.82 603.778 1007.63 610.495 1008.26 613.174C1008.88 615.853 1012.72 640.861 1012.02 643.02C1011.32 645.178 1008.6 648.825 1004.49 648.378C1000.38 647.932 983.792 639.298 983.792 639.298C983.792 639.298 986.022 632.823 986.022 631.484L1001.98 637.066C1001.98 637.066 998.149 610.941 997.661 608.039C997.173 605.136 994.036 595.483 995.626 592.912Z" fill="#FFC955"/>
<path d="M967.896 590.788C967.896 590.788 962.946 591.795 960.165 595.889C958.231 598.735 958.074 605.062 957.795 606.252C957.516 607.443 953.822 620.923 953.822 620.923L964.137 627.836L967.896 590.788Z" fill="#FFC955"/>
<path d="M963.162 616.821L999.334 606.104L1000.8 607.294L1003.8 635.726L963.162 650.983V616.821Z" fill="#1D3B54"/>
<path d="M967.13 571.044C967.13 571.044 970.558 587.602 968.12 592.169C968.12 592.169 975.6 589.424 977.067 586.38C978.536 583.336 967.13 571.044 967.13 571.044Z" fill="#1D3B54"/>
<path d="M975.366 583.678C975.366 583.678 975.535 585.339 975.722 587.531C975.786 588.28 975.851 589.09 975.913 589.919C976.115 592.627 976.274 595.517 976.177 597.004C976.177 597.004 981.509 602.71 987.573 590.343C987.573 590.343 985.022 585.246 986.943 578.301C988.863 571.355 975.366 583.678 975.366 583.678Z" fill="#EEA886"/>
<path d="M975.471 550.884C975.471 550.884 966.059 551.798 965.633 563.876C965.209 575.954 970.342 585.878 972.088 587.353C973.836 588.827 983.08 586.387 984.615 579.949C986.15 573.511 988.894 568.615 987.828 563.378C986.761 558.141 986.989 549.239 975.471 550.884Z" fill="#EEA886"/>
<path d="M965.727 568.415C965.727 568.415 961.592 553.932 973.758 549.727C985.925 545.52 991.29 554.072 993.07 559.337C994.849 564.602 995.119 580.037 995.119 580.037C995.119 580.037 987.668 588.849 982.928 591.485C982.928 591.485 985.3 574.727 982.461 563.29C982.461 563.29 972.525 566.252 965.609 565.322C965.61 565.322 965.674 567.776 965.727 568.415Z" fill="#1D3B54"/>
<path d="M975.722 587.531C975.786 588.28 975.851 589.09 975.913 589.919C981.382 587.02 982.623 583.643 982.623 583.643C978.978 587.231 975.722 587.531 975.722 587.531Z" fill="#A77860"/>
<path d="M961.458 606.347C961.458 606.347 955.668 616.175 956.958 622.582C958.247 628.99 962.606 625.233 962.606 625.233C962.606 625.233 956.758 617.978 961.458 606.347Z" fill="#CFA345"/>
<path d="M960.859 650.983L937.373 630.59L930.822 597.172L959.293 616.851L960.859 650.983Z" fill="#1D3B54"/>
<path d="M963.162 650.983H960.859L959.293 616.851L963.162 616.821V650.983Z" fill="#1D3B54"/>
<path d="M985.847 632.572C985.847 632.572 982.798 631.48 982.479 631.264C982.159 631.049 981.72 627.841 980.216 626.618C978.711 625.394 976.744 624.083 976.362 623.501C975.981 622.919 975.134 624.619 976.465 626.078C977.797 627.536 977.818 628.687 974.526 627.957C972.705 627.553 966.732 623.952 966.801 625.32C966.842 626.123 972.696 629.347 972.696 629.347C972.696 629.347 966.188 626.349 965.799 626.67C965.03 627.301 971.454 630.569 971.738 630.666C971.738 630.666 965.996 628.46 965.734 628.974C965.407 629.613 971.197 631.912 971.101 631.998C971.101 631.998 966.514 630.299 966.398 630.725C966.244 631.284 970.139 633.132 970.936 633.382C971.734 633.632 980.072 636.611 981.491 636.767C982.91 636.924 984.089 638.417 984.089 638.417L985.847 632.572Z" fill="#EEA886"/>
<path d="M984.715 631.353C984.715 631.353 982.868 635.632 982.555 638.721C982.555 638.721 992.949 644.144 999.688 646.838L1004.91 635.521L1003.79 635.725L1002.04 636.383C1002.04 636.384 988.624 632.503 984.715 631.353Z" fill="#FFC955"/>
<path d="M948.339 751.367C948.339 751.367 947.879 755.603 947.201 755.961C946.523 756.318 954.129 754.522 948.339 751.367Z" fill="#434975"/>
<path d="M989.955 642.436C990.125 642.572 995.608 646.911 998.377 648.896C998.049 647.953 997.686 646.911 997.311 645.844L989.955 642.436Z" fill="#CFA345"/>
<path d="M937.373 630.59L928.508 598.206L930.823 597.172L937.373 630.59Z" fill="#1D3B54"/>
<path d="M937.09 629.552C937.09 629.552 936.263 628.109 935.578 626.274C934.893 624.439 932.866 617.582 933.281 617.286C933.696 616.99 938.945 618.16 939.679 619.247C940.413 620.333 938.454 620.2 938.454 620.2C938.454 620.2 941.234 621.203 940.829 621.958C940.425 622.712 938.763 622.062 938.763 622.062C938.763 622.062 940.95 623.074 940.427 623.695C939.903 624.315 938.8 624.033 938.8 624.033C938.8 624.033 940.772 624.794 940.328 625.504C939.884 626.214 936.484 626.142 936.755 626.891C937.026 627.64 937.09 629.552 937.09 629.552Z" fill="#EEA886"/>
</g>
<defs>
<linearGradient id="paint0_linear" x1="0" y1="443.683" x2="1360" y2="443.683" gradientUnits="userSpaceOnUse">
<stop stop-color="#40D5E6"/>
<stop offset="1" stop-color="#5577FF"/>
</linearGradient>
<linearGradient id="paint1_linear" x1="441.423" y1="639.343" x2="1285.02" y2="639.343" gradientUnits="userSpaceOnUse">
<stop stop-color="#40D5E6"/>
<stop offset="1" stop-color="#5577FF"/>
</linearGradient>
<linearGradient id="paint2_linear" x1="252.668" y1="821.987" x2="252.668" y2="758.838" gradientUnits="userSpaceOnUse">
<stop stop-color="#FF9F55"/>
<stop offset="1" stop-color="#FFD255"/>
</linearGradient>
<linearGradient id="paint3_linear" x1="250.439" y1="679.601" x2="250.439" y2="767.019" gradientUnits="userSpaceOnUse">
<stop stop-color="#40D5E6"/>
<stop offset="1" stop-color="#5577FF"/>
</linearGradient>
<linearGradient id="paint4_linear" x1="310.601" y1="683.795" x2="310.601" y2="618.439" gradientUnits="userSpaceOnUse">
<stop stop-color="#FF9F55"/>
<stop offset="1" stop-color="#FFD255"/>
</linearGradient>
<linearGradient id="paint5_linear" x1="235.803" y1="508.076" x2="235.803" y2="581.499" gradientUnits="userSpaceOnUse">
<stop stop-color="#40D5E6"/>
<stop offset="1" stop-color="#5577FF"/>
</linearGradient>
<linearGradient id="paint6_linear" x1="291.221" y1="471.872" x2="291.221" y2="530.599" gradientUnits="userSpaceOnUse">
<stop stop-color="#40D5E6"/>
<stop offset="1" stop-color="#5577FF"/>
</linearGradient>
<linearGradient id="paint7_linear" x1="1003.23" y1="709.779" x2="1128.49" y2="709.779" gradientUnits="userSpaceOnUse">
<stop stop-color="#FF9F55"/>
<stop offset="1" stop-color="#FFD255"/>
</linearGradient>
<linearGradient id="paint8_linear" x1="944.392" y1="814.092" x2="1068.44" y2="814.092" gradientUnits="userSpaceOnUse">
<stop stop-color="#FF9F55"/>
<stop offset="1" stop-color="#FFD255"/>
</linearGradient>
<linearGradient id="paint9_linear" x1="1092.93" y1="748.807" x2="1092.93" y2="799.713" gradientUnits="userSpaceOnUse">
<stop stop-color="#609FF0"/>
<stop offset="1" stop-color="#5A3F9E"/>
</linearGradient>
<clipPath id="clip0">
<rect width="1360" height="887.366" fill="white"/>
</clipPath>
</defs>
</svg>
