<svg width="90" height="84" viewBox="0 0 90 84" fill="none" xmlns="http://www.w3.org/2000/svg">
<path fill-rule="evenodd" clip-rule="evenodd" d="M45.0217 0.0103626C58.5277 0.0103626 72.0341 0.00809776 85.5403 0.0121259C88.7027 0.013133 90.0023 1.37289 90 4.53072C89.9864 23.3221 89.9897 42.113 89.9836 60.9044C89.9826 63.9912 88.6521 65.315 85.5443 65.3155C58.3643 65.3213 31.1842 65.3238 4.00393 65.3263C1.54172 65.3268 0.0157952 63.8379 0.0140329 61.3576C0.00119312 42.1888 -0.00283609 23.0203 0.00194736 3.85172C0.00270264 1.51362 1.60491 0.000543623 3.99965 0.000543623C17.6738 -0.000211658 31.3476 4.03791e-05 45.0215 4.03791e-05C45.0217 0.00406855 45.0217 0.00708976 45.0217 0.0103626ZM6.7383 58.556C32.3224 58.556 57.757 58.556 83.2332 58.556C83.2332 41.25 83.2332 24.0364 83.2332 6.7943C57.6858 6.7943 32.2215 6.7943 6.7383 6.7943C6.7383 24.0923 6.7383 41.2767 6.7383 58.556ZM69.411 83.87C69.3456 82.2212 68.7124 80.8939 67.6074 79.7212C66.0923 78.1137 64.2061 77.5463 62.0861 77.5312C60.3441 77.5186 58.6022 77.5284 56.7027 77.5284C56.7027 74.9106 56.7027 72.502 56.7027 69.9902C56.1271 69.9902 55.7135 69.9904 55.3001 69.9902C48.4228 69.9867 41.5449 70.0103 34.6681 69.9537C33.5022 69.9441 33.1495 70.2795 33.2011 71.4333C33.2902 73.4267 33.2258 75.4265 33.2258 77.5282C32.6074 77.5282 32.1545 77.5123 31.7029 77.5307C29.7009 77.612 27.6639 77.4987 25.7057 77.8378C22.6428 78.3685 20.4112 81.0951 20.4993 83.8702C36.7909 83.87 53.0856 83.87 69.411 83.87ZM18.8372 14.0797C17.9024 14.0757 17.4414 14.2592 17.3019 15.3544C16.9082 18.4488 16.4124 21.5359 15.7954 24.593C15.5751 25.6856 15.8984 26.1894 16.8173 26.4726C17.7317 26.7544 18.3986 26.485 18.8802 25.5729C19.5199 24.3611 20.2045 23.1547 21.0232 22.0608C22.8754 19.5862 25.0924 17.6129 28.4192 17.51C30.0221 17.4606 30.7026 18.1416 30.7029 19.7368C30.7049 27.8311 30.6802 35.9257 30.7238 44.0201C30.7323 45.6404 30.0211 46.7952 28.7349 47.5304C27.7052 48.119 26.5347 48.5853 25.3718 48.7839C24.0906 49.0019 24.1543 49.7514 24.1503 50.6703C24.1458 51.7363 24.8182 51.7456 25.5856 51.7438C29.2344 51.7338 32.8831 51.7396 36.5319 51.7396C39.8871 51.7396 43.2425 51.7622 46.597 51.7114C47.0431 51.7048 47.742 51.4307 47.8807 51.0966C48.3921 49.8655 47.8684 49.12 46.5681 48.8068C45.8052 48.6233 45.0555 48.3524 44.3317 48.0457C42.313 47.19 41.37 45.7207 41.3901 43.4468C41.4598 35.5627 41.416 27.6776 41.4178 19.7927C41.4183 18.1157 42.1006 17.4178 43.7765 17.5173C45.7 17.6313 47.413 18.2932 48.8696 19.6139C50.7551 21.3236 52.1851 23.3531 53.2916 25.6265C53.7455 26.5592 54.4791 26.8349 55.3469 26.3254C55.7963 26.0618 56.4386 25.4706 56.388 25.1131C55.9298 21.8591 55.2543 18.6351 54.8286 15.3778C54.6722 14.1817 54.1372 14.0765 53.1861 14.0805C47.4827 14.1042 41.7786 14.0921 36.0749 14.0923C30.3288 14.0921 24.5828 14.1044 18.8372 14.0797ZM74.6673 41.2253C74.3224 40.9496 74.0011 40.6367 73.629 40.4046C70.0676 38.1835 66.5034 35.966 62.9191 33.7825C62.6198 33.6 62.0334 33.5053 61.8194 33.6737C61.6032 33.8442 61.5697 34.4182 61.6518 34.7702C62.264 37.3983 62.9222 40.0161 63.5724 42.6359C63.9428 44.1281 64.2963 45.6256 64.7248 47.1009C64.8262 47.4503 65.1528 47.8851 65.4627 47.9722C65.687 48.0352 66.119 47.6399 66.3438 47.3577C66.7562 46.8393 67.1054 46.2665 67.4402 45.6928C67.8317 45.0229 68.1706 45.0025 68.625 45.6487C69.4853 46.8723 70.3929 48.0624 71.2683 49.2756C72.5331 51.0294 72.9337 51.0631 74.454 49.4961C74.6212 49.3234 74.7511 49.1147 74.9276 48.8849C73.7277 47.2227 72.5646 45.6064 71.3957 43.9937C70.8513 43.2429 70.9402 42.8439 71.9402 42.6352C72.8742 42.44 73.7652 42.0365 74.6748 41.7245C74.6723 41.5584 74.6698 41.3917 74.6673 41.2253Z" fill="url(#paint0_linear)"/>
<defs>
<linearGradient id="paint0_linear" x1="90" y1="34.5" x2="8.90618e-07" y2="-2.32335e-06" gradientUnits="userSpaceOnUse">
<stop stop-color="#01A0FC"/>
<stop offset="1" stop-color="#40D5E7"/>
</linearGradient>
</defs>
</svg>
