<svg width="87" height="102" viewBox="0 0 87 102" fill="none" xmlns="http://www.w3.org/2000/svg">
<path d="M14.798 93.269C14.8026 93.2299 14.834 93.1948 14.866 93.159C14.8823 93.1408 14.8988 93.1223 14.912 93.103C14.9202 93.0563 14.9283 93.0096 14.9364 92.9629C15.1006 92.9932 15.2646 93.0227 15.4285 93.0516M14.798 93.269L15.2945 93.3279L15.2942 93.3306M14.798 93.269C14.5303 95.4236 14.3953 96.512 13.7795 97.0618M14.798 93.269L13.7795 97.0618M15.4285 93.0516C15.4206 93.0975 15.4125 93.1434 15.4045 93.1894L15.3858 93.296L15.3247 93.3854C15.3105 93.4061 15.2967 93.424 15.2851 93.4384C15.2834 93.4405 15.2817 93.4425 15.28 93.4446M15.4285 93.0516C15.4571 92.8869 15.4852 92.7224 15.5131 92.5587L55.3596 71.881C57.8095 71.879 59.5503 72.1529 60.8332 73.1663C62.0159 74.1005 62.724 75.5963 63.3386 77.7837M15.4285 93.0516C16.2777 93.2013 17.1227 93.3335 17.9621 93.4649C20.1585 93.8085 22.3161 94.1461 24.4081 94.7748L24.4082 94.7749C28.0891 95.8799 31.709 97.1528 35.3418 98.4303C37.17 99.0732 39.0015 99.7172 40.8457 100.342M15.28 93.4446C15.2833 93.4182 15.2866 93.3916 15.2899 93.365L15.2903 93.3618L15.2942 93.3306M15.28 93.4446C15.1529 94.4675 15.0502 95.28 14.901 95.903C14.7457 96.5514 14.5213 97.0837 14.0858 97.4582C13.6527 97.8306 13.0873 97.981 12.4106 98.0524C11.7405 98.123 10.8719 98.123 9.76843 98.123H9.73501H9.73456C9.19963 98.1225 8.66529 98.1213 8.13136 98.1202C6.44489 98.1165 4.7625 98.1128 3.07857 98.131M15.28 93.4446C15.2704 93.4563 15.2615 93.4666 15.2543 93.4747L15.234 93.4976L15.2253 93.5075C15.2243 93.5087 15.2262 93.5066 15.2296 93.5019C15.233 93.4973 15.2394 93.4882 15.2468 93.4753C15.2589 93.4543 15.2782 93.4152 15.2892 93.3611C15.2912 93.3514 15.2929 93.3413 15.2942 93.3306M15.2942 93.3306L3.07857 98.131M3.07857 98.131C3.07852 98.131 3.07846 98.131 3.07841 98.131L3.073 97.631L3.07857 98.131ZM3.07857 98.131C2.29382 98.1397 1.6152 97.966 1.14144 97.4862M3.07857 98.131L1.14144 97.4862M40.8457 100.342C44.7436 101.662 48.8414 102.177 52.7256 100.124M40.8457 100.342L41.006 99.868M40.8457 100.342C40.8456 100.342 40.8456 100.342 40.8456 100.342L41.006 99.868M52.7256 100.124C62.655 94.8783 72.5168 89.5017 82.3705 84.1229C85.5966 82.3626 86.6896 78.7536 85.1796 75.5394L85.1795 75.5392C83.7378 72.4738 80.2557 71.1492 76.9039 72.3378L76.9034 72.3379C76.234 72.5761 75.565 72.8562 74.9109 73.13C74.5695 73.273 74.2322 73.4142 73.9011 73.5469L73.9007 73.547C71.2626 74.6061 68.624 75.6642 65.9741 76.7268C65.097 77.0785 64.2186 77.4308 63.3386 77.7837M52.7256 100.124L52.492 99.682M52.7256 100.124C52.7256 100.124 52.7256 100.124 52.7256 100.124L52.492 99.682M63.3386 77.7837C63.183 77.8461 63.0274 77.9085 62.8718 77.9709L84.727 75.752C83.405 72.941 80.204 71.698 77.071 72.809C76.4133 73.043 75.7684 73.3131 75.1232 73.5834C74.7785 73.7277 74.4338 73.8721 74.087 74.011C71.4507 75.0694 68.8139 76.1267 66.166 77.1886C65.269 77.5483 64.3707 77.9085 63.4707 78.2694C63.4271 78.1039 63.3831 77.942 63.3386 77.7837ZM52.492 99.682C48.785 101.641 44.849 101.17 41.006 99.868M52.492 99.682L17.9989 92.964C20.2127 93.3106 22.4266 93.6572 24.552 94.296C28.2435 95.4042 31.8831 96.684 35.5228 97.9639C37.3483 98.6058 39.1739 99.2477 41.006 99.868M14.692 65.113C14.621 62.503 14.428 62.307 11.853 62.301C10.9179 62.299 9.98283 62.302 9.04781 62.3049C7.11704 62.311 5.18656 62.3171 3.25699 62.28L14.692 65.113ZM14.692 65.113C14.6994 65.4437 14.7235 65.7749 14.7546 66.2022C14.7698 66.4106 14.7866 66.6418 14.804 66.907L14.692 65.113ZM0.500005 95.5423L0.500005 95.5421C0.519005 85.1555 0.524996 74.7693 0.500998 64.3833L0.500005 95.5423ZM0.500005 95.5423C0.49892 96.3262 0.670059 97.0087 1.14144 97.4862M0.500005 95.5423L1.14144 97.4862M21.886 90.0156L21.8861 90.0156C27.7753 91.7617 33.6852 93.5595 39.4335 95.7703L39.4335 95.7704C42.1453 96.8137 44.6724 97.3123 47.1532 97.1728C49.6308 97.0334 52.0923 96.2559 54.6721 94.7037C60.2581 91.34 66.0445 88.2902 71.8163 85.2482C74.5262 83.8199 77.2329 82.3933 79.9142 80.9367C80.9069 80.3969 81.4726 79.8002 81.7161 79.2053C81.953 78.6268 81.917 77.9717 81.5407 77.2264L81.5406 77.2263C81.1971 76.5457 80.7091 76.1431 80.1136 75.9803C79.5039 75.8136 78.7153 75.8806 77.7564 76.2779C75.1137 77.3754 72.471 78.4824 69.8276 79.5897C66.4084 81.022 62.9881 82.4548 59.5648 83.8681C58.8103 84.1819 57.9412 84.3975 57.0999 84.402C52.802 84.4269 48.502 84.4255 44.2037 84.4241C42.1291 84.4234 40.0549 84.4227 37.9816 84.425H37.981C37.4561 84.425 36.7731 84.4019 36.2488 84.1488C35.9697 84.0141 35.7103 83.803 35.5531 83.4795C35.3975 83.1593 35.3705 82.7873 35.4439 82.3814L21.886 90.0156ZM21.886 90.0156C20.7642 89.6834 19.6027 89.5255 18.4376 89.4128C17.9992 89.3704 17.5655 89.3347 17.1325 89.2991C16.5394 89.2502 15.9474 89.2015 15.346 89.1358C15.346 82.9809 15.346 76.8037 15.3469 70.352C16.3804 70.3585 17.4111 70.3302 18.4321 70.2995C18.519 70.2969 18.6059 70.2943 18.6926 70.2917C19.7959 70.2583 20.8871 70.2253 21.9749 70.2317C24.3197 70.2456 26.6153 70.4432 28.8736 71.2029L28.874 71.203C29.826 71.5224 30.7511 71.8374 31.6088 72.2629L31.6089 72.263C38.7006 75.7793 46.2587 76.1696 53.8616 75.8255C54.7717 75.7844 55.6886 75.8028 56.618 75.8288L56.6183 75.8288C58.2389 75.8733 59.2809 76.8761 59.3182 78.119L59.3182 78.1194C59.3385 78.776 59.1024 79.3345 58.6731 79.7398C58.2401 80.1486 57.579 80.4298 56.7108 80.4562L56.7106 80.4562C54.7238 80.5175 52.7392 80.511 50.7456 80.5045C49.948 80.5019 49.1491 80.4993 48.3479 80.501C47.4068 80.5026 46.4624 80.4975 45.516 80.4923C43.0225 80.4786 40.515 80.4649 38.0179 80.5755L38.0175 80.5755M21.886 90.0156L38.0175 80.5755M38.0175 80.5755C37.5165 80.5981 36.93 80.8477 36.4736 81.1425M38.0175 80.5755L36.4736 81.1425M36.4736 81.1425C36.2384 81.2945 36.0142 81.4734 35.8355 81.668M36.4736 81.1425L35.8355 81.668M35.8355 81.668C35.6649 81.8537 35.4952 82.0974 35.444 82.3809L35.8355 81.668ZM13.7795 97.0618C13.1506 97.6233 12.0203 97.623 9.73501 97.623L13.7795 97.0618ZM1.2347 62.3419C0.70175 62.8071 0.498845 63.514 0.500998 64.3832L15.2709 66.4079C15.2644 66.3173 15.2581 66.2316 15.2522 66.15C15.2218 65.7322 15.199 65.4199 15.1919 65.1018L15.1918 65.0994C15.1742 64.4505 15.1486 63.9133 15.0729 63.4861C14.9968 63.0565 14.8591 62.6686 14.5637 62.3755C14.2671 62.0813 13.879 61.9493 13.4507 61.882C13.026 61.8151 12.4944 61.8025 11.8542 61.801H11.854C10.9133 61.799 9.97529 61.802 9.0389 61.8049C7.1114 61.811 5.1907 61.817 3.26663 61.7801C2.47534 61.7648 1.75346 61.8891 1.2347 62.3419ZM17.9498 33.752H29.8393C30.0112 37.9376 30.8664 42.0699 32.366 46.083H21.5206C19.46 42.3995 18.1927 38.2121 17.9498 33.752ZM14.757 32.176C14.757 48.9319 27.7667 62.6496 44.2351 63.7789C44.4892 63.8595 44.76 63.8745 45.0205 63.823C45.4891 63.8436 45.9603 63.854 46.434 63.854C46.894 63.854 47.3516 63.8442 47.8068 63.8248C48.0608 63.8737 48.3243 63.8596 48.5723 63.783C65.0702 62.6833 78.11 48.9525 78.11 32.176C78.11 15.4009 65.071 1.67145 48.5738 0.571126C48.3242 0.493628 48.0589 0.479386 47.8032 0.529056C47.3492 0.509751 46.8927 0.5 46.434 0.5C45.9616 0.5 45.4917 0.510339 45.0244 0.530804C44.7611 0.478116 44.4871 0.493262 44.2305 0.575449C27.7643 1.70688 14.757 15.4226 14.757 32.176ZM21.5195 18.272H32.3653C30.8659 22.2849 30.0109 26.4168 29.8393 30.602H17.9497C18.1922 26.1424 19.4593 21.9553 21.5195 18.272ZM40.6609 60.1187C33.7026 58.6886 27.6686 54.7244 23.566 49.233H33.6867C35.443 53.0055 37.779 56.6532 40.6609 60.1187ZM23.5646 15.122C27.6671 9.63022 33.7014 5.66567 40.6602 4.23544C37.7782 7.70141 35.4421 11.3494 33.6859 15.122H23.5646ZM35.7489 46.083C34.1062 42.0544 33.18 37.9176 32.9933 33.752H44.787V46.083H35.7489ZM37.1908 49.233H44.787V60.0566C41.6343 56.6085 39.0958 52.9783 37.1908 49.233ZM59.1332 15.122C57.3748 11.345 55.0352 7.69293 52.1484 4.2236C59.1322 5.64369 65.1884 9.61499 69.3018 15.122H59.1332ZM37.1895 15.122C39.0945 11.376 41.6334 7.74499 44.787 4.29626V15.122H37.1895ZM44.787 30.602H32.9932C33.1797 26.4372 34.1055 22.3006 35.7478 18.272H44.787V30.602ZM55.628 49.233C53.704 53.0155 51.1337 56.6806 47.937 60.1593V49.233H55.628ZM57.0701 46.083H47.937V33.752H59.8257C59.639 37.9176 58.7128 42.0544 57.0701 46.083ZM74.9152 33.752C74.6724 38.2121 73.4052 42.3995 71.3448 46.083H60.4528C61.9526 42.0699 62.8078 37.9377 62.9797 33.752H74.9152ZM71.3466 18.272C73.4065 21.9553 74.6732 26.1424 74.9154 30.602H62.9797C62.8081 26.4168 61.9532 22.2849 60.4537 18.272H71.3466ZM57.0704 18.272C58.7131 22.3006 59.6392 26.4372 59.8258 30.602H47.937V18.272H57.0704ZM55.6285 15.122H47.937V4.19383C51.1338 7.67308 53.7043 11.3389 55.6285 15.122ZM59.132 49.233H69.2997C65.186 54.7397 59.1303 58.7106 52.1473 60.1305C55.034 56.6613 57.3736 53.0097 59.132 49.233ZM10.98 65.8864V65.8988V65.956V66.0132V66.0704V66.1275V66.1847V66.2418V66.299V66.3561V66.4133V66.4704V66.5275V66.5846V66.6418V66.6989V66.756V66.8131V66.8702V66.9273V66.9844V67.0415V67.0985V67.1556V67.2127V67.2697V67.3268V67.3838V67.4409V67.4979V67.555V67.612V67.669V67.7261V67.7831V67.8401V67.8971V67.9541V68.0111V68.0681V68.1251V68.1821V68.2391V68.2961V68.3531V68.41V68.467V68.5239V68.5809V68.6379V68.6948V68.7518V68.8087V68.8656V68.9226V68.9795V69.0364V69.0933V69.1503V69.2072V69.2641V69.321V69.3779V69.4348V69.4917V69.5485V69.6054V69.6623V69.7192V69.776V69.8329V69.8898V69.9466V70.0035V70.0603V70.1172V70.174V70.2309V70.2877V70.3445V70.4013V70.4582V70.515V70.5718V70.6286V70.6854V70.7422V70.799V70.8558V70.9126V70.9694V71.0262V71.083V71.1397V71.1965V71.2533V71.3101V71.3668V71.4236V71.4803V71.5371V71.5938V71.6506V71.7073V71.7641V71.8208V71.8775V71.9343V71.991V72.0477V72.1044V72.1612V72.2179V72.2746V72.3313V72.388V72.4447V72.5014V72.5581V72.6148V72.6715V72.7281V72.7848V72.8415V72.8982V72.9548V73.0115V73.0682V73.1248V73.1815V73.2382V73.2948V73.3515V73.4081V73.4648V73.5214V73.578V73.6347V73.6913V73.7479V73.8046V73.8612V73.9178V73.9744V74.031V74.0877V74.1443V74.2009V74.2575V74.3141V74.3707V74.4273V74.4839V74.5405V74.5971V74.6536V74.7102V74.7668V74.8234V74.88V74.9366V74.9931V75.0497V75.1063V75.1628V75.2194V75.276V75.3325V75.3891V75.4456V75.5022V75.5587V75.6153V75.6718V75.7284V75.7849V75.8414V75.898V75.9545V76.011V76.0676V76.1241V76.1806V76.2371V76.2937V76.3502V76.4067V76.4632V76.5197V76.5762V76.6328V76.6893V76.7458V76.8023V76.8588V76.9153V76.9718V77.0283V77.0848V77.1413V77.1978V77.2542V77.3107V77.3672V77.4237V77.4802V77.5367V77.5931V77.6496V77.7061V77.7626V77.819V77.8755V77.932V77.9885V78.0449V78.1014V78.1579V78.2143V78.2708V78.3272V78.3837V78.4402V78.4966V78.5531V78.6095V78.666V78.7224V78.7789V78.8353V78.8918V78.9482V79.0047V79.0611V79.1175V79.174V79.2304V79.2869V79.3433V79.3997V79.4562V79.5126V79.569V79.6255V79.6819V79.7383V79.7948V79.8512V79.9076V79.9641V80.0205V80.0769V80.1333V80.1897V80.2462V80.3026V80.359V80.4154V80.4718V80.5283V80.5847V80.6411V80.6975V80.7539V80.8104V80.8668V80.9232V80.9796V81.036V81.0924V81.1488V81.2052V81.2617V81.3181V81.3745V81.4309V81.4873V81.5437V81.6001V81.6565V81.7129V81.7693V81.8257V81.8821V81.9386V81.995V82.0514V82.1078V82.1642V82.2206V82.277V82.3334V82.3898V82.4462V82.5026V82.559V82.6154V82.6718V82.7282V82.7846V82.841V82.8974V82.9538V83.0102V83.0666V83.123V83.1794V83.2358V83.2923V83.3487V83.4051V83.4615V83.5179V83.5743V83.6307V83.6871V83.7435V83.7999V83.8563V83.9127V83.9691V84.0255V84.0819V84.1383V84.1947V84.2512V84.3076V84.364V84.4204V84.4768V84.5332V84.5896V84.646V84.7024V84.7589V84.8153V84.8717V84.9281V84.9845V85.0409V85.0974V85.1538V85.2102V85.2666V85.323V85.3795V85.4359V85.4923V85.5487V85.6051V85.6616V85.718V85.7744V85.8308V85.8873V85.9437V86.0001V86.0566V86.113V86.1694V86.2259V86.2823V86.3387V86.3952V86.4516V86.5081V86.5645V86.6209V86.6774V86.7338V86.7903V86.8467V86.9032V86.9596V87.0161V87.0725V87.129V87.1854V87.2419V87.2983V87.3548V87.4113V87.4677V87.5242V87.5807V87.6371V87.6936V87.7501V87.8065V87.863V87.9195V87.9759V88.0324V88.0889V88.1454V88.2019V88.2583V88.3148V88.3713V88.4278V88.4843V88.5408V88.5973V88.6538V88.7103V88.7668V88.8233V88.8798V88.9363V88.9928V89.0493V89.1058V89.1623V89.2188V89.2753V89.3319V89.3884V89.4449V89.5014V89.558V89.6145V89.671V89.7275V89.7841V89.8406V89.8971V89.9537V90.0102V90.0668V90.1233V90.1799V90.2364V90.293V90.3495V90.4061V90.4627V90.5192V90.5758V90.6324V90.6889V90.7455V90.8021V90.8587V90.9152V90.9718V91.0284V91.085V91.1416V91.1982V91.2548V91.3114V91.368V91.4246V91.4812V91.5378V91.5944V91.651V91.7076V91.7642V91.8209V91.8775V91.9341V91.9908V92.0474V92.104V92.1607V92.2173V92.2739V92.3306V92.3872V92.4439V92.5006V92.5572V92.6139V92.6705V92.7272V92.7839V92.8406V92.8972V92.9539V93.0106V93.0673V93.124V93.1807V93.2374V93.2941V93.3508V93.4075V93.4642V93.5209V93.5776V93.6343V93.6911V93.7478V93.8045V93.8612V93.872H10.9776H10.9637H10.9497H10.9358H10.9219H10.9079H10.894H10.8801H10.8661H10.8522H10.8383H10.8243H10.8104H10.7965H10.7826H10.7686H10.7547H10.7408H10.7269H10.713H10.699H10.6851H10.6712H10.6573H10.6434H10.6294H10.6155H10.6016H10.5877H10.5738H10.5599H10.5459H10.532H10.5181H10.5042H10.4903H10.4764H10.4625H10.4485H10.4346H10.4207H10.4068H10.3929H10.379H10.3651H10.3511H10.3372H10.3233H10.3094H10.2955H10.2816H10.2677H10.2538H10.2399H10.2259H10.212H10.1981H10.1842H10.1703H10.1564H10.1425H10.1286H10.1146H10.1007H10.0868H10.0729H10.059H10.0451H10.0312H10.0172H10.0033H9.98941H9.97549H9.96158H9.94766H9.93374H9.91982H9.90591H9.89199H9.87807H9.86415H9.85023H9.83631H9.82238H9.80846H9.79454H9.78062H9.76669H9.75277H9.73884H9.72492H9.71099H9.69706H9.68314H9.66921H9.65528H9.64135H9.62742H9.61348H9.59955H9.58562H9.57168H9.55775H9.54381H9.52987H9.51593H9.50199H9.48805H9.47411H9.46017H9.44623H9.43228H9.41833H9.40439H9.39044H9.37649H9.36254H9.34859H9.33463H9.32068H9.30673H9.29277H9.27881H9.26485H9.25089H9.23693H9.22297H9.209H9.19503H9.18107H9.1671H9.15313H9.13916H9.12518H9.11121H9.09723H9.08325H9.06927H9.05529H9.04131H9.02733H9.01334H8.99935H8.98536H8.97137H8.95738H8.94339H8.92939H8.91539H8.90139H8.88739H8.87339H8.85939H8.84538H8.83137H8.81736H8.80335H8.78933H8.77532H8.7613H8.74728H8.73325H8.71923H8.7052H8.69118H8.67715H8.66311H8.64908H8.63504H8.621H8.60696H8.59292H8.57887H8.56483H8.55078H8.53672H8.52267H8.50861H8.49455H8.48049H8.46643H8.45236H8.43829H8.42422H8.41015H8.39607H8.382H8.36792H8.35383H8.33975H8.32566H8.31157H8.29748H8.28338H8.26928H8.25518H8.24108H8.22697H8.21286H8.19875H8.18464H8.17052H8.1564H8.14228H8.12815H8.11402H8.09989H8.08576H8.07162H8.05748H8.04334H8.0292H8.01505H8.0009H7.98674H7.97258H7.95842H7.94426H7.9301H7.91593H7.90175H7.88758H7.8734H7.85922H7.84503H7.83085H7.81665H7.80246H7.78826H7.77406H7.75986H7.74565H7.73144H7.71723H7.70301H7.68879H7.67456H7.66034H7.64611H7.63187H7.61764H7.60339H7.58915H7.5749H7.56065H7.5464H7.53214H7.51787H7.50361H7.48934H7.47507H7.46079H7.44651H7.43223H7.41794H7.40365H7.38935H7.37505H7.36075H7.34645H7.33214H7.31782H7.3035H7.28918H7.27486H7.26053H7.24619H7.23186H7.21752H7.20317H7.18882H7.17447H7.16011H7.14575H7.13138H7.11702H7.10264H7.08826H7.07388H7.0595H7.04511H7.03071H7.01631H7.00191H6.9875H6.97309H6.95868H6.94426H6.92984H6.91541H6.90097H6.88654H6.8721H6.85765H6.8432H6.82875H6.81429H6.79982H6.78535H6.77088H6.7564H6.74192H6.72744H6.71295H6.69845H6.68395H6.66945H6.65494H6.64042H6.6259H6.61138H6.59685H6.58232H6.56778H6.55324H6.53869H6.52414H6.50958H6.49502H6.48045H6.46588H6.45131H6.43673H6.42214H6.40755H6.39295H6.37835H6.36374H6.34913H6.33452H6.31989H6.30527H6.29064H6.276H6.26136H6.24671H6.23206H6.2174H6.20274H6.18807H6.1734H6.15872H6.14403H6.12934H6.11465H6.09995H6.08525H6.07053H6.05582H6.0411H6.02637H6.01164H5.9969H5.98216H5.96741H5.95265H5.93789H5.92313H5.90836H5.89358H5.8788H5.86401H5.84922H5.83442H5.81961H5.8048H5.78998H5.77516H5.76033H5.7455H5.73066H5.71582H5.70096H5.68611H5.67124H5.65638H5.6415H5.62662H5.61173H5.59684H5.58194H5.56704H5.55213H5.53721H5.52229H5.50736H5.49242H5.47748H5.46253H5.44758H5.43262H5.41766H5.40268H5.38771H5.37272H5.35773H5.34273H5.32773H5.31272H5.29771H5.28268H5.26765H5.25262H5.23758H5.22253H5.20748H5.19241H5.17735H5.16227H5.14719H5.13211H5.11701H5.10191H5.08681H5.07169H5.05657H5.04145H5.02631H5.01117H4.99603H4.98087H4.96571H4.95055H4.93537H4.92019H4.90501H4.88981H4.87461H4.8594H4.84419H4.82897H4.81374H4.79851H4.78326H4.76801H4.75276H4.73749H4.72222H4.70695H4.69166H4.67637H4.66107H4.64577H4.63045H4.62101V93.8696V93.8417V93.8138V93.786V93.7581V93.7303V93.7024V93.6746V93.6467V93.6189V93.5911V93.5632V93.5354V93.5076V93.4798V93.452V93.4242V93.3964V93.3686V93.3408V93.313V93.2852V93.2575V93.2297V93.2019V93.1742V93.1464V93.1187V93.0909V93.0632V93.0354V93.0077V92.9799V92.9522V92.9245V92.8968V92.8691V92.8413V92.8136V92.7859V92.7582V92.7305V92.7029V92.6752V92.6475V92.6198V92.5921V92.5645V92.5368V92.5091V92.4815V92.4538V92.4262V92.3985V92.3709V92.3432V92.3156V92.288V92.2604V92.2327V92.2051V92.1775V92.1499V92.1223V92.0947V92.0671V92.0395V92.0119V91.9843V91.9567V91.9292V91.9016V91.874V91.8465V91.8189V91.7913V91.7638V91.7362V91.7087V91.6811V91.6536V91.6261V91.5985V91.571V91.5435V91.516V91.4884V91.4609V91.4334V91.4059V91.3784V91.3509V91.3234V91.2959V91.2685V91.241V91.2135V91.186V91.1585V91.1311V91.1036V91.0762V91.0487V91.0212V90.9938V90.9663V90.9389V90.9115V90.884V90.8566V90.8292V90.8017V90.7743V90.7469V90.7195V90.6921V90.6647V90.6373V90.6099V90.5825V90.5551V90.5277V90.5003V90.4729V90.4455V90.4182V90.3908V90.3634V90.3361V90.3087V90.2813V90.254V90.2266V90.1993V90.1719V90.1446V90.1172V90.0899V90.0626V90.0352V90.0079V89.9806V89.9533V89.926V89.8987V89.8713V89.844V89.8167V89.7894V89.7621V89.7348V89.7076V89.6803V89.653V89.6257V89.5984V89.5711V89.5439V89.5166V89.4893V89.4621V89.4348V89.4076V89.3803V89.3531V89.3258V89.2986V89.2713V89.2441V89.2169V89.1896V89.1624V89.1352V89.1079V89.0807V89.0535V89.0263V88.9991V88.9719V88.9447V88.9175V88.8903V88.8631V88.8359V88.8087V88.7815V88.7543V88.7271V88.6999V88.6728V88.6456V88.6184V88.5913V88.5641V88.5369V88.5098V88.4826V88.4555V88.4283V88.4012V88.374V88.3469V88.3197V88.2926V88.2654V88.2383V88.2112V88.1841V88.1569V88.1298V88.1027V88.0756V88.0485V88.0213V87.9942V87.9671V87.94V87.9129V87.8858V87.8587V87.8316V87.8045V87.7775V87.7504V87.7233V87.6962V87.6691V87.6421V87.615V87.5879V87.5608V87.5338V87.5067V87.4796V87.4526V87.4255V87.3985V87.3714V87.3444V87.3173V87.2903V87.2632V87.2362V87.2092V87.1821V87.1551V87.1281V87.101V87.074V87.047V87.02V86.9929V86.9659V86.9389V86.9119V86.8849V86.8579V86.8309V86.8039V86.7769V86.7499V86.7229V86.6959V86.6689V86.6419V86.6149V86.5879V86.5609V86.534V86.507V86.48V86.453V86.426V86.3991V86.3721V86.3451V86.3182V86.2912V86.2642V86.2373V86.2103V86.1834V86.1564V86.1295V86.1025V86.0756V86.0486V86.0217V85.9947V85.9678V85.9408V85.9139V85.887V85.86V85.8331V85.8062V85.7793V85.7523V85.7254V85.6985V85.6716V85.6446V85.6177V85.5908V85.5639V85.537V85.5101V85.4832V85.4563V85.4294V85.4025V85.3756V85.3487V85.3218V85.2949V85.268V85.2411V85.2142V85.1873V85.1604V85.1335V85.1067V85.0798V85.0529V85.026V84.9991V84.9723V84.9454V84.9185V84.8916V84.8648V84.8379V84.811V84.7842V84.7573V84.7304V84.7036V84.6767V84.6499V84.623V84.5961V84.5693V84.5424V84.5156V84.4887V84.4619V84.435V84.4082V84.3814V84.3545V84.3277V84.3008V84.274V84.2472V84.2203V84.1935V84.1667V84.1398V84.113V84.0862V84.0593V84.0325V84.0057V83.9789V83.952V83.9252V83.8984V83.8716V83.8448V83.8179V83.7911V83.7643V83.7375V83.7107V83.6839V83.6571V83.6302V83.6034V83.5766V83.5498V83.523V83.4962V83.4694V83.4426V83.4158V83.389V83.3622V83.3354V83.3086V83.2818V83.255V83.2282V83.2014V83.1747V83.1479V83.1211V83.0943V83.0675V83.0407V83.0139V82.9871V82.9604V82.9336V82.9068V82.88V82.8532V82.8264V82.7997V82.7729V82.7461V82.7193V82.6926V82.6658V82.639V82.6122V82.5855V82.5587V82.5319V82.5051V82.4784V82.4516V82.4248V82.3981V82.3713V82.3445V82.3178V82.291V82.2642V82.2375V82.2107V82.1839V82.1572V82.1304V82.1037V82.0769V82.0501V82.0234V81.9966V81.9699V81.9431V81.9164V81.8896V81.8628V81.8361V81.8093V81.7826V81.7558V81.7291V81.7023V81.6756V81.6488V81.6221V81.5953V81.5686V81.5418V81.5151V81.4883V81.4616V81.4348V81.4081V81.3813V81.3546V81.3278V81.3011V81.2743V81.2476V81.2208V81.1941V81.1673V81.1406V81.1138V81.0871V81.0603V81.0336V81.0069V80.9801V80.9534V80.9266V80.8999V80.8731V80.8464V80.8197V80.7929V80.7662V80.7394V80.7127V80.6859V80.6592V80.6325V80.6057V80.579V80.5522V80.5255V80.4987V80.4721C4.6213 79.2118 4.62967 77.9485 4.63806 76.6835C4.65813 73.6552 4.67827 70.6171 4.58778 67.5871C4.56107 66.6907 4.71907 66.2935 4.92369 66.103C5.13134 65.9097 5.53435 65.7901 6.38025 65.8555C7.51985 65.9441 8.68215 65.9237 9.87389 65.9027C10.2398 65.8963 10.6084 65.8898 10.98 65.8864Z" fill="url(#paint0_linear)" stroke="url(#paint1_linear)"/>
<defs>
<linearGradient id="paint0_linear" x1="0.998405" y1="51.0007" x2="85.3485" y2="51.0007" gradientUnits="userSpaceOnUse">
<stop offset="0.0837" stop-color="#40D5E7"/>
<stop offset="1" stop-color="#009EFD"/>
</linearGradient>
<linearGradient id="paint1_linear" x1="20" y1="17.5" x2="86.5" y2="45" gradientUnits="userSpaceOnUse">
<stop stop-color="#40D5E7"/>
<stop offset="1" stop-color="#13AFF7"/>
</linearGradient>
</defs>
</svg>
