<svg width="86" height="100" viewBox="0 0 86 100" fill="none" xmlns="http://www.w3.org/2000/svg">
<path d="M15.625 33.3984C15.625 23.5977 23.5977 15.625 33.3984 15.625V23.4375C27.906 23.4375 23.4375 27.906 23.4375 33.3984H15.625ZM54.4014 50.5211C57.0099 51.3611 59.7733 51.8524 62.6366 51.9386C60.7796 55.3558 58.5838 58.2489 56.5018 60.9886C52.3361 66.4711 49.0448 70.8015 49.0448 78.0106V88.2812C49.0448 94.7433 43.7881 100 37.326 100H29.8607C23.3994 100 18.1419 94.7433 18.1419 88.2812V78.0106C18.1419 70.8015 14.8514 66.4711 10.6857 60.9886C5.7045 54.4334 0.0625609 47.0093 0.000762939 33.5938H0L0.000762939 33.3702C0.121307 14.949 15.1443 0 33.5938 0C36.5837 0 39.4836 0.395203 42.2447 1.13144C40.2336 3.17688 38.5147 5.50842 37.1544 8.05969C35.9901 7.89795 34.8022 7.8125 33.5938 7.8125C19.4107 7.8125 7.86591 19.3237 7.8125 33.4946C7.84607 44.339 12.2475 50.1312 16.906 56.2614C20.5208 61.0184 24.2355 65.9065 25.5013 72.8516H41.6862C42.952 65.9065 46.6667 61.0184 50.2815 56.2614C51.7197 54.3686 53.1334 52.5078 54.4014 50.5211ZM41.2323 88.2812V80.6641H25.9544V88.2812C25.9544 90.435 27.7069 92.1875 29.8607 92.1875H37.326C39.4806 92.1875 41.2323 90.435 41.2323 88.2812ZM78.6728 25.9766C78.3035 27.4078 77.7328 28.7582 76.9974 30.0011L81.9572 34.9609L76.4336 40.4854L71.4729 35.5255C70.2118 36.2717 68.8385 36.8469 67.3828 37.2162V44.1406H59.5703V37.1819C58.1635 36.8118 56.8352 36.2488 55.6122 35.5255L50.6523 40.4854L45.1279 34.9609L50.0877 30.0011C49.3523 28.7582 48.7816 27.4078 48.4123 25.9766H41.4062V18.1641H48.4123C48.7816 16.7328 49.3523 15.3824 50.0877 14.1396L45.1279 9.17969L50.6523 3.65524L55.6122 8.61511C56.8916 7.85828 58.287 7.27844 59.7656 6.90994V0H67.5781V6.97632C68.9613 7.34634 70.2682 7.90253 71.4729 8.61511L76.4336 3.65524L81.9572 9.17969L76.9974 14.1396C77.7328 15.3824 78.3035 16.7328 78.6728 18.1641H85.6789V25.9766H78.6728ZM63.5429 29.8828C67.8505 29.8828 71.3554 26.3779 71.3554 22.0703C71.3554 17.7628 67.8505 14.2578 63.5429 14.2578C61.8652 14.2578 60.3111 14.7911 59.037 15.6937L57.1663 17.5644C56.263 18.8385 55.7304 20.3926 55.7304 22.0703C55.7304 26.3779 59.2346 29.8828 63.5429 29.8828Z" fill="white"/>
</svg>
