<svg width="104" height="116" viewBox="0 0 104 116" fill="none" xmlns="http://www.w3.org/2000/svg">
<path d="M85.941 66.953C91.017 59.99 94.022 51.426 94.022 42.17C94.022 18.918 75.105 0 51.853 0C28.601 0 9.684 18.918 9.684 42.17C9.684 51.481 12.723 60.092 17.852 67.076L0 97.951L20.891 96.842L30.375 115.481L48.447 84.192C49.572 84.282 50.706 84.34 51.854 84.34C53.054 84.34 54.238 84.277 55.412 84.18L73.491 115.481L82.975 96.842L103.866 97.951L85.941 66.953ZM42.52 84.453L30.651 105L23.87 91.678L8.942 92.469L21.266 71.156C27.032 77.238 34.58 81.609 43.072 83.414L42.52 84.453ZM14.683 42.17C14.683 21.676 31.357 5 51.852 5C72.347 5 89.021 21.676 89.021 42.17C89.021 62.666 72.347 79.34 51.852 79.34C31.357 79.34 14.683 62.666 14.683 42.17ZM79.992 91.678L73.211 105L61.343 84.453L60.773 83.383C69.255 81.547 76.79 77.154 82.537 71.053L94.92 92.469L79.992 91.678ZM51.852 10.229C34.239 10.229 19.91 24.557 19.91 42.17C19.91 59.783 34.239 74.111 51.852 74.111C69.465 74.111 83.795 59.783 83.795 42.17C83.795 24.557 69.466 10.229 51.852 10.229ZM51.852 69.112C36.996 69.112 24.91 57.026 24.91 42.171C24.91 27.316 36.996 15.23 51.852 15.23C66.708 15.23 78.795 27.316 78.795 42.171C78.795 57.026 66.709 69.112 51.852 69.112ZM73.046 37.043C72.583 35.619 71.378 34.604 69.903 34.389L59.85 32.926L55.35 23.801C54.688 22.453 53.345 21.615 51.844 21.615C50.343 21.615 49 22.453 48.338 23.801L43.855 32.926L33.803 34.389C32.327 34.604 31.123 35.619 30.66 37.041C30.196 38.467 30.572 40 31.642 41.047L38.916 48.147L37.211 58.133C37.009 59.27 37.317 60.426 38.056 61.309C38.805 62.202 39.899 62.715 41.057 62.715C41.693 62.715 42.33 62.553 42.881 62.258L51.881 57.531L60.894 62.265C61.453 62.554 62.076 62.706 62.697 62.706C63.845 62.706 64.933 62.202 65.681 61.321C66.422 60.452 66.741 59.301 66.553 58.145L64.828 48.143L72.066 41.045C73.134 40 73.51 38.467 73.046 37.043ZM60.951 44.944C60.024 45.821 59.592 47.108 59.8 48.419L61.246 56.804L53.73 52.857C52.6 52.242 51.126 52.259 50.063 52.839L42.509 56.806L43.943 48.406C44.15 47.168 43.737 45.892 42.818 44.97L36.719 39.019L45.208 37.783C46.446 37.574 47.519 36.783 48.089 35.646L51.845 28L55.605 35.623C56.155 36.773 57.243 37.58 58.55 37.791L66.992 39.02L60.951 44.944Z" fill="white"/>
</svg>
