<svg width="240" height="240" viewBox="0 0 240 240" fill="none" xmlns="http://www.w3.org/2000/svg">
<circle cx="120" cy="120" r="120" fill="#8CB5F3"/>
<mask id="mask0" mask-type="alpha" maskUnits="userSpaceOnUse" x="0" y="0" width="240" height="240">
<circle cx="120" cy="120" r="120" fill="#8CB5F3"/>
</mask>
<g mask="url(#mask0)">
<path d="M50.1971 107.966C46.8547 107.334 43.4403 107.276 39.8943 108.229C22.2095 112.981 22.0562 135.366 27.1532 149.422C35.4113 172.197 54.6265 190.409 77.3598 198.781C100.093 207.153 125.927 205.936 148.364 196.798C170.8 187.661 189.817 170.908 202.991 150.576C217.678 127.908 231.05 95.0186 215.142 69.6105C203.375 50.817 178.593 41.0942 157.243 47.3206C152.859 48.5989 148.677 50.537 144.875 53.0674C130.02 62.9535 123.831 80.0142 114.533 94.4508C108.185 104.307 98.8493 114.23 86.9414 116.714C73.8545 119.443 62.5517 110.303 50.1971 107.966Z" fill="#407BFF"/>
<path opacity="0.9" d="M50.1971 107.966C46.8547 107.334 43.4403 107.276 39.8943 108.229C22.2095 112.981 22.0562 135.366 27.1532 149.422C35.4113 172.197 54.6265 190.409 77.3598 198.781C100.093 207.153 125.927 205.936 148.364 196.798C170.8 187.661 189.817 170.908 202.991 150.576C217.678 127.908 231.05 95.0186 215.142 69.6105C203.375 50.817 178.593 41.0942 157.243 47.3206C152.859 48.5989 148.677 50.537 144.875 53.0674C130.02 62.9535 123.831 80.0142 114.533 94.4508C108.185 104.307 98.8493 114.23 86.9414 116.714C73.8545 119.443 62.5517 110.303 50.1971 107.966Z" fill="white"/>
<path opacity="0.1" d="M119.43 239.973C179.152 239.973 227.566 237.145 227.566 233.658C227.566 230.17 179.152 227.343 119.43 227.343C59.7086 227.343 11.2944 230.17 11.2944 233.658C11.2944 237.145 59.7086 239.973 119.43 239.973Z" fill="black"/>
<path d="M93.0395 227.362C93.6022 226.417 92.8086 224.995 91.7088 224.978C92.1907 223.622 91.7155 221.984 90.5822 221.096C90.4394 220.984 90.2749 220.879 90.0936 220.879C89.899 220.878 89.7266 220.996 89.5682 221.11C88.532 221.855 87.4952 222.599 86.459 223.344C86.2219 223.514 85.976 223.694 85.8421 223.954C85.2063 225.185 87.4974 226.763 86.5554 227.779C86.285 228.07 85.8494 228.131 85.512 228.342C84.7719 228.804 84.6826 229.82 84.3379 230.622C83.9933 231.423 82.7914 232.046 82.3301 231.304C82.6698 230.535 81.6425 229.873 80.8076 229.775C79.9838 229.679 79.1009 229.632 78.6392 228.849C77.4551 229.884 74.8026 226.996 74.8634 225.831C73.8896 225.905 73.2265 226.817 73.0134 227.729C72.7926 228.674 72.9292 229.661 72.9136 230.631C72.884 232.517 72.275 234.364 72.3085 236.249C72.3341 237.717 72.9013 239.346 74.2449 239.936C74.8913 240.22 75.6224 240.221 76.3285 240.216C81.4278 240.183 86.527 240.151 91.6262 240.118C91.9938 240.116 92.3769 240.109 92.7021 239.94C93.3925 239.58 93.5387 238.673 93.6022 237.897C93.8761 234.574 94.1499 231.25 94.4238 227.927C93.9625 227.738 93.5007 227.55 93.0395 227.362Z" fill="#407BFF"/>
<path opacity="0.3" d="M93.0395 227.362C93.6022 226.417 92.8086 224.995 91.7088 224.978C92.1907 223.622 91.7155 221.984 90.5822 221.096C90.4394 220.984 90.2749 220.879 90.0936 220.879C89.899 220.878 89.7266 220.996 89.5682 221.11C88.532 221.855 87.4952 222.599 86.459 223.344C86.2219 223.514 85.976 223.694 85.8421 223.954C85.2063 225.185 87.4974 226.763 86.5554 227.779C86.285 228.07 85.8494 228.131 85.512 228.342C84.7719 228.804 84.6826 229.82 84.3379 230.622C83.9933 231.423 82.7914 232.046 82.3301 231.304C82.6698 230.535 81.6425 229.873 80.8076 229.775C79.9838 229.679 79.1009 229.632 78.6392 228.849C77.4551 229.884 74.8026 226.996 74.8634 225.831C73.8896 225.905 73.2265 226.817 73.0134 227.729C72.7926 228.674 72.9292 229.661 72.9136 230.631C72.884 232.517 72.275 234.364 72.3085 236.249C72.3341 237.717 72.9013 239.346 74.2449 239.936C74.8913 240.22 75.6224 240.221 76.3285 240.216C81.4278 240.183 86.527 240.151 91.6262 240.118C91.9938 240.116 92.3769 240.109 92.7021 239.94C93.3925 239.58 93.5387 238.673 93.6022 237.897C93.8761 234.574 94.1499 231.25 94.4238 227.927C93.9625 227.738 93.5007 227.55 93.0395 227.362Z" fill="white"/>
<path d="M93.9329 211.191H92.2151H87.4856H85.7623H81.0384H79.315H74.5911H72.8678H70.1963L70.3921 213.59L70.5315 215.302L70.8934 219.758L71.0998 222.318L71.3731 225.726L71.4902 227.186L71.5292 227.621L71.6687 229.339L71.8583 231.693L71.9754 233.154L72.0981 234.637L72.2375 236.355L72.3435 237.655L72.4606 239.116L72.5108 239.752H75.6341H78.2721H82.0813H84.7188H88.528H91.166H94.2943L94.3445 239.116L94.4616 237.66L94.5676 236.35L94.707 234.632L94.8297 233.154L94.9468 231.693L95.1364 229.334L95.2759 227.622L95.3093 227.187L95.4265 225.726L95.7053 222.318L95.9117 219.764L96.2686 215.302L96.4081 213.59L96.6038 211.192H93.9329V211.191ZM95.3607 212.765L94.9033 212.307H95.3997L95.3607 212.765ZM95.2435 214.22L95.1989 214.8L93.074 216.925L90.6368 214.488L92.8174 212.307H93.3306L95.2435 214.22ZM94.63 221.816L93.074 223.372L90.6368 220.935L93.074 218.504L94.7583 220.188L94.63 221.816ZM72.0423 220.187L73.7267 218.503L76.1639 220.934L73.7267 223.371L72.1762 221.815L72.0423 220.187ZM92.2876 217.712L89.8504 220.149L87.4131 217.712L89.8504 215.274L92.2876 217.712ZM88.4561 212.307H91.2447L89.8504 213.701L88.4561 212.307ZM89.0584 220.935L86.6267 223.372L84.1895 220.935L86.6267 218.504L89.0584 220.935ZM80.9659 224.158L83.4031 221.727L85.8348 224.158L83.4031 226.596L80.9659 224.158ZM82.6112 227.383L80.1739 229.82L77.7423 227.388L80.1795 224.951L82.6112 227.383ZM86.6267 224.95L89.0584 227.388L86.6267 229.819L84.1895 227.382L86.6267 224.95ZM83.4031 220.149L80.9659 217.712L83.4031 215.274L85.8348 217.712L83.4031 220.149ZM82.6112 220.935L80.1795 223.372L77.7423 220.935L80.1795 218.504L82.6112 220.935ZM76.9503 220.149L74.5186 217.712L76.9503 215.274L79.3875 217.712L76.9503 220.149ZM76.9503 221.727L79.3875 224.158L76.9503 226.596L74.5186 224.158L76.9503 221.727ZM79.3875 230.612L76.9503 233.043L74.5186 230.612L76.9503 228.175L79.3875 230.612ZM80.1739 231.398L82.6112 233.835L80.1795 236.272L77.7423 233.835L80.1739 231.398ZM80.9659 230.612L83.4031 228.175L85.8348 230.612L83.4031 233.043L80.9659 230.612ZM86.6267 231.398L89.0584 233.835L86.6267 236.272L84.1895 233.835L86.6267 231.398ZM89.8504 234.622L92.2876 237.059L90.7093 238.637H88.9915L87.4131 237.059L89.8504 234.622ZM87.4131 230.612L89.8504 228.175L92.2876 230.612L89.8504 233.043L87.4131 230.612ZM87.4131 224.158L89.8504 221.727L92.2876 224.158L89.8504 226.596L87.4131 224.158ZM89.0584 214.488L86.6267 216.925L84.1895 214.488L86.3702 212.307H86.8833L89.0584 214.488ZM83.4031 213.701L82.0088 212.307H84.7919L83.4031 213.701ZM82.6112 214.488L80.1795 216.925L77.7423 214.488L79.9229 212.307H80.436L82.6112 214.488ZM78.3446 212.307L76.9503 213.701L75.5616 212.307H78.3446ZM73.9832 212.307L76.1639 214.488L73.7267 216.925L71.6073 214.799L71.5627 214.219L73.4701 212.306H73.9832V212.307ZM71.8973 212.307L71.4456 212.759L71.4066 212.307H71.8973ZM71.7468 216.518L72.9403 217.712L71.9252 218.727L71.7468 216.518ZM72.4104 224.688L72.3156 223.534L72.9403 224.158L72.4104 224.688ZM72.5276 226.155L73.7267 224.95L76.1639 227.388L73.7267 229.819L72.7451 228.838L72.5276 226.155ZM72.8901 230.661L72.8845 230.555L72.9403 230.612L72.8901 230.661ZM73.3139 235.854L73.0072 232.118L73.7267 231.398L76.1639 233.835L73.7267 236.267L73.3139 235.854ZM73.537 238.637L73.4924 238.079L73.7267 237.845L74.5186 238.637H73.537ZM74.5186 237.059L76.9503 234.622L79.3875 237.059L77.8092 238.637H76.0914L74.5186 237.059ZM79.3875 238.637L80.1795 237.845L80.9715 238.637H79.3875ZM82.5442 238.637L80.9659 237.059L83.4031 234.622L85.8348 237.059L84.262 238.637H82.5442ZM85.8348 238.637L86.6267 237.845L87.4187 238.637H85.8348ZM93.2636 238.637H92.282L93.074 237.845L93.3082 238.079L93.2636 238.637ZM93.4923 235.854L93.074 236.267L90.6368 233.835L93.074 231.398L93.7935 232.118L93.4923 235.854ZM93.9217 230.55L93.9106 230.661L93.8604 230.611L93.9217 230.55ZM94.0612 228.838L93.074 229.82L90.6368 227.388L93.074 224.951L94.2787 226.156L94.0612 228.838ZM94.3958 224.694L93.8604 224.158L94.4906 223.534L94.3958 224.694ZM95.0595 216.512L94.881 218.732L93.8604 217.711L95.0595 216.512Z" fill="#407BFF"/>
<g opacity="0.6">
<path opacity="0.6" d="M93.9329 211.191H92.2151H87.4856H85.7623H81.0384H79.315H74.5911H72.8678H70.1963L70.3921 213.59L70.5315 215.302L70.8934 219.758L71.0998 222.318L71.3731 225.726L71.4902 227.186L71.5292 227.621L71.6687 229.339L71.8583 231.693L71.9754 233.154L72.0981 234.637L72.2375 236.355L72.3435 237.655L72.4606 239.116L72.5108 239.752H75.6341H78.2721H82.0813H84.7188H88.528H91.166H94.2943L94.3445 239.116L94.4616 237.66L94.5676 236.35L94.707 234.632L94.8297 233.154L94.9468 231.693L95.1364 229.334L95.2759 227.622L95.3093 227.187L95.4265 225.726L95.7053 222.318L95.9117 219.764L96.2686 215.302L96.4081 213.59L96.6038 211.192H93.9329V211.191ZM95.3607 212.765L94.9033 212.307H95.3997L95.3607 212.765ZM95.2435 214.22L95.1989 214.8L93.074 216.925L90.6368 214.488L92.8174 212.307H93.3306L95.2435 214.22ZM94.63 221.816L93.074 223.372L90.6368 220.935L93.074 218.504L94.7583 220.188L94.63 221.816ZM72.0423 220.187L73.7267 218.503L76.1639 220.934L73.7267 223.371L72.1762 221.815L72.0423 220.187ZM92.2876 217.712L89.8504 220.149L87.4131 217.712L89.8504 215.274L92.2876 217.712ZM88.4561 212.307H91.2447L89.8504 213.701L88.4561 212.307ZM89.0584 220.935L86.6267 223.372L84.1895 220.935L86.6267 218.504L89.0584 220.935ZM80.9659 224.158L83.4031 221.727L85.8348 224.158L83.4031 226.596L80.9659 224.158ZM82.6112 227.383L80.1739 229.82L77.7423 227.388L80.1795 224.951L82.6112 227.383ZM86.6267 224.95L89.0584 227.388L86.6267 229.819L84.1895 227.382L86.6267 224.95ZM83.4031 220.149L80.9659 217.712L83.4031 215.274L85.8348 217.712L83.4031 220.149ZM82.6112 220.935L80.1795 223.372L77.7423 220.935L80.1795 218.504L82.6112 220.935ZM76.9503 220.149L74.5186 217.712L76.9503 215.274L79.3875 217.712L76.9503 220.149ZM76.9503 221.727L79.3875 224.158L76.9503 226.596L74.5186 224.158L76.9503 221.727ZM79.3875 230.612L76.9503 233.043L74.5186 230.612L76.9503 228.175L79.3875 230.612ZM80.1739 231.398L82.6112 233.835L80.1795 236.272L77.7423 233.835L80.1739 231.398ZM80.9659 230.612L83.4031 228.175L85.8348 230.612L83.4031 233.043L80.9659 230.612ZM86.6267 231.398L89.0584 233.835L86.6267 236.272L84.1895 233.835L86.6267 231.398ZM89.8504 234.622L92.2876 237.059L90.7093 238.637H88.9915L87.4131 237.059L89.8504 234.622ZM87.4131 230.612L89.8504 228.175L92.2876 230.612L89.8504 233.043L87.4131 230.612ZM87.4131 224.158L89.8504 221.727L92.2876 224.158L89.8504 226.596L87.4131 224.158ZM89.0584 214.488L86.6267 216.925L84.1895 214.488L86.3702 212.307H86.8833L89.0584 214.488ZM83.4031 213.701L82.0088 212.307H84.7919L83.4031 213.701ZM82.6112 214.488L80.1795 216.925L77.7423 214.488L79.9229 212.307H80.436L82.6112 214.488ZM78.3446 212.307L76.9503 213.701L75.5616 212.307H78.3446ZM73.9832 212.307L76.1639 214.488L73.7267 216.925L71.6073 214.799L71.5627 214.219L73.4701 212.306H73.9832V212.307ZM71.8973 212.307L71.4456 212.759L71.4066 212.307H71.8973ZM71.7468 216.518L72.9403 217.712L71.9252 218.727L71.7468 216.518ZM72.4104 224.688L72.3156 223.534L72.9403 224.158L72.4104 224.688ZM72.5276 226.155L73.7267 224.95L76.1639 227.388L73.7267 229.819L72.7451 228.838L72.5276 226.155ZM72.8901 230.661L72.8845 230.555L72.9403 230.612L72.8901 230.661ZM73.3139 235.854L73.0072 232.118L73.7267 231.398L76.1639 233.835L73.7267 236.267L73.3139 235.854ZM73.537 238.637L73.4924 238.079L73.7267 237.845L74.5186 238.637H73.537ZM74.5186 237.059L76.9503 234.622L79.3875 237.059L77.8092 238.637H76.0914L74.5186 237.059ZM79.3875 238.637L80.1795 237.845L80.9715 238.637H79.3875ZM82.5442 238.637L80.9659 237.059L83.4031 234.622L85.8348 237.059L84.262 238.637H82.5442ZM85.8348 238.637L86.6267 237.845L87.4187 238.637H85.8348ZM93.2636 238.637H92.282L93.074 237.845L93.3082 238.079L93.2636 238.637ZM93.4923 235.854L93.074 236.267L90.6368 233.835L93.074 231.398L93.7935 232.118L93.4923 235.854ZM93.9217 230.55L93.9106 230.661L93.8604 230.611L93.9217 230.55ZM94.0612 228.838L93.074 229.82L90.6368 227.388L93.074 224.951L94.2787 226.156L94.0612 228.838ZM94.3958 224.694L93.8604 224.158L94.4906 223.534L94.3958 224.694ZM95.0595 216.512L94.881 218.732L93.8604 217.711L95.0595 216.512Z" fill="white"/>
</g>
<path d="M69.5926 213.302H97.2087C97.7151 213.302 98.1256 212.892 98.1256 212.385V211.114C98.1256 210.607 97.7151 210.197 97.2087 210.197H69.5926C69.0862 210.197 68.6763 210.607 68.6763 211.114V212.385C68.6763 212.892 69.0862 213.302 69.5926 213.302Z" fill="#407BFF"/>
<path d="M95.0857 241.188H71.7166C71.2102 241.188 70.8003 240.777 70.8003 240.271V238.999C70.8003 238.493 71.2102 238.083 71.7166 238.083H95.0857C95.5921 238.083 96.0026 238.492 96.0026 238.999V240.271C96.002 240.777 95.5915 241.188 95.0857 241.188Z" fill="#407BFF"/>
<path d="M93.5241 122.073H100.691L98.7812 142.594L110.115 144.296V145.724H86.2441V144.296L91.1342 142.594L93.5241 122.073Z" fill="#263238"/>
<path d="M121.345 135.097C121.471 136.473 120.465 137.59 119.096 137.59H75.7128C74.3363 137.59 73.1216 136.473 72.9961 135.097L70.4189 107.323C70.391 107.036 70.4116 106.764 70.4752 106.513C70.7195 105.535 71.5784 104.829 72.6682 104.829H116.052C117.428 104.829 118.643 105.946 118.768 107.323L121.345 135.097Z" fill="#263238"/>
<path d="M75.7126 136.194C75.0545 136.194 74.4471 135.633 74.3869 134.97L71.8097 107.194C71.7974 107.066 71.8041 106.953 71.8297 106.852C71.9262 106.465 72.2475 106.226 72.6674 106.226H116.051C116.709 106.226 117.316 106.787 117.377 107.45L119.954 135.226C119.979 135.499 119.903 135.75 119.74 135.929C119.63 136.049 119.428 136.194 119.096 136.194H75.7126V136.194Z" fill="#407BFF"/>
<path opacity="0.6" d="M75.7126 136.194C75.0545 136.194 74.4471 135.633 74.3869 134.97L71.8097 107.194C71.7974 107.066 71.8041 106.953 71.8297 106.852C71.9262 106.465 72.2475 106.226 72.6674 106.226H116.051C116.709 106.226 117.316 106.787 117.377 107.45L119.954 135.226C119.979 135.499 119.903 135.75 119.74 135.929C119.63 136.049 119.428 136.194 119.096 136.194H75.7126V136.194Z" fill="white"/>
<path d="M67.1965 235.188H63.7799L57.6411 149.719H62.1737L67.1965 235.188Z" fill="#263238"/>
<path opacity="0.4" d="M67.1985 235.188H63.7797L57.9403 153.964L57.6392 149.857H62.1734L62.4188 153.964L67.1985 235.188Z" fill="white"/>
<path opacity="0.2" d="M62.4188 153.761H57.9403L57.6392 149.857H62.1734L62.4188 153.761Z" fill="black"/>
<path d="M148.043 235.188H144.626L144.068 149.719H148.601L148.043 235.188Z" fill="#263238"/>
<path opacity="0.5" d="M148.603 149.857L148.513 163.646L148.045 235.188H144.627L144.158 163.646L144.069 149.857H148.603Z" fill="white"/>
<path opacity="0.2" d="M148.603 149.857L148.513 163.8H144.158L144.069 149.857H148.603Z" fill="black"/>
<path d="M184.318 235.188H180.901L174.762 149.719H179.295L184.318 235.188Z" fill="#263238"/>
<path opacity="0.5" d="M184.32 235.188H180.901L175.061 153.964L174.76 149.857H179.295L179.54 153.964L184.32 235.188Z" fill="white"/>
<path opacity="0.2" d="M179.54 153.761H175.061L174.76 149.857H179.295L179.54 153.761Z" fill="black"/>
<path d="M28.11 235.188H24.6934L29.7162 149.719H34.2488L28.11 235.188Z" fill="#263238"/>
<path opacity="0.5" d="M34.2481 149.857L33.9469 153.964L28.1076 235.188H24.6943L29.4684 153.964L29.7138 149.857H34.2481Z" fill="white"/>
<path opacity="0.2" d="M29.7141 149.856H34.2484L33.9472 153.76H29.4688L29.7141 149.856Z" fill="black"/>
<path d="M181.682 151.859H27.3284C26.6624 151.859 26.1226 151.319 26.1226 150.653V147.578H182.887V150.653C182.887 151.319 182.348 151.859 181.682 151.859Z" fill="#407BFF"/>
<path opacity="0.6" d="M181.682 151.859H27.3284C26.6624 151.859 26.1226 151.319 26.1226 150.653V147.578H182.887V150.653C182.887 151.319 182.348 151.859 181.682 151.859Z" fill="white"/>
<path opacity="0.2" d="M182.887 147.578H26.1226V149.718H182.887V147.578Z" fill="black"/>
<path d="M185.006 148.136H24.0051C23.3392 148.136 22.7993 147.596 22.7993 146.93C22.7993 146.264 23.3392 145.724 24.0051 145.724H185.006C185.672 145.724 186.212 146.264 186.212 146.93C186.212 147.596 185.672 148.136 185.006 148.136Z" fill="#407BFF"/>
<path opacity="0.6" d="M185.006 148.136H24.0051C23.3392 148.136 22.7993 147.596 22.7993 146.93C22.7993 146.264 23.3392 145.724 24.0051 145.724H185.006C185.672 145.724 186.212 146.264 186.212 146.93C186.212 147.596 185.672 148.136 185.006 148.136Z" fill="white"/>
<path d="M100.622 145.724L101.172 143.645H123.788L134.203 144.685L134.6 145.724H100.622Z" fill="#263238"/>
<path opacity="0.4" d="M123.788 143.645V145.724H100.622L101.172 143.645H123.788Z" fill="black"/>
<path d="M45.5603 122.073H52.7275L45.2401 142.594L56.5736 144.296V145.724H32.7031V144.296L37.5932 142.594L45.5603 122.073Z" fill="#263238"/>
<path d="M66.54 107.012C66.2974 105.623 64.9873 104.494 63.6114 104.494H62.496H25.8046H24.6892C23.5994 104.494 22.8008 105.207 22.6396 106.194C22.5983 106.448 22.6005 106.723 22.6524 107.012L27.5905 135.065C27.8331 136.454 29.1432 137.583 30.5191 137.583H31.6345H68.3253H69.4407C70.8094 137.583 71.7201 136.454 71.4775 135.065L66.54 107.012Z" fill="#263238"/>
<path opacity="0.2" d="M71.4777 135.065C71.7203 136.454 70.8096 137.583 69.4409 137.583H31.6347C30.2588 137.583 28.9487 136.454 28.7061 135.065L23.7681 107.012C23.7156 106.723 23.7134 106.448 23.7552 106.194C23.9164 105.206 24.7156 104.494 25.8049 104.494H63.6111C64.9875 104.494 66.2971 105.623 66.5397 107.012L71.4777 135.065Z" fill="white"/>
<path d="M31.5156 136.172C30.8574 136.172 30.2027 135.605 30.0861 134.936L25.1481 106.882C25.1252 106.753 25.1224 106.639 25.1391 106.537C25.2027 106.146 25.5033 105.905 25.9238 105.905H63.7301C64.3882 105.905 65.0429 106.471 65.1601 107.14L70.0981 135.194C70.1461 135.47 70.0914 135.723 69.9436 135.903C69.8433 136.025 69.6542 136.171 69.3223 136.171H31.5156V136.172Z" fill="#407BFF"/>
<path opacity="0.6" d="M31.5156 136.172C30.8574 136.172 30.2027 135.605 30.0861 134.936L25.1481 106.882C25.1252 106.753 25.1224 106.639 25.1391 106.537C25.2027 106.146 25.5033 105.905 25.9238 105.905H63.7301C64.3882 105.905 65.0429 106.471 65.1601 107.14L70.0981 135.194C70.1461 135.47 70.0914 135.723 69.9436 135.903C69.8433 136.025 69.6542 136.171 69.3223 136.171H31.5156V136.172Z" fill="#407BFF"/>
<path d="M139.258 122.073H146.425L138.937 142.594L150.271 144.296V145.724H126.4V144.296L131.29 142.594L139.258 122.073Z" fill="#263238"/>
<path d="M164.373 107.322C164.318 105.946 163.161 104.829 161.785 104.829H160.669H123.979H122.863C121.773 104.829 120.878 105.535 120.583 106.512C120.507 106.764 120.473 107.036 120.486 107.322L121.628 135.09C121.683 136.466 122.84 137.583 124.217 137.583H125.332H162.023H163.138C164.507 137.583 165.57 136.466 165.516 135.09L164.373 107.322Z" fill="#263238"/>
<path opacity="0.4" d="M165.515 135.09C165.57 136.466 164.506 137.583 163.138 137.583H125.331C123.956 137.583 122.798 136.466 122.743 135.09L121.6 107.322C121.587 107.036 121.622 106.764 121.698 106.512C121.993 105.535 122.888 104.829 123.978 104.829H161.784C163.16 104.829 164.317 105.946 164.372 107.322L165.515 135.09Z" fill="white"/>
<path d="M125.404 136.186C124.745 136.186 124.167 135.626 124.141 134.963L122.998 107.194C122.992 107.066 123.005 106.953 123.036 106.852C123.152 106.465 123.485 106.226 123.906 106.226H161.713C162.371 106.226 162.949 106.787 162.975 107.45L164.119 135.219C164.129 135.492 164.04 135.742 163.868 135.921C163.752 136.042 163.543 136.187 163.21 136.187H125.404V136.186Z" fill="#407BFF"/>
<path opacity="0.6" d="M125.404 136.186C124.745 136.186 124.167 135.626 124.141 134.963L122.998 107.194C122.992 107.066 123.005 106.953 123.036 106.852C123.152 106.465 123.485 106.226 123.906 106.226H161.713C162.371 106.226 162.949 106.787 162.975 107.45L164.119 135.219C164.129 135.492 164.04 135.742 163.868 135.921C163.752 136.042 163.543 136.187 163.21 136.187H125.404V136.186Z" fill="#407BFF"/>
<path opacity="0.4" d="M125.404 136.186C124.745 136.186 124.167 135.626 124.141 134.963L122.998 107.193C122.992 107.066 123.005 106.953 123.036 106.852C123.152 106.465 123.485 106.226 123.906 106.226H161.713C162.371 106.226 162.949 106.786 162.975 107.449L164.119 135.219C164.129 135.492 164.04 135.742 163.868 135.921C163.752 136.042 163.543 136.187 163.21 136.187H125.404V136.186Z" fill="black"/>
<path d="M159.836 109.179H132.08L132.057 108.661H159.813L159.836 109.179Z" fill="white"/>
<path d="M159.906 110.764H135.209L135.187 110.247H159.884L159.906 110.764Z" fill="white"/>
<path d="M159.977 112.35H144.367L144.344 111.833H159.954L159.977 112.35Z" fill="white"/>
<path d="M160.047 113.935H139.779L139.756 113.417H160.023L160.047 113.935Z" fill="white"/>
<path d="M160.117 115.52H146.673L146.65 115.003H160.094L160.117 115.52Z" fill="white"/>
<path d="M160.331 120.356H132.574L132.551 119.838H160.308L160.331 120.356Z" fill="white"/>
<path d="M160.401 121.942H135.704L135.681 121.424H160.378L160.401 121.942Z" fill="white"/>
<path d="M160.471 123.527H144.861L144.838 123.009H160.448L160.471 123.527Z" fill="white"/>
<path d="M160.541 125.112H140.273L140.25 124.595H160.518L160.541 125.112Z" fill="white"/>
<path d="M160.611 126.698H147.167L147.144 126.18H160.588L160.611 126.698Z" fill="white"/>
<path d="M99.9917 126.034H75.7772L74.355 110.193H98.5707L99.9917 126.034Z" fill="#407BFF"/>
<path d="M99.9917 126.034H75.7772L74.355 110.193H98.5707L99.9917 126.034Z" fill="#407BFF"/>
<path d="M99.0353 125.241H76.5915L75.5078 113.163H97.9511L99.0353 125.241Z" fill="#263238"/>
<path d="M94.1466 115.487H77.5443L77.498 114.968H94.1003L94.1466 115.487Z" fill="white"/>
<path d="M85.6528 117.078H77.6875L77.6406 116.559H85.6066L85.6528 117.078Z" fill="white"/>
<path d="M87.8628 118.67H77.8305L77.7837 118.15H87.8165L87.8628 118.67Z" fill="white"/>
<path d="M81.5091 120.261H77.9731L77.9263 119.741H81.4622L81.5091 120.261Z" fill="white"/>
<path d="M80.4061 121.852H78.1161L78.0698 121.333H80.3593L80.4061 121.852Z" fill="white"/>
<path d="M115.985 133.954H91.7703L90.3481 118.113H114.563L115.985 133.954Z" fill="#407BFF"/>
<path d="M115.985 133.954H91.7703L90.3481 118.113H114.563L115.985 133.954Z" fill="#407BFF"/>
<path d="M115.028 133.162H92.5852L91.501 121.084H113.944L115.028 133.162Z" fill="#263238"/>
<path d="M110.141 123.408H93.5385L93.4922 122.888H110.094L110.141 123.408Z" fill="white"/>
<path d="M101.647 124.999H93.6811L93.6348 124.479H101.6L101.647 124.999Z" fill="white"/>
<path d="M103.857 126.591H93.8241L93.7778 126.071H103.811L103.857 126.591Z" fill="white"/>
<path d="M97.5032 128.181H93.9673L93.9204 127.662H97.4564L97.5032 128.181Z" fill="white"/>
<path d="M96.3998 129.773H94.1103L94.0635 129.254H96.3535L96.3998 129.773Z" fill="white"/>
<path opacity="0.6" d="M68.8693 133.162H31.1417L26.729 108.551H64.4566L68.8693 133.162Z" fill="white"/>
<path opacity="0.6" d="M41.544 132.196H31.7259L28.0918 111.93H37.9105L41.544 132.196Z" fill="white"/>
<path opacity="0.6" d="M42.4271 132.196H67.9015L64.268 111.93H38.793L42.4271 132.196Z" fill="white"/>
<g opacity="0.4">
<path opacity="0.4" d="M36.9269 114.001H29.8064L29.7139 113.487H36.8348L36.9269 114.001Z" fill="black"/>
<path opacity="0.4" d="M34.1421 115.533H30.0808L29.9888 115.019H34.0501L34.1421 115.533Z" fill="black"/>
<path opacity="0.4" d="M35.9263 117.065H30.3552L30.2632 116.551H35.8343L35.9263 117.065Z" fill="black"/>
<path opacity="0.4" d="M34.1661 118.596H30.6302L30.5376 118.082H34.0736L34.1661 118.596Z" fill="black"/>
<path opacity="0.4" d="M33.1946 120.128H30.9046L30.812 119.614H33.102L33.1946 120.128Z" fill="black"/>
<path opacity="0.4" d="M38.2999 121.659H31.1795L31.0869 121.145H38.2079L38.2999 121.659Z" fill="black"/>
<path opacity="0.4" d="M35.5152 123.191H31.4538L31.3618 122.677H35.4231L35.5152 123.191Z" fill="black"/>
<path opacity="0.4" d="M37.2993 124.722H31.7283L31.6362 124.208H37.2073L37.2993 124.722Z" fill="black"/>
<path opacity="0.4" d="M35.5392 126.254H32.0032L31.9106 125.74H35.4466L35.5392 126.254Z" fill="black"/>
<path opacity="0.4" d="M34.5676 127.786H32.2776L32.1855 127.272H34.475L34.5676 127.786Z" fill="black"/>
<path opacity="0.4" d="M36.0879 129.317H32.5525L32.4604 128.803H35.9958L36.0879 129.317Z" fill="black"/>
<path opacity="0.4" d="M35.1163 130.849H32.8269L32.7349 130.335H35.0243L35.1163 130.849Z" fill="black"/>
</g>
<g opacity="0.4">
<path opacity="0.4" d="M59.2356 114.001H40.9607L40.8682 113.487H59.1436L59.2356 114.001Z" fill="black"/>
<path opacity="0.4" d="M56.4508 115.533H41.2351L41.1431 115.019H56.3588L56.4508 115.533Z" fill="black"/>
<path opacity="0.4" d="M58.235 117.065H41.5095L41.4175 116.551H58.143L58.235 117.065Z" fill="black"/>
<path opacity="0.4" d="M56.4748 118.596H41.7845L41.6919 118.082H56.3823L56.4748 118.596Z" fill="black"/>
<path opacity="0.4" d="M55.5033 120.128H42.0589L41.9663 119.614H55.4107L55.5033 120.128Z" fill="black"/>
<path opacity="0.4" d="M60.6086 121.659H42.3338L42.2412 121.145H60.5166L60.6086 121.659Z" fill="black"/>
<path opacity="0.4" d="M57.8239 123.191H42.6081L42.5161 122.677H57.7319L57.8239 123.191Z" fill="black"/>
<path opacity="0.4" d="M59.608 124.722H42.8826L42.7905 124.208H59.516L59.608 124.722Z" fill="black"/>
<path opacity="0.4" d="M57.8479 126.254H43.1575L43.0649 125.74H57.7553L57.8479 126.254Z" fill="black"/>
<path opacity="0.4" d="M56.8763 127.786H43.4319L43.3398 127.272H56.7837L56.8763 127.786Z" fill="black"/>
<path opacity="0.4" d="M58.3966 129.317H43.7068L43.6147 128.803H58.3046L58.3966 129.317Z" fill="black"/>
<path opacity="0.4" d="M57.425 130.849H43.9812L43.8892 130.335H57.333L57.425 130.849Z" fill="black"/>
</g>
<path d="M139.401 88.4895H156.169C157.103 88.4895 157.861 87.7321 157.861 86.7979V70.0295C157.861 69.0953 157.103 68.3379 156.169 68.3379H139.401C138.466 68.3379 137.709 69.0953 137.709 70.0295V86.7979C137.709 87.7321 138.466 88.4895 139.401 88.4895Z" fill="#407BFF"/>
<path d="M150.095 86.6992C150.095 86.6992 149.065 92.3746 141.563 94.9368C141.563 94.9368 145.829 90.818 145.829 86.6992H150.095Z" fill="#407BFF"/>
<path opacity="0.9" d="M148.914 76.2453V75.0239L148.285 74.9648C148.201 74.5554 148.038 74.1745 147.816 73.8365L148.221 73.3485L147.357 72.4851L146.869 72.8889C146.531 72.6669 146.15 72.5047 145.741 72.4199L145.682 71.7908H144.461L144.401 72.4199C143.993 72.5047 143.612 72.6669 143.274 72.8889L142.786 72.4851L141.922 73.3485L142.326 73.8365C142.105 74.1745 141.942 74.5554 141.857 74.9648L141.229 75.0239V76.2453L141.857 76.3044C141.942 76.7138 142.104 77.0947 142.326 77.4327L141.922 77.9207L142.785 78.784L143.273 78.3797C143.611 78.6017 143.992 78.764 144.401 78.8487L144.46 79.4778H145.681L145.74 78.8487C146.15 78.764 146.531 78.6017 146.868 78.3797L147.356 78.784L148.22 77.9207L147.816 77.4327C148.038 77.0947 148.199 76.7138 148.285 76.3044L148.914 76.2453ZM145.071 77.2877C144.158 77.2877 143.418 76.5476 143.418 75.6346C143.418 74.7216 144.158 73.9815 145.071 73.9815C145.984 73.9815 146.725 74.7216 146.725 75.6346C146.725 76.5476 145.984 77.2877 145.071 77.2877Z" fill="white"/>
<path opacity="0.6" d="M153.864 79.6924V78.7354L153.371 78.6891C153.305 78.3684 153.178 78.07 153.004 77.8051L153.32 77.4225L152.644 76.746L152.261 77.0622C151.996 76.8882 151.698 76.7611 151.377 76.6947L151.331 76.2017H150.374L150.328 76.6947C150.007 76.7611 149.709 76.8882 149.444 77.0622L149.061 76.746L148.385 77.4225L148.701 77.8051C148.527 78.07 148.4 78.3684 148.333 78.6891L147.841 78.7354V79.6924L148.333 79.7387C148.4 80.0594 148.527 80.3578 148.701 80.6227L148.385 81.0053L149.061 81.6818L149.444 81.3656C149.709 81.5396 150.007 81.6668 150.328 81.7331L150.374 82.2262H151.331L151.377 81.7331C151.698 81.6668 151.996 81.5396 152.261 81.3656L152.644 81.6818L153.32 81.0053L153.004 80.6227C153.178 80.3578 153.305 80.0594 153.371 79.7387L153.864 79.6924ZM150.853 80.5095C150.137 80.5095 149.557 79.9295 149.557 79.2139C149.557 78.4984 150.138 77.9183 150.853 77.9183C151.568 77.9183 152.148 78.4984 152.148 79.2139C152.148 79.9295 151.568 80.5095 150.853 80.5095Z" fill="white"/>
<path opacity="0.4" d="M148.915 82.4092V81.6055L148.501 81.5664C148.444 81.2971 148.338 81.0461 148.192 80.8236L148.458 80.5023L147.89 79.934L147.568 80.2C147.346 80.0539 147.095 79.9474 146.826 79.8916L146.787 79.4778H145.983L145.944 79.8916C145.675 79.9479 145.424 80.0545 145.201 80.2006L144.88 79.9345L144.311 80.5029L144.577 80.8241C144.431 81.0466 144.325 81.2971 144.269 81.567L143.855 81.606V82.4097L144.269 82.4488C144.325 82.7181 144.432 82.9691 144.577 83.1916L144.311 83.5129L144.88 84.0812L145.201 83.8152C145.424 83.9613 145.674 84.0684 145.944 84.1242L145.983 84.538H146.787L146.826 84.1242C147.095 84.0678 147.346 83.9613 147.568 83.8152L147.89 84.0812L148.458 83.5129L148.192 83.1916C148.338 82.9691 148.444 82.7187 148.501 82.4488L148.915 82.4092ZM146.385 83.0952C145.784 83.0952 145.297 82.6083 145.297 82.007C145.297 81.4064 145.784 80.9189 146.385 80.9189C146.986 80.9189 147.473 81.4064 147.473 82.007C147.473 82.6083 146.986 83.0952 146.385 83.0952Z" fill="white"/>
<path d="M144.003 229.174L139.561 228.564L138.945 218.003L143.381 218.618L144.003 229.174Z" fill="#EBB376"/>
<path opacity="0.2" d="M143.381 218.618L138.944 218.009L139.297 224.045L143.729 224.434L143.381 218.618Z" fill="black"/>
<path d="M139.225 228.029L144.245 227.716C144.42 227.697 144.576 227.823 144.595 227.998C144.595 228 144.595 228.001 144.595 228.003L145.088 231.963C145.114 232.396 144.788 232.77 144.356 232.802C142.602 232.883 141.762 232.834 139.552 232.954C138.196 233.035 135.524 233.324 133.653 233.142C131.783 232.962 132.011 231.117 132.819 231.029C134.735 230.81 137.273 229.403 138.471 228.335C138.683 228.151 138.948 228.044 139.225 228.029Z" fill="#263238"/>
<path d="M139.118 228.571C139.118 228.571 139.118 228.571 139.118 228.57C139.118 228.569 139.118 228.568 139.118 228.567C139.118 228.488 139.043 227.221 138.576 226.818C138.449 226.714 138.239 226.672 138.077 226.702C137.894 226.718 137.724 226.858 137.696 227.04C137.657 227.317 137.861 227.721 138.138 228.064C137.7 227.869 137.184 227.704 136.896 227.836C136.773 227.894 136.687 228.012 136.671 228.147C136.611 228.354 136.673 228.577 136.834 228.721C137.088 228.881 137.391 228.941 137.687 228.888C138.083 228.854 138.474 228.776 138.854 228.658C138.866 228.662 138.879 228.664 138.892 228.661C138.903 228.654 138.904 228.639 138.911 228.629C138.924 228.617 139.019 228.603 139.024 228.587C139.025 228.582 139.117 228.58 139.117 228.575C139.118 228.576 139.118 228.572 139.118 228.571ZM137.884 227.086C137.889 227.026 137.924 226.95 138.072 226.923L138.123 226.916C138.206 226.91 138.289 226.939 138.351 226.997C138.632 227.235 138.712 227.943 138.729 228.368C138.7 228.352 138.671 228.335 138.637 228.316C138.256 227.988 137.859 227.389 137.884 227.086ZM136.97 228.564C136.875 228.468 136.838 228.329 136.872 228.199C136.879 228.132 136.92 228.073 136.98 228.045C137.266 227.913 138.033 228.241 138.573 228.539C137.782 228.746 137.194 228.757 136.97 228.564Z" fill="#407BFF"/>
<path d="M143.824 167.089L144.908 160.298L169.816 158.808C169.816 158.808 172.465 172.94 170.43 176.704C166.797 183.425 147.219 180.033 141.49 180.694C144.914 194.698 144.579 222.066 144.579 222.066L136.398 222.691C136.398 222.691 130.102 193.2 128.829 179.188C127.97 169.733 135.805 169.968 143.824 167.089Z" fill="#263238"/>
<path opacity="0.2" d="M143.824 167.089L144.908 160.298L169.816 158.808C169.816 158.808 172.465 172.94 170.43 176.704C166.797 183.425 147.219 180.033 141.49 180.694C144.914 194.698 144.579 222.066 144.579 222.066L136.398 222.691C136.398 222.691 130.102 193.2 128.829 179.188C127.97 169.733 135.805 169.968 143.824 167.089Z" fill="black"/>
<path d="M124.604 111.57C125.271 111.497 125.718 110.589 125.602 109.542C125.487 108.496 124.854 107.707 124.188 107.78C123.522 107.853 123.075 108.761 123.19 109.808C123.305 110.854 123.938 111.643 124.604 111.57Z" stroke="#263238" stroke-width="0.5" stroke-miterlimit="10"/>
<path d="M125.621 114.939C125.727 115.178 125.84 115.409 125.966 115.628C126.708 116.953 127.814 117.959 129.079 118.582C129.41 118.748 129.754 118.887 130.105 118.999C131.96 119.589 134.013 119.41 135.708 118.304C136.404 117.86 137.046 117.251 137.583 116.476C139.715 113.443 139.139 110.456 138.569 105.33C138.463 104.224 138.105 103.157 137.51 102.223C135.437 98.9248 131.079 97.9382 127.787 100.011C123.15 102.885 123.747 110.554 125.621 114.939Z" fill="#E4897B"/>
<path opacity="0.2" d="M129.079 118.582C129.41 118.747 129.754 118.886 130.105 118.999C131.96 119.588 134.013 119.409 135.708 118.303C135.185 117.383 134.51 116.734 134.51 116.734C134.51 116.734 131.397 116.78 129.079 118.582Z" fill="black"/>
<path d="M142.516 119.942C141.637 123.255 135.955 125.913 135.955 125.913C135.955 125.913 132.121 127.127 132.147 125.667C133.861 124.11 134.211 122.613 133.854 121.22C133.645 120.408 133.193 119.636 132.632 118.902C132.342 118.514 132.015 118.142 131.68 117.783L135.043 108.834C136.237 112.534 138.952 119.004 142.516 119.942Z" fill="#E4897B"/>
<path d="M126.341 103.708C126.341 103.708 124.904 108.554 129.872 112.037C129.872 112.037 131.962 116.513 133.126 117.065C134.289 117.617 136.922 117.286 137.813 117.065C138.705 116.844 143.286 113.036 141.961 104.095C140.637 95.1534 133.126 97.9822 133.126 97.9822L126.341 103.708Z" fill="#263238"/>
<path d="M130.547 109.723C130.431 110.879 129.961 111.793 129.239 112.265C128.279 112.879 127.354 111.537 127.245 109.985C127.157 108.608 127.536 106.585 128.685 106.649C129.834 106.714 130.677 108.297 130.547 109.723Z" fill="#E4897B"/>
<path d="M136.204 97.5744C136.204 97.5744 130.69 96.0618 126.386 98.3418C126.386 98.3418 127.232 97.7724 126.974 97.0825C126.717 96.3931 124.768 98.9257 124.768 98.9257C124.768 98.9257 125.43 96.5035 125.026 96.2827C124.621 96.0618 122.084 99.8499 123.371 101.688C123.371 101.688 120.921 99.9965 121.355 101.321C121.789 102.645 121.789 104.888 127.453 103.784C133.116 102.681 136.204 97.5744 136.204 97.5744Z" fill="#263238"/>
<path d="M123.191 109.809L127.233 108.124" stroke="#263238" stroke-width="0.5" stroke-miterlimit="10"/>
<path d="M131.514 121.916C131.514 121.916 135.249 117.306 141.206 117.367L144.846 120.407L131.514 121.916Z" fill="#407BFF"/>
<path opacity="0.5" d="M131.514 121.916C131.514 121.916 135.249 117.306 141.206 117.367L144.846 120.407L131.514 121.916Z" fill="white"/>
<path d="M108.983 141.014L104.937 139.171C104.937 139.171 101.554 138.541 100.157 138.856C98.76 139.172 95.6708 143.368 95.7445 143.882C95.8181 144.397 101.1 145.648 101.217 145.648C101.334 145.648 103.626 144.349 103.626 144.349L107.365 145.648L108.983 141.014Z" fill="#E4897B"/>
<path d="M145.539 222.451L135.707 223.098L134.865 218.887L145.668 218.385L145.539 222.451Z" fill="#407BFF"/>
<path opacity="0.2" d="M145.539 222.451L135.707 223.098L134.865 218.887L145.668 218.385L145.539 222.451Z" fill="white"/>
<path d="M133.754 229.134L129.282 229.463L126.48 219.262L130.947 218.939L133.754 229.134Z" fill="#EBB376"/>
<path d="M128.677 229.615C128.677 229.61 128.602 229.607 128.601 229.603C128.601 229.602 128.521 229.599 128.521 229.598C128.521 229.598 128.521 229.598 128.521 229.597C128.521 229.597 128.6 229.597 128.6 229.596C128.584 229.529 128.373 228.277 127.83 227.979C127.684 227.904 127.532 227.897 127.381 227.96C127.205 228.015 127.099 228.182 127.11 228.366C127.13 228.646 127.429 228.996 127.771 229.274C127.303 229.174 126.771 229.119 126.517 229.308C126.409 229.39 126.353 229.524 126.366 229.659C126.349 229.874 126.459 230.079 126.646 230.186C126.928 230.29 127.238 230.285 127.516 230.172C127.897 230.056 128.263 229.898 128.61 229.702C128.623 229.704 128.637 229.704 128.648 229.698C128.657 229.688 128.654 229.674 128.66 229.663C128.671 229.649 128.676 229.632 128.677 229.615ZM127.334 228.367C127.327 228.306 127.345 228.225 127.484 228.168L127.532 228.151C127.613 228.128 127.7 228.139 127.772 228.183C128.097 228.358 128.322 229.033 128.427 229.445C128.396 229.435 128.364 229.425 128.327 229.414C127.886 229.171 127.372 228.669 127.334 228.367ZM126.748 230.004C126.635 229.929 126.57 229.801 126.575 229.666C126.567 229.6 126.596 229.534 126.649 229.494C126.901 229.304 127.719 229.465 128.31 229.644C127.58 230.011 127.007 230.145 126.748 230.004Z" fill="#407BFF"/>
<path opacity="0.2" d="M130.947 218.939L126.48 219.267L128.083 225.098L132.498 224.556L130.947 218.939Z" fill="black"/>
<path d="M124.965 224.378L132.84 222.064C132.84 222.064 128.138 195.528 123.37 186.326C123.727 186.209 124.201 186.058 124.787 185.885C125.841 185.567 127.241 185.171 128.886 184.714C140.33 181.54 163.526 175.59 163.526 175.59L152.929 165.701C152.929 165.701 110.721 172.137 109.845 183.258C109.426 188.606 124.965 224.378 124.965 224.378Z" fill="#263238"/>
<path d="M133.856 222.238L124.374 224.919L122.673 220.976L133.135 218.235L133.856 222.238Z" fill="#407BFF"/>
<path opacity="0.2" d="M133.856 222.238L124.374 224.919L122.673 220.976L133.135 218.235L133.856 222.238Z" fill="white"/>
<path d="M128.842 229.009L133.687 227.657C133.853 227.603 134.033 227.693 134.088 227.86C134.088 227.862 134.089 227.864 134.089 227.865L135.396 231.636C135.513 232.053 135.271 232.487 134.855 232.609C133.157 233.053 132.324 233.18 130.188 233.759C128.879 234.12 126.325 234.958 124.458 235.171C122.59 235.384 122.43 233.532 123.203 233.277C125.031 232.665 127.22 230.759 128.17 229.465C128.337 229.242 128.574 229.082 128.842 229.009Z" fill="#263238"/>
<path d="M125.729 126.412C125.729 126.412 132.781 118.515 142.199 119.329C151.617 120.144 161.058 127.421 165.751 138.859C170.445 150.298 171.859 167.578 171.859 167.578C171.859 167.578 156.616 171.942 141.118 167.964C141.118 167.964 137.098 147.467 125.729 126.412Z" fill="#407BFF"/>
<path opacity="0.6" d="M125.729 126.412C125.729 126.412 132.781 118.515 142.199 119.329C151.617 120.144 161.058 127.421 165.751 138.859C170.445 150.298 171.859 167.578 171.859 167.578C171.859 167.578 156.616 171.942 141.118 167.964C141.118 167.964 137.098 147.467 125.729 126.412Z" fill="white"/>
<path d="M125.729 126.413C123.35 128.883 116.552 140.211 114.616 140.634C112.625 141.071 109.865 139.317 107.658 139.981C105.452 140.646 103.187 142.653 103.697 143.94C104.209 145.227 109.391 148.66 115.819 148.846C121.325 149.005 132.925 135.298 132.925 135.298C132.925 129.999 125.729 126.413 125.729 126.413Z" fill="#407BFF"/>
<path opacity="0.5" d="M125.729 126.413C123.35 128.883 116.552 140.211 114.616 140.634C112.625 141.071 109.865 139.317 107.658 139.981C105.452 140.646 103.187 142.653 103.697 143.94C104.209 145.227 109.391 148.66 115.819 148.846C121.325 149.005 132.925 135.298 132.925 135.298C132.925 129.999 125.729 126.413 125.729 126.413Z" fill="white"/>
<path d="M171.321 171.372C155.325 174.462 139.636 168.138 139.636 168.138C139.636 168.138 139.597 166.989 139.397 165.198V165.193C139.324 164.512 139.224 163.737 139.101 162.901C138.984 162.142 138.844 161.333 138.677 160.491C138.237 158.249 137.59 155.773 136.653 153.447C135.766 151.244 135.074 149.432 134.544 147.943C134.466 147.731 134.394 147.524 134.327 147.324C134.098 146.671 133.903 146.085 133.736 145.567C132.592 142.02 132.749 141.345 132.749 141.345C136.798 141.915 137.099 133.576 131.683 127.374C129.692 125.099 127.233 124.965 127.233 124.965C127.233 124.965 126.681 124.084 132.392 120.866C135.471 119.131 138.917 120.408 141.466 120.408C145.56 120.408 146.173 119.828 146.173 119.828C152.866 119.817 160.941 128.657 166.157 139.159C166.419 139.683 166.675 140.214 166.921 140.749C167.177 141.301 167.423 141.858 167.662 142.416C169.492 146.705 170.802 151.139 171.321 155.266C171.377 155.718 171.433 156.153 171.477 156.577C171.55 157.18 171.611 157.753 171.672 158.306C171.745 158.987 171.806 159.633 171.862 160.241C172.843 170.949 171.321 171.372 171.321 171.372Z" fill="#407BFF"/>
<path opacity="0.3" d="M134.544 147.943L141.131 153.325L138.677 160.491C138.237 158.249 137.59 155.773 136.653 153.447C135.766 151.244 135.074 149.432 134.544 147.943Z" fill="white"/>
<path opacity="0.3" d="M144.846 142.455L154.439 153.258L152.453 162.594L141.131 153.325L144.846 142.455Z" fill="white"/>
<path opacity="0.3" d="M157.199 140.291L166.089 150.43L163.524 163.486L154.438 153.258L157.199 140.291Z" fill="white"/>
<path opacity="0.3" d="M171.477 156.576L166.089 150.429L167.662 142.415C169.491 146.704 170.802 151.138 171.321 155.265C171.377 155.717 171.432 156.152 171.477 156.576Z" fill="white"/>
<g opacity="0.3">
<path opacity="0.3" d="M166.92 140.748L165.219 147.758L156.558 138.433L153.78 150.764L144.115 139.242L140.534 151.562L134.327 147.323C134.098 146.67 133.903 146.084 133.736 145.566L139.893 149.771L143.63 136.927L153.184 148.322L155.933 136.125L164.628 145.477L166.156 139.159C166.418 139.683 166.675 140.213 166.92 140.748Z" fill="white"/>
</g>
<g opacity="0.3">
<path opacity="0.3" d="M171.862 160.24L167.746 155.444L164.957 169.142L155.805 159.075L153.808 167.234L142.431 157.452L139.397 165.193C139.324 164.512 139.224 163.738 139.101 162.901L141.968 155.578L153.156 165.199L155.219 156.777L164.304 166.766L167.104 152.99L171.672 158.305C171.744 158.985 171.806 159.632 171.862 160.24Z" fill="white"/>
</g>
<path d="M131.289 178.556H175.862C177.402 178.556 178.65 179.804 178.65 181.344V185.074H128.5V181.344C128.5 179.804 129.748 178.556 131.289 178.556Z" fill="#407BFF"/>
<path opacity="0.2" d="M131.289 178.556H175.862C177.402 178.556 178.65 179.804 178.65 181.344V185.074H128.5V181.344C128.5 179.804 129.748 178.556 131.289 178.556Z" fill="black"/>
<path d="M177.017 222.191L160.947 220.612V198.028H154.578V220.605L138.444 222.191C136.842 222.348 135.621 223.695 135.621 225.304V227.717H157.14H158.32H179.838V225.304C179.839 223.695 178.619 222.348 177.017 222.191Z" fill="#263238"/>
<path opacity="0.2" d="M177.017 222.191L160.947 220.612V198.028H154.578V220.605L138.444 222.191C136.842 222.348 135.621 223.695 135.621 225.304V227.717H157.14H158.32H179.838V225.304C179.839 223.695 178.619 222.348 177.017 222.191Z" fill="white"/>
<path d="M137.322 234.874C139.622 234.874 141.486 233.01 141.486 230.71C141.486 228.411 139.622 226.546 137.322 226.546C135.022 226.546 133.158 228.411 133.158 230.71C133.158 233.01 135.022 234.874 137.322 234.874Z" fill="#263238"/>
<path d="M178.139 234.874C180.439 234.874 182.303 233.01 182.303 230.71C182.303 228.411 180.439 226.546 178.139 226.546C175.839 226.546 173.975 228.411 173.975 230.71C173.975 233.01 175.839 234.874 178.139 234.874Z" fill="#263238"/>
<path d="M159.739 202.882H155.787C154.514 202.882 153.481 201.85 153.481 200.577V182.767H162.044V200.577C162.044 201.85 161.012 202.882 159.739 202.882Z" fill="#263238"/>
<path opacity="0.3" d="M159.739 202.882H155.787C154.514 202.882 153.481 201.85 153.481 200.577V182.767H162.044V200.577C162.044 201.85 161.012 202.882 159.739 202.882Z" fill="white"/>
<path d="M148.234 182.767C148.234 182.767 156.215 157.29 157.579 120.114C157.742 115.676 161.403 112.168 165.844 112.168H180.669C185.223 112.168 188.922 115.844 188.942 120.398C189 133.903 188.056 161.512 180.438 183.953L148.234 182.767Z" fill="#407BFF"/>
<path opacity="0.2" d="M148.234 182.767C148.234 182.767 156.215 157.29 157.579 120.114C157.742 115.676 161.403 112.168 165.844 112.168H180.669C185.223 112.168 188.922 115.844 188.942 120.398C189 133.903 188.056 161.512 180.438 183.953L148.234 182.767Z" fill="black"/>
<path d="M153.291 182.449C153.291 182.449 160.903 155.368 162.161 121.076C162.311 116.983 165.689 113.747 169.784 113.747H183.459C187.66 113.747 191.072 117.137 191.091 121.337C191.144 133.795 190.273 161.748 183.247 182.448H153.291V182.449Z" fill="#263238"/>
<path opacity="0.3" d="M183.245 182.449H153.29C153.29 182.449 160.902 155.366 162.163 121.077C162.313 116.984 165.688 113.749 169.787 113.749H183.457C187.662 113.749 191.07 117.14 191.092 121.34C191.142 133.794 190.272 161.746 183.245 182.449Z" fill="white"/>
<path d="M159.156 162.761C159.156 162.761 142.906 159.474 127.218 161.066C111.53 162.658 134.599 183.157 134.599 183.157H137.838C137.838 183.157 125.613 170.159 126.294 166.923C126.975 163.687 157.763 167.953 157.763 167.953L159.156 162.761Z" fill="#263238"/>
<path opacity="0.3" d="M159.156 162.761C159.156 162.761 142.906 159.474 127.218 161.066C111.53 162.658 134.599 183.157 134.599 183.157H137.838C137.838 183.157 125.613 170.159 126.294 166.923C126.975 163.687 157.763 167.953 157.763 167.953L159.156 162.761Z" fill="white"/>
<path opacity="0.2" d="M183.245 182.449H156.636C156.636 182.449 164.249 155.366 165.51 121.077C165.66 116.984 169.034 113.749 173.134 113.749H183.457C187.662 113.749 191.07 117.14 191.092 121.34C191.142 133.794 190.272 161.746 183.245 182.449Z" fill="black"/>
<path d="M127.833 181.815H182.663C183.283 181.815 183.785 182.317 183.785 182.937V183.953C183.785 184.572 183.283 185.075 182.663 185.075H127.833C127.213 185.075 126.711 184.573 126.711 183.953V182.937C126.711 182.318 127.214 181.815 127.833 181.815Z" fill="#263238"/>
<path opacity="0.6" d="M127.833 181.815H182.663C183.283 181.815 183.785 182.317 183.785 182.937V183.953C183.785 184.572 183.283 185.075 182.663 185.075H127.833C127.213 185.075 126.711 184.573 126.711 183.953V182.937C126.711 182.318 127.214 181.815 127.833 181.815Z" fill="white"/>
</g>
</svg>
