<svg width="240" height="240" viewBox="0 0 240 240" fill="none" xmlns="http://www.w3.org/2000/svg">
<circle cx="120" cy="120" r="120" fill="#8CB5F3"/>
<mask id="mask0" mask-type="alpha" maskUnits="userSpaceOnUse" x="0" y="0" width="240" height="240">
<circle cx="120" cy="120" r="120" fill="#8CB5F3"/>
</mask>
<g mask="url(#mask0)">
<g opacity="0.1">
<path d="M114.374 247.575C175.64 247.575 225.305 244.676 225.305 241.099C225.305 237.522 175.64 234.622 114.374 234.622C53.1085 234.622 3.44287 237.522 3.44287 241.099C3.44287 244.676 53.1085 247.575 114.374 247.575Z" fill="black"/>
</g>
<path d="M191.808 39.6955C177.731 29.1305 156.903 31.9213 140.235 37.574C123.567 43.2261 109.148 55.2484 100.591 70.6285C95.5834 79.6282 92.4046 89.8632 85.3633 97.3787C74.542 108.93 55.0968 111.085 42.0087 102.182C35.1642 97.5269 28.5904 89.9209 20.4684 91.5178C15.8684 92.4223 12.3017 96.3329 10.6208 100.709C8.93985 105.085 8.85117 109.897 9.00221 114.583C9.41587 127.382 11.5087 140.257 16.5939 152.01C21.679 163.763 29.9109 174.365 40.8656 180.998C53.8496 188.859 70.0444 190.661 84.8381 187.265C99.6318 183.868 113.037 175.55 123.784 164.832C132.261 156.377 139.16 146.481 147.244 137.65C155.329 128.818 165.017 120.845 176.612 117.861C184.844 115.743 193.52 116.267 201.917 114.946C210.314 113.624 219.136 109.777 222.751 102.083C225.903 95.3768 224.337 87.4333 221.874 80.4447C215.815 63.2492 206.389 50.6399 191.808 39.6955Z" fill="#407BFF"/>
<path opacity="0.8" d="M191.808 39.6955C177.731 29.1305 156.903 31.9213 140.235 37.574C123.567 43.2261 109.148 55.2484 100.591 70.6285C95.5834 79.6282 92.4046 89.8632 85.3633 97.3787C74.542 108.93 55.0968 111.085 42.0087 102.182C35.1642 97.5269 28.5904 89.9209 20.4684 91.5178C15.8684 92.4223 12.3017 96.3329 10.6208 100.709C8.93985 105.085 8.85117 109.897 9.00221 114.583C9.41587 127.382 11.5087 140.257 16.5939 152.01C21.679 163.763 29.9109 174.365 40.8656 180.998C53.8496 188.859 70.0444 190.661 84.8381 187.265C99.6318 183.868 113.037 175.55 123.784 164.832C132.261 156.377 139.16 146.481 147.244 137.65C155.329 128.818 165.017 120.845 176.612 117.861C184.844 115.743 193.52 116.267 201.917 114.946C210.314 113.624 219.136 109.777 222.751 102.083C225.903 95.3768 224.337 87.4333 221.874 80.4447C215.815 63.2492 206.389 50.6399 191.808 39.6955Z" fill="white"/>
<path d="M231.192 162.745H-2.02148V165.68H231.192V162.745Z" fill="#407BFF"/>
<path d="M11.8701 164.851V234.846H13.6895L15.978 164.851H11.8701Z" fill="#407BFF"/>
<path d="M33.3477 167.14V231.985H35.167L37.4556 167.14H33.3477Z" fill="#407BFF"/>
<path opacity="0.5" d="M33.3477 167.14V231.985H35.167L37.4556 167.14H33.3477Z" fill="black"/>
<path d="M218.128 164.851V234.846H216.314L214.02 164.851H218.128Z" fill="#407BFF"/>
<path d="M196.656 167.14V231.985H194.836L192.548 167.14H196.656Z" fill="#407BFF"/>
<path opacity="0.5" d="M196.656 167.14V231.985H194.836L192.548 167.14H196.656Z" fill="black"/>
<path d="M222.276 168.82H7.5788L2.83008 165.68H227.025L222.276 168.82Z" fill="#407BFF"/>
<path opacity="0.5" d="M222.276 168.82H7.5788L2.83008 165.68H227.025L222.276 168.82Z" fill="black"/>
<path d="M13.3066 153.748V156.012C13.3066 156.393 13.4554 156.752 13.7243 157.022L15.5403 158.838C15.7067 159.004 15.9087 159.118 16.1273 159.186C16.8682 160.778 18.4776 161.884 20.3496 161.884H21.0293C23.6028 161.884 25.6888 159.798 25.6888 157.225V151.886H15.6907V152.319H14.7353C13.9474 152.319 13.3066 152.96 13.3066 153.748ZM14.4509 153.748C14.4509 153.591 14.5785 153.464 14.7353 153.464H15.6907V157.225C15.6907 157.276 15.697 157.327 15.6987 157.378L14.5344 156.213C14.4818 156.16 14.4509 156.087 14.4509 156.012V153.748Z" fill="#407BFF"/>
<path opacity="0.5" d="M13.3066 153.748V156.012C13.3066 156.393 13.4554 156.752 13.7243 157.022L15.5403 158.838C15.7067 159.004 15.9087 159.118 16.1273 159.186C16.8682 160.778 18.4776 161.884 20.3496 161.884H21.0293C23.6028 161.884 25.6888 159.798 25.6888 157.225V151.886H15.6907V152.319H14.7353C13.9474 152.319 13.3066 152.96 13.3066 153.748ZM14.4509 153.748C14.4509 153.591 14.5785 153.464 14.7353 153.464H15.6907V157.225C15.6907 157.276 15.697 157.327 15.6987 157.378L14.5344 156.213C14.4818 156.16 14.4509 156.087 14.4509 156.012V153.748Z" fill="white"/>
<path d="M28.0627 162.649H13.6798C12.7444 162.649 11.9863 161.802 11.9863 161.802H29.7568C29.7568 161.802 28.9982 162.649 28.0627 162.649Z" fill="#407BFF"/>
<path opacity="0.5" d="M28.0627 162.649H13.6798C12.7444 162.649 11.9863 161.802 11.9863 161.802H29.7568C29.7568 161.802 28.9982 162.649 28.0627 162.649Z" fill="white"/>
<path d="M221.571 155.674C221.496 153.403 219.768 152.847 217.51 152.59V151.761C217.507 151.561 217.342 151.403 217.142 151.407C217.14 151.407 217.138 151.407 217.135 151.407H209.345C209.142 151.399 208.971 151.557 208.962 151.76C208.962 151.76 208.962 151.76 208.962 151.761V162.58H217.51V161.397C219.772 161.143 221.503 157.949 221.571 155.674ZM217.511 159.998V153.989C219.17 154.234 220.316 154.461 220.073 156.12C219.876 157.445 218.836 159.803 217.511 159.998Z" fill="#407BFF"/>
<g opacity="0.5">
<path opacity="0.5" d="M221.571 155.674C221.496 153.403 219.768 152.847 217.51 152.59V151.761C217.507 151.561 217.342 151.403 217.142 151.407C217.14 151.407 217.138 151.407 217.135 151.407H209.345C209.142 151.399 208.971 151.557 208.962 151.76C208.962 151.76 208.962 151.76 208.962 151.761V162.58H217.51V161.397C219.772 161.143 221.503 157.949 221.571 155.674ZM217.511 159.998V153.989C219.17 154.234 220.316 154.461 220.073 156.12C219.876 157.445 218.836 159.803 217.511 159.998Z" fill="white"/>
</g>
<path d="M117.747 148.792H111.001V162.495H117.747V148.792Z" fill="#407BFF"/>
<path opacity="0.5" d="M117.747 148.792H111.001V162.495H117.747V148.792Z" fill="white"/>
<path d="M120.792 162.741H108.013L111.13 159.997H117.675L120.792 162.741Z" fill="#407BFF"/>
<path opacity="0.5" d="M120.792 162.741H108.013L111.13 159.997H117.675L120.792 162.741Z" fill="white"/>
<path d="M148.89 158.304H116.942L122.715 162.758H154.658L148.89 158.304Z" fill="#407BFF"/>
<path opacity="0.4" d="M148.89 158.304H116.942L122.715 162.758H154.658L148.89 158.304Z" fill="white"/>
<path d="M117.68 162.758L116.942 158.304L122.715 162.758H117.68Z" fill="#407BFF"/>
<path opacity="0.5" d="M117.68 162.758L116.942 158.304L122.715 162.758H117.68Z" fill="black"/>
<path d="M85.1358 116.359H143.285C143.893 116.359 144.388 116.852 144.388 117.462V153.12C144.388 153.729 143.894 154.223 143.285 154.223H85.1358C84.5265 154.223 84.0327 153.73 84.0327 153.12V117.462C84.0327 116.852 84.5265 116.359 85.1358 116.359Z" fill="#407BFF"/>
<path opacity="0.5" d="M142.135 118.724H86.2251V151.722H142.135V118.724Z" fill="black"/>
<path opacity="0.4" d="M140.358 125.512H112.146V144.935H140.358V125.512Z" fill="black"/>
<path d="M140.358 125.512H112.146V127.292H140.358V125.512Z" fill="#407BFF"/>
<path d="M117.315 136.254L121.928 138.81C122.159 138.939 122.314 139.056 122.39 139.157C122.466 139.259 122.504 139.389 122.504 139.546C122.504 139.745 122.433 139.917 122.289 140.063C122.145 140.209 121.979 140.282 121.789 140.282C121.664 140.282 121.476 140.212 121.227 140.073L115.276 136.764C114.875 136.541 114.875 135.964 115.276 135.741L121.227 132.432C121.477 132.297 121.662 132.23 121.782 132.23C121.977 132.23 122.146 132.302 122.29 132.445C122.433 132.589 122.505 132.76 122.505 132.959C122.505 133.117 122.467 133.247 122.39 133.349C122.314 133.45 122.16 133.566 121.929 133.696L117.315 136.254Z" fill="white"/>
<path d="M129.183 131.489L124.619 141.325C124.503 141.57 124.399 141.73 124.306 141.804C124.186 141.901 124.04 141.95 123.869 141.95C123.674 141.95 123.506 141.881 123.365 141.742C123.223 141.603 123.153 141.445 123.153 141.269C123.153 141.144 123.208 140.961 123.319 140.72L127.898 130.891C128.013 130.646 128.115 130.486 128.203 130.412C128.328 130.315 128.474 130.266 128.641 130.266C128.835 130.266 129.002 130.334 129.141 130.471C129.28 130.607 129.349 130.764 129.349 130.94C129.35 131.065 129.294 131.248 129.183 131.489Z" fill="white"/>
<path d="M134.922 136.254L130.309 133.697C130.077 133.567 129.924 133.452 129.847 133.35C129.77 133.248 129.732 133.118 129.732 132.961C129.732 132.762 129.804 132.591 129.948 132.447C130.091 132.304 130.26 132.231 130.454 132.231C130.575 132.231 130.761 132.299 131.011 132.433L136.961 135.743C137.362 135.966 137.362 136.542 136.961 136.766L131.011 140.075C130.761 140.214 130.575 140.283 130.454 140.283C130.258 140.283 130.087 140.21 129.942 140.063C129.806 139.924 129.732 139.741 129.732 139.547C129.732 139.389 129.77 139.26 129.847 139.158C129.924 139.056 130.077 138.941 130.309 138.811L134.922 136.254Z" fill="white"/>
<path d="M90.4269 121.771H88.5171V123.681H90.4269V121.771Z" fill="white"/>
<path d="M90.4269 126.716H88.5171V128.626H90.4269V126.716Z" fill="white"/>
<path d="M90.4269 131.66H88.5171V133.57H90.4269V131.66Z" fill="white"/>
<path d="M90.4269 136.604H88.5171V138.514H90.4269V136.604Z" fill="white"/>
<path d="M90.4269 141.548H88.5171V143.458H90.4269V141.548Z" fill="white"/>
<path d="M90.4269 146.493H88.5171V148.402H90.4269V146.493Z" fill="white"/>
<path d="M99.8557 122.201H92.2417V122.773H99.8557V122.201Z" fill="white"/>
<path d="M96.7285 127.158H94.0166V127.731H96.7285V127.158Z" fill="white"/>
<path d="M108.532 132.72H105.82V133.292H108.532V132.72Z" fill="white"/>
<path d="M96.7285 137.133H94.0166V137.705H96.7285V137.133Z" fill="white"/>
<path d="M100.64 137.133H97.9277V137.705H100.64V137.133Z" fill="white"/>
<path d="M104.857 132.72H97.9277V133.292H104.857V132.72Z" fill="white"/>
<path d="M106.527 137.133H101.964V137.705H106.527V137.133Z" fill="white"/>
<path d="M104.661 147.734H101.949V148.306H104.661V147.734Z" fill="white"/>
<path d="M108.571 147.734H105.859V148.306H108.571V147.734Z" fill="white"/>
<path d="M111.412 147.734H109.896V148.306H111.412V147.734Z" fill="white"/>
<path d="M106.527 127.158H98.0879V127.731H106.527V127.158Z" fill="white"/>
<path d="M100.64 142.297H97.9277V142.869H100.64V142.297Z" fill="white"/>
<path d="M103.114 142.297H101.546V142.869H103.114V142.297Z" fill="white"/>
<path d="M108.741 142.297H104.312V142.869H108.741V142.297Z" fill="white"/>
<path d="M109.475 100.601C109.335 107.525 102.14 113.328 93.4047 113.559C90.7242 113.649 88.0747 113.158 85.5773 112.109C84.6996 114.284 82.8442 116.149 77.5273 116.984C83.0753 112.7 80.0407 109.076 78.7757 105.886C78.1321 104.552 77.8025 103.015 77.822 101.435C77.9616 94.5086 85.1568 88.7089 93.8921 88.4778C102.633 88.2277 109.614 93.6779 109.475 100.601Z" fill="#407BFF"/>
<path d="M93.8342 93.353H86.2202V93.9252H93.8342V93.353Z" fill="white"/>
<path d="M90.707 98.3105H87.9951V98.8827H90.707V98.3105Z" fill="white"/>
<path d="M102.51 103.871H99.7983V104.443H102.51V103.871Z" fill="white"/>
<path d="M90.707 108.285H87.9951V108.857H90.707V108.285Z" fill="white"/>
<path d="M94.6172 108.285H91.9053V108.857H94.6172V108.285Z" fill="white"/>
<path d="M98.835 103.871H91.9053V104.443H98.835V103.871Z" fill="white"/>
<path d="M100.505 108.285H95.9424V108.857H100.505V108.285Z" fill="white"/>
<path d="M100.505 98.3105H92.0659V98.8827H100.505V98.3105Z" fill="white"/>
<path d="M142.505 231.761L138.334 230.514L139.307 220.29L143.477 221.538L142.505 231.761Z" fill="#7F3E3B"/>
<path opacity="0.2" d="M143.821 219.228L139.65 217.987L139.107 223.714L143.324 224.498L143.821 219.228Z" fill="black"/>
<path d="M167.192 168.615C167.192 168.615 138.511 171.035 139.215 183.49C139.792 193.687 141.303 190.916 138.334 221.232L145.549 221.63C145.549 221.63 152.889 196.832 151.899 186.98C159.984 186.98 178.492 187.689 181.181 180.395C182.517 176.69 183.166 172.774 183.098 168.838L167.192 168.615Z" fill="#407BFF"/>
<path d="M146.697 223.025L137.268 221.413L137.423 217.242L147.183 219.41L146.697 223.025Z" fill="#263238"/>
<path d="M137.905 228.798L142.722 229.751C142.892 229.776 143.014 229.956 142.997 230.157L142.596 234.711C142.523 235.202 142.132 235.534 141.715 235.461C140.045 235.096 139.255 234.826 137.138 234.407C135.834 234.151 132.853 233.522 131.039 233.319C129.226 233.117 129.443 230.995 130.227 230.887C133.751 230.421 135.754 229.853 137.121 228.968C137.359 228.81 137.635 228.75 137.905 228.798Z" fill="#263238"/>
<path d="M135.744 229.625C136.123 229.676 136.506 229.687 136.888 229.659C136.927 229.658 136.962 229.633 136.973 229.596C136.993 229.562 136.993 229.521 136.973 229.488C136.853 229.368 135.772 228.344 135.217 228.458C135.086 228.48 134.979 228.573 134.937 228.698C134.846 228.881 134.858 229.099 134.971 229.271C135.176 229.478 135.451 229.605 135.744 229.625ZM136.664 229.47C135.869 229.47 135.309 229.378 135.143 229.144C135.076 229.031 135.076 228.891 135.143 228.777C135.161 228.715 135.211 228.668 135.274 228.651C135.566 228.589 136.219 229.069 136.664 229.47Z" fill="#407BFF"/>
<path d="M136.893 229.658C136.893 229.658 136.922 229.658 136.939 229.658C136.972 229.646 136.998 229.618 137.008 229.584C137.008 229.533 137.323 228.313 136.956 227.828C136.866 227.695 136.716 227.617 136.556 227.616C136.379 227.591 136.209 227.69 136.144 227.856C135.966 228.308 136.459 229.309 136.842 229.636C136.856 229.65 136.874 229.658 136.893 229.658ZM136.596 227.822C136.678 227.834 136.75 227.881 136.797 227.948C136.964 228.399 136.983 228.892 136.848 229.355C136.502 228.963 136.317 228.454 136.334 227.931C136.334 227.873 136.396 227.81 136.545 227.817L136.596 227.822Z" fill="#407BFF"/>
<path d="M123.911 233.352L119.94 231.567L122.686 221.772L126.657 223.557L123.911 233.352Z" fill="#7F3E3B"/>
<path opacity="0.2" d="M127.328 221.037L123.357 219.251L121.944 224.303L125.914 226.088L127.328 221.037Z" fill="black"/>
<path d="M158.656 168.615C158.468 168.615 126.502 171.905 126.462 182.746C126.393 200.677 121.272 221.232 121.272 221.232L127.59 224.362C127.59 224.362 138.592 202.079 138.425 188.102C147.219 185.579 169.967 189.818 172.656 182.529C174.859 176.568 173.669 168.616 173.669 168.616H158.656V168.615Z" fill="#407BFF"/>
<path d="M128.601 225.268L120.132 221.459L120.814 217.991L129.745 221.075L128.601 225.268Z" fill="#263238"/>
<path d="M120.334 228.275L125.163 229.278C125.33 229.309 125.449 229.505 125.432 229.724L125.055 234.731C124.991 235.274 124.599 235.647 124.18 235.564C124.18 235.563 124.18 235.563 124.179 235.563C122.509 235.177 121.719 234.88 119.602 234.441C118.298 234.174 114.745 233.312 112.954 232.844C111.163 232.376 111.564 230.095 112.382 230.08C115.923 230.028 118.218 229.449 119.579 228.46C119.808 228.293 120.074 228.227 120.334 228.275Z" fill="#263238"/>
<path d="M118.351 229.356C118.687 229.174 119.004 228.956 119.293 228.706C119.326 228.68 119.339 228.637 119.327 228.597C119.315 228.56 119.282 228.534 119.243 228.531C119.076 228.504 117.599 228.312 117.216 228.739C117.13 228.838 117.101 228.974 117.138 229.099C117.172 229.302 117.311 229.47 117.503 229.542C117.799 229.589 118.102 229.522 118.351 229.356ZM118.997 228.689C118.375 229.176 117.855 229.414 117.581 229.329C117.459 229.276 117.375 229.161 117.363 229.028C117.341 228.968 117.354 228.901 117.398 228.854C117.603 228.649 118.404 228.631 118.997 228.689Z" fill="#407BFF"/>
<path d="M119.294 228.706L119.336 228.676C119.357 228.65 119.361 228.614 119.346 228.583C119.315 228.542 118.845 227.37 118.263 227.192C118.112 227.143 117.946 227.168 117.818 227.26C117.661 227.347 117.584 227.529 117.63 227.702C117.752 228.171 118.74 228.684 119.247 228.718C119.263 228.719 119.279 228.714 119.294 228.706ZM117.963 227.403C118.036 227.362 118.121 227.354 118.2 227.379C118.604 227.645 118.913 228.032 119.083 228.485C118.569 228.377 118.116 228.075 117.819 227.642C117.785 227.596 117.799 227.508 117.923 227.425L117.963 227.403Z" fill="#407BFF"/>
<path d="M169.515 134.021C170.356 135.829 171.049 137.569 171.741 139.377C172.433 141.185 173.045 142.993 173.612 144.846C174.179 146.7 174.671 148.599 175.066 150.568C175.496 152.612 175.711 154.697 175.706 156.787C175.699 158.014 175.516 159.233 175.163 160.408C174.94 161.128 174.619 161.814 174.207 162.445C173.968 162.803 173.694 163.137 173.389 163.441L173.143 163.681C173.005 163.795 172.857 163.921 172.714 164.019C172.472 164.184 172.216 164.326 171.947 164.442C171.55 164.618 171.136 164.75 170.711 164.837C170.377 164.908 170.039 164.957 169.698 164.985C169.117 165.021 168.534 165.021 167.953 164.985C166.921 164.936 165.892 164.821 164.875 164.642C161.077 163.952 157.357 162.886 153.77 161.461L154.599 158.308C158.233 158.743 161.94 159.206 165.435 159.366C166.305 159.366 167.152 159.407 167.941 159.366C168.293 159.348 168.643 159.304 168.988 159.235C169.274 159.184 169.52 159.08 169.435 159.086C169.377 159.106 169.324 159.132 169.274 159.167C169.217 159.201 169.163 159.241 169.114 159.287C169.114 159.287 169.143 159.241 169.166 159.19C169.24 159.026 169.297 158.856 169.337 158.68C169.465 158.051 169.517 157.41 169.492 156.769C169.408 155.13 169.165 153.503 168.765 151.912C168.376 150.195 167.873 148.525 167.323 146.825C166.774 145.126 166.179 143.427 165.527 141.733C164.874 140.04 164.188 138.341 163.512 136.744L169.515 134.021Z" fill="#7F3E3B"/>
<path d="M156.178 159.167L152.385 157.033L150.479 161.141C150.479 161.141 154.914 162.989 155.847 161.834L156.178 159.167Z" fill="#7F3E3B"/>
<path d="M149.313 157.811L147.58 160.557L150.48 161.112L152.386 157.004L149.313 157.811Z" fill="#7F3E3B"/>
<path d="M160.67 137.285C159.944 139.11 159.183 140.855 158.382 142.623C157.581 144.391 156.78 146.13 155.933 147.869C154.229 151.411 152.318 154.85 150.212 158.168C149.639 159.014 149.067 159.856 148.427 160.697C148.106 161.12 147.751 161.538 147.374 161.967C147.168 162.185 147.002 162.384 146.762 162.608L146.418 162.94L146.224 163.122C145.68 163.589 145.039 163.929 144.347 164.118C143.983 164.222 143.613 164.3 143.238 164.353C142.627 164.426 142.01 164.451 141.395 164.427C140.333 164.393 139.274 164.288 138.226 164.112C134.347 163.427 130.547 162.349 126.886 160.897L127.722 157.738C131.423 158.184 135.205 158.659 138.764 158.808C139.603 158.841 140.444 158.829 141.281 158.774C141.619 158.747 141.953 158.694 142.282 158.613C142.39 158.588 142.493 158.55 142.591 158.499C142.626 158.499 142.591 158.46 142.436 158.557C142.38 158.588 142.329 158.627 142.282 158.671C142.282 158.671 142.321 158.619 142.339 158.603L142.499 158.425C142.602 158.322 142.727 158.151 142.848 158.013C143.082 157.715 143.323 157.395 143.563 157.046C144.038 156.366 144.502 155.61 144.959 154.843C145.874 153.31 146.727 151.679 147.562 150.031C148.397 148.384 149.198 146.702 149.988 145.008C151.561 141.632 153.1 138.171 154.565 134.767L160.67 137.285Z" fill="#7F3E3B"/>
<path d="M129.346 158.563L125.547 156.4L123.642 160.508C123.642 160.508 128.076 162.362 129.014 161.206L129.346 158.563Z" fill="#7F3E3B"/>
<path d="M122.48 157.212L120.741 159.953L123.641 160.508L125.547 156.4L122.48 157.212Z" fill="#7F3E3B"/>
<path d="M170.494 116.986L168.068 119.795L164.366 123.625C164.442 123.813 164.544 124.058 164.649 124.318C164.934 125.024 165.102 125.773 165.143 126.533C165.223 128.068 165.076 129.367 162.655 130.407C162.655 130.407 160.115 133.726 166.156 132.805C172.199 131.883 173.108 128.748 173.108 128.748C170.431 126.843 170.282 120.51 170.494 116.986Z" fill="#7F3E3B"/>
<path d="M158.175 113.816C158.175 114.193 157.986 114.514 157.735 114.525C157.483 114.537 157.283 114.239 157.277 113.861C157.271 113.484 157.472 113.163 157.718 113.152C157.964 113.14 158.17 113.437 158.175 113.816Z" fill="#263238"/>
<path d="M159.44 112.408C159.365 112.408 159.296 112.369 159.257 112.305C158.958 111.813 158.445 111.487 157.873 111.424C157.75 111.418 157.655 111.317 157.655 111.195C157.658 111.072 157.761 110.975 157.884 110.978C158.607 111.042 159.256 111.445 159.634 112.065C159.698 112.17 159.668 112.306 159.566 112.374C159.527 112.396 159.484 112.408 159.44 112.408Z" fill="#263238"/>
<path d="M158.038 114.028C157.731 115.058 157.288 116.043 156.722 116.957C157.198 117.225 157.768 117.267 158.278 117.071L158.038 114.028Z" fill="#630F0F"/>
<path d="M170.837 111.911C170.614 116.579 170.717 119.348 168.399 121.82C166.142 124.308 162.296 124.494 159.808 122.237C158.896 121.41 158.257 120.324 157.975 119.125C156.922 114.989 157.472 108.049 161.98 105.966C165.021 104.46 168.707 105.704 170.214 108.744C170.699 109.726 170.914 110.818 170.837 111.911Z" fill="#7F3E3B"/>
<path d="M172.956 113.467C172.281 115.447 171.257 117.289 169.923 118.903L163.847 120.047C163.847 120.047 159.047 118.039 160.329 114.732C159.517 114.045 159.82 111.923 160.392 110.756C161.308 111.488 162.812 111.551 163.636 110.67C164.299 111.888 166.291 112.06 167.154 110.962C168.144 112.06 170.255 111.722 170.85 110.367C171.583 110.847 172.635 110.778 173.299 110.206C173.328 110.178 173.356 110.155 173.384 110.126C173.482 110.962 173.385 112.054 172.956 113.467Z" fill="#263238"/>
<path opacity="0.1" d="M172.956 113.467C172.281 115.447 171.257 117.289 169.923 118.903L163.847 120.047C163.847 120.047 159.047 118.039 160.329 114.732C159.517 114.045 159.82 111.923 160.392 110.756C161.308 111.488 162.812 111.551 163.636 110.67C164.299 111.888 166.291 112.06 167.154 110.962C168.144 112.06 170.255 111.722 170.85 110.367C171.583 110.847 172.635 110.778 173.299 110.206C173.328 110.178 173.356 110.155 173.384 110.126C173.482 110.962 173.385 112.054 172.956 113.467Z" fill="white"/>
<path d="M173.831 107.809C174.174 108.576 173.986 109.542 173.385 110.126C173.356 110.155 173.328 110.178 173.3 110.206C172.636 110.778 171.583 110.847 170.851 110.366C170.256 111.722 168.145 112.06 167.155 110.961C166.291 112.06 164.3 111.888 163.636 110.67C162.813 111.551 161.308 111.488 160.392 110.755C160.152 110.567 159.952 110.326 159.82 110.046C159.786 109.983 159.763 109.92 159.74 109.857C159.688 109.914 159.637 109.966 159.58 110.012C159.025 110.469 158.149 110.538 157.543 110.132C157.045 109.8 156.77 109.182 156.811 108.593C156.816 108.467 156.839 108.347 156.874 108.227C156.828 108.312 156.77 108.392 156.702 108.461C156.204 108.993 155.151 109.016 154.665 108.41C154.058 107.66 154.401 106.413 155.231 105.915C155.563 105.721 155.929 105.629 156.307 105.629C156.89 105.629 157.485 105.841 157.949 106.195C157.451 105.48 157.628 104.388 158.326 103.867C159.024 103.352 160.123 103.495 160.661 104.176C160.586 103.363 160.855 102.877 161.272 102.625C162.062 102.168 163.378 102.562 164.018 103.329C164.018 103.329 164.899 101.201 166.421 101.441C166.753 101.487 168.316 102.179 168.275 102.74C168.275 102.78 168.264 102.814 168.246 102.848C168.269 102.803 168.292 102.763 168.321 102.723C168.618 102.253 169.219 102.019 169.786 102.03C170.398 102.036 170.982 102.271 171.548 102.499C172.732 102.986 173.991 103.529 174.678 104.611C175.359 105.698 175.061 107.466 173.831 107.809Z" fill="#263238"/>
<path d="M163.01 115.165C162.844 116.318 162.315 117.389 161.5 118.221C160.464 119.21 159.583 118.221 159.572 116.716C159.572 115.354 160.081 113.197 161.288 112.797C162.495 112.397 163.233 113.684 163.01 115.165Z" fill="#7F3E3B"/>
<path d="M181.307 130.374C180.878 129.229 178.875 128.085 177.645 128.085H176.833C175.415 128.085 173.646 128.199 171.93 128.4C168.659 128.762 165.412 129.308 162.203 130.036C160.727 130.425 159.303 130.917 158.17 131.34C156.728 131.913 155.881 132.296 155.881 132.296C155.881 132.296 157.462 142.815 158.279 153.262C158.733 159.076 158.545 164.85 158.691 168.82H183.098C183.939 164.049 183.806 159.888 183.875 151.271C183.915 146.099 183.075 135.082 181.307 130.374Z" fill="#263238"/>
<path opacity="0.2" d="M157.751 147.423C157.933 149.614 158.122 151.914 158.323 154.214C161.184 150.037 162.769 138.611 162.769 138.611L157.751 147.423Z" fill="black"/>
<path d="M154.502 133.064C151.007 135.032 147.58 145.104 147.58 145.104L155.583 151.144C158.638 148.254 163.106 141.086 163.593 138.219C164.377 133.82 160.103 129.929 154.502 133.064Z" fill="#263238"/>
<path d="M147.594 235.587C147.594 236.961 146.48 238.076 145.105 238.076C143.73 238.076 142.616 236.962 142.616 235.587C142.616 234.212 143.73 233.098 145.105 233.098C146.48 233.098 147.594 234.212 147.594 235.587Z" fill="#263238"/>
<path d="M184.72 235.587C184.72 236.961 185.834 238.076 187.209 238.076C188.584 238.076 189.698 236.962 189.698 235.587C189.698 234.212 188.584 233.098 187.209 233.098C185.834 233.098 184.72 234.212 184.72 235.587Z" fill="#263238"/>
<path d="M163.735 234.791C163.735 236.166 164.849 237.28 166.224 237.28C167.598 237.28 168.712 236.166 168.712 234.791C168.712 233.417 167.598 232.302 166.224 232.302C164.849 232.302 163.735 233.417 163.735 234.791Z" fill="#263238"/>
<path d="M165.451 231.72V226.908H158.322C156.923 226.909 155.526 227.039 154.151 227.297L140.877 229.877C140.222 230.005 139.795 230.639 139.923 231.293C140.036 231.874 140.555 232.287 141.146 232.269L165.451 231.72Z" fill="#263238"/>
<path d="M165.451 231.72V226.908H172.586C173.985 226.909 175.381 227.039 176.757 227.297L191.675 229.682C192.329 229.811 192.757 230.444 192.629 231.099C192.516 231.68 191.998 232.093 191.406 232.075L165.451 231.72Z" fill="#263238"/>
<path d="M169.862 204.881H161.034V226.914H169.862V204.881Z" fill="#263238"/>
<path d="M168.597 194.628H162.304V204.875H168.597V194.628Z" fill="#263238"/>
<path opacity="0.5" d="M162.304 197.637L168.597 199.222V194.628H162.304V197.637Z" fill="black"/>
<path d="M145.106 171.445H141.908V185.091H145.106V171.445Z" fill="#263238"/>
<path d="M161.14 194.628V135.307C161.14 133.061 162.109 130.925 163.799 129.445L168.027 125.744C169.448 124.5 171.271 123.815 173.16 123.815H188.433L195.897 131.756V194.628H161.14Z" fill="#407BFF"/>
<path d="M138.4 183.151H173.243V194.628H132.725C130.449 194.63 128.604 192.787 128.602 190.512C128.601 189.772 128.801 189.046 129.178 188.409C131.106 185.149 134.613 183.149 138.4 183.151Z" fill="#407BFF"/>
<path opacity="0.7" d="M195.9 131.759V194.631H132.725C130.453 194.631 128.605 192.789 128.605 190.512C128.605 189.774 128.8 189.047 129.178 188.412C131.106 185.157 134.601 183.155 138.383 183.155H155.933C158.81 183.155 161.143 180.822 161.143 177.945V135.306C161.143 133.064 162.109 130.924 163.803 129.448L168.031 125.746C169.45 124.499 171.275 123.818 173.163 123.818H188.433L195.9 131.759Z" fill="white"/>
<path d="M166.224 194.628V135.307C166.224 133.061 167.193 130.925 168.882 129.445L173.111 125.744C174.531 124.5 176.355 123.815 178.243 123.815H190.147C192.298 123.815 194.353 124.703 195.825 126.271L198.867 129.507C200.224 130.952 200.98 132.86 200.98 134.843V188.688C200.98 191.968 198.322 194.628 195.041 194.628H166.224Z" fill="#407BFF"/>
<path opacity="0.5" d="M166.224 194.628V135.307C166.224 133.061 167.193 130.925 168.882 129.445L173.111 125.744C174.531 124.5 176.355 123.815 178.243 123.815H190.147C192.298 123.815 194.353 124.703 195.825 126.271L198.867 129.507C200.224 130.952 200.98 132.86 200.98 134.843V188.688C200.98 191.968 198.322 194.628 195.041 194.628H166.224Z" fill="white"/>
<path d="M154.369 175.61C147.33 173.152 139.666 173.152 132.627 175.61C131.166 176.161 129.524 175.534 128.8 174.151C128.148 172.772 129.024 170.987 130.797 170.363C139.016 167.491 147.968 167.491 156.188 170.363C157.962 170.981 158.837 172.772 158.185 174.151C157.46 175.527 155.826 176.152 154.369 175.61Z" fill="#407BFF"/>
<path opacity="0.7" d="M154.369 175.61C147.33 173.152 139.666 173.152 132.627 175.61C131.166 176.161 129.524 175.534 128.8 174.151C128.148 172.772 129.024 170.987 130.797 170.363C139.016 167.491 147.968 167.491 156.188 170.363C157.962 170.981 158.837 172.772 158.185 174.151C157.46 175.527 155.826 176.152 154.369 175.61Z" fill="white"/>
<path d="M65.4519 118.848C65.3317 119.185 65.4175 119.523 65.6407 119.597C65.8638 119.672 66.1384 119.466 66.2529 119.128C66.3673 118.791 66.2872 118.447 66.0698 118.373C65.8524 118.299 65.572 118.505 65.4519 118.848Z" fill="#263238"/>
<path d="M65.3889 119.197C65.4335 120.376 65.6395 121.542 66.0011 122.664C65.4175 122.831 64.791 122.735 64.2847 122.401L65.3889 119.197Z" fill="#A02724"/>
<path d="M64.9026 116.548C64.9455 116.562 64.9912 116.562 65.0342 116.548C65.5434 116.378 66.1035 116.463 66.5389 116.776C66.6338 116.845 66.766 116.824 66.8347 116.729C66.8953 116.645 66.8867 116.529 66.8135 116.456C66.2688 116.049 65.5611 115.932 64.914 116.141C64.8036 116.179 64.7447 116.299 64.7824 116.41C64.8036 116.472 64.8522 116.52 64.914 116.541L64.9026 116.548Z" fill="#263238"/>
<path d="M52.905 120.095C53.5458 123.35 54.1809 129.318 51.9038 131.492C51.9038 131.492 52.7963 134.793 58.8495 134.793C65.5035 134.793 62.0306 131.492 62.0306 131.492C58.3975 130.622 58.9823 127.927 59.6173 125.398L52.905 120.095Z" fill="#B55B52"/>
<path d="M54.387 114.191C53.197 118.447 52.2815 120.879 53.6432 123.745C55.6857 128.065 62.8231 128.625 64.7712 123.681C66.2531 119.128 67.7177 114.317 64.2163 111.244C61.7263 109.032 57.9148 109.258 55.7029 111.748C55.0804 112.449 54.6296 113.285 54.387 114.191Z" fill="#B55B52"/>
<path d="M49.7732 115.606C49.4631 114.038 49.3835 112.322 50.1668 110.928C50.9495 109.534 52.8467 108.68 54.2232 109.493C55.4116 106.987 58.2848 105.393 61.0402 105.711C63.7956 106.03 66.2295 108.237 66.8148 110.948C67.4001 113.659 66.0939 116.674 63.7155 118.101C64.0331 116.931 64.3506 115.761 64.6681 114.591C64.3952 116.208 63.5101 117.714 62.2303 118.738C62.4139 117.569 62.5981 116.399 62.7818 115.23C62.6142 116.882 61.6181 118.429 60.1837 119.265C60.4063 118.445 60.6283 117.627 60.8508 116.807C60.753 117.167 59.8628 119.743 59.5607 120.096C58.9989 120.75 58.6229 125.052 56.6508 125.188C49.9099 126.537 50.4969 119.269 49.7732 115.606Z" fill="#263238"/>
<path d="M58.8766 117.645C58.7621 118.737 59.0076 119.836 59.5746 120.775C60.3355 121.999 61.4512 121.53 61.8631 120.277C62.2293 119.133 62.2693 117.159 61.2109 116.364C60.1524 115.568 59.0368 116.329 58.8766 117.645Z" fill="#B55B52"/>
<path d="M42.7504 158.883C42.0215 158.642 38.6184 156.892 38.0766 157.204C39.6482 153.194 40.6277 152.579 41.3423 150.028C41.7417 148.602 41.4671 147.491 40.5814 146.305C39.5756 144.958 39.2231 144.275 37.5508 144.441C35.2508 148.287 32.3547 153.032 31.2213 157.368C30.8397 158.828 30.5633 159.935 31.4318 161.169C32.1968 162.256 33.6128 162.695 34.9367 162.814C38.1264 163.1 42.8562 162.514 42.7961 160.62C42.7589 159.426 42.7504 158.883 42.7504 158.883Z" fill="#B55B52"/>
<path d="M42.2092 158.742L44.9125 157.864L44.6722 162.745C44.6722 162.745 42.5078 162.823 41.355 161.375L42.2092 158.742Z" fill="#B55B52"/>
<path d="M48.2888 157.787L47.9009 161.812L44.6724 162.744L44.9127 157.863L48.2888 157.787Z" fill="#B55B52"/>
<path d="M79.2527 162.205C79.2527 162.205 75.4863 159.253 70.5396 149.495C69.8061 148.131 69.1047 146.755 68.4341 145.369C67.7613 143.969 67.1142 142.6 66.498 141.129L72.343 138.61C73.5479 141.233 75.4222 143.938 76.749 146.541C78.0758 149.145 81.2094 155.31 81.6013 155.885C81.7969 156.182 82.0075 156.427 82.21 156.701L82.5121 157.102L78.7412 161.461L79.2527 162.205Z" fill="#B55B52"/>
<path d="M84.1992 143.237L83.0281 141.841L82.4868 139.751L86.0175 136.471C86.0175 136.471 86.8728 137.522 87.469 138.655C87.5599 138.828 87.5994 139.024 87.5914 139.22L87.4478 142.895L84.1992 143.237Z" fill="#B55B52"/>
<path d="M82.5383 137.488L85.1804 135.086L86.0163 136.488L82.4868 139.751L82.5383 137.488Z" fill="#B55B52"/>
<path d="M84.2513 142.215C84.344 141.822 84.4252 142.593 84.6838 142.283C85.4648 141.348 86.5987 141.247 87.2727 142.26C87.9467 143.274 87.3706 153.485 86.2921 156.683C85.5758 158.808 85.1947 160.504 83.3627 161.796C82.6052 162.331 81.7161 162.734 80.7893 162.719C79.8624 162.706 78.9064 162.198 78.5562 161.339C78.0121 160.005 80.0318 155.2 80.7538 153.65C83.0172 148.791 83.1671 146.827 84.2513 142.215Z" fill="#B55B52"/>
<path d="M76.6793 141.776C78.2384 141.761 79.7974 141.746 81.3565 141.731C82.023 141.725 82.7142 141.712 83.3132 141.421C84.0982 141.039 84.5942 140.238 84.9112 139.425C85.5726 137.729 85.628 135.869 85.8907 134.067C86.1533 132.266 86.6951 130.386 88.0579 129.179C85.5743 129.509 81.1831 128.73 79.2756 130.765C78.2647 131.844 76.4882 141.778 76.6793 141.776Z" fill="#407BFF"/>
<path opacity="0.5" d="M76.6793 141.776C78.2384 141.761 79.7974 141.746 81.3565 141.731C82.023 141.725 82.7142 141.712 83.3132 141.421C84.0982 141.039 84.5942 140.238 84.9112 139.425C85.5726 137.729 85.628 135.869 85.8907 134.067C86.1533 132.266 86.6951 130.386 88.0579 129.179C85.5743 129.509 81.1831 128.73 79.2756 130.765C78.2647 131.844 76.4882 141.778 76.6793 141.776Z" fill="white"/>
<path d="M84.6783 134.832C84.4094 134.903 84.2326 135.863 84.2909 136.134L84.553 136.603L85.0873 138.922L86.8718 137.934L85.263 135.079C85.1468 134.873 84.9071 134.772 84.6783 134.832Z" fill="#B55B52"/>
<path d="M44.3596 132.309C40.183 133.265 34.0068 146.277 34.0068 146.277L42.3886 151.999C44.4735 149.009 47.3118 144.49 48.9098 141.214C51.3877 136.031 48.6277 131.331 44.3596 132.309Z" fill="#407BFF"/>
<path d="M50.4626 132.625C49.982 131.578 49.4613 130.382 50.5427 130.01C51.7384 129.598 58.2836 129.175 60.5379 129.947C61.776 130.284 62.506 131.561 62.1696 132.798C62.1656 132.813 62.1616 132.827 62.1576 132.842L50.4626 132.625Z" fill="#263238"/>
<path opacity="0.2" d="M46.9426 139.824L40.9844 151.04L42.3895 151.999C42.3895 151.999 45.0889 148.241 46.9426 144.991V139.824Z" fill="black"/>
<path d="M69.7546 138.035C70.6574 142.602 68.5485 153.463 68.5703 171.204H44.7523C44.5949 167.618 47.2033 159.129 43.9633 142.216C43.858 141.668 43.81 132.406 44.3598 132.31C46.6661 131.905 48.9935 131.63 51.3318 131.487C54.7046 131.29 58.0859 131.29 61.4586 131.487C62.8346 131.625 65.0076 132.481 66.3755 132.973C68.5125 133.742 69.314 135.807 69.7546 138.035Z" fill="#407BFF"/>
<path opacity="0.2" d="M63.4517 142.583C64.073 146.343 66.5383 151.31 68.9945 154.223C69.0918 152.09 69.3052 149.861 69.2995 148.15L63.4517 142.583Z" fill="black"/>
<path d="M61.7573 136.933C61.1852 141.15 69.4811 151.917 69.4811 151.917L77.8286 146.196C77.8286 146.196 75.5114 140.263 71.6152 136.372C67.1754 131.91 62.4095 132.345 61.7573 136.933Z" fill="#407BFF"/>
<path d="M89.041 230.26H93.4922L94.5049 219.944H90.0537L89.041 230.26Z" fill="#B55B52"/>
<path opacity="0.2" d="M94.4367 220.572L93.9218 225.887H89.4648L89.9855 220.572H94.4367Z" fill="black"/>
<path d="M71.4824 230.26H75.9336L78.1707 219.944H73.7195L71.4824 230.26Z" fill="#B55B52"/>
<g opacity="0.2">
<path opacity="0.2" d="M73.623 220.494H78.0748L76.9191 225.809H72.4673L73.623 220.494Z" fill="black"/>
</g>
<path d="M93.7444 228.26H88.887C88.7027 228.261 88.5431 228.427 88.5036 228.66L87.6226 233.754C87.5402 234.204 87.7553 234.655 88.1026 234.761C88.1552 234.777 88.2096 234.785 88.2633 234.784C90.0141 234.747 92.5486 234.613 94.7514 234.613C97.3317 234.613 99.5573 234.791 102.578 234.791C104.409 234.791 104.918 232.399 104.152 232.184C100.667 231.199 97.8237 231.096 94.8143 228.689C94.495 228.421 94.1243 228.272 93.7444 228.26Z" fill="#263238"/>
<path d="M97.2799 229.916C97.852 229.916 98.4242 229.836 98.5901 229.579C98.6868 229.44 98.6868 229.255 98.5901 229.115C98.514 228.995 98.3956 228.907 98.2583 228.869C97.5145 228.669 95.9697 229.555 95.8953 229.596C95.8553 229.616 95.8336 229.661 95.8439 229.704C95.8513 229.746 95.8828 229.78 95.924 229.79C96.3714 229.872 96.8251 229.915 97.2799 229.916ZM97.9894 229.053C98.0557 229.043 98.1232 229.043 98.1896 229.053C98.2771 229.069 98.3527 229.124 98.3956 229.202C98.47 229.333 98.4471 229.396 98.3956 229.431C98.1896 229.722 97.0625 229.728 96.2329 229.608C96.777 229.31 97.3732 229.122 97.9894 229.053Z" fill="#407BFF"/>
<path d="M95.9359 229.791H95.9817C96.5195 229.55 97.5837 228.589 97.4979 228.074C97.4979 227.954 97.3949 227.811 97.1088 227.777C96.9011 227.758 96.6952 227.824 96.5367 227.959C95.9645 228.423 95.8501 229.624 95.8444 229.676C95.8404 229.713 95.8553 229.75 95.8844 229.773C95.8999 229.783 95.9176 229.788 95.9359 229.791ZM97.023 227.988H97.0859C97.2747 227.988 97.2862 228.085 97.2919 228.108C97.3434 228.411 96.6168 229.167 96.0675 229.493C96.1133 228.989 96.313 228.511 96.6397 228.125C96.7461 228.034 96.8828 227.985 97.023 227.988Z" fill="#407BFF"/>
<path d="M76.2485 228.259H71.248C71.0655 228.261 70.9082 228.428 70.8704 228.659L69.9893 233.754C69.9132 234.214 70.1403 234.666 70.4956 234.765C70.5431 234.778 70.5923 234.784 70.6415 234.783C72.3865 234.746 73.239 234.613 75.436 234.613C76.792 234.613 78.5256 234.791 80.3964 234.791C82.2673 234.791 82.5076 232.399 81.741 232.184C78.3081 231.214 78.0736 229.873 76.9751 228.593C76.7725 228.37 76.5139 228.252 76.2485 228.259Z" fill="#263238"/>
<path d="M78.8629 230.483C79.2445 230.532 79.6295 230.427 79.9328 230.191C80.0403 230.042 80.0403 229.842 79.9328 229.693C79.8641 229.565 79.7428 229.476 79.6009 229.447C78.9487 229.292 77.7186 230.133 77.6671 230.168C77.6339 230.194 77.6168 230.235 77.6213 230.276C77.6299 230.317 77.6614 230.348 77.7014 230.357C78.083 230.44 78.4721 230.482 78.8629 230.483ZM79.435 229.636C79.4768 229.63 79.5191 229.63 79.5609 229.636C79.6438 229.648 79.7159 229.699 79.7554 229.773C79.8527 229.951 79.7955 230.019 79.7554 230.047C79.5666 230.293 78.6569 230.298 77.9875 230.19C78.4177 229.898 78.9092 229.709 79.4236 229.635H79.435V229.636Z" fill="#407BFF"/>
<path d="M77.7308 230.363H77.7766C78.24 230.111 79.1325 229.138 79.0353 228.646C79.0049 228.484 78.863 228.366 78.6977 228.366C78.5358 228.346 78.3739 228.396 78.2514 228.503C77.7365 228.927 77.6278 230.22 77.6221 230.265C77.6215 230.304 77.641 230.342 77.6736 230.363C77.6919 230.368 77.7119 230.368 77.7308 230.363ZM78.629 228.56H78.6748C78.8121 228.56 78.8236 228.641 78.8293 228.669C78.8865 228.96 78.3144 229.698 77.8567 230.047C77.8876 229.539 78.0712 229.053 78.383 228.651C78.4511 228.593 78.5386 228.56 78.629 228.56Z" fill="#407BFF"/>
<path d="M61.43 171.21C61.43 171.21 82.5126 179.913 86.8717 186.605C84.2794 203.62 79.6285 223.004 79.6285 223.004H71.6998C71.6998 223.004 71.4824 212.225 73.7526 197.967C74.8969 177.17 37.469 198.689 44.7408 171.209H61.43V171.21Z" fill="#263238"/>
<path opacity="0.3" d="M76.0056 185.552C74.5284 185.61 73.0637 185.835 71.6031 186.059C70.0629 186.297 68.5227 186.534 66.9819 186.771C69.3649 188.77 71.8811 190.61 74.5101 192.274C76.1052 193.283 77.8411 194.256 79.7285 194.265C81.8426 194.275 87.5874 191.55 86.6348 188.732C85.6684 185.877 78.4092 185.46 76.0056 185.552Z" fill="black"/>
<path d="M68.5704 171.21C68.5704 171.21 88.0579 173.723 98.8009 179.84C102.108 181.724 101.646 187.772 101.56 191.755C101.323 202.441 99.2689 213.008 95.4836 223.005H88.8698C88.8698 223.005 89.2073 212.208 88.9842 194.787C88.9155 189.564 78.3711 187.841 68.0669 187.235C59.1657 186.675 51.3526 181.117 47.9049 172.892L47.2012 171.21H68.5704V171.21Z" fill="#263238"/>
<path d="M97.1026 221.231C97.1369 221.231 96.6735 224.361 96.6735 224.361H87.5193L87.2676 221.569L97.1026 221.231Z" fill="#407BFF"/>
<path d="M80.3961 221.231C80.4304 221.231 79.555 224.361 79.555 224.361H70.4009L70.5668 221.569L80.3961 221.231Z" fill="#407BFF"/>
<path d="M55.796 186.997L49.2371 235.346L48.0527 235.184L53.115 186.631L55.796 186.997Z" fill="#407BFF"/>
<path opacity="0.4" d="M55.5614 188.728L49.2371 235.346L48.0527 235.184L52.897 188.722L55.5614 188.728Z" fill="black"/>
<path d="M78.8685 188.728H41.6797C41.6797 186.383 43.5803 184.482 45.9249 184.482H74.6232C76.9678 184.482 78.8685 186.384 78.8685 188.728Z" fill="#407BFF"/>
<path opacity="0.7" d="M78.8685 188.728H41.6797C41.6797 186.383 43.5803 184.482 45.9249 184.482H74.6232C76.9678 184.482 78.8685 186.384 78.8685 188.728Z" fill="white"/>
<path d="M43.4018 188.722L37.7949 235.729H38.9964L46.108 188.722H43.4018Z" fill="#407BFF"/>
<path d="M77.1463 188.722L82.7532 235.729H81.5517L74.4458 188.722H77.1463Z" fill="#407BFF"/>
<path opacity="0.4" d="M77.1463 188.722L82.7532 235.729H81.5517L74.4458 188.722H77.1463Z" fill="black"/>
<path d="M69.6457 188.722L69.7544 235.729H68.5586L66.9395 188.722H69.6457Z" fill="#407BFF"/>
</g>
</svg>
