<svg width="240" height="240" viewBox="0 0 240 240" fill="none" xmlns="http://www.w3.org/2000/svg">
<circle cx="120" cy="120" r="120" fill="#8CB5F3"/>
<mask id="mask0" mask-type="alpha" maskUnits="userSpaceOnUse" x="0" y="0" width="240" height="240">
<circle cx="120" cy="120" r="120" fill="#8CB5F3"/>
</mask>
<g mask="url(#mask0)">
<path d="M21.6922 86.5049C18.3911 59.8869 35.7827 45.0668 57.6763 48.4862C68.1757 50.1261 79.6862 63.2285 89.7946 67.0575C102.981 72.0522 115.077 69.0909 128.045 70.006C160.301 72.2821 158.678 85.3476 178.768 104.863C192.892 118.584 217.519 120.231 223.753 142.031C231.372 168.674 201.729 177.534 180.395 171.157C155.891 163.833 146.151 194.035 108.429 186.019C71.3226 178.133 26.1121 126.53 21.6922 86.5049Z" fill="#407BFF"/>
<path opacity="0.9" d="M21.6922 86.5049C18.3911 59.8869 35.7827 45.0668 57.6763 48.4862C68.1757 50.1261 79.6862 63.2285 89.7946 67.0575C102.981 72.0522 115.077 69.0909 128.045 70.006C160.301 72.2821 158.678 85.3476 178.768 104.863C192.892 118.584 217.519 120.231 223.753 142.031C231.372 168.674 201.729 177.534 180.395 171.157C155.891 163.833 146.151 194.035 108.429 186.019C71.3226 178.133 26.1121 126.53 21.6922 86.5049Z" fill="white"/>
<path opacity="0.1" d="M124.601 246C181.707 246 228 231.871 228 228.536C228 225.201 181.707 222.497 124.601 222.497C67.4958 222.497 21.2026 225.201 21.2026 228.536C21.2026 231.871 67.4958 246 124.601 246Z" fill="black"/>
<path d="M77.4936 64.8298H73.1089V65.3631H77.4936V64.8298Z" fill="#407BFF"/>
<path d="M69.3176 64.8298H54.2666V65.3631H69.3176V64.8298Z" fill="#407BFF"/>
<path d="M51.3184 148.774H158.667C161.095 148.774 162.905 146.788 162.688 144.36L156.162 71.1104C155.945 68.6823 153.782 66.6958 151.354 66.6958H44.0049C41.5768 66.6958 39.7674 68.6823 39.9839 71.1104L46.5103 144.36C46.7273 146.788 48.8903 148.774 51.3184 148.774Z" fill="#407BFF"/>
<path d="M51.6631 148.774H159.012C161.44 148.774 163.249 146.788 163.033 144.36L156.506 71.1104C156.29 68.6823 154.126 66.6958 151.698 66.6958H44.3496C41.9215 66.6958 40.1121 68.6823 40.3286 71.1104L46.855 144.36C47.0715 146.788 49.2351 148.774 51.6631 148.774Z" fill="#407BFF"/>
<path opacity="0.2" d="M51.6631 148.774H159.012C161.44 148.774 163.249 146.788 163.033 144.36L156.506 71.1104C156.29 68.6823 154.126 66.6958 151.698 66.6958H44.3496C41.9215 66.6958 40.1121 68.6823 40.3286 71.1104L46.855 144.36C47.0715 146.788 49.2351 148.774 51.6631 148.774Z" fill="black"/>
<path d="M151.895 68.9031H44.5463C44.4247 68.9031 44.3047 68.9084 44.1869 68.918C41.4463 69.1441 42.0783 73.3176 44.8476 73.3176H152.379C155.149 73.3176 155.037 69.1436 152.257 68.918C152.137 68.9084 152.016 68.9031 151.895 68.9031Z" fill="#407BFF"/>
<path d="M46.458 72.389C45.7648 72.389 45.1515 71.8258 45.0902 71.1336C45.0592 70.787 45.167 70.4601 45.3931 70.2126C45.6181 69.9663 45.9322 69.8308 46.2773 69.8308C46.97 69.8308 47.5833 70.394 47.6446 71.0862C47.6761 71.4328 47.5678 71.7597 47.3422 72.0072C47.1172 72.2535 46.8031 72.389 46.458 72.389ZM46.2773 70.3652C46.0837 70.3652 45.9093 70.4393 45.7861 70.5737C45.6624 70.7091 45.6037 70.8915 45.6208 71.0872C45.6587 71.5112 46.0336 71.8562 46.4575 71.8562C46.6511 71.8562 46.8255 71.7821 46.9487 71.6477C47.0719 71.5123 47.1311 71.3299 47.1135 71.1342C47.0761 70.7102 46.7007 70.3652 46.2773 70.3652Z" fill="#FAFAFA"/>
<path d="M49.9005 72.389C49.2078 72.389 48.594 71.8258 48.5332 71.1336C48.5017 70.787 48.61 70.4601 48.8356 70.2126C49.0606 69.9663 49.3752 69.8308 49.7197 69.8308C50.413 69.8308 51.0263 70.394 51.0876 71.0862C51.1186 71.4328 51.0103 71.7597 50.7847 72.0072C50.5597 72.2541 50.2456 72.389 49.9005 72.389ZM49.7197 70.3652C49.5267 70.3652 49.3523 70.4393 49.2291 70.5737C49.1049 70.7091 49.0462 70.8915 49.0638 71.0872C49.1011 71.5112 49.476 71.8562 49.9 71.8562C50.0936 71.8562 50.268 71.7821 50.3912 71.6477C50.5149 71.5123 50.5741 71.3299 50.5565 71.1342C50.5191 70.7102 50.1437 70.3652 49.7197 70.3652Z" fill="#FAFAFA"/>
<path d="M53.3429 72.389C52.6502 72.389 52.0369 71.8258 51.9756 71.1336C51.9441 70.787 52.0524 70.4601 52.2779 70.2126C52.5035 69.9668 52.8176 69.8308 53.1627 69.8308C53.8554 69.8308 54.4681 70.394 54.5305 71.0862C54.5615 71.4328 54.4532 71.7597 54.2276 72.0072C54.0021 72.2541 53.6879 72.389 53.3429 72.389ZM53.1627 70.3652C52.9691 70.3652 52.7947 70.4393 52.671 70.5737C52.5472 70.7091 52.4886 70.8915 52.5062 71.0872C52.5435 71.5112 52.9189 71.8562 53.3424 71.8562C53.536 71.8562 53.7103 71.7821 53.8341 71.6477C53.9578 71.5123 54.0165 71.3299 53.9989 71.1342C53.9615 70.7102 53.5861 70.3652 53.1627 70.3652Z" fill="#FAFAFA"/>
<path d="M53.3312 141.463H156.04C156.924 141.463 157.577 140.747 157.498 139.863L152.131 79.6253C152.052 78.7416 151.272 78.0249 150.387 78.0249H47.6783C46.7946 78.0249 46.1419 78.7416 46.2208 79.6253L51.5884 139.863C51.6668 140.747 52.447 141.463 53.3312 141.463Z" fill="white"/>
<path d="M89.0046 189.372C90.4359 193.741 88.4921 197.282 84.1191 197.282C108.344 197.282 132.57 197.282 156.795 197.282C161.166 197.282 163.112 193.74 161.679 189.372C137.455 189.372 113.23 189.372 89.0046 189.372Z" fill="#263238"/>
<path d="M57.8804 82.4768C73.4566 118.108 61.4134 153.74 73.1836 189.372C73.1841 189.372 73.1841 189.372 73.1836 189.372C74.6149 193.74 79.7542 197.282 84.1192 197.282C88.4916 197.282 90.436 193.74 89.0047 189.372C110.593 189.372 132.181 189.372 153.769 189.372C141.999 153.74 154.042 118.108 138.466 82.4768C111.604 82.4768 84.7421 82.4768 57.8804 82.4768Z" fill="#407BFF"/>
<path opacity="0.8" d="M57.8804 82.4768C73.4566 118.108 61.4134 153.74 73.1836 189.372C73.1841 189.372 73.1841 189.372 73.1836 189.372C74.6149 193.74 79.7542 197.282 84.1192 197.282C88.4916 197.282 90.436 193.74 89.0047 189.372C110.593 189.372 132.181 189.372 153.769 189.372C141.999 153.74 154.042 118.108 138.466 82.4768C111.604 82.4768 84.7421 82.4768 57.8804 82.4768Z" fill="white"/>
<path d="M92.2485 109.497C85.7157 109.497 79.1829 109.497 72.6501 109.497C71.751 102.964 70.3618 96.4317 68.1636 89.8989C74.6964 89.8989 81.2291 89.8989 87.7619 89.8989C89.9601 96.4317 91.3493 102.964 92.2485 109.497Z" fill="#407BFF"/>
<path opacity="0.6" d="M145.036 183.92C130.46 183.92 115.884 183.92 101.307 183.92C99.4105 176.789 98.3631 169.657 97.752 162.526C112.328 162.526 126.905 162.526 141.482 162.526C142.093 169.657 143.141 176.789 145.036 183.92Z" fill="#407BFF"/>
<g opacity="0.8">
<path opacity="0.8" d="M134.92 92.0753C120.344 92.0753 105.768 92.0753 91.1906 92.0753C90.9661 91.3495 90.732 90.6242 90.4883 89.8984C105.065 89.8984 119.641 89.8984 134.218 89.8984C134.461 90.6237 134.696 91.3495 134.92 92.0753Z" fill="#407BFF"/>
<path opacity="0.8" d="M136.487 97.736C121.91 97.736 107.334 97.736 92.7572 97.736C92.5791 97.0102 92.3924 96.2849 92.1973 95.5591C106.774 95.5591 121.351 95.5591 135.927 95.5591C136.122 96.2854 136.309 97.0107 136.487 97.736Z" fill="#407BFF"/>
<path opacity="0.8" d="M127.877 103.397C116.578 103.397 105.281 103.397 93.9829 103.397C93.8458 102.671 93.7018 101.945 93.5493 101.22C104.847 101.22 116.145 101.22 127.443 101.22C127.595 101.945 127.739 102.671 127.877 103.397Z" fill="#407BFF"/>
</g>
<g opacity="0.2">
<path opacity="0.2" d="M139.498 116.558C124.921 116.558 110.345 116.558 95.7682 116.558C95.7255 116.08 95.6807 115.602 95.6338 115.124C110.21 115.124 124.787 115.124 139.363 115.124C139.41 115.602 139.455 116.08 139.498 116.558Z" fill="#407BFF"/>
<path opacity="0.2" d="M139.793 120.287C125.216 120.287 110.64 120.287 96.0635 120.287C96.0299 119.809 95.9952 119.332 95.959 118.853C110.535 118.853 125.112 118.853 139.689 118.853C139.725 119.332 139.76 119.809 139.793 120.287Z" fill="#407BFF"/>
<path opacity="0.2" d="M127.873 124.018C117.346 124.018 106.819 124.018 96.2904 124.018C96.2648 123.54 96.2382 123.062 96.2104 122.584C106.738 122.584 117.265 122.584 127.793 122.584C127.821 123.062 127.848 123.539 127.873 124.018Z" fill="#407BFF"/>
<path opacity="0.2" d="M140.191 127.747C125.614 127.747 111.037 127.747 96.4611 127.747C96.4424 127.27 96.4222 126.791 96.4014 126.313C110.978 126.313 125.554 126.313 140.131 126.313C140.152 126.791 140.172 127.269 140.191 127.747Z" fill="#407BFF"/>
<path opacity="0.2" d="M140.319 131.477C125.743 131.477 111.166 131.477 96.5893 131.477C96.5749 130.999 96.5594 130.521 96.5439 130.043C111.121 130.043 125.697 130.043 140.274 130.043C140.29 130.521 140.304 130.999 140.319 131.477Z" fill="#407BFF"/>
<path opacity="0.2" d="M106.672 135.207C103.344 135.207 100.016 135.207 96.6875 135.207C96.6763 134.729 96.6646 134.251 96.6528 133.773C99.9805 133.773 103.308 133.773 106.637 133.773C106.649 134.251 106.661 134.729 106.672 135.207Z" fill="#407BFF"/>
<path opacity="0.2" d="M140.5 138.937C125.923 138.937 111.347 138.937 96.7701 138.937C96.76 138.459 96.7504 137.981 96.7397 137.503C111.316 137.503 125.892 137.503 140.469 137.503C140.48 137.981 140.49 138.459 140.5 138.937Z" fill="#407BFF"/>
<path opacity="0.2" d="M140.579 142.667C126.003 142.667 111.426 142.667 96.8493 142.667C96.8386 142.189 96.8285 141.711 96.8184 141.233C111.395 141.233 125.971 141.233 140.548 141.233C140.558 141.711 140.568 142.189 140.579 142.667Z" fill="#407BFF"/>
<path opacity="0.2" d="M140.667 146.396C126.091 146.396 111.514 146.396 96.9376 146.396C96.9253 145.919 96.9131 145.44 96.9019 144.962C111.478 144.962 126.055 144.962 140.631 144.962C140.643 145.44 140.655 145.918 140.667 146.396Z" fill="#407BFF"/>
<path opacity="0.2" d="M140.779 150.127C126.203 150.127 111.626 150.127 97.0493 150.127C97.0333 149.649 97.0173 149.17 97.0029 148.693C111.579 148.693 126.156 148.693 140.733 148.693C140.747 149.17 140.763 149.649 140.779 150.127Z" fill="#407BFF"/>
<path opacity="0.2" d="M140.926 153.856C126.35 153.856 111.773 153.856 97.1966 153.856C97.1748 153.378 97.1545 152.9 97.1348 152.422C111.711 152.422 126.288 152.422 140.864 152.422C140.884 152.9 140.904 153.378 140.926 153.856Z" fill="#407BFF"/>
<path opacity="0.2" d="M115.851 157.586C109.699 157.586 103.547 157.586 97.3941 157.586C97.3648 157.108 97.3376 156.63 97.312 156.152C103.464 156.152 109.617 156.152 115.769 156.152C115.795 156.63 115.822 157.108 115.851 157.586Z" fill="#407BFF"/>
</g>
<path d="M187.695 93.4429C188.174 94.0279 188.581 94.5478 188.992 95.1147C189.402 95.6709 189.802 96.2304 190.193 96.7972C190.974 97.9321 191.718 99.0931 192.416 100.292C193.108 101.497 193.786 102.711 194.378 103.995C194.983 105.27 195.542 106.579 195.988 107.974L196.159 108.493L196.202 108.623L196.267 108.847C196.316 109.016 196.348 109.176 196.377 109.339C196.491 109.986 196.472 110.556 196.415 111.069C196.284 112.093 195.989 112.903 195.675 113.649C195.037 115.127 194.228 116.331 193.398 117.485C191.701 119.766 189.833 121.722 187.745 123.558L185.575 121.572C187.005 119.457 188.425 117.242 189.583 115.066C190.164 113.984 190.664 112.87 190.972 111.874C191.121 111.383 191.201 110.91 191.19 110.614C191.188 110.47 191.166 110.371 191.147 110.369C191.141 110.369 191.141 110.367 191.138 110.379C191.132 110.373 191.147 110.41 191.129 110.367L191.084 110.264L190.909 109.853C189.983 107.663 188.725 105.485 187.382 103.36C186.707 102.297 185.992 101.248 185.272 100.204C184.563 99.1698 183.775 98.1123 183.067 97.1642L187.695 93.4429Z" fill="#FF8B7B"/>
<path d="M186.914 120.904L183.342 121.94L186.189 125.27C186.189 125.27 188.597 124.13 188.354 122.248L186.914 120.904Z" fill="#FF8B7B"/>
<path d="M180.78 124.804L184.019 127.383L186.188 125.27L183.342 121.94L180.78 124.804Z" fill="#FF8B7B"/>
<path d="M167.6 76.8301C167.806 76.8301 167.974 76.5742 167.974 76.2584C167.974 75.9427 167.806 75.6868 167.6 75.6868C167.393 75.6868 167.226 75.9427 167.226 76.2584C167.226 76.5742 167.393 76.8301 167.6 76.8301Z" fill="#263238"/>
<path d="M167.835 76.8308C167.835 76.8308 167.117 78.6541 166.326 79.5335C166.885 80.0556 167.835 79.8167 167.835 79.8167V76.8308Z" fill="#A02724"/>
<path d="M169.094 74.5076C169.056 74.5076 169.018 74.4964 168.985 74.4729C168.314 73.9892 167.674 74.2281 167.667 74.2302C167.572 74.267 167.464 74.2196 167.427 74.1241C167.39 74.0287 167.438 73.9209 167.533 73.8841C167.567 73.8713 168.369 73.5711 169.202 74.1716C169.286 74.2313 169.304 74.3476 169.244 74.4308C169.208 74.4804 169.151 74.5076 169.094 74.5076Z" fill="#263238"/>
<path d="M178.173 79.9019C177.611 82.7683 177.05 88.0196 179.055 89.9319C179.055 89.9319 178.271 92.8394 172.946 92.8394C167.09 92.8394 170.147 89.9325 170.147 89.9325C173.343 89.1693 173.261 86.7978 172.704 84.5708L178.173 79.9019Z" fill="#FF8B7B"/>
<path d="M179.822 90.9298C180.242 90.0093 180.704 88.9561 179.748 88.6265C178.696 88.2633 172.939 87.8932 170.955 88.5748C168.969 89.2563 169.532 91.1228 169.532 91.1228L179.822 90.9298Z" fill="#407BFF"/>
<path d="M198.336 217.221C198.03 217.481 197.694 217.686 197.451 217.633C197.349 217.611 197.217 217.534 197.169 217.295C197.143 217.17 197.171 217.051 197.251 216.941C197.6 216.467 198.905 216.334 198.96 216.328C198.996 216.324 199.031 216.343 199.049 216.375C199.067 216.406 199.065 216.445 199.044 216.475C198.922 216.643 198.644 216.96 198.336 217.221ZM197.479 216.969C197.448 216.996 197.421 217.024 197.4 217.052C197.351 217.118 197.335 217.186 197.35 217.259C197.385 217.429 197.464 217.447 197.49 217.452C197.761 217.511 198.373 216.997 198.756 216.542C198.364 216.602 197.751 216.739 197.479 216.969Z" fill="#407BFF"/>
<path d="M199.028 216.492C199.017 216.502 199.003 216.509 198.987 216.512C198.536 216.607 197.383 216.459 197.163 216.073C197.124 216.002 197.08 215.86 197.231 215.696C197.33 215.589 197.457 215.534 197.61 215.531C198.198 215.52 199 216.321 199.034 216.356C199.058 216.38 199.067 216.415 199.057 216.448C199.052 216.466 199.042 216.481 199.028 216.492ZM197.398 215.793C197.387 215.802 197.378 215.811 197.368 215.822C197.286 215.911 197.313 215.96 197.325 215.981C197.455 216.21 198.255 216.381 198.76 216.353C198.512 216.131 197.99 215.71 197.613 215.717C197.527 215.719 197.456 215.744 197.398 215.793Z" fill="#407BFF"/>
<path d="M168.959 224.737C168.457 224.737 167.971 224.668 167.809 224.442C167.752 224.363 167.707 224.228 167.816 224.036C167.878 223.929 167.977 223.855 168.111 223.819C168.762 223.642 170.132 224.422 170.19 224.455C170.223 224.475 170.241 224.513 170.235 224.551C170.229 224.589 170.2 224.619 170.161 224.627C169.911 224.677 169.428 224.737 168.959 224.737ZM168.338 223.977C168.273 223.977 168.213 223.983 168.159 223.998C168.073 224.021 168.014 224.065 167.977 224.129C167.911 224.244 167.935 224.301 167.959 224.334C168.142 224.587 169.132 224.592 169.86 224.49C169.497 224.303 168.796 223.977 168.338 223.977Z" fill="#407BFF"/>
<path d="M170.143 224.629C170.13 224.629 170.117 224.626 170.105 224.621C169.632 224.408 168.695 223.561 168.767 223.118C168.784 223.014 168.858 222.885 169.112 222.859C169.301 222.84 169.475 222.893 169.627 223.018C170.125 223.428 170.231 224.483 170.235 224.527C170.238 224.56 170.224 224.592 170.197 224.612C170.181 224.623 170.162 224.629 170.143 224.629ZM169.187 223.041C169.169 223.041 169.15 223.041 169.131 223.043C168.964 223.06 168.954 223.126 168.95 223.148C168.907 223.414 169.544 224.079 170.027 224.37C169.976 224.061 169.837 223.43 169.509 223.161C169.411 223.081 169.305 223.041 169.187 223.041Z" fill="#407BFF"/>
<path d="M174.451 224.536H170.533L170.143 215.464H174.061L174.451 224.536Z" fill="#FF8B7B"/>
<path d="M202.983 215.348L199.193 216.338L194.994 208.057L198.785 207.068L202.983 215.348Z" fill="#FF8B7B"/>
<path d="M198.898 215.886L202.254 213.039C202.376 212.935 202.554 212.93 202.682 213.027L205.524 215.181C205.819 215.405 205.824 215.849 205.538 216.084C204.349 217.058 203.722 217.472 202.246 218.725C201.338 219.495 198.601 222.141 197.347 223.205C196.121 224.246 194.877 223.168 195.295 222.62C197.17 220.164 198.394 217.77 198.568 216.482C198.601 216.249 198.719 216.038 198.898 215.886Z" fill="#263238"/>
<path d="M170.559 224.083H174.837C174.997 224.083 175.136 224.193 175.171 224.35L175.945 227.832C176.025 228.193 175.751 228.535 175.381 228.529C173.837 228.503 171.607 228.412 169.667 228.412C167.399 228.412 166.408 228.536 163.748 228.536C162.14 228.536 161.693 226.91 162.367 226.763C165.431 226.092 166.966 226.02 169.614 224.388C169.903 224.21 170.221 224.083 170.559 224.083Z" fill="#263238"/>
<path d="M165.094 98.6316C163.791 100.939 162.427 103.12 160.964 105.293C159.499 107.455 157.957 109.577 156.262 111.637C156.054 111.895 155.831 112.149 155.613 112.404L155.285 112.787L155.121 112.978L154.847 113.268C154.097 114.027 153.346 114.48 152.626 114.846C151.187 115.563 149.82 115.945 148.463 116.25C145.747 116.83 143.13 117.028 140.427 116.972L140.133 114.046C142.511 113.406 144.951 112.694 147.15 111.84C148.239 111.405 149.297 110.92 150.095 110.385C150.483 110.119 150.797 109.834 150.919 109.652L151.37 109.034C151.549 108.787 151.73 108.545 151.904 108.29C153.318 106.284 154.679 104.186 156.008 102.061C157.34 99.9477 158.669 97.7746 159.95 95.6638L165.094 98.6316Z" fill="#FF8B7B"/>
<path d="M186.394 90.8178C190.067 91.6599 194.277 101.671 194.277 101.671L186.902 106.725C186.902 106.725 184.109 102.817 182.032 98.4443C179.855 93.8618 182.64 89.9571 186.394 90.8178Z" fill="#263238"/>
<path opacity="0.3" d="M183.763 97.2012L187.251 106.485L186.904 106.725C186.904 106.725 185.395 104.608 183.763 101.75V97.2012Z" fill="black"/>
<path d="M164.447 91.0194C164.447 91.0194 160.277 95.7294 164.214 124.882C170.528 124.882 182.096 124.882 185.169 124.882C185.313 121.665 183.292 105.974 186.395 90.8178C186.395 90.8178 182.803 90.0968 179.38 89.932C176.703 89.8029 172.826 89.7176 170.473 89.932C167.369 90.2152 164.447 91.0194 164.447 91.0194Z" fill="#263238"/>
<path opacity="0.3" d="M166.772 99.4475C166.703 99.5328 166.244 104.263 162.634 108.417C162.549 106.54 162.516 104.855 162.522 103.346L166.772 99.4475Z" fill="black"/>
<path d="M168.579 94.1955C169.097 97.9056 161.787 107.382 161.787 107.382L154.443 102.327C154.443 102.327 156.478 97.1046 159.909 93.6825C163.826 89.7745 168.017 90.158 168.579 94.1955Z" fill="#263238"/>
<path d="M140.369 114.013L136.265 113.516L136.378 118.519C136.378 118.519 139.61 118.797 141.367 116.549L140.369 114.013Z" fill="#FF8B7B"/>
<path d="M132.167 114.737L133.766 118.786L136.378 118.519L136.265 113.517L132.167 114.737Z" fill="#FF8B7B"/>
<path opacity="0.2" d="M170.144 215.466L170.363 220.567H174.282L174.063 215.466H170.144Z" fill="black"/>
<path opacity="0.2" d="M198.787 207.069L194.995 208.06L197.321 212.644L200.953 211.337L198.787 207.069Z" fill="black"/>
<path d="M178.513 75.5886C178.275 79.4693 178.333 81.7529 176.373 83.7447C173.424 86.7412 168.634 84.9638 167.708 81.09C166.874 77.6028 167.404 71.8422 171.203 70.2978C174.946 68.7764 178.752 71.7078 178.513 75.5886Z" fill="#FF8B7B"/>
<path d="M171.507 77.3997C169.458 76.9848 170.203 74.521 170.707 73.7973C170.026 73.6667 169.818 72.6593 170.321 72.215C169.463 72.215 167.292 72.0668 167.414 69.5187C167.537 66.9707 169.136 67.2672 169.729 68.7188C170.084 67.3856 171.714 65.8156 173.936 66.3782C176.158 66.9408 174.202 68.0671 174.202 68.0671C174.202 68.0671 179.055 67.0896 178.38 69.5779C180.48 69.6963 183.535 71.6359 181.995 73.3179C182.909 75.1183 182.765 76.3502 181.609 76.8301C181.211 78.9995 178.909 83.1474 177.161 83.1474C175.739 83.148 171.626 81.1919 171.507 77.3997Z" fill="#263238"/>
<path d="M173.253 76.6439C173.084 77.6481 172.512 78.5488 171.881 79.1104C170.932 79.9546 170.108 79.2773 170.08 78.1217C170.055 77.0812 170.518 75.3886 171.612 74.9838C172.689 74.5854 173.446 75.4958 173.253 76.6439Z" fill="#FF8B7B"/>
<path d="M171.647 124.882C171.647 124.882 176.094 154.822 178.534 166.039C181.208 178.321 194.809 211.186 194.809 211.186L201.634 208.985C201.634 208.985 191.813 179.314 190.288 167.153C188.633 153.954 185.169 124.883 185.169 124.883H171.647V124.882Z" fill="#407BFF"/>
<path d="M193.359 209.74C193.33 209.75 194.925 212.126 194.925 212.126L202.593 209.601L201.683 207.311L193.359 209.74Z" fill="#263238"/>
<path opacity="0.3" d="M174.457 135.549C179.598 136.557 179.054 155.729 178.435 165.589C176.953 158.619 174.782 145.207 173.3 135.688C173.641 135.517 174.025 135.464 174.457 135.549Z" fill="black"/>
<path d="M164.214 124.882C164.214 124.882 162.358 154.174 162.783 166.121C163.226 178.548 168.884 219.237 168.884 219.237H175.521C175.521 219.237 174.447 179.274 174.742 167.07C175.064 153.765 177.988 124.883 177.988 124.883H164.214V124.882Z" fill="#407BFF"/>
<path d="M167.608 216.593C167.577 216.593 167.982 219.349 167.982 219.349H176.055L176.274 216.89L167.608 216.593Z" fill="#263238"/>
</g>
</svg>
