<svg width="240" height="240" viewBox="0 0 240 240" fill="none" xmlns="http://www.w3.org/2000/svg">
<circle cx="120" cy="120" r="120" fill="#8CB5F3"/>
<mask id="mask0" mask-type="alpha" maskUnits="userSpaceOnUse" x="0" y="0" width="240" height="240">
<circle cx="120" cy="120" r="120" fill="#8CB5F3"/>
</mask>
<g mask="url(#mask0)">
<path d="M130.516 103.967C107.654 86.3728 69.2385 45.8746 45.7695 82.3714C22.4727 118.601 67.1276 163.594 95.2593 175.866C123.698 188.271 200.191 188.143 193.575 142.275C189.023 110.715 155.768 123.402 130.516 103.967Z" fill="#407BFF"/>
<path opacity="0.9" d="M130.516 103.967C107.654 86.3728 69.2385 45.8746 45.7695 82.3714C22.4727 118.601 67.1276 163.594 95.2593 175.866C123.698 188.271 200.191 188.143 193.575 142.275C189.023 110.715 155.768 123.402 130.516 103.967Z" fill="white"/>
<path opacity="0.1" d="M121.151 240.001C176.041 240.001 220.539 237.402 220.539 234.197C220.539 230.991 176.041 228.392 121.151 228.392C66.2602 228.392 21.7627 230.991 21.7627 234.197C21.7627 237.402 66.2602 240.001 121.151 240.001Z" fill="black"/>
<path d="M116.324 143.542H70.1517C67.2217 143.542 64.6289 141.144 64.3906 138.214L62.0793 109.823C61.8404 106.893 64.043 104.495 66.9731 104.495H113.146C116.076 104.495 118.669 106.893 118.907 109.823L121.218 138.214C121.457 141.144 119.255 143.542 116.324 143.542Z" fill="white"/>
<path d="M116.324 143.763H70.1518C67.1013 143.763 64.4173 141.282 64.1692 138.232L61.8579 109.841C61.7374 108.358 62.207 106.96 63.1804 105.903C64.1497 104.852 65.4969 104.273 66.9732 104.273H113.146C116.196 104.273 118.88 106.755 119.128 109.805L121.44 138.196C121.56 139.679 121.091 141.077 120.117 142.133C119.148 143.184 117.801 143.763 116.324 143.763ZM66.9732 104.717C65.6219 104.717 64.3907 105.246 63.5069 106.204C62.6181 107.168 62.1901 108.447 62.3003 109.805L64.6116 138.196C64.8418 141.021 67.3268 143.319 70.1518 143.319H116.324C117.676 143.319 118.907 142.791 119.791 141.832C120.679 140.868 121.108 139.589 120.997 138.232L118.686 109.841C118.456 107.016 115.971 104.717 113.146 104.717H66.9732Z" fill="#407BFF"/>
<path d="M103.795 135.253C101.984 137.224 99.6437 138.639 97.0079 139.364L96.2437 137.175C101.928 135.621 105.777 130.32 105.264 124.02C104.958 120.26 103.158 116.854 100.493 114.39L101.965 112.787C108.629 118.95 109.455 129.09 103.795 135.253Z" fill="#E0E0E0"/>
<path d="M101.965 112.788L100.493 114.391C97.8281 111.926 94.2989 110.404 90.5384 110.404C86.778 110.404 83.4973 111.931 81.2377 114.395L79.4995 112.788C82.2363 109.809 86.1444 108.135 90.3534 108.135C94.567 108.135 98.7436 109.809 101.965 112.788Z" fill="#263238"/>
<path d="M97.0078 139.363C91.6526 140.828 85.6649 139.257 81.3298 135.252C74.6701 129.09 73.8443 118.949 79.5008 112.787L81.2391 114.394C78.9759 116.859 77.7298 120.259 78.0358 124.02C78.6479 131.536 85.2399 137.632 92.7562 137.632C93.9726 137.632 95.145 137.472 96.2445 137.174L97.0078 139.363Z" fill="#407BFF"/>
<path d="M53.43 58.6042H49.728V59.0476H53.43V58.6042Z" fill="#407BFF"/>
<path d="M46.1392 58.6042H37.71V59.0476H46.1392V58.6042Z" fill="#407BFF"/>
<path d="M85.342 99.4105H39.1688C36.2388 99.4105 33.646 97.0131 33.4077 94.0825L31.0963 65.692C30.8575 62.762 33.0601 60.364 35.9902 60.364H82.1629C85.0929 60.364 87.6856 62.762 87.924 65.692L90.2353 94.083C90.4742 97.0131 88.2721 99.4105 85.342 99.4105Z" fill="white"/>
<path d="M85.3422 99.6322H39.169C36.1185 99.6322 33.4345 97.1507 33.1864 94.1007L30.8756 65.7097C30.7546 64.2268 31.2242 62.8284 32.1981 61.7724C33.1675 60.7206 34.5146 60.1418 35.9909 60.1418H82.1636C85.2141 60.1418 87.8981 62.6234 88.1461 65.6733L90.4575 94.0644C90.5779 95.5478 90.1084 96.9457 89.135 98.0022C88.1656 99.0535 86.8185 99.6322 85.3422 99.6322ZM35.9904 60.5858C34.6391 60.5858 33.4084 61.1143 32.5236 62.0733C31.6353 63.037 31.2073 64.3155 31.3175 65.6733L33.6288 94.0644C33.859 96.8898 36.3441 99.1883 39.169 99.1883H85.3417C86.6929 99.1883 87.9237 98.6604 88.8079 97.7013C89.6963 96.7371 90.1248 95.4586 90.0146 94.1007L87.7033 65.7097C87.4731 62.8843 84.9875 60.5858 82.1631 60.5858H35.9904Z" fill="#407BFF"/>
<path d="M35.2725 68.5109H59.7401L59.5427 66.094H35.0757L35.2725 68.5109Z" fill="#E0E0E0"/>
<path d="M84.2074 68.5107H59.7398L59.5425 66.0938H84.0105L84.2074 68.5107Z" fill="#407BFF"/>
<path d="M35.7847 74.8034H42.7648L42.568 72.386H35.5879L35.7847 74.8034Z" fill="#E0E0E0"/>
<path d="M84.7202 74.8034H42.7647L42.5679 72.386H84.5229L84.7202 74.8034Z" fill="#407BFF"/>
<path d="M36.2964 81.0956H58.0759L57.8791 78.6787H36.0996L36.2964 81.0956Z" fill="#E0E0E0"/>
<path d="M85.2324 81.0956H58.0762L57.8794 78.6787H85.0355L85.2324 81.0956Z" fill="#407BFF"/>
<path d="M36.8091 87.3884H73.9795L73.7821 84.9709H36.6123L36.8091 87.3884Z" fill="#E0E0E0"/>
<path d="M85.7443 87.3884H73.9796L73.7822 84.9709H85.5475L85.7443 87.3884Z" fill="#407BFF"/>
<path d="M37.3213 93.6804H54.513L54.3162 91.2629H37.1245L37.3213 93.6804Z" fill="#E0E0E0"/>
<path d="M86.2567 93.6804H54.5128L54.3159 91.2629H86.0594L86.2567 93.6804Z" fill="#407BFF"/>
<path d="M148.463 99.4105H102.29C99.3593 99.4105 96.7671 97.0131 96.5287 94.0825L94.2174 65.6915C93.979 62.7615 96.1812 60.3635 99.1112 60.3635H145.284C148.214 60.3635 150.807 62.7615 151.045 65.6915L153.356 94.0825C153.595 97.0131 151.393 99.4105 148.463 99.4105Z" fill="white"/>
<path d="M148.463 99.6322H102.29C99.2395 99.6322 96.5555 97.1507 96.3074 94.1007L93.9961 65.7097C93.8756 64.2263 94.3452 62.8284 95.3186 61.7719C96.2879 60.7206 97.6345 60.1418 99.1108 60.1418H145.284C148.335 60.1418 151.019 62.6234 151.267 65.6733L153.578 94.0644C153.699 95.5473 153.229 96.9457 152.255 98.0017C151.287 99.0535 149.939 99.6322 148.463 99.6322ZM99.1108 60.5858C97.7601 60.5858 96.5288 61.1137 95.6446 62.0728C94.7563 63.037 94.3277 64.3155 94.4379 65.6733L96.7493 94.0644C96.9794 96.8898 99.465 99.1883 102.289 99.1883H148.462C149.813 99.1883 151.044 98.6598 151.928 97.7008C152.817 96.7371 153.245 95.4586 153.135 94.1007L150.823 65.7097C150.593 62.8843 148.108 60.5858 145.283 60.5858H99.1108Z" fill="#407BFF"/>
<path d="M125.317 93.6805H124.503L122.256 66.0938H123.071L125.317 93.6805Z" fill="#E0E0E0"/>
<path d="M126.548 82.2177H121.405L120.528 71.4392H125.67L126.548 82.2177Z" fill="#407BFF"/>
<path d="M115.197 93.6805H114.382L112.136 66.0938H112.951L115.197 93.6805Z" fill="#E0E0E0"/>
<path d="M116.622 84.6116H111.48L110.71 75.1633H115.853L116.622 84.6116Z" fill="#407BFF"/>
<path d="M105.077 93.6805H104.262L102.016 66.0938H102.831L105.077 93.6805Z" fill="#E0E0E0"/>
<path d="M105.869 76.8386H100.727L100.199 70.3511H105.341L105.869 76.8386Z" fill="#263238"/>
<path d="M135.438 93.6805H134.623L132.377 66.0938H133.192L135.438 93.6805Z" fill="#E0E0E0"/>
<path d="M137.167 88.3356H132.024L130.648 71.4392H135.791L137.167 88.3356Z" fill="#263238"/>
<path d="M145.558 93.6805H144.743L142.498 66.0938H143.313L145.558 93.6805Z" fill="#E0E0E0"/>
<path d="M147.452 90.3603H142.31L141.208 76.8281H146.35L147.452 90.3603Z" fill="#407BFF"/>
<path d="M99.0515 187.31H52.8788C49.9488 187.31 47.356 184.912 47.1171 181.982L44.8058 153.591C44.5669 150.661 46.7696 148.263 49.6996 148.263H95.8723C98.8029 148.263 101.395 150.661 101.634 153.591L103.945 181.982C104.184 184.913 101.982 187.31 99.0515 187.31Z" fill="white"/>
<path d="M99.0515 187.532H52.8789C49.8284 187.532 47.1444 185.051 46.8963 182.001L44.5849 153.61C44.4645 152.126 44.934 150.729 45.9075 149.672C46.8768 148.621 48.2239 148.042 49.7002 148.042H95.8729C98.9239 148.042 101.607 150.524 101.855 153.573L104.167 181.964C104.288 183.447 103.818 184.845 102.845 185.902C101.875 186.953 100.528 187.532 99.0515 187.532ZM49.7002 148.486C48.349 148.486 47.1177 149.014 46.234 149.973C45.3456 150.937 44.9171 152.216 45.0273 153.573L47.3386 181.964C47.5688 184.789 50.0544 187.088 52.8789 187.088H99.0515C100.403 187.088 101.634 186.559 102.518 185.6C103.406 184.637 103.835 183.358 103.724 182.001L101.413 153.61C101.182 150.784 98.6973 148.486 95.8724 148.486H49.7002Z" fill="#407BFF"/>
<path d="M55.9469 167.109L65.8986 178.608L77.3106 161.004L84.3681 170.101L86.0905 167.444L97.6256 181.27L53.3203 181.253L55.9469 167.109Z" fill="#407BFF"/>
<path d="M89.1701 167.823L84.5448 177.727L69.7927 154.304L62.8464 169.179L60.6201 165.644L53.3232 181.269L97.6254 181.247L89.1701 167.823Z" fill="#E0E0E0"/>
<path d="M184.139 102.367C185.374 104.684 186.435 106.974 187.434 109.36C188.408 111.747 189.31 114.172 190.013 116.734C190.192 117.369 190.348 118.025 190.497 118.684C190.556 118.908 190.701 119.621 190.7 120.074C190.723 120.577 190.684 121.031 190.622 121.465C190.344 123.169 189.747 124.475 189.097 125.709C187.769 128.153 186.168 130.178 184.306 132.09C183.747 132.663 182.829 132.676 182.255 132.117C181.787 131.661 181.693 130.966 181.978 130.413L182.014 130.344C183.113 128.222 184.201 125.984 184.937 123.86C185.29 122.807 185.571 121.73 185.569 120.937C185.563 120.748 185.557 120.574 185.529 120.453C185.517 120.39 185.505 120.333 185.486 120.302L185.391 120C185.22 119.448 185.044 118.896 184.839 118.339C184.063 116.114 183.103 113.879 182.106 111.662C181.113 109.451 180.044 107.204 178.987 105.067L178.966 105.024C178.254 103.584 178.844 101.84 180.284 101.128C181.696 100.429 183.402 100.987 184.139 102.367Z" fill="#407BFF"/>
<path d="M182.535 130.125L180.089 130.896L182.969 134.267C182.969 134.267 184.08 133.289 184.48 131.873C184.616 131.395 184.418 130.884 184.015 130.593L183.607 130.298C183.297 130.074 182.9 130.01 182.535 130.125Z" fill="#FF8B7B"/>
<path d="M176.719 132.974L179.804 135.422L182.968 134.267L180.089 130.896L176.719 132.974Z" fill="#FF8B7B"/>
<path d="M165.716 85.6924C165.914 85.7328 166.125 85.5197 166.187 85.2165C166.248 84.9133 166.138 84.6347 165.939 84.5944C165.741 84.554 165.53 84.767 165.468 85.0703C165.407 85.3735 165.517 85.652 165.716 85.6924Z" fill="#263238"/>
<path d="M167.636 83.7632C167.68 83.7632 167.725 83.7473 167.76 83.7145C167.834 83.6463 167.838 83.532 167.769 83.4577C167.087 82.7196 166.259 82.8503 166.223 82.8564C166.124 82.8733 166.058 82.9671 166.074 83.0661C166.092 83.1645 166.186 83.2306 166.283 83.2147C166.311 83.2106 166.958 83.1158 167.502 83.7043C167.538 83.7432 167.587 83.7632 167.636 83.7632Z" fill="#263238"/>
<path d="M174.605 90.741C174.055 93.5485 173.722 97.4371 175.686 99.3102C175.686 99.3102 174.918 102.158 169.703 102.158C163.968 102.158 166.944 99.6587 166.944 99.6587C169.328 98.919 169.307 96.2038 168.762 94.0227L174.605 90.741Z" fill="#FF8B7B"/>
<path d="M165.939 99.2198C165.939 99.2198 166.775 97.2381 167.63 96.8962C168.484 96.5548 173.923 95.6603 175.176 96.4492C176.429 97.2381 177.276 99.7724 177.276 99.7724L165.939 99.2198Z" fill="#407BFF"/>
<path d="M171.687 230.475C171.195 230.475 170.719 230.408 170.559 230.187C170.504 230.109 170.46 229.978 170.567 229.789C170.627 229.684 170.724 229.613 170.855 229.577C171.493 229.403 172.834 230.167 172.891 230.201C172.924 230.219 172.942 230.256 172.936 230.294C172.93 230.331 172.901 230.361 172.864 230.369C172.619 230.416 172.146 230.475 171.687 230.475ZM171.079 229.731C171.014 229.731 170.956 229.738 170.903 229.751C170.819 229.775 170.761 229.816 170.724 229.879C170.66 229.991 170.684 230.047 170.707 230.08C170.886 230.328 171.855 230.334 172.569 230.233C172.213 230.05 171.527 229.731 171.079 229.731Z" fill="#407BFF"/>
<path d="M172.847 230.369C172.834 230.369 172.821 230.366 172.809 230.361C172.346 230.153 171.429 229.324 171.499 228.89C171.515 228.788 171.588 228.661 171.837 228.636C172.023 228.617 172.192 228.669 172.341 228.792C172.829 229.193 172.932 230.226 172.937 230.27C172.94 230.302 172.926 230.334 172.899 230.352C172.883 230.364 172.865 230.369 172.847 230.369ZM171.91 228.814C171.892 228.814 171.874 228.815 171.856 228.817C171.692 228.833 171.681 228.898 171.678 228.919C171.636 229.179 172.26 229.831 172.732 230.115C172.683 229.813 172.546 229.195 172.226 228.932C172.129 228.853 172.025 228.814 171.91 228.814Z" fill="#407BFF"/>
<path d="M177.065 230.278H173.229L172.847 221.393H176.683L177.065 230.278Z" fill="#FF8B7B"/>
<path d="M173.254 229.834H177.444C177.601 229.834 177.737 229.943 177.77 230.096L178.529 233.507C178.607 233.86 178.338 234.195 177.977 234.189C176.465 234.163 174.281 234.074 172.381 234.074C170.16 234.074 169.891 234.196 167.286 234.196C165.711 234.196 165.274 232.604 165.933 232.459C168.935 231.802 169.736 231.732 172.33 230.132C172.611 229.96 172.922 229.834 173.254 229.834Z" fill="#263238"/>
<path d="M182.556 99.323C186.152 100.147 188.524 109.851 188.524 109.851L182.521 114.362C182.521 114.362 179.245 112.332 178.066 107.74C176.829 102.929 178.879 98.4803 182.556 99.323Z" fill="#263238"/>
<path opacity="0.2" d="M179.474 106.074C181.428 108.006 182.689 111.057 182.841 114.117L182.522 114.363C182.522 114.363 179.244 112.331 178.064 107.74C177.991 107.452 177.928 107.165 177.876 106.883L179.474 106.074Z" fill="black"/>
<path d="M195.483 113.764L166.354 125.405L175.012 147.068L204.141 135.427L195.483 113.764Z" fill="#407BFF"/>
<path opacity="0.5" d="M195.056 113.935L166.355 125.405L175.012 147.068L203.713 135.599L195.056 113.935Z" fill="white"/>
<g opacity="0.5">
<path opacity="0.5" d="M171.605 125.529L168.888 126.615L169.657 128.541L172.375 127.456L171.605 125.529Z" fill="#407BFF"/>
<path opacity="0.5" d="M176.101 123.725L173.384 124.811L174.154 126.737L176.871 125.651L176.101 123.725Z" fill="#407BFF"/>
<path opacity="0.5" d="M180.588 121.932L177.871 123.017L178.64 124.944L181.357 123.858L180.588 121.932Z" fill="#407BFF"/>
<path opacity="0.5" d="M185.074 120.138L182.357 121.224L183.127 123.151L185.844 122.065L185.074 120.138Z" fill="#407BFF"/>
<path opacity="0.5" d="M189.561 118.345L186.844 119.431L187.614 121.357L190.331 120.271L189.561 118.345Z" fill="#407BFF"/>
<path opacity="0.5" d="M194.035 116.556L191.318 117.643L192.088 119.569L194.805 118.482L194.035 116.556Z" fill="#407BFF"/>
<path opacity="0.5" d="M172.876 128.709L170.158 129.795L170.928 131.722L173.645 130.636L172.876 128.709Z" fill="#407BFF"/>
<path opacity="0.5" d="M177.372 126.905L174.655 127.991L175.424 129.917L178.141 128.831L177.372 126.905Z" fill="#407BFF"/>
<path opacity="0.5" d="M181.859 125.112L179.142 126.198L179.911 128.124L182.628 127.038L181.859 125.112Z" fill="#407BFF"/>
<path opacity="0.5" d="M186.345 123.318L183.628 124.404L184.398 126.331L187.115 125.245L186.345 123.318Z" fill="#407BFF"/>
<path opacity="0.5" d="M190.832 121.526L188.115 122.611L188.885 124.538L191.602 123.452L190.832 121.526Z" fill="#407BFF"/>
<path opacity="0.5" d="M195.31 119.745L192.592 120.831L193.362 122.757L196.079 121.671L195.31 119.745Z" fill="#407BFF"/>
<path opacity="0.5" d="M174.144 131.882L171.427 132.969L172.197 134.895L174.914 133.809L174.144 131.882Z" fill="#407BFF"/>
<path opacity="0.5" d="M178.63 130.089L175.913 131.176L176.683 133.102L179.4 132.015L178.63 130.089Z" fill="#407BFF"/>
<path opacity="0.5" d="M183.117 128.296L180.399 129.383L181.169 131.309L183.887 130.222L183.117 128.296Z" fill="#407BFF"/>
<path opacity="0.5" d="M187.603 126.503L184.886 127.59L185.656 129.516L188.373 128.429L187.603 126.503Z" fill="#407BFF"/>
<path opacity="0.5" d="M192.09 124.71L189.373 125.797L190.143 127.723L192.86 126.637L192.09 124.71Z" fill="#407BFF"/>
<path opacity="0.5" d="M196.598 122.92L193.88 124.007L194.65 125.933L197.368 124.847L196.598 122.92Z" fill="#407BFF"/>
<path opacity="0.5" d="M175.427 135.059L172.71 136.145L173.48 138.071L176.197 136.985L175.427 135.059Z" fill="#407BFF"/>
<path opacity="0.5" d="M179.914 133.266L177.197 134.352L177.967 136.278L180.684 135.192L179.914 133.266Z" fill="#407BFF"/>
<path opacity="0.5" d="M184.401 131.472L181.684 132.558L182.453 134.484L185.17 133.399L184.401 131.472Z" fill="#407BFF"/>
<path opacity="0.5" d="M188.887 129.68L186.17 130.765L186.94 132.692L189.657 131.606L188.887 129.68Z" fill="#407BFF"/>
<path opacity="0.5" d="M193.374 127.886L190.657 128.972L191.427 130.898L194.144 129.812L193.374 127.886Z" fill="#407BFF"/>
<path opacity="0.5" d="M197.851 126.106L195.134 127.192L195.903 129.118L198.621 128.032L197.851 126.106Z" fill="#407BFF"/>
<path opacity="0.5" d="M176.698 138.239L173.981 139.325L174.751 141.251L177.468 140.165L176.698 138.239Z" fill="#407BFF"/>
<path opacity="0.5" d="M181.185 136.446L178.468 137.532L179.238 139.458L181.955 138.372L181.185 136.446Z" fill="#407BFF"/>
<path opacity="0.5" d="M185.672 134.652L182.955 135.738L183.725 137.664L186.442 136.579L185.672 134.652Z" fill="#407BFF"/>
<path opacity="0.5" d="M190.149 132.872L187.432 133.958L188.201 135.884L190.919 134.798L190.149 132.872Z" fill="#407BFF"/>
<path opacity="0.5" d="M194.636 131.079L191.918 132.164L192.688 134.091L195.406 133.005L194.636 131.079Z" fill="#407BFF"/>
<path opacity="0.5" d="M199.123 129.286L196.405 130.372L197.175 132.298L199.892 131.212L199.123 129.286Z" fill="#407BFF"/>
<path opacity="0.5" d="M177.956 141.423L175.239 142.509L176.009 144.435L178.727 143.349L177.956 141.423Z" fill="#407BFF"/>
<path opacity="0.5" d="M182.443 139.63L179.726 140.717L180.496 142.643L183.213 141.556L182.443 139.63Z" fill="#407BFF"/>
<path opacity="0.5" d="M186.95 137.842L184.233 138.928L185.003 140.855L187.72 139.768L186.95 137.842Z" fill="#407BFF"/>
<path opacity="0.5" d="M191.437 136.049L188.72 137.135L189.49 139.062L192.207 137.976L191.437 136.049Z" fill="#407BFF"/>
<path opacity="0.5" d="M195.926 134.248L193.208 135.335L193.977 137.261L196.695 136.174L195.926 134.248Z" fill="#407BFF"/>
<path opacity="0.5" d="M200.412 132.462L197.694 133.549L198.464 135.475L201.182 134.389L200.412 132.462Z" fill="#407BFF"/>
</g>
<path d="M193.828 121.147C194.277 121.147 194.641 120.783 194.641 120.334C194.641 119.885 194.277 119.521 193.828 119.521C193.379 119.521 193.015 119.885 193.015 120.334C193.015 120.783 193.379 121.147 193.828 121.147Z" fill="white"/>
<path d="M193.154 132.481C193.603 132.481 193.967 132.117 193.967 131.668C193.967 131.219 193.603 130.855 193.154 130.855C192.705 130.855 192.341 131.219 192.341 131.668C192.341 132.117 192.705 132.481 193.154 132.481Z" fill="white"/>
<path d="M182.91 132.887C183.359 132.887 183.723 132.523 183.723 132.074C183.723 131.625 183.359 131.261 182.91 131.261C182.461 131.261 182.097 131.625 182.097 132.074C182.097 132.523 182.461 132.887 182.91 132.887Z" fill="white"/>
<path d="M176.479 142.835C176.928 142.835 177.292 142.471 177.292 142.022C177.292 141.573 176.928 141.209 176.479 141.209C176.03 141.209 175.666 141.573 175.666 142.022C175.666 142.471 176.03 142.835 176.479 142.835Z" fill="white"/>
<path d="M176.478 142.323C176.422 142.323 176.365 142.308 176.314 142.274C176.175 142.184 176.135 141.997 176.225 141.858L182.657 131.91C182.71 131.828 182.8 131.777 182.898 131.773L192.87 131.378L193.527 120.316C193.537 120.15 193.684 120.026 193.846 120.033C194.012 120.043 194.139 120.186 194.129 120.352L193.455 131.686C193.446 131.841 193.321 131.963 193.167 131.969L183.078 132.369L176.732 142.185C176.674 142.274 176.577 142.323 176.478 142.323Z" fill="white"/>
<path d="M159.832 103.17C159.048 107.315 158.557 115.827 160.834 132.683H181.356C180.986 129.76 179.518 114.166 182.556 99.3231C182.556 99.3231 179.039 98.6172 175.686 98.4558C173.064 98.3291 169.268 98.2461 166.963 98.4563C166.001 98.5439 165.056 98.6823 164.215 98.8315C161.996 99.2241 160.251 100.956 159.832 103.17Z" fill="#263238"/>
<path opacity="0.2" d="M163.059 109.553L159.205 109.86C159.066 114.848 159.41 122.127 160.835 132.682H161.019C163.331 125.079 166.396 114.212 163.059 109.553Z" fill="black"/>
<path opacity="0.2" d="M172.848 221.396L173.043 225.975H176.882L176.686 221.396H172.848Z" fill="black"/>
<path d="M176.428 86.6345C175.443 90.3125 175.053 92.5156 172.783 94.0447C169.369 96.3453 165.118 93.7054 164.986 89.8065C164.866 86.2973 166.498 80.8719 170.445 80.1312C174.333 79.4012 177.414 82.9566 176.428 86.6345Z" fill="#FF8B7B"/>
<path d="M167.817 86.6585L165.824 87.1767L167.678 82.3655C167.477 81.9979 166.949 80.3258 167.508 78.6547C167.655 78.2139 168.06 77.9156 168.525 77.9063C172.657 77.8259 176.976 80.1454 179.153 81.8995C179.573 82.2373 179.675 82.8324 179.395 83.2922C178.918 84.0724 178.301 84.6701 177.523 85.4606C177.482 86.8077 175.283 92.8948 174.065 93.5787C172.848 94.2619 170.52 93.9841 169.9 92.8738C169.281 91.763 167.188 90.2893 167.817 86.6585Z" fill="#263238"/>
<path d="M169.663 86.7348C169.439 87.7067 168.827 88.5535 168.178 89.0651C167.199 89.835 166.435 89.1246 166.475 87.9932C166.511 86.9747 167.063 85.3472 168.156 85.0155C169.232 84.6895 169.919 85.6235 169.663 86.7348Z" fill="#FF8B7B"/>
<path d="M204.747 229.151C204.744 228.659 204.808 228.182 205.029 228.022C205.106 227.965 205.237 227.921 205.425 228.027C205.531 228.086 205.604 228.183 205.64 228.314C205.818 228.951 205.062 230.297 205.03 230.354C205.012 230.386 204.974 230.404 204.937 230.399C204.899 230.393 204.869 230.364 204.862 230.327C204.811 230.083 204.75 229.609 204.747 229.151ZM205.487 228.538C205.487 228.473 205.48 228.415 205.465 228.362C205.442 228.278 205.4 228.22 205.337 228.184C205.224 228.121 205.168 228.145 205.136 228.168C204.89 228.348 204.89 229.318 204.995 230.031C205.175 229.674 205.489 228.986 205.487 228.538Z" fill="#407BFF"/>
<path d="M204.86 230.309C204.86 230.296 204.863 230.283 204.869 230.272C205.073 229.807 205.897 228.885 206.332 228.952C206.434 228.968 206.561 229.039 206.588 229.289C206.608 229.475 206.557 229.644 206.436 229.793C206.038 230.284 205.005 230.394 204.961 230.399C204.929 230.402 204.898 230.388 204.879 230.362C204.866 230.347 204.86 230.328 204.86 230.309ZM206.41 229.363C206.41 229.345 206.409 229.327 206.407 229.309C206.389 229.146 206.325 229.135 206.304 229.132C206.043 229.092 205.396 229.72 205.114 230.193C205.415 230.142 206.033 230.002 206.294 229.679C206.373 229.582 206.41 229.478 206.41 229.363Z" fill="#407BFF"/>
<path d="M204.918 230.334L201.174 230.599L199.071 221.643L202.815 221.378L204.918 230.334Z" fill="#FF8B7B"/>
<path d="M204.906 229.475L200.732 229.105C200.576 229.092 200.431 229.188 200.383 229.337L199.328 232.668C199.219 233.013 199.456 233.37 199.818 233.396C201.326 233.504 203.509 233.608 205.402 233.775C207.614 233.971 206.182 233.966 208.776 234.196C210.345 234.335 210.921 232.787 210.277 232.585C207.345 231.666 206.815 231.032 205.801 229.853C205.584 229.603 205.235 229.504 204.906 229.475Z" fill="#263238"/>
<path opacity="0.2" d="M199.072 221.646L200.155 226.262L203.902 225.997L202.818 221.38L199.072 221.646Z" fill="black"/>
<path d="M168.114 132.683C168.114 132.683 176.939 162.154 180.288 173.094C183.955 185.074 197.907 224.817 197.907 224.817L204.672 223.331C204.672 223.331 195.115 189.184 191.152 172.476C188.108 159.643 181.356 132.683 181.356 132.683H168.114Z" fill="#407BFF"/>
<path d="M196.719 222.725C196.688 222.728 197.384 225.368 197.384 225.368L205.521 224.494L205.484 222.075L196.719 222.725Z" fill="#263238"/>
<path opacity="0.3" d="M173.002 146.343C177.885 146.986 179.83 164.006 180.561 173.993C180.468 173.677 180.371 173.377 180.286 173.093C178.459 167.12 174.998 155.61 172.231 146.397C172.461 146.321 172.721 146.304 173.002 146.343Z" fill="black"/>
<path d="M160.834 132.683C160.834 132.683 163.795 161.386 165.07 173.07C166.396 185.224 171.375 225.088 171.375 225.088H177.874C177.874 225.088 177.087 185.951 176.825 173.999C176.539 160.969 174.324 132.682 174.324 132.682H160.834V132.683Z" fill="#407BFF"/>
<path d="M170.363 222.5C170.333 222.5 170.729 225.198 170.729 225.198H178.636L178.85 222.79L170.363 222.5Z" fill="#263238"/>
<path d="M133.077 159.688C136.465 165.061 143.568 166.67 148.941 163.283C154.315 159.895 155.925 152.793 152.537 147.42C149.15 142.047 142.046 140.436 136.673 143.823C131.3 147.21 129.69 154.314 133.077 159.688ZM150.997 148.39C153.849 152.913 152.493 158.892 147.971 161.743C143.447 164.595 137.468 163.24 134.617 158.718C131.765 154.194 133.12 148.215 137.644 145.363C142.166 142.511 148.145 143.867 150.997 148.39Z" fill="#263238"/>
<path opacity="0.2" d="M142.806 162.426C147.706 162.426 151.679 158.454 151.679 153.554C151.679 148.654 147.706 144.681 142.806 144.681C137.906 144.681 133.934 148.654 133.934 153.554C133.934 158.454 137.906 162.426 142.806 162.426Z" fill="#407BFF"/>
<path d="M152.853 146.025L153.931 147.735C154.095 147.995 154.017 148.339 153.757 148.502C153.497 148.666 153.154 148.588 152.99 148.329L151.911 146.619C151.747 146.358 151.826 146.015 152.085 145.851C152.345 145.687 152.689 145.766 152.853 146.025Z" fill="#263238"/>
<path d="M159.828 141.162C158.582 142.014 157.345 142.881 156.123 143.771C154.902 144.662 153.691 145.57 152.517 146.535C152.253 146.751 152.158 147.127 152.309 147.45C152.488 147.831 152.943 147.997 153.325 147.818C154.702 147.174 156.044 146.473 157.374 145.755C158.704 145.038 160.019 144.294 161.325 143.537C162.435 142.891 163.537 142.231 164.633 141.562C164.949 141.369 165.045 140.954 164.848 140.641L163.959 139.233C163.763 138.92 163.346 138.828 163.036 139.03C161.961 139.73 160.89 140.44 159.828 141.162Z" fill="#263238"/>
<path d="M165.544 104.606C164.916 107.683 164.243 110.749 163.544 113.808L161.418 122.961C160.731 125.944 160.142 128.971 159.602 132.039L157.989 141.268L157.986 141.289C157.848 142.076 157.098 142.603 156.311 142.466C155.625 142.346 155.137 141.76 155.114 141.09C155.003 137.886 155.052 134.718 155.232 131.529C155.423 128.35 155.717 125.143 156.24 121.952C156.739 118.816 157.301 115.715 157.902 112.618C158.501 109.522 159.152 106.438 159.861 103.368C160.223 101.803 161.784 100.828 163.349 101.19C164.888 101.546 165.856 103.067 165.544 104.606Z" fill="#407BFF"/>
<path d="M157.548 140.435C157.289 140.161 156.899 140.047 156.532 140.134L155.698 140.333C155.271 140.435 154.951 140.79 154.895 141.225L154.653 143.076C154.584 143.606 154.697 144.144 154.973 144.602L156.118 146.495C156.419 146.894 156.924 147.083 157.412 146.979L158.606 146.725C159.354 146.567 159.8 145.796 159.564 145.068L159.252 144.104C159.252 144.104 159.233 142.217 157.548 140.435Z" fill="#FF8B7B"/>
<path d="M169.537 102.826C171.403 107.774 164.951 114.832 164.951 114.832L156.787 112.132C156.787 112.132 157.411 105.38 160.245 101.573C163.745 96.8709 168.117 99.0592 169.537 102.826Z" fill="#263238"/>
</g>
</svg>
