<svg width="100" height="100" viewBox="0 0 100 100" fill="none" xmlns="http://www.w3.org/2000/svg">
<path fill-rule="evenodd" clip-rule="evenodd" d="M30.3102 62.744C29.2222 61.836 28.0252 60.976 26.9962 59.951C20.3462 53.369 13.6702 46.816 7.1272 40.126C-2.2778 30.526 -2.36579 16.024 6.81021 6.814C15.9802 -2.395 30.4632 -2.26801 40.0782 7.18499C46.5822 13.573 53.0422 20.018 59.4052 26.541C70.4262 37.859 68.5992 55.253 55.7372 63.349C53.5102 64.755 52.1592 64.531 50.5122 62.538C47.1192 58.407 47.1392 55.106 50.9122 51.513C55.3222 47.294 55.9672 41.053 51.7812 36.6C44.8282 29.198 37.6162 22.01 30.2582 15.008C26.0692 11.023 19.5782 11.57 15.5452 15.672C11.4342 19.861 11.1902 26.297 15.3162 30.701C20.0532 35.76 25.0182 40.594 29.9462 45.468C31.2882 46.796 31.6302 47.997 31.3032 49.989C30.6382 54.033 30.6282 58.174 30.3102 62.744ZM68.4512 49.814C68.0992 51.953 68.5052 53.212 69.9652 54.628C74.5212 59.052 78.9892 63.564 83.4372 68.095C88.4762 73.232 88.6812 79.785 84.0192 84.395C79.5562 88.799 72.9192 88.487 67.9682 83.565C61.9072 77.549 55.8632 71.503 49.8662 65.419C43.4502 58.915 43.6112 53.398 50.3152 47.128C52.3912 45.185 52.1312 40.984 49.7582 37.996C47.4202 35.057 46.2082 34.92 42.9322 37.244C31.6372 45.243 29.5472 61.454 38.9132 71.649C46.0132 79.384 53.4552 86.845 61.1502 93.984C70.5102 102.666 84.5642 101.777 93.5582 92.431C101.883 83.779 101.742 69.198 93.1772 60.369C88.7632 55.818 84.2452 51.355 79.7392 46.892C76.3302 43.523 72.8632 40.202 69.4112 36.852C69.1012 41.63 69.1202 45.781 68.4512 49.814Z" fill="url(#paint0_linear)"/>
<defs>
<linearGradient id="paint0_linear" x1="-2.7645" y1="22.97" x2="102.473" y2="77.0549" gradientUnits="userSpaceOnUse">
<stop offset="0.0837" stop-color="#40D5E7"/>
<stop offset="1" stop-color="#009EFD"/>
</linearGradient>
</defs>
</svg>
